M48
; DRILL file {KiCad (5.1.6)-1} date 09/05/20 01:30:23
; FORMAT={-:-/ absolute / inch / decimal}
; #@! TF.CreationDate,2020-09-05T01:30:23-05:00
; #@! TF.GenerationSoftware,Kicad,Pcbnew,(5.1.6)-1
; #@! TF.FileFunction,Plated,1,2,PTH
FMAT,2
INCH
T1C0.0197
T2C0.0315
T3C0.0339
T4C0.0394
T5C0.0472
T6C0.0512
T7C0.0551
T8C0.0720
T9C0.0984
T10C0.1260
%
G90
G05
T1
X7.2874Y-5.2362
X7.3151Y-5.1694
X7.3151Y-5.303
X7.3819Y-5.1417
X7.3819Y-5.3307
X7.4487Y-5.1694
X7.4487Y-5.303
X7.4764Y-5.2362
X4.0394Y-2.4409
X4.067Y-2.3741
X4.067Y-2.5078
X4.1339Y-2.3465
X4.1339Y-2.5354
X4.2007Y-2.3741
X4.2007Y-2.5078
X4.2283Y-2.4409
X7.2874Y-2.4409
X7.3151Y-2.3741
X7.3151Y-2.5078
X7.3819Y-2.3465
X7.3819Y-2.5354
X7.4487Y-2.3741
X7.4487Y-2.5078
X7.4764Y-2.4409
X4.0492Y-5.2461
X4.0769Y-5.1792
X4.0769Y-5.3129
X4.1437Y-5.1516
X4.1437Y-5.3406
X4.2105Y-5.1792
X4.2105Y-5.3129
X4.2382Y-5.2461
T2
X4.9409Y-4.5472
X5.1378Y-4.5472
X4.9409Y-4.3504
X5.1378Y-4.3504
X4.9409Y-4.4488
X5.1378Y-4.4488
X4.626Y-4.8228
X4.626Y-4.9016
X4.7441Y-3.8976
X4.9409Y-3.8976
X5.9843Y-3.1102
X6.1811Y-3.1102
X6.6732Y-5.0984
X6.6732Y-5.2953
X6.8264Y-5.0276
X7.0232Y-5.0276
X4.9409Y-4.252
X5.1378Y-4.252
T3
X6.0236Y-3.3858
X6.0236Y-3.4646
X6.0236Y-3.5433
X6.0236Y-3.622
X6.0236Y-3.7008
X6.0236Y-3.7795
X6.0236Y-3.8583
X6.0236Y-3.937
X6.0236Y-4.0157
X6.0236Y-4.0945
X6.0236Y-4.1732
X6.0236Y-4.252
X6.1811Y-3.3465
X6.1811Y-3.4252
X6.1811Y-3.5039
X6.1811Y-3.5827
X6.1811Y-3.6614
X6.1811Y-3.7402
X6.1811Y-3.8189
X6.1811Y-3.8976
X6.1811Y-3.9764
X6.1811Y-4.0551
X6.1811Y-4.1339
X6.1811Y-4.2126
X6.1811Y-4.2913
T4
X6.6535Y-3.3268
X6.6535Y-3.878
X5.8661Y-5.0984
X5.8661Y-5.2953
X5.3543Y-5.0984
X5.3543Y-5.2953
X6.3583Y-2.3622
X6.3583Y-2.5591
X4.6063Y-4.2504
X4.6063Y-4.3504
X4.6063Y-4.4504
X4.6063Y-4.5504
X4.8425Y-5.0984
X4.8425Y-5.2953
X5.8661Y-2.3622
X5.8661Y-2.5591
X6.9488Y-2.4606
X6.9488Y-2.5606
X4.8425Y-2.3622
X4.8425Y-2.5591
X6.3583Y-5.0984
X6.3583Y-5.2953
X5.3543Y-2.3622
X5.3543Y-2.5591
T5
X5.6024Y-4.5472
X6.1024Y-4.5472
X6.4173Y-3.3268
X6.4173Y-3.8268
X4.7638Y-3.2283
X4.7638Y-3.7283
X4.9409Y-3.2205
X4.9409Y-3.7205
T6
X7.2835Y-4.4685
X7.2835Y-4.6685
X7.2835Y-3.9929
X7.2835Y-4.1929
X7.2835Y-3.048
X7.2835Y-3.248
X7.2835Y-3.5205
X7.2835Y-3.7205
T7
X4.3406Y-4.3307
X4.3406Y-4.8819
T8
X4.0526Y-2.8246
X4.0526Y-3.1496
X4.0526Y-3.4746
T9
X4.1496Y-4.7244
X4.1535Y-4.1732
T10
X7.3819Y-5.2362
X4.1339Y-2.4409
X7.3819Y-2.4409
X5.6299Y-3.315
X5.6299Y-4.3228
X4.1437Y-5.2461
X5.4921Y-2.815
X6.2402Y-4.8496
T0
M30
