G04 #@! TF.GenerationSoftware,KiCad,Pcbnew,(5.1.6)-1*
G04 #@! TF.CreationDate,2020-09-05T01:30:18-05:00*
G04 #@! TF.ProjectId,amplificador-200w,616d706c-6966-4696-9361-646f722d3230,rev?*
G04 #@! TF.SameCoordinates,Original*
G04 #@! TF.FileFunction,Legend,Top*
G04 #@! TF.FilePolarity,Positive*
%FSLAX46Y46*%
G04 Gerber Fmt 4.6, Leading zero omitted, Abs format (unit mm)*
G04 Created by KiCad (PCBNEW (5.1.6)-1) date 2020-09-05 01:30:18*
%MOMM*%
%LPD*%
G01*
G04 APERTURE LIST*
%ADD10C,0.400000*%
%ADD11C,0.120000*%
%ADD12C,0.200000*%
%ADD13C,0.127000*%
%ADD14C,0.150000*%
G04 APERTURE END LIST*
D10*
X114750000Y-91904761D02*
X114630952Y-92142857D01*
X114630952Y-92500000D01*
X114750000Y-92857142D01*
X114988095Y-93095238D01*
X115226190Y-93214285D01*
X115702380Y-93333333D01*
X116059523Y-93333333D01*
X116535714Y-93214285D01*
X116773809Y-93095238D01*
X117011904Y-92857142D01*
X117130952Y-92500000D01*
X117130952Y-92261904D01*
X117011904Y-91904761D01*
X116892857Y-91785714D01*
X116059523Y-91785714D01*
X116059523Y-92261904D01*
X117130952Y-90714285D02*
X114630952Y-90714285D01*
X117130952Y-89285714D01*
X114630952Y-89285714D01*
X117130952Y-88095238D02*
X114630952Y-88095238D01*
X114630952Y-87500000D01*
X114750000Y-87142857D01*
X114988095Y-86904761D01*
X115226190Y-86785714D01*
X115702380Y-86666666D01*
X116059523Y-86666666D01*
X116535714Y-86785714D01*
X116773809Y-86904761D01*
X117011904Y-87142857D01*
X117130952Y-87500000D01*
X117130952Y-88095238D01*
X114630952Y-81380952D02*
X117130952Y-80547619D01*
X114630952Y-79714285D01*
X116178571Y-78880952D02*
X116178571Y-76976190D01*
X117130952Y-77928571D02*
X115226190Y-77928571D01*
X117380952Y-70726190D02*
X116190476Y-71559523D01*
X117380952Y-72154761D02*
X114880952Y-72154761D01*
X114880952Y-71202380D01*
X115000000Y-70964285D01*
X115119047Y-70845238D01*
X115357142Y-70726190D01*
X115714285Y-70726190D01*
X115952380Y-70845238D01*
X116071428Y-70964285D01*
X116190476Y-71202380D01*
X116190476Y-72154761D01*
D11*
X121500000Y-124840000D02*
X121500000Y-69840000D01*
X121500000Y-69840000D02*
X176500000Y-69840000D01*
X176500000Y-69840000D02*
X176500000Y-124840000D01*
X176500000Y-124840000D02*
X121500000Y-124840000D01*
X175170000Y-66370000D02*
X177830000Y-66370000D01*
X175170000Y-63770000D02*
X175170000Y-66370000D01*
X177830000Y-63770000D02*
X177830000Y-66370000D01*
X175170000Y-63770000D02*
X177830000Y-63770000D01*
X175170000Y-62500000D02*
X175170000Y-61170000D01*
X175170000Y-61170000D02*
X176500000Y-61170000D01*
X166620000Y-132000000D02*
G75*
G03*
X166620000Y-132000000I-5120000J0D01*
G01*
X156420000Y-132000000D02*
X166580000Y-132000000D01*
X156420000Y-131960000D02*
X166580000Y-131960000D01*
X156420000Y-131920000D02*
X166580000Y-131920000D01*
X156421000Y-131880000D02*
X166579000Y-131880000D01*
X156422000Y-131840000D02*
X166578000Y-131840000D01*
X156423000Y-131800000D02*
X166577000Y-131800000D01*
X156425000Y-131760000D02*
X166575000Y-131760000D01*
X156427000Y-131720000D02*
X166573000Y-131720000D01*
X156430000Y-131680000D02*
X166570000Y-131680000D01*
X156432000Y-131640000D02*
X166568000Y-131640000D01*
X156435000Y-131600000D02*
X166565000Y-131600000D01*
X156438000Y-131560000D02*
X166562000Y-131560000D01*
X156442000Y-131520000D02*
X166558000Y-131520000D01*
X156446000Y-131480000D02*
X166554000Y-131480000D01*
X156450000Y-131440000D02*
X166550000Y-131440000D01*
X156455000Y-131400000D02*
X166545000Y-131400000D01*
X156460000Y-131360000D02*
X166540000Y-131360000D01*
X156465000Y-131320000D02*
X166535000Y-131320000D01*
X156470000Y-131279000D02*
X166530000Y-131279000D01*
X156476000Y-131239000D02*
X166524000Y-131239000D01*
X156482000Y-131199000D02*
X166518000Y-131199000D01*
X156489000Y-131159000D02*
X166511000Y-131159000D01*
X156496000Y-131119000D02*
X166504000Y-131119000D01*
X156503000Y-131079000D02*
X166497000Y-131079000D01*
X156510000Y-131039000D02*
X166490000Y-131039000D01*
X156518000Y-130999000D02*
X166482000Y-130999000D01*
X156526000Y-130959000D02*
X166474000Y-130959000D01*
X156535000Y-130919000D02*
X166465000Y-130919000D01*
X156544000Y-130879000D02*
X166456000Y-130879000D01*
X156553000Y-130839000D02*
X166447000Y-130839000D01*
X156562000Y-130799000D02*
X166438000Y-130799000D01*
X156572000Y-130759000D02*
X166428000Y-130759000D01*
X156582000Y-130719000D02*
X160259000Y-130719000D01*
X162741000Y-130719000D02*
X166418000Y-130719000D01*
X156593000Y-130679000D02*
X160259000Y-130679000D01*
X162741000Y-130679000D02*
X166407000Y-130679000D01*
X156603000Y-130639000D02*
X160259000Y-130639000D01*
X162741000Y-130639000D02*
X166397000Y-130639000D01*
X156615000Y-130599000D02*
X160259000Y-130599000D01*
X162741000Y-130599000D02*
X166385000Y-130599000D01*
X156626000Y-130559000D02*
X160259000Y-130559000D01*
X162741000Y-130559000D02*
X166374000Y-130559000D01*
X156638000Y-130519000D02*
X160259000Y-130519000D01*
X162741000Y-130519000D02*
X166362000Y-130519000D01*
X156650000Y-130479000D02*
X160259000Y-130479000D01*
X162741000Y-130479000D02*
X166350000Y-130479000D01*
X156663000Y-130439000D02*
X160259000Y-130439000D01*
X162741000Y-130439000D02*
X166337000Y-130439000D01*
X156676000Y-130399000D02*
X160259000Y-130399000D01*
X162741000Y-130399000D02*
X166324000Y-130399000D01*
X156689000Y-130359000D02*
X160259000Y-130359000D01*
X162741000Y-130359000D02*
X166311000Y-130359000D01*
X156703000Y-130319000D02*
X160259000Y-130319000D01*
X162741000Y-130319000D02*
X166297000Y-130319000D01*
X156717000Y-130279000D02*
X160259000Y-130279000D01*
X162741000Y-130279000D02*
X166283000Y-130279000D01*
X156732000Y-130239000D02*
X160259000Y-130239000D01*
X162741000Y-130239000D02*
X166268000Y-130239000D01*
X156746000Y-130199000D02*
X160259000Y-130199000D01*
X162741000Y-130199000D02*
X166254000Y-130199000D01*
X156762000Y-130159000D02*
X160259000Y-130159000D01*
X162741000Y-130159000D02*
X166238000Y-130159000D01*
X156777000Y-130119000D02*
X160259000Y-130119000D01*
X162741000Y-130119000D02*
X166223000Y-130119000D01*
X156793000Y-130079000D02*
X160259000Y-130079000D01*
X162741000Y-130079000D02*
X166207000Y-130079000D01*
X156810000Y-130039000D02*
X160259000Y-130039000D01*
X162741000Y-130039000D02*
X166190000Y-130039000D01*
X156826000Y-129999000D02*
X160259000Y-129999000D01*
X162741000Y-129999000D02*
X166174000Y-129999000D01*
X156843000Y-129959000D02*
X160259000Y-129959000D01*
X162741000Y-129959000D02*
X166157000Y-129959000D01*
X156861000Y-129919000D02*
X160259000Y-129919000D01*
X162741000Y-129919000D02*
X166139000Y-129919000D01*
X156879000Y-129879000D02*
X160259000Y-129879000D01*
X162741000Y-129879000D02*
X166121000Y-129879000D01*
X156897000Y-129839000D02*
X160259000Y-129839000D01*
X162741000Y-129839000D02*
X166103000Y-129839000D01*
X156916000Y-129799000D02*
X160259000Y-129799000D01*
X162741000Y-129799000D02*
X166084000Y-129799000D01*
X156936000Y-129759000D02*
X160259000Y-129759000D01*
X162741000Y-129759000D02*
X166064000Y-129759000D01*
X156955000Y-129719000D02*
X160259000Y-129719000D01*
X162741000Y-129719000D02*
X166045000Y-129719000D01*
X156975000Y-129679000D02*
X160259000Y-129679000D01*
X162741000Y-129679000D02*
X166025000Y-129679000D01*
X156996000Y-129639000D02*
X160259000Y-129639000D01*
X162741000Y-129639000D02*
X166004000Y-129639000D01*
X157017000Y-129599000D02*
X160259000Y-129599000D01*
X162741000Y-129599000D02*
X165983000Y-129599000D01*
X157038000Y-129559000D02*
X160259000Y-129559000D01*
X162741000Y-129559000D02*
X165962000Y-129559000D01*
X157060000Y-129519000D02*
X160259000Y-129519000D01*
X162741000Y-129519000D02*
X165940000Y-129519000D01*
X157083000Y-129479000D02*
X160259000Y-129479000D01*
X162741000Y-129479000D02*
X165917000Y-129479000D01*
X157105000Y-129439000D02*
X160259000Y-129439000D01*
X162741000Y-129439000D02*
X165895000Y-129439000D01*
X157129000Y-129399000D02*
X160259000Y-129399000D01*
X162741000Y-129399000D02*
X165871000Y-129399000D01*
X157153000Y-129359000D02*
X160259000Y-129359000D01*
X162741000Y-129359000D02*
X165847000Y-129359000D01*
X157177000Y-129319000D02*
X160259000Y-129319000D01*
X162741000Y-129319000D02*
X165823000Y-129319000D01*
X157202000Y-129279000D02*
X160259000Y-129279000D01*
X162741000Y-129279000D02*
X165798000Y-129279000D01*
X157227000Y-129239000D02*
X160259000Y-129239000D01*
X162741000Y-129239000D02*
X165773000Y-129239000D01*
X157253000Y-129199000D02*
X160259000Y-129199000D01*
X162741000Y-129199000D02*
X165747000Y-129199000D01*
X157279000Y-129159000D02*
X160259000Y-129159000D01*
X162741000Y-129159000D02*
X165721000Y-129159000D01*
X157306000Y-129119000D02*
X160259000Y-129119000D01*
X162741000Y-129119000D02*
X165694000Y-129119000D01*
X157334000Y-129079000D02*
X160259000Y-129079000D01*
X162741000Y-129079000D02*
X165666000Y-129079000D01*
X157362000Y-129039000D02*
X160259000Y-129039000D01*
X162741000Y-129039000D02*
X165638000Y-129039000D01*
X157390000Y-128999000D02*
X160259000Y-128999000D01*
X162741000Y-128999000D02*
X165610000Y-128999000D01*
X157420000Y-128959000D02*
X160259000Y-128959000D01*
X162741000Y-128959000D02*
X165580000Y-128959000D01*
X157450000Y-128919000D02*
X160259000Y-128919000D01*
X162741000Y-128919000D02*
X165550000Y-128919000D01*
X157480000Y-128879000D02*
X160259000Y-128879000D01*
X162741000Y-128879000D02*
X165520000Y-128879000D01*
X157511000Y-128839000D02*
X160259000Y-128839000D01*
X162741000Y-128839000D02*
X165489000Y-128839000D01*
X157543000Y-128799000D02*
X160259000Y-128799000D01*
X162741000Y-128799000D02*
X165457000Y-128799000D01*
X157575000Y-128759000D02*
X160259000Y-128759000D01*
X162741000Y-128759000D02*
X165425000Y-128759000D01*
X157608000Y-128719000D02*
X160259000Y-128719000D01*
X162741000Y-128719000D02*
X165392000Y-128719000D01*
X157642000Y-128679000D02*
X160259000Y-128679000D01*
X162741000Y-128679000D02*
X165358000Y-128679000D01*
X157676000Y-128639000D02*
X160259000Y-128639000D01*
X162741000Y-128639000D02*
X165324000Y-128639000D01*
X157711000Y-128599000D02*
X160259000Y-128599000D01*
X162741000Y-128599000D02*
X165289000Y-128599000D01*
X157747000Y-128559000D02*
X160259000Y-128559000D01*
X162741000Y-128559000D02*
X165253000Y-128559000D01*
X157784000Y-128519000D02*
X160259000Y-128519000D01*
X162741000Y-128519000D02*
X165216000Y-128519000D01*
X157821000Y-128479000D02*
X160259000Y-128479000D01*
X162741000Y-128479000D02*
X165179000Y-128479000D01*
X157860000Y-128439000D02*
X160259000Y-128439000D01*
X162741000Y-128439000D02*
X165140000Y-128439000D01*
X157899000Y-128399000D02*
X160259000Y-128399000D01*
X162741000Y-128399000D02*
X165101000Y-128399000D01*
X157939000Y-128359000D02*
X160259000Y-128359000D01*
X162741000Y-128359000D02*
X165061000Y-128359000D01*
X157980000Y-128319000D02*
X160259000Y-128319000D01*
X162741000Y-128319000D02*
X165020000Y-128319000D01*
X158022000Y-128279000D02*
X160259000Y-128279000D01*
X162741000Y-128279000D02*
X164978000Y-128279000D01*
X158064000Y-128239000D02*
X164936000Y-128239000D01*
X158108000Y-128199000D02*
X164892000Y-128199000D01*
X158153000Y-128159000D02*
X164847000Y-128159000D01*
X158199000Y-128119000D02*
X164801000Y-128119000D01*
X158246000Y-128079000D02*
X164754000Y-128079000D01*
X158294000Y-128039000D02*
X164706000Y-128039000D01*
X158344000Y-127999000D02*
X164656000Y-127999000D01*
X158394000Y-127959000D02*
X164606000Y-127959000D01*
X158446000Y-127919000D02*
X164554000Y-127919000D01*
X158500000Y-127879000D02*
X164500000Y-127879000D01*
X158555000Y-127839000D02*
X164445000Y-127839000D01*
X158611000Y-127799000D02*
X164389000Y-127799000D01*
X158670000Y-127759000D02*
X164330000Y-127759000D01*
X158730000Y-127719000D02*
X164270000Y-127719000D01*
X158791000Y-127679000D02*
X164209000Y-127679000D01*
X158855000Y-127639000D02*
X164145000Y-127639000D01*
X158921000Y-127599000D02*
X164079000Y-127599000D01*
X158990000Y-127559000D02*
X164010000Y-127559000D01*
X159061000Y-127519000D02*
X163939000Y-127519000D01*
X159135000Y-127479000D02*
X163865000Y-127479000D01*
X159211000Y-127439000D02*
X163789000Y-127439000D01*
X159291000Y-127399000D02*
X163709000Y-127399000D01*
X159375000Y-127359000D02*
X163625000Y-127359000D01*
X159463000Y-127319000D02*
X163537000Y-127319000D01*
X159556000Y-127279000D02*
X163444000Y-127279000D01*
X159654000Y-127239000D02*
X163346000Y-127239000D01*
X159758000Y-127199000D02*
X163242000Y-127199000D01*
X159870000Y-127159000D02*
X163130000Y-127159000D01*
X159990000Y-127119000D02*
X163010000Y-127119000D01*
X160122000Y-127079000D02*
X162878000Y-127079000D01*
X160270000Y-127039000D02*
X162730000Y-127039000D01*
X160438000Y-126999000D02*
X162562000Y-126999000D01*
X160638000Y-126959000D02*
X162362000Y-126959000D01*
X160901000Y-126919000D02*
X162099000Y-126919000D01*
X158625000Y-137479646D02*
X158625000Y-136479646D01*
X158125000Y-136979646D02*
X159125000Y-136979646D01*
X166620000Y-62500000D02*
G75*
G03*
X166620000Y-62500000I-5120000J0D01*
G01*
X166580000Y-62500000D02*
X156420000Y-62500000D01*
X166580000Y-62540000D02*
X156420000Y-62540000D01*
X166580000Y-62580000D02*
X156420000Y-62580000D01*
X166579000Y-62620000D02*
X156421000Y-62620000D01*
X166578000Y-62660000D02*
X156422000Y-62660000D01*
X166577000Y-62700000D02*
X156423000Y-62700000D01*
X166575000Y-62740000D02*
X156425000Y-62740000D01*
X166573000Y-62780000D02*
X156427000Y-62780000D01*
X166570000Y-62820000D02*
X156430000Y-62820000D01*
X166568000Y-62860000D02*
X156432000Y-62860000D01*
X166565000Y-62900000D02*
X156435000Y-62900000D01*
X166562000Y-62940000D02*
X156438000Y-62940000D01*
X166558000Y-62980000D02*
X156442000Y-62980000D01*
X166554000Y-63020000D02*
X156446000Y-63020000D01*
X166550000Y-63060000D02*
X156450000Y-63060000D01*
X166545000Y-63100000D02*
X156455000Y-63100000D01*
X166540000Y-63140000D02*
X156460000Y-63140000D01*
X166535000Y-63180000D02*
X156465000Y-63180000D01*
X166530000Y-63221000D02*
X156470000Y-63221000D01*
X166524000Y-63261000D02*
X156476000Y-63261000D01*
X166518000Y-63301000D02*
X156482000Y-63301000D01*
X166511000Y-63341000D02*
X156489000Y-63341000D01*
X166504000Y-63381000D02*
X156496000Y-63381000D01*
X166497000Y-63421000D02*
X156503000Y-63421000D01*
X166490000Y-63461000D02*
X156510000Y-63461000D01*
X166482000Y-63501000D02*
X156518000Y-63501000D01*
X166474000Y-63541000D02*
X156526000Y-63541000D01*
X166465000Y-63581000D02*
X156535000Y-63581000D01*
X166456000Y-63621000D02*
X156544000Y-63621000D01*
X166447000Y-63661000D02*
X156553000Y-63661000D01*
X166438000Y-63701000D02*
X156562000Y-63701000D01*
X166428000Y-63741000D02*
X156572000Y-63741000D01*
X166418000Y-63781000D02*
X162741000Y-63781000D01*
X160259000Y-63781000D02*
X156582000Y-63781000D01*
X166407000Y-63821000D02*
X162741000Y-63821000D01*
X160259000Y-63821000D02*
X156593000Y-63821000D01*
X166397000Y-63861000D02*
X162741000Y-63861000D01*
X160259000Y-63861000D02*
X156603000Y-63861000D01*
X166385000Y-63901000D02*
X162741000Y-63901000D01*
X160259000Y-63901000D02*
X156615000Y-63901000D01*
X166374000Y-63941000D02*
X162741000Y-63941000D01*
X160259000Y-63941000D02*
X156626000Y-63941000D01*
X166362000Y-63981000D02*
X162741000Y-63981000D01*
X160259000Y-63981000D02*
X156638000Y-63981000D01*
X166350000Y-64021000D02*
X162741000Y-64021000D01*
X160259000Y-64021000D02*
X156650000Y-64021000D01*
X166337000Y-64061000D02*
X162741000Y-64061000D01*
X160259000Y-64061000D02*
X156663000Y-64061000D01*
X166324000Y-64101000D02*
X162741000Y-64101000D01*
X160259000Y-64101000D02*
X156676000Y-64101000D01*
X166311000Y-64141000D02*
X162741000Y-64141000D01*
X160259000Y-64141000D02*
X156689000Y-64141000D01*
X166297000Y-64181000D02*
X162741000Y-64181000D01*
X160259000Y-64181000D02*
X156703000Y-64181000D01*
X166283000Y-64221000D02*
X162741000Y-64221000D01*
X160259000Y-64221000D02*
X156717000Y-64221000D01*
X166268000Y-64261000D02*
X162741000Y-64261000D01*
X160259000Y-64261000D02*
X156732000Y-64261000D01*
X166254000Y-64301000D02*
X162741000Y-64301000D01*
X160259000Y-64301000D02*
X156746000Y-64301000D01*
X166238000Y-64341000D02*
X162741000Y-64341000D01*
X160259000Y-64341000D02*
X156762000Y-64341000D01*
X166223000Y-64381000D02*
X162741000Y-64381000D01*
X160259000Y-64381000D02*
X156777000Y-64381000D01*
X166207000Y-64421000D02*
X162741000Y-64421000D01*
X160259000Y-64421000D02*
X156793000Y-64421000D01*
X166190000Y-64461000D02*
X162741000Y-64461000D01*
X160259000Y-64461000D02*
X156810000Y-64461000D01*
X166174000Y-64501000D02*
X162741000Y-64501000D01*
X160259000Y-64501000D02*
X156826000Y-64501000D01*
X166157000Y-64541000D02*
X162741000Y-64541000D01*
X160259000Y-64541000D02*
X156843000Y-64541000D01*
X166139000Y-64581000D02*
X162741000Y-64581000D01*
X160259000Y-64581000D02*
X156861000Y-64581000D01*
X166121000Y-64621000D02*
X162741000Y-64621000D01*
X160259000Y-64621000D02*
X156879000Y-64621000D01*
X166103000Y-64661000D02*
X162741000Y-64661000D01*
X160259000Y-64661000D02*
X156897000Y-64661000D01*
X166084000Y-64701000D02*
X162741000Y-64701000D01*
X160259000Y-64701000D02*
X156916000Y-64701000D01*
X166064000Y-64741000D02*
X162741000Y-64741000D01*
X160259000Y-64741000D02*
X156936000Y-64741000D01*
X166045000Y-64781000D02*
X162741000Y-64781000D01*
X160259000Y-64781000D02*
X156955000Y-64781000D01*
X166025000Y-64821000D02*
X162741000Y-64821000D01*
X160259000Y-64821000D02*
X156975000Y-64821000D01*
X166004000Y-64861000D02*
X162741000Y-64861000D01*
X160259000Y-64861000D02*
X156996000Y-64861000D01*
X165983000Y-64901000D02*
X162741000Y-64901000D01*
X160259000Y-64901000D02*
X157017000Y-64901000D01*
X165962000Y-64941000D02*
X162741000Y-64941000D01*
X160259000Y-64941000D02*
X157038000Y-64941000D01*
X165940000Y-64981000D02*
X162741000Y-64981000D01*
X160259000Y-64981000D02*
X157060000Y-64981000D01*
X165917000Y-65021000D02*
X162741000Y-65021000D01*
X160259000Y-65021000D02*
X157083000Y-65021000D01*
X165895000Y-65061000D02*
X162741000Y-65061000D01*
X160259000Y-65061000D02*
X157105000Y-65061000D01*
X165871000Y-65101000D02*
X162741000Y-65101000D01*
X160259000Y-65101000D02*
X157129000Y-65101000D01*
X165847000Y-65141000D02*
X162741000Y-65141000D01*
X160259000Y-65141000D02*
X157153000Y-65141000D01*
X165823000Y-65181000D02*
X162741000Y-65181000D01*
X160259000Y-65181000D02*
X157177000Y-65181000D01*
X165798000Y-65221000D02*
X162741000Y-65221000D01*
X160259000Y-65221000D02*
X157202000Y-65221000D01*
X165773000Y-65261000D02*
X162741000Y-65261000D01*
X160259000Y-65261000D02*
X157227000Y-65261000D01*
X165747000Y-65301000D02*
X162741000Y-65301000D01*
X160259000Y-65301000D02*
X157253000Y-65301000D01*
X165721000Y-65341000D02*
X162741000Y-65341000D01*
X160259000Y-65341000D02*
X157279000Y-65341000D01*
X165694000Y-65381000D02*
X162741000Y-65381000D01*
X160259000Y-65381000D02*
X157306000Y-65381000D01*
X165666000Y-65421000D02*
X162741000Y-65421000D01*
X160259000Y-65421000D02*
X157334000Y-65421000D01*
X165638000Y-65461000D02*
X162741000Y-65461000D01*
X160259000Y-65461000D02*
X157362000Y-65461000D01*
X165610000Y-65501000D02*
X162741000Y-65501000D01*
X160259000Y-65501000D02*
X157390000Y-65501000D01*
X165580000Y-65541000D02*
X162741000Y-65541000D01*
X160259000Y-65541000D02*
X157420000Y-65541000D01*
X165550000Y-65581000D02*
X162741000Y-65581000D01*
X160259000Y-65581000D02*
X157450000Y-65581000D01*
X165520000Y-65621000D02*
X162741000Y-65621000D01*
X160259000Y-65621000D02*
X157480000Y-65621000D01*
X165489000Y-65661000D02*
X162741000Y-65661000D01*
X160259000Y-65661000D02*
X157511000Y-65661000D01*
X165457000Y-65701000D02*
X162741000Y-65701000D01*
X160259000Y-65701000D02*
X157543000Y-65701000D01*
X165425000Y-65741000D02*
X162741000Y-65741000D01*
X160259000Y-65741000D02*
X157575000Y-65741000D01*
X165392000Y-65781000D02*
X162741000Y-65781000D01*
X160259000Y-65781000D02*
X157608000Y-65781000D01*
X165358000Y-65821000D02*
X162741000Y-65821000D01*
X160259000Y-65821000D02*
X157642000Y-65821000D01*
X165324000Y-65861000D02*
X162741000Y-65861000D01*
X160259000Y-65861000D02*
X157676000Y-65861000D01*
X165289000Y-65901000D02*
X162741000Y-65901000D01*
X160259000Y-65901000D02*
X157711000Y-65901000D01*
X165253000Y-65941000D02*
X162741000Y-65941000D01*
X160259000Y-65941000D02*
X157747000Y-65941000D01*
X165216000Y-65981000D02*
X162741000Y-65981000D01*
X160259000Y-65981000D02*
X157784000Y-65981000D01*
X165179000Y-66021000D02*
X162741000Y-66021000D01*
X160259000Y-66021000D02*
X157821000Y-66021000D01*
X165140000Y-66061000D02*
X162741000Y-66061000D01*
X160259000Y-66061000D02*
X157860000Y-66061000D01*
X165101000Y-66101000D02*
X162741000Y-66101000D01*
X160259000Y-66101000D02*
X157899000Y-66101000D01*
X165061000Y-66141000D02*
X162741000Y-66141000D01*
X160259000Y-66141000D02*
X157939000Y-66141000D01*
X165020000Y-66181000D02*
X162741000Y-66181000D01*
X160259000Y-66181000D02*
X157980000Y-66181000D01*
X164978000Y-66221000D02*
X162741000Y-66221000D01*
X160259000Y-66221000D02*
X158022000Y-66221000D01*
X164936000Y-66261000D02*
X158064000Y-66261000D01*
X164892000Y-66301000D02*
X158108000Y-66301000D01*
X164847000Y-66341000D02*
X158153000Y-66341000D01*
X164801000Y-66381000D02*
X158199000Y-66381000D01*
X164754000Y-66421000D02*
X158246000Y-66421000D01*
X164706000Y-66461000D02*
X158294000Y-66461000D01*
X164656000Y-66501000D02*
X158344000Y-66501000D01*
X164606000Y-66541000D02*
X158394000Y-66541000D01*
X164554000Y-66581000D02*
X158446000Y-66581000D01*
X164500000Y-66621000D02*
X158500000Y-66621000D01*
X164445000Y-66661000D02*
X158555000Y-66661000D01*
X164389000Y-66701000D02*
X158611000Y-66701000D01*
X164330000Y-66741000D02*
X158670000Y-66741000D01*
X164270000Y-66781000D02*
X158730000Y-66781000D01*
X164209000Y-66821000D02*
X158791000Y-66821000D01*
X164145000Y-66861000D02*
X158855000Y-66861000D01*
X164079000Y-66901000D02*
X158921000Y-66901000D01*
X164010000Y-66941000D02*
X158990000Y-66941000D01*
X163939000Y-66981000D02*
X159061000Y-66981000D01*
X163865000Y-67021000D02*
X159135000Y-67021000D01*
X163789000Y-67061000D02*
X159211000Y-67061000D01*
X163709000Y-67101000D02*
X159291000Y-67101000D01*
X163625000Y-67141000D02*
X159375000Y-67141000D01*
X163537000Y-67181000D02*
X159463000Y-67181000D01*
X163444000Y-67221000D02*
X159556000Y-67221000D01*
X163346000Y-67261000D02*
X159654000Y-67261000D01*
X163242000Y-67301000D02*
X159758000Y-67301000D01*
X163130000Y-67341000D02*
X159870000Y-67341000D01*
X163010000Y-67381000D02*
X159990000Y-67381000D01*
X162878000Y-67421000D02*
X160122000Y-67421000D01*
X162730000Y-67461000D02*
X160270000Y-67461000D01*
X162562000Y-67501000D02*
X160438000Y-67501000D01*
X162362000Y-67541000D02*
X160638000Y-67541000D01*
X162099000Y-67581000D02*
X160901000Y-67581000D01*
X164375000Y-57020354D02*
X164375000Y-58020354D01*
X164875000Y-57520354D02*
X163875000Y-57520354D01*
X154120000Y-132000000D02*
G75*
G03*
X154120000Y-132000000I-5120000J0D01*
G01*
X143920000Y-132000000D02*
X154080000Y-132000000D01*
X143920000Y-131960000D02*
X154080000Y-131960000D01*
X143920000Y-131920000D02*
X154080000Y-131920000D01*
X143921000Y-131880000D02*
X154079000Y-131880000D01*
X143922000Y-131840000D02*
X154078000Y-131840000D01*
X143923000Y-131800000D02*
X154077000Y-131800000D01*
X143925000Y-131760000D02*
X154075000Y-131760000D01*
X143927000Y-131720000D02*
X154073000Y-131720000D01*
X143930000Y-131680000D02*
X154070000Y-131680000D01*
X143932000Y-131640000D02*
X154068000Y-131640000D01*
X143935000Y-131600000D02*
X154065000Y-131600000D01*
X143938000Y-131560000D02*
X154062000Y-131560000D01*
X143942000Y-131520000D02*
X154058000Y-131520000D01*
X143946000Y-131480000D02*
X154054000Y-131480000D01*
X143950000Y-131440000D02*
X154050000Y-131440000D01*
X143955000Y-131400000D02*
X154045000Y-131400000D01*
X143960000Y-131360000D02*
X154040000Y-131360000D01*
X143965000Y-131320000D02*
X154035000Y-131320000D01*
X143970000Y-131279000D02*
X154030000Y-131279000D01*
X143976000Y-131239000D02*
X154024000Y-131239000D01*
X143982000Y-131199000D02*
X154018000Y-131199000D01*
X143989000Y-131159000D02*
X154011000Y-131159000D01*
X143996000Y-131119000D02*
X154004000Y-131119000D01*
X144003000Y-131079000D02*
X153997000Y-131079000D01*
X144010000Y-131039000D02*
X153990000Y-131039000D01*
X144018000Y-130999000D02*
X153982000Y-130999000D01*
X144026000Y-130959000D02*
X153974000Y-130959000D01*
X144035000Y-130919000D02*
X153965000Y-130919000D01*
X144044000Y-130879000D02*
X153956000Y-130879000D01*
X144053000Y-130839000D02*
X153947000Y-130839000D01*
X144062000Y-130799000D02*
X153938000Y-130799000D01*
X144072000Y-130759000D02*
X153928000Y-130759000D01*
X144082000Y-130719000D02*
X147759000Y-130719000D01*
X150241000Y-130719000D02*
X153918000Y-130719000D01*
X144093000Y-130679000D02*
X147759000Y-130679000D01*
X150241000Y-130679000D02*
X153907000Y-130679000D01*
X144103000Y-130639000D02*
X147759000Y-130639000D01*
X150241000Y-130639000D02*
X153897000Y-130639000D01*
X144115000Y-130599000D02*
X147759000Y-130599000D01*
X150241000Y-130599000D02*
X153885000Y-130599000D01*
X144126000Y-130559000D02*
X147759000Y-130559000D01*
X150241000Y-130559000D02*
X153874000Y-130559000D01*
X144138000Y-130519000D02*
X147759000Y-130519000D01*
X150241000Y-130519000D02*
X153862000Y-130519000D01*
X144150000Y-130479000D02*
X147759000Y-130479000D01*
X150241000Y-130479000D02*
X153850000Y-130479000D01*
X144163000Y-130439000D02*
X147759000Y-130439000D01*
X150241000Y-130439000D02*
X153837000Y-130439000D01*
X144176000Y-130399000D02*
X147759000Y-130399000D01*
X150241000Y-130399000D02*
X153824000Y-130399000D01*
X144189000Y-130359000D02*
X147759000Y-130359000D01*
X150241000Y-130359000D02*
X153811000Y-130359000D01*
X144203000Y-130319000D02*
X147759000Y-130319000D01*
X150241000Y-130319000D02*
X153797000Y-130319000D01*
X144217000Y-130279000D02*
X147759000Y-130279000D01*
X150241000Y-130279000D02*
X153783000Y-130279000D01*
X144232000Y-130239000D02*
X147759000Y-130239000D01*
X150241000Y-130239000D02*
X153768000Y-130239000D01*
X144246000Y-130199000D02*
X147759000Y-130199000D01*
X150241000Y-130199000D02*
X153754000Y-130199000D01*
X144262000Y-130159000D02*
X147759000Y-130159000D01*
X150241000Y-130159000D02*
X153738000Y-130159000D01*
X144277000Y-130119000D02*
X147759000Y-130119000D01*
X150241000Y-130119000D02*
X153723000Y-130119000D01*
X144293000Y-130079000D02*
X147759000Y-130079000D01*
X150241000Y-130079000D02*
X153707000Y-130079000D01*
X144310000Y-130039000D02*
X147759000Y-130039000D01*
X150241000Y-130039000D02*
X153690000Y-130039000D01*
X144326000Y-129999000D02*
X147759000Y-129999000D01*
X150241000Y-129999000D02*
X153674000Y-129999000D01*
X144343000Y-129959000D02*
X147759000Y-129959000D01*
X150241000Y-129959000D02*
X153657000Y-129959000D01*
X144361000Y-129919000D02*
X147759000Y-129919000D01*
X150241000Y-129919000D02*
X153639000Y-129919000D01*
X144379000Y-129879000D02*
X147759000Y-129879000D01*
X150241000Y-129879000D02*
X153621000Y-129879000D01*
X144397000Y-129839000D02*
X147759000Y-129839000D01*
X150241000Y-129839000D02*
X153603000Y-129839000D01*
X144416000Y-129799000D02*
X147759000Y-129799000D01*
X150241000Y-129799000D02*
X153584000Y-129799000D01*
X144436000Y-129759000D02*
X147759000Y-129759000D01*
X150241000Y-129759000D02*
X153564000Y-129759000D01*
X144455000Y-129719000D02*
X147759000Y-129719000D01*
X150241000Y-129719000D02*
X153545000Y-129719000D01*
X144475000Y-129679000D02*
X147759000Y-129679000D01*
X150241000Y-129679000D02*
X153525000Y-129679000D01*
X144496000Y-129639000D02*
X147759000Y-129639000D01*
X150241000Y-129639000D02*
X153504000Y-129639000D01*
X144517000Y-129599000D02*
X147759000Y-129599000D01*
X150241000Y-129599000D02*
X153483000Y-129599000D01*
X144538000Y-129559000D02*
X147759000Y-129559000D01*
X150241000Y-129559000D02*
X153462000Y-129559000D01*
X144560000Y-129519000D02*
X147759000Y-129519000D01*
X150241000Y-129519000D02*
X153440000Y-129519000D01*
X144583000Y-129479000D02*
X147759000Y-129479000D01*
X150241000Y-129479000D02*
X153417000Y-129479000D01*
X144605000Y-129439000D02*
X147759000Y-129439000D01*
X150241000Y-129439000D02*
X153395000Y-129439000D01*
X144629000Y-129399000D02*
X147759000Y-129399000D01*
X150241000Y-129399000D02*
X153371000Y-129399000D01*
X144653000Y-129359000D02*
X147759000Y-129359000D01*
X150241000Y-129359000D02*
X153347000Y-129359000D01*
X144677000Y-129319000D02*
X147759000Y-129319000D01*
X150241000Y-129319000D02*
X153323000Y-129319000D01*
X144702000Y-129279000D02*
X147759000Y-129279000D01*
X150241000Y-129279000D02*
X153298000Y-129279000D01*
X144727000Y-129239000D02*
X147759000Y-129239000D01*
X150241000Y-129239000D02*
X153273000Y-129239000D01*
X144753000Y-129199000D02*
X147759000Y-129199000D01*
X150241000Y-129199000D02*
X153247000Y-129199000D01*
X144779000Y-129159000D02*
X147759000Y-129159000D01*
X150241000Y-129159000D02*
X153221000Y-129159000D01*
X144806000Y-129119000D02*
X147759000Y-129119000D01*
X150241000Y-129119000D02*
X153194000Y-129119000D01*
X144834000Y-129079000D02*
X147759000Y-129079000D01*
X150241000Y-129079000D02*
X153166000Y-129079000D01*
X144862000Y-129039000D02*
X147759000Y-129039000D01*
X150241000Y-129039000D02*
X153138000Y-129039000D01*
X144890000Y-128999000D02*
X147759000Y-128999000D01*
X150241000Y-128999000D02*
X153110000Y-128999000D01*
X144920000Y-128959000D02*
X147759000Y-128959000D01*
X150241000Y-128959000D02*
X153080000Y-128959000D01*
X144950000Y-128919000D02*
X147759000Y-128919000D01*
X150241000Y-128919000D02*
X153050000Y-128919000D01*
X144980000Y-128879000D02*
X147759000Y-128879000D01*
X150241000Y-128879000D02*
X153020000Y-128879000D01*
X145011000Y-128839000D02*
X147759000Y-128839000D01*
X150241000Y-128839000D02*
X152989000Y-128839000D01*
X145043000Y-128799000D02*
X147759000Y-128799000D01*
X150241000Y-128799000D02*
X152957000Y-128799000D01*
X145075000Y-128759000D02*
X147759000Y-128759000D01*
X150241000Y-128759000D02*
X152925000Y-128759000D01*
X145108000Y-128719000D02*
X147759000Y-128719000D01*
X150241000Y-128719000D02*
X152892000Y-128719000D01*
X145142000Y-128679000D02*
X147759000Y-128679000D01*
X150241000Y-128679000D02*
X152858000Y-128679000D01*
X145176000Y-128639000D02*
X147759000Y-128639000D01*
X150241000Y-128639000D02*
X152824000Y-128639000D01*
X145211000Y-128599000D02*
X147759000Y-128599000D01*
X150241000Y-128599000D02*
X152789000Y-128599000D01*
X145247000Y-128559000D02*
X147759000Y-128559000D01*
X150241000Y-128559000D02*
X152753000Y-128559000D01*
X145284000Y-128519000D02*
X147759000Y-128519000D01*
X150241000Y-128519000D02*
X152716000Y-128519000D01*
X145321000Y-128479000D02*
X147759000Y-128479000D01*
X150241000Y-128479000D02*
X152679000Y-128479000D01*
X145360000Y-128439000D02*
X147759000Y-128439000D01*
X150241000Y-128439000D02*
X152640000Y-128439000D01*
X145399000Y-128399000D02*
X147759000Y-128399000D01*
X150241000Y-128399000D02*
X152601000Y-128399000D01*
X145439000Y-128359000D02*
X147759000Y-128359000D01*
X150241000Y-128359000D02*
X152561000Y-128359000D01*
X145480000Y-128319000D02*
X147759000Y-128319000D01*
X150241000Y-128319000D02*
X152520000Y-128319000D01*
X145522000Y-128279000D02*
X147759000Y-128279000D01*
X150241000Y-128279000D02*
X152478000Y-128279000D01*
X145564000Y-128239000D02*
X152436000Y-128239000D01*
X145608000Y-128199000D02*
X152392000Y-128199000D01*
X145653000Y-128159000D02*
X152347000Y-128159000D01*
X145699000Y-128119000D02*
X152301000Y-128119000D01*
X145746000Y-128079000D02*
X152254000Y-128079000D01*
X145794000Y-128039000D02*
X152206000Y-128039000D01*
X145844000Y-127999000D02*
X152156000Y-127999000D01*
X145894000Y-127959000D02*
X152106000Y-127959000D01*
X145946000Y-127919000D02*
X152054000Y-127919000D01*
X146000000Y-127879000D02*
X152000000Y-127879000D01*
X146055000Y-127839000D02*
X151945000Y-127839000D01*
X146111000Y-127799000D02*
X151889000Y-127799000D01*
X146170000Y-127759000D02*
X151830000Y-127759000D01*
X146230000Y-127719000D02*
X151770000Y-127719000D01*
X146291000Y-127679000D02*
X151709000Y-127679000D01*
X146355000Y-127639000D02*
X151645000Y-127639000D01*
X146421000Y-127599000D02*
X151579000Y-127599000D01*
X146490000Y-127559000D02*
X151510000Y-127559000D01*
X146561000Y-127519000D02*
X151439000Y-127519000D01*
X146635000Y-127479000D02*
X151365000Y-127479000D01*
X146711000Y-127439000D02*
X151289000Y-127439000D01*
X146791000Y-127399000D02*
X151209000Y-127399000D01*
X146875000Y-127359000D02*
X151125000Y-127359000D01*
X146963000Y-127319000D02*
X151037000Y-127319000D01*
X147056000Y-127279000D02*
X150944000Y-127279000D01*
X147154000Y-127239000D02*
X150846000Y-127239000D01*
X147258000Y-127199000D02*
X150742000Y-127199000D01*
X147370000Y-127159000D02*
X150630000Y-127159000D01*
X147490000Y-127119000D02*
X150510000Y-127119000D01*
X147622000Y-127079000D02*
X150378000Y-127079000D01*
X147770000Y-127039000D02*
X150230000Y-127039000D01*
X147938000Y-126999000D02*
X150062000Y-126999000D01*
X148138000Y-126959000D02*
X149862000Y-126959000D01*
X148401000Y-126919000D02*
X149599000Y-126919000D01*
X146125000Y-137479646D02*
X146125000Y-136479646D01*
X145625000Y-136979646D02*
X146625000Y-136979646D01*
X154120000Y-62500000D02*
G75*
G03*
X154120000Y-62500000I-5120000J0D01*
G01*
X154080000Y-62500000D02*
X143920000Y-62500000D01*
X154080000Y-62540000D02*
X143920000Y-62540000D01*
X154080000Y-62580000D02*
X143920000Y-62580000D01*
X154079000Y-62620000D02*
X143921000Y-62620000D01*
X154078000Y-62660000D02*
X143922000Y-62660000D01*
X154077000Y-62700000D02*
X143923000Y-62700000D01*
X154075000Y-62740000D02*
X143925000Y-62740000D01*
X154073000Y-62780000D02*
X143927000Y-62780000D01*
X154070000Y-62820000D02*
X143930000Y-62820000D01*
X154068000Y-62860000D02*
X143932000Y-62860000D01*
X154065000Y-62900000D02*
X143935000Y-62900000D01*
X154062000Y-62940000D02*
X143938000Y-62940000D01*
X154058000Y-62980000D02*
X143942000Y-62980000D01*
X154054000Y-63020000D02*
X143946000Y-63020000D01*
X154050000Y-63060000D02*
X143950000Y-63060000D01*
X154045000Y-63100000D02*
X143955000Y-63100000D01*
X154040000Y-63140000D02*
X143960000Y-63140000D01*
X154035000Y-63180000D02*
X143965000Y-63180000D01*
X154030000Y-63221000D02*
X143970000Y-63221000D01*
X154024000Y-63261000D02*
X143976000Y-63261000D01*
X154018000Y-63301000D02*
X143982000Y-63301000D01*
X154011000Y-63341000D02*
X143989000Y-63341000D01*
X154004000Y-63381000D02*
X143996000Y-63381000D01*
X153997000Y-63421000D02*
X144003000Y-63421000D01*
X153990000Y-63461000D02*
X144010000Y-63461000D01*
X153982000Y-63501000D02*
X144018000Y-63501000D01*
X153974000Y-63541000D02*
X144026000Y-63541000D01*
X153965000Y-63581000D02*
X144035000Y-63581000D01*
X153956000Y-63621000D02*
X144044000Y-63621000D01*
X153947000Y-63661000D02*
X144053000Y-63661000D01*
X153938000Y-63701000D02*
X144062000Y-63701000D01*
X153928000Y-63741000D02*
X144072000Y-63741000D01*
X153918000Y-63781000D02*
X150241000Y-63781000D01*
X147759000Y-63781000D02*
X144082000Y-63781000D01*
X153907000Y-63821000D02*
X150241000Y-63821000D01*
X147759000Y-63821000D02*
X144093000Y-63821000D01*
X153897000Y-63861000D02*
X150241000Y-63861000D01*
X147759000Y-63861000D02*
X144103000Y-63861000D01*
X153885000Y-63901000D02*
X150241000Y-63901000D01*
X147759000Y-63901000D02*
X144115000Y-63901000D01*
X153874000Y-63941000D02*
X150241000Y-63941000D01*
X147759000Y-63941000D02*
X144126000Y-63941000D01*
X153862000Y-63981000D02*
X150241000Y-63981000D01*
X147759000Y-63981000D02*
X144138000Y-63981000D01*
X153850000Y-64021000D02*
X150241000Y-64021000D01*
X147759000Y-64021000D02*
X144150000Y-64021000D01*
X153837000Y-64061000D02*
X150241000Y-64061000D01*
X147759000Y-64061000D02*
X144163000Y-64061000D01*
X153824000Y-64101000D02*
X150241000Y-64101000D01*
X147759000Y-64101000D02*
X144176000Y-64101000D01*
X153811000Y-64141000D02*
X150241000Y-64141000D01*
X147759000Y-64141000D02*
X144189000Y-64141000D01*
X153797000Y-64181000D02*
X150241000Y-64181000D01*
X147759000Y-64181000D02*
X144203000Y-64181000D01*
X153783000Y-64221000D02*
X150241000Y-64221000D01*
X147759000Y-64221000D02*
X144217000Y-64221000D01*
X153768000Y-64261000D02*
X150241000Y-64261000D01*
X147759000Y-64261000D02*
X144232000Y-64261000D01*
X153754000Y-64301000D02*
X150241000Y-64301000D01*
X147759000Y-64301000D02*
X144246000Y-64301000D01*
X153738000Y-64341000D02*
X150241000Y-64341000D01*
X147759000Y-64341000D02*
X144262000Y-64341000D01*
X153723000Y-64381000D02*
X150241000Y-64381000D01*
X147759000Y-64381000D02*
X144277000Y-64381000D01*
X153707000Y-64421000D02*
X150241000Y-64421000D01*
X147759000Y-64421000D02*
X144293000Y-64421000D01*
X153690000Y-64461000D02*
X150241000Y-64461000D01*
X147759000Y-64461000D02*
X144310000Y-64461000D01*
X153674000Y-64501000D02*
X150241000Y-64501000D01*
X147759000Y-64501000D02*
X144326000Y-64501000D01*
X153657000Y-64541000D02*
X150241000Y-64541000D01*
X147759000Y-64541000D02*
X144343000Y-64541000D01*
X153639000Y-64581000D02*
X150241000Y-64581000D01*
X147759000Y-64581000D02*
X144361000Y-64581000D01*
X153621000Y-64621000D02*
X150241000Y-64621000D01*
X147759000Y-64621000D02*
X144379000Y-64621000D01*
X153603000Y-64661000D02*
X150241000Y-64661000D01*
X147759000Y-64661000D02*
X144397000Y-64661000D01*
X153584000Y-64701000D02*
X150241000Y-64701000D01*
X147759000Y-64701000D02*
X144416000Y-64701000D01*
X153564000Y-64741000D02*
X150241000Y-64741000D01*
X147759000Y-64741000D02*
X144436000Y-64741000D01*
X153545000Y-64781000D02*
X150241000Y-64781000D01*
X147759000Y-64781000D02*
X144455000Y-64781000D01*
X153525000Y-64821000D02*
X150241000Y-64821000D01*
X147759000Y-64821000D02*
X144475000Y-64821000D01*
X153504000Y-64861000D02*
X150241000Y-64861000D01*
X147759000Y-64861000D02*
X144496000Y-64861000D01*
X153483000Y-64901000D02*
X150241000Y-64901000D01*
X147759000Y-64901000D02*
X144517000Y-64901000D01*
X153462000Y-64941000D02*
X150241000Y-64941000D01*
X147759000Y-64941000D02*
X144538000Y-64941000D01*
X153440000Y-64981000D02*
X150241000Y-64981000D01*
X147759000Y-64981000D02*
X144560000Y-64981000D01*
X153417000Y-65021000D02*
X150241000Y-65021000D01*
X147759000Y-65021000D02*
X144583000Y-65021000D01*
X153395000Y-65061000D02*
X150241000Y-65061000D01*
X147759000Y-65061000D02*
X144605000Y-65061000D01*
X153371000Y-65101000D02*
X150241000Y-65101000D01*
X147759000Y-65101000D02*
X144629000Y-65101000D01*
X153347000Y-65141000D02*
X150241000Y-65141000D01*
X147759000Y-65141000D02*
X144653000Y-65141000D01*
X153323000Y-65181000D02*
X150241000Y-65181000D01*
X147759000Y-65181000D02*
X144677000Y-65181000D01*
X153298000Y-65221000D02*
X150241000Y-65221000D01*
X147759000Y-65221000D02*
X144702000Y-65221000D01*
X153273000Y-65261000D02*
X150241000Y-65261000D01*
X147759000Y-65261000D02*
X144727000Y-65261000D01*
X153247000Y-65301000D02*
X150241000Y-65301000D01*
X147759000Y-65301000D02*
X144753000Y-65301000D01*
X153221000Y-65341000D02*
X150241000Y-65341000D01*
X147759000Y-65341000D02*
X144779000Y-65341000D01*
X153194000Y-65381000D02*
X150241000Y-65381000D01*
X147759000Y-65381000D02*
X144806000Y-65381000D01*
X153166000Y-65421000D02*
X150241000Y-65421000D01*
X147759000Y-65421000D02*
X144834000Y-65421000D01*
X153138000Y-65461000D02*
X150241000Y-65461000D01*
X147759000Y-65461000D02*
X144862000Y-65461000D01*
X153110000Y-65501000D02*
X150241000Y-65501000D01*
X147759000Y-65501000D02*
X144890000Y-65501000D01*
X153080000Y-65541000D02*
X150241000Y-65541000D01*
X147759000Y-65541000D02*
X144920000Y-65541000D01*
X153050000Y-65581000D02*
X150241000Y-65581000D01*
X147759000Y-65581000D02*
X144950000Y-65581000D01*
X153020000Y-65621000D02*
X150241000Y-65621000D01*
X147759000Y-65621000D02*
X144980000Y-65621000D01*
X152989000Y-65661000D02*
X150241000Y-65661000D01*
X147759000Y-65661000D02*
X145011000Y-65661000D01*
X152957000Y-65701000D02*
X150241000Y-65701000D01*
X147759000Y-65701000D02*
X145043000Y-65701000D01*
X152925000Y-65741000D02*
X150241000Y-65741000D01*
X147759000Y-65741000D02*
X145075000Y-65741000D01*
X152892000Y-65781000D02*
X150241000Y-65781000D01*
X147759000Y-65781000D02*
X145108000Y-65781000D01*
X152858000Y-65821000D02*
X150241000Y-65821000D01*
X147759000Y-65821000D02*
X145142000Y-65821000D01*
X152824000Y-65861000D02*
X150241000Y-65861000D01*
X147759000Y-65861000D02*
X145176000Y-65861000D01*
X152789000Y-65901000D02*
X150241000Y-65901000D01*
X147759000Y-65901000D02*
X145211000Y-65901000D01*
X152753000Y-65941000D02*
X150241000Y-65941000D01*
X147759000Y-65941000D02*
X145247000Y-65941000D01*
X152716000Y-65981000D02*
X150241000Y-65981000D01*
X147759000Y-65981000D02*
X145284000Y-65981000D01*
X152679000Y-66021000D02*
X150241000Y-66021000D01*
X147759000Y-66021000D02*
X145321000Y-66021000D01*
X152640000Y-66061000D02*
X150241000Y-66061000D01*
X147759000Y-66061000D02*
X145360000Y-66061000D01*
X152601000Y-66101000D02*
X150241000Y-66101000D01*
X147759000Y-66101000D02*
X145399000Y-66101000D01*
X152561000Y-66141000D02*
X150241000Y-66141000D01*
X147759000Y-66141000D02*
X145439000Y-66141000D01*
X152520000Y-66181000D02*
X150241000Y-66181000D01*
X147759000Y-66181000D02*
X145480000Y-66181000D01*
X152478000Y-66221000D02*
X150241000Y-66221000D01*
X147759000Y-66221000D02*
X145522000Y-66221000D01*
X152436000Y-66261000D02*
X145564000Y-66261000D01*
X152392000Y-66301000D02*
X145608000Y-66301000D01*
X152347000Y-66341000D02*
X145653000Y-66341000D01*
X152301000Y-66381000D02*
X145699000Y-66381000D01*
X152254000Y-66421000D02*
X145746000Y-66421000D01*
X152206000Y-66461000D02*
X145794000Y-66461000D01*
X152156000Y-66501000D02*
X145844000Y-66501000D01*
X152106000Y-66541000D02*
X145894000Y-66541000D01*
X152054000Y-66581000D02*
X145946000Y-66581000D01*
X152000000Y-66621000D02*
X146000000Y-66621000D01*
X151945000Y-66661000D02*
X146055000Y-66661000D01*
X151889000Y-66701000D02*
X146111000Y-66701000D01*
X151830000Y-66741000D02*
X146170000Y-66741000D01*
X151770000Y-66781000D02*
X146230000Y-66781000D01*
X151709000Y-66821000D02*
X146291000Y-66821000D01*
X151645000Y-66861000D02*
X146355000Y-66861000D01*
X151579000Y-66901000D02*
X146421000Y-66901000D01*
X151510000Y-66941000D02*
X146490000Y-66941000D01*
X151439000Y-66981000D02*
X146561000Y-66981000D01*
X151365000Y-67021000D02*
X146635000Y-67021000D01*
X151289000Y-67061000D02*
X146711000Y-67061000D01*
X151209000Y-67101000D02*
X146791000Y-67101000D01*
X151125000Y-67141000D02*
X146875000Y-67141000D01*
X151037000Y-67181000D02*
X146963000Y-67181000D01*
X150944000Y-67221000D02*
X147056000Y-67221000D01*
X150846000Y-67261000D02*
X147154000Y-67261000D01*
X150742000Y-67301000D02*
X147258000Y-67301000D01*
X150630000Y-67341000D02*
X147370000Y-67341000D01*
X150510000Y-67381000D02*
X147490000Y-67381000D01*
X150378000Y-67421000D02*
X147622000Y-67421000D01*
X150230000Y-67461000D02*
X147770000Y-67461000D01*
X150062000Y-67501000D02*
X147938000Y-67501000D01*
X149862000Y-67541000D02*
X148138000Y-67541000D01*
X149599000Y-67581000D02*
X148401000Y-67581000D01*
X151875000Y-57020354D02*
X151875000Y-58020354D01*
X152375000Y-57520354D02*
X151375000Y-57520354D01*
D12*
X157200000Y-110650000D02*
G75*
G03*
X157200000Y-110650000I-100000J0D01*
G01*
D13*
X153380000Y-84000000D02*
X153380000Y-82350000D01*
X153380000Y-110000000D02*
X153380000Y-111650000D01*
X146000000Y-82350000D02*
X153380000Y-82350000D01*
X135150000Y-111615000D02*
X135150000Y-82385000D01*
X153380000Y-111650000D02*
X146000000Y-111650000D01*
X113350000Y-93208000D02*
X100650000Y-93208000D01*
X100650000Y-93208000D02*
X100650000Y-66792000D01*
X100650000Y-66792000D02*
X113350000Y-66792000D01*
X113350000Y-66792000D02*
X113350000Y-93208000D01*
D11*
X100000000Y-125000000D02*
X100000000Y-101000000D01*
X100000000Y-125000000D02*
X102500000Y-125000000D01*
X100000000Y-101000000D02*
X102500000Y-101000000D01*
X115670000Y-116910000D02*
X118330000Y-116910000D01*
X115670000Y-109230000D02*
X115670000Y-116910000D01*
X118330000Y-109230000D02*
X118330000Y-116910000D01*
X115670000Y-109230000D02*
X118330000Y-109230000D01*
X115670000Y-107960000D02*
X115670000Y-106630000D01*
X115670000Y-106630000D02*
X117000000Y-106630000D01*
X122920000Y-84430000D02*
X119080000Y-84430000D01*
X119080000Y-84430000D02*
X119080000Y-92270000D01*
X119080000Y-92270000D02*
X122920000Y-92270000D01*
X122920000Y-92270000D02*
X122920000Y-84430000D01*
X121000000Y-83440000D02*
X121000000Y-84430000D01*
X121000000Y-93260000D02*
X121000000Y-92270000D01*
X122920000Y-85690000D02*
X119080000Y-85690000D01*
X122920000Y-85810000D02*
X119080000Y-85810000D01*
X122920000Y-85570000D02*
X119080000Y-85570000D01*
X164440000Y-85780000D02*
X164920000Y-85780000D01*
X164920000Y-85780000D02*
X164920000Y-95920000D01*
X164920000Y-95920000D02*
X164440000Y-95920000D01*
X161560000Y-85780000D02*
X161080000Y-85780000D01*
X161080000Y-85780000D02*
X161080000Y-95920000D01*
X161080000Y-95920000D02*
X161560000Y-95920000D01*
X153720000Y-116940000D02*
X153720000Y-117420000D01*
X153720000Y-117420000D02*
X143580000Y-117420000D01*
X143580000Y-117420000D02*
X143580000Y-116940000D01*
X153720000Y-114060000D02*
X153720000Y-113580000D01*
X153720000Y-113580000D02*
X143580000Y-113580000D01*
X143580000Y-113580000D02*
X143580000Y-114060000D01*
X124060000Y-93220000D02*
X123580000Y-93220000D01*
X123580000Y-93220000D02*
X123580000Y-83080000D01*
X123580000Y-83080000D02*
X124060000Y-83080000D01*
X126940000Y-93220000D02*
X127420000Y-93220000D01*
X127420000Y-93220000D02*
X127420000Y-83080000D01*
X127420000Y-83080000D02*
X126940000Y-83080000D01*
X187180000Y-82500000D02*
G75*
G03*
X187180000Y-82500000I-2180000J0D01*
G01*
X187180000Y-77420000D02*
G75*
G03*
X187180000Y-77420000I-2180000J0D01*
G01*
X189800000Y-85100000D02*
X189800000Y-74820000D01*
X187300000Y-85100000D02*
X187300000Y-74820000D01*
X181100000Y-85100000D02*
X181100000Y-74820000D01*
X179040000Y-85100000D02*
X179040000Y-74820000D01*
X190360000Y-85100000D02*
X190360000Y-74820000D01*
X179040000Y-85100000D02*
X190360000Y-85100000D01*
X179040000Y-74820000D02*
X190360000Y-74820000D01*
X183612000Y-80846000D02*
X183719000Y-80953000D01*
X186547000Y-83782000D02*
X186654000Y-83888000D01*
X183346000Y-81112000D02*
X183453000Y-81219000D01*
X186281000Y-84048000D02*
X186388000Y-84154000D01*
X183612000Y-75766000D02*
X184008000Y-76161000D01*
X186274000Y-78427000D02*
X186654000Y-78807000D01*
X183346000Y-76032000D02*
X183726000Y-76412000D01*
X185992000Y-78678000D02*
X186388000Y-79073000D01*
X189860000Y-85340000D02*
X190600000Y-85340000D01*
X190600000Y-85340000D02*
X190600000Y-84840000D01*
X187180000Y-94500000D02*
G75*
G03*
X187180000Y-94500000I-2180000J0D01*
G01*
X187180000Y-89420000D02*
G75*
G03*
X187180000Y-89420000I-2180000J0D01*
G01*
X189800000Y-97100000D02*
X189800000Y-86820000D01*
X187300000Y-97100000D02*
X187300000Y-86820000D01*
X181100000Y-97100000D02*
X181100000Y-86820000D01*
X179040000Y-97100000D02*
X179040000Y-86820000D01*
X190360000Y-97100000D02*
X190360000Y-86820000D01*
X179040000Y-97100000D02*
X190360000Y-97100000D01*
X179040000Y-86820000D02*
X190360000Y-86820000D01*
X183612000Y-92846000D02*
X183719000Y-92953000D01*
X186547000Y-95782000D02*
X186654000Y-95888000D01*
X183346000Y-93112000D02*
X183453000Y-93219000D01*
X186281000Y-96048000D02*
X186388000Y-96154000D01*
X183612000Y-87766000D02*
X184008000Y-88161000D01*
X186274000Y-90427000D02*
X186654000Y-90807000D01*
X183346000Y-88032000D02*
X183726000Y-88412000D01*
X185992000Y-90678000D02*
X186388000Y-91073000D01*
X189860000Y-97340000D02*
X190600000Y-97340000D01*
X190600000Y-97340000D02*
X190600000Y-96840000D01*
X187180000Y-118580000D02*
G75*
G03*
X187180000Y-118580000I-2180000J0D01*
G01*
X187180000Y-113500000D02*
G75*
G03*
X187180000Y-113500000I-2180000J0D01*
G01*
X189800000Y-121180000D02*
X189800000Y-110900000D01*
X187300000Y-121180000D02*
X187300000Y-110900000D01*
X181100000Y-121180000D02*
X181100000Y-110900000D01*
X179040000Y-121180000D02*
X179040000Y-110900000D01*
X190360000Y-121180000D02*
X190360000Y-110900000D01*
X179040000Y-121180000D02*
X190360000Y-121180000D01*
X179040000Y-110900000D02*
X190360000Y-110900000D01*
X183612000Y-116926000D02*
X183719000Y-117033000D01*
X186547000Y-119862000D02*
X186654000Y-119968000D01*
X183346000Y-117192000D02*
X183453000Y-117299000D01*
X186281000Y-120128000D02*
X186388000Y-120234000D01*
X183612000Y-111846000D02*
X184008000Y-112241000D01*
X186274000Y-114507000D02*
X186654000Y-114887000D01*
X183346000Y-112112000D02*
X183726000Y-112492000D01*
X185992000Y-114758000D02*
X186388000Y-115153000D01*
X189860000Y-121420000D02*
X190600000Y-121420000D01*
X190600000Y-121420000D02*
X190600000Y-120920000D01*
X187180000Y-106500000D02*
G75*
G03*
X187180000Y-106500000I-2180000J0D01*
G01*
X187180000Y-101420000D02*
G75*
G03*
X187180000Y-101420000I-2180000J0D01*
G01*
X189800000Y-109100000D02*
X189800000Y-98820000D01*
X187300000Y-109100000D02*
X187300000Y-98820000D01*
X181100000Y-109100000D02*
X181100000Y-98820000D01*
X179040000Y-109100000D02*
X179040000Y-98820000D01*
X190360000Y-109100000D02*
X190360000Y-98820000D01*
X179040000Y-109100000D02*
X190360000Y-109100000D01*
X179040000Y-98820000D02*
X190360000Y-98820000D01*
X183612000Y-104846000D02*
X183719000Y-104953000D01*
X186547000Y-107782000D02*
X186654000Y-107888000D01*
X183346000Y-105112000D02*
X183453000Y-105219000D01*
X186281000Y-108048000D02*
X186388000Y-108154000D01*
X183612000Y-99766000D02*
X184008000Y-100161000D01*
X186274000Y-102427000D02*
X186654000Y-102807000D01*
X183346000Y-100032000D02*
X183726000Y-100412000D01*
X185992000Y-102678000D02*
X186388000Y-103073000D01*
X189860000Y-109340000D02*
X190600000Y-109340000D01*
X190600000Y-109340000D02*
X190600000Y-108840000D01*
X168430000Y-134270000D02*
X168430000Y-129730000D01*
X170570000Y-134270000D02*
X170570000Y-129730000D01*
X168430000Y-134270000D02*
X168445000Y-134270000D01*
X170555000Y-134270000D02*
X170570000Y-134270000D01*
X168430000Y-129730000D02*
X168445000Y-129730000D01*
X170555000Y-129730000D02*
X170570000Y-129730000D01*
X141120000Y-132000000D02*
G75*
G03*
X141120000Y-132000000I-5120000J0D01*
G01*
X130920000Y-132000000D02*
X141080000Y-132000000D01*
X130920000Y-131960000D02*
X141080000Y-131960000D01*
X130920000Y-131920000D02*
X141080000Y-131920000D01*
X130921000Y-131880000D02*
X141079000Y-131880000D01*
X130922000Y-131840000D02*
X141078000Y-131840000D01*
X130923000Y-131800000D02*
X141077000Y-131800000D01*
X130925000Y-131760000D02*
X141075000Y-131760000D01*
X130927000Y-131720000D02*
X141073000Y-131720000D01*
X130930000Y-131680000D02*
X141070000Y-131680000D01*
X130932000Y-131640000D02*
X141068000Y-131640000D01*
X130935000Y-131600000D02*
X141065000Y-131600000D01*
X130938000Y-131560000D02*
X141062000Y-131560000D01*
X130942000Y-131520000D02*
X141058000Y-131520000D01*
X130946000Y-131480000D02*
X141054000Y-131480000D01*
X130950000Y-131440000D02*
X141050000Y-131440000D01*
X130955000Y-131400000D02*
X141045000Y-131400000D01*
X130960000Y-131360000D02*
X141040000Y-131360000D01*
X130965000Y-131320000D02*
X141035000Y-131320000D01*
X130970000Y-131279000D02*
X141030000Y-131279000D01*
X130976000Y-131239000D02*
X141024000Y-131239000D01*
X130982000Y-131199000D02*
X141018000Y-131199000D01*
X130989000Y-131159000D02*
X141011000Y-131159000D01*
X130996000Y-131119000D02*
X141004000Y-131119000D01*
X131003000Y-131079000D02*
X140997000Y-131079000D01*
X131010000Y-131039000D02*
X140990000Y-131039000D01*
X131018000Y-130999000D02*
X140982000Y-130999000D01*
X131026000Y-130959000D02*
X140974000Y-130959000D01*
X131035000Y-130919000D02*
X140965000Y-130919000D01*
X131044000Y-130879000D02*
X140956000Y-130879000D01*
X131053000Y-130839000D02*
X140947000Y-130839000D01*
X131062000Y-130799000D02*
X140938000Y-130799000D01*
X131072000Y-130759000D02*
X140928000Y-130759000D01*
X131082000Y-130719000D02*
X134759000Y-130719000D01*
X137241000Y-130719000D02*
X140918000Y-130719000D01*
X131093000Y-130679000D02*
X134759000Y-130679000D01*
X137241000Y-130679000D02*
X140907000Y-130679000D01*
X131103000Y-130639000D02*
X134759000Y-130639000D01*
X137241000Y-130639000D02*
X140897000Y-130639000D01*
X131115000Y-130599000D02*
X134759000Y-130599000D01*
X137241000Y-130599000D02*
X140885000Y-130599000D01*
X131126000Y-130559000D02*
X134759000Y-130559000D01*
X137241000Y-130559000D02*
X140874000Y-130559000D01*
X131138000Y-130519000D02*
X134759000Y-130519000D01*
X137241000Y-130519000D02*
X140862000Y-130519000D01*
X131150000Y-130479000D02*
X134759000Y-130479000D01*
X137241000Y-130479000D02*
X140850000Y-130479000D01*
X131163000Y-130439000D02*
X134759000Y-130439000D01*
X137241000Y-130439000D02*
X140837000Y-130439000D01*
X131176000Y-130399000D02*
X134759000Y-130399000D01*
X137241000Y-130399000D02*
X140824000Y-130399000D01*
X131189000Y-130359000D02*
X134759000Y-130359000D01*
X137241000Y-130359000D02*
X140811000Y-130359000D01*
X131203000Y-130319000D02*
X134759000Y-130319000D01*
X137241000Y-130319000D02*
X140797000Y-130319000D01*
X131217000Y-130279000D02*
X134759000Y-130279000D01*
X137241000Y-130279000D02*
X140783000Y-130279000D01*
X131232000Y-130239000D02*
X134759000Y-130239000D01*
X137241000Y-130239000D02*
X140768000Y-130239000D01*
X131246000Y-130199000D02*
X134759000Y-130199000D01*
X137241000Y-130199000D02*
X140754000Y-130199000D01*
X131262000Y-130159000D02*
X134759000Y-130159000D01*
X137241000Y-130159000D02*
X140738000Y-130159000D01*
X131277000Y-130119000D02*
X134759000Y-130119000D01*
X137241000Y-130119000D02*
X140723000Y-130119000D01*
X131293000Y-130079000D02*
X134759000Y-130079000D01*
X137241000Y-130079000D02*
X140707000Y-130079000D01*
X131310000Y-130039000D02*
X134759000Y-130039000D01*
X137241000Y-130039000D02*
X140690000Y-130039000D01*
X131326000Y-129999000D02*
X134759000Y-129999000D01*
X137241000Y-129999000D02*
X140674000Y-129999000D01*
X131343000Y-129959000D02*
X134759000Y-129959000D01*
X137241000Y-129959000D02*
X140657000Y-129959000D01*
X131361000Y-129919000D02*
X134759000Y-129919000D01*
X137241000Y-129919000D02*
X140639000Y-129919000D01*
X131379000Y-129879000D02*
X134759000Y-129879000D01*
X137241000Y-129879000D02*
X140621000Y-129879000D01*
X131397000Y-129839000D02*
X134759000Y-129839000D01*
X137241000Y-129839000D02*
X140603000Y-129839000D01*
X131416000Y-129799000D02*
X134759000Y-129799000D01*
X137241000Y-129799000D02*
X140584000Y-129799000D01*
X131436000Y-129759000D02*
X134759000Y-129759000D01*
X137241000Y-129759000D02*
X140564000Y-129759000D01*
X131455000Y-129719000D02*
X134759000Y-129719000D01*
X137241000Y-129719000D02*
X140545000Y-129719000D01*
X131475000Y-129679000D02*
X134759000Y-129679000D01*
X137241000Y-129679000D02*
X140525000Y-129679000D01*
X131496000Y-129639000D02*
X134759000Y-129639000D01*
X137241000Y-129639000D02*
X140504000Y-129639000D01*
X131517000Y-129599000D02*
X134759000Y-129599000D01*
X137241000Y-129599000D02*
X140483000Y-129599000D01*
X131538000Y-129559000D02*
X134759000Y-129559000D01*
X137241000Y-129559000D02*
X140462000Y-129559000D01*
X131560000Y-129519000D02*
X134759000Y-129519000D01*
X137241000Y-129519000D02*
X140440000Y-129519000D01*
X131583000Y-129479000D02*
X134759000Y-129479000D01*
X137241000Y-129479000D02*
X140417000Y-129479000D01*
X131605000Y-129439000D02*
X134759000Y-129439000D01*
X137241000Y-129439000D02*
X140395000Y-129439000D01*
X131629000Y-129399000D02*
X134759000Y-129399000D01*
X137241000Y-129399000D02*
X140371000Y-129399000D01*
X131653000Y-129359000D02*
X134759000Y-129359000D01*
X137241000Y-129359000D02*
X140347000Y-129359000D01*
X131677000Y-129319000D02*
X134759000Y-129319000D01*
X137241000Y-129319000D02*
X140323000Y-129319000D01*
X131702000Y-129279000D02*
X134759000Y-129279000D01*
X137241000Y-129279000D02*
X140298000Y-129279000D01*
X131727000Y-129239000D02*
X134759000Y-129239000D01*
X137241000Y-129239000D02*
X140273000Y-129239000D01*
X131753000Y-129199000D02*
X134759000Y-129199000D01*
X137241000Y-129199000D02*
X140247000Y-129199000D01*
X131779000Y-129159000D02*
X134759000Y-129159000D01*
X137241000Y-129159000D02*
X140221000Y-129159000D01*
X131806000Y-129119000D02*
X134759000Y-129119000D01*
X137241000Y-129119000D02*
X140194000Y-129119000D01*
X131834000Y-129079000D02*
X134759000Y-129079000D01*
X137241000Y-129079000D02*
X140166000Y-129079000D01*
X131862000Y-129039000D02*
X134759000Y-129039000D01*
X137241000Y-129039000D02*
X140138000Y-129039000D01*
X131890000Y-128999000D02*
X134759000Y-128999000D01*
X137241000Y-128999000D02*
X140110000Y-128999000D01*
X131920000Y-128959000D02*
X134759000Y-128959000D01*
X137241000Y-128959000D02*
X140080000Y-128959000D01*
X131950000Y-128919000D02*
X134759000Y-128919000D01*
X137241000Y-128919000D02*
X140050000Y-128919000D01*
X131980000Y-128879000D02*
X134759000Y-128879000D01*
X137241000Y-128879000D02*
X140020000Y-128879000D01*
X132011000Y-128839000D02*
X134759000Y-128839000D01*
X137241000Y-128839000D02*
X139989000Y-128839000D01*
X132043000Y-128799000D02*
X134759000Y-128799000D01*
X137241000Y-128799000D02*
X139957000Y-128799000D01*
X132075000Y-128759000D02*
X134759000Y-128759000D01*
X137241000Y-128759000D02*
X139925000Y-128759000D01*
X132108000Y-128719000D02*
X134759000Y-128719000D01*
X137241000Y-128719000D02*
X139892000Y-128719000D01*
X132142000Y-128679000D02*
X134759000Y-128679000D01*
X137241000Y-128679000D02*
X139858000Y-128679000D01*
X132176000Y-128639000D02*
X134759000Y-128639000D01*
X137241000Y-128639000D02*
X139824000Y-128639000D01*
X132211000Y-128599000D02*
X134759000Y-128599000D01*
X137241000Y-128599000D02*
X139789000Y-128599000D01*
X132247000Y-128559000D02*
X134759000Y-128559000D01*
X137241000Y-128559000D02*
X139753000Y-128559000D01*
X132284000Y-128519000D02*
X134759000Y-128519000D01*
X137241000Y-128519000D02*
X139716000Y-128519000D01*
X132321000Y-128479000D02*
X134759000Y-128479000D01*
X137241000Y-128479000D02*
X139679000Y-128479000D01*
X132360000Y-128439000D02*
X134759000Y-128439000D01*
X137241000Y-128439000D02*
X139640000Y-128439000D01*
X132399000Y-128399000D02*
X134759000Y-128399000D01*
X137241000Y-128399000D02*
X139601000Y-128399000D01*
X132439000Y-128359000D02*
X134759000Y-128359000D01*
X137241000Y-128359000D02*
X139561000Y-128359000D01*
X132480000Y-128319000D02*
X134759000Y-128319000D01*
X137241000Y-128319000D02*
X139520000Y-128319000D01*
X132522000Y-128279000D02*
X134759000Y-128279000D01*
X137241000Y-128279000D02*
X139478000Y-128279000D01*
X132564000Y-128239000D02*
X139436000Y-128239000D01*
X132608000Y-128199000D02*
X139392000Y-128199000D01*
X132653000Y-128159000D02*
X139347000Y-128159000D01*
X132699000Y-128119000D02*
X139301000Y-128119000D01*
X132746000Y-128079000D02*
X139254000Y-128079000D01*
X132794000Y-128039000D02*
X139206000Y-128039000D01*
X132844000Y-127999000D02*
X139156000Y-127999000D01*
X132894000Y-127959000D02*
X139106000Y-127959000D01*
X132946000Y-127919000D02*
X139054000Y-127919000D01*
X133000000Y-127879000D02*
X139000000Y-127879000D01*
X133055000Y-127839000D02*
X138945000Y-127839000D01*
X133111000Y-127799000D02*
X138889000Y-127799000D01*
X133170000Y-127759000D02*
X138830000Y-127759000D01*
X133230000Y-127719000D02*
X138770000Y-127719000D01*
X133291000Y-127679000D02*
X138709000Y-127679000D01*
X133355000Y-127639000D02*
X138645000Y-127639000D01*
X133421000Y-127599000D02*
X138579000Y-127599000D01*
X133490000Y-127559000D02*
X138510000Y-127559000D01*
X133561000Y-127519000D02*
X138439000Y-127519000D01*
X133635000Y-127479000D02*
X138365000Y-127479000D01*
X133711000Y-127439000D02*
X138289000Y-127439000D01*
X133791000Y-127399000D02*
X138209000Y-127399000D01*
X133875000Y-127359000D02*
X138125000Y-127359000D01*
X133963000Y-127319000D02*
X138037000Y-127319000D01*
X134056000Y-127279000D02*
X137944000Y-127279000D01*
X134154000Y-127239000D02*
X137846000Y-127239000D01*
X134258000Y-127199000D02*
X137742000Y-127199000D01*
X134370000Y-127159000D02*
X137630000Y-127159000D01*
X134490000Y-127119000D02*
X137510000Y-127119000D01*
X134622000Y-127079000D02*
X137378000Y-127079000D01*
X134770000Y-127039000D02*
X137230000Y-127039000D01*
X134938000Y-126999000D02*
X137062000Y-126999000D01*
X135138000Y-126959000D02*
X136862000Y-126959000D01*
X135401000Y-126919000D02*
X136599000Y-126919000D01*
X133125000Y-137479646D02*
X133125000Y-136479646D01*
X132625000Y-136979646D02*
X133625000Y-136979646D01*
X128120000Y-62500000D02*
G75*
G03*
X128120000Y-62500000I-5120000J0D01*
G01*
X128080000Y-62500000D02*
X117920000Y-62500000D01*
X128080000Y-62540000D02*
X117920000Y-62540000D01*
X128080000Y-62580000D02*
X117920000Y-62580000D01*
X128079000Y-62620000D02*
X117921000Y-62620000D01*
X128078000Y-62660000D02*
X117922000Y-62660000D01*
X128077000Y-62700000D02*
X117923000Y-62700000D01*
X128075000Y-62740000D02*
X117925000Y-62740000D01*
X128073000Y-62780000D02*
X117927000Y-62780000D01*
X128070000Y-62820000D02*
X117930000Y-62820000D01*
X128068000Y-62860000D02*
X117932000Y-62860000D01*
X128065000Y-62900000D02*
X117935000Y-62900000D01*
X128062000Y-62940000D02*
X117938000Y-62940000D01*
X128058000Y-62980000D02*
X117942000Y-62980000D01*
X128054000Y-63020000D02*
X117946000Y-63020000D01*
X128050000Y-63060000D02*
X117950000Y-63060000D01*
X128045000Y-63100000D02*
X117955000Y-63100000D01*
X128040000Y-63140000D02*
X117960000Y-63140000D01*
X128035000Y-63180000D02*
X117965000Y-63180000D01*
X128030000Y-63221000D02*
X117970000Y-63221000D01*
X128024000Y-63261000D02*
X117976000Y-63261000D01*
X128018000Y-63301000D02*
X117982000Y-63301000D01*
X128011000Y-63341000D02*
X117989000Y-63341000D01*
X128004000Y-63381000D02*
X117996000Y-63381000D01*
X127997000Y-63421000D02*
X118003000Y-63421000D01*
X127990000Y-63461000D02*
X118010000Y-63461000D01*
X127982000Y-63501000D02*
X118018000Y-63501000D01*
X127974000Y-63541000D02*
X118026000Y-63541000D01*
X127965000Y-63581000D02*
X118035000Y-63581000D01*
X127956000Y-63621000D02*
X118044000Y-63621000D01*
X127947000Y-63661000D02*
X118053000Y-63661000D01*
X127938000Y-63701000D02*
X118062000Y-63701000D01*
X127928000Y-63741000D02*
X118072000Y-63741000D01*
X127918000Y-63781000D02*
X124241000Y-63781000D01*
X121759000Y-63781000D02*
X118082000Y-63781000D01*
X127907000Y-63821000D02*
X124241000Y-63821000D01*
X121759000Y-63821000D02*
X118093000Y-63821000D01*
X127897000Y-63861000D02*
X124241000Y-63861000D01*
X121759000Y-63861000D02*
X118103000Y-63861000D01*
X127885000Y-63901000D02*
X124241000Y-63901000D01*
X121759000Y-63901000D02*
X118115000Y-63901000D01*
X127874000Y-63941000D02*
X124241000Y-63941000D01*
X121759000Y-63941000D02*
X118126000Y-63941000D01*
X127862000Y-63981000D02*
X124241000Y-63981000D01*
X121759000Y-63981000D02*
X118138000Y-63981000D01*
X127850000Y-64021000D02*
X124241000Y-64021000D01*
X121759000Y-64021000D02*
X118150000Y-64021000D01*
X127837000Y-64061000D02*
X124241000Y-64061000D01*
X121759000Y-64061000D02*
X118163000Y-64061000D01*
X127824000Y-64101000D02*
X124241000Y-64101000D01*
X121759000Y-64101000D02*
X118176000Y-64101000D01*
X127811000Y-64141000D02*
X124241000Y-64141000D01*
X121759000Y-64141000D02*
X118189000Y-64141000D01*
X127797000Y-64181000D02*
X124241000Y-64181000D01*
X121759000Y-64181000D02*
X118203000Y-64181000D01*
X127783000Y-64221000D02*
X124241000Y-64221000D01*
X121759000Y-64221000D02*
X118217000Y-64221000D01*
X127768000Y-64261000D02*
X124241000Y-64261000D01*
X121759000Y-64261000D02*
X118232000Y-64261000D01*
X127754000Y-64301000D02*
X124241000Y-64301000D01*
X121759000Y-64301000D02*
X118246000Y-64301000D01*
X127738000Y-64341000D02*
X124241000Y-64341000D01*
X121759000Y-64341000D02*
X118262000Y-64341000D01*
X127723000Y-64381000D02*
X124241000Y-64381000D01*
X121759000Y-64381000D02*
X118277000Y-64381000D01*
X127707000Y-64421000D02*
X124241000Y-64421000D01*
X121759000Y-64421000D02*
X118293000Y-64421000D01*
X127690000Y-64461000D02*
X124241000Y-64461000D01*
X121759000Y-64461000D02*
X118310000Y-64461000D01*
X127674000Y-64501000D02*
X124241000Y-64501000D01*
X121759000Y-64501000D02*
X118326000Y-64501000D01*
X127657000Y-64541000D02*
X124241000Y-64541000D01*
X121759000Y-64541000D02*
X118343000Y-64541000D01*
X127639000Y-64581000D02*
X124241000Y-64581000D01*
X121759000Y-64581000D02*
X118361000Y-64581000D01*
X127621000Y-64621000D02*
X124241000Y-64621000D01*
X121759000Y-64621000D02*
X118379000Y-64621000D01*
X127603000Y-64661000D02*
X124241000Y-64661000D01*
X121759000Y-64661000D02*
X118397000Y-64661000D01*
X127584000Y-64701000D02*
X124241000Y-64701000D01*
X121759000Y-64701000D02*
X118416000Y-64701000D01*
X127564000Y-64741000D02*
X124241000Y-64741000D01*
X121759000Y-64741000D02*
X118436000Y-64741000D01*
X127545000Y-64781000D02*
X124241000Y-64781000D01*
X121759000Y-64781000D02*
X118455000Y-64781000D01*
X127525000Y-64821000D02*
X124241000Y-64821000D01*
X121759000Y-64821000D02*
X118475000Y-64821000D01*
X127504000Y-64861000D02*
X124241000Y-64861000D01*
X121759000Y-64861000D02*
X118496000Y-64861000D01*
X127483000Y-64901000D02*
X124241000Y-64901000D01*
X121759000Y-64901000D02*
X118517000Y-64901000D01*
X127462000Y-64941000D02*
X124241000Y-64941000D01*
X121759000Y-64941000D02*
X118538000Y-64941000D01*
X127440000Y-64981000D02*
X124241000Y-64981000D01*
X121759000Y-64981000D02*
X118560000Y-64981000D01*
X127417000Y-65021000D02*
X124241000Y-65021000D01*
X121759000Y-65021000D02*
X118583000Y-65021000D01*
X127395000Y-65061000D02*
X124241000Y-65061000D01*
X121759000Y-65061000D02*
X118605000Y-65061000D01*
X127371000Y-65101000D02*
X124241000Y-65101000D01*
X121759000Y-65101000D02*
X118629000Y-65101000D01*
X127347000Y-65141000D02*
X124241000Y-65141000D01*
X121759000Y-65141000D02*
X118653000Y-65141000D01*
X127323000Y-65181000D02*
X124241000Y-65181000D01*
X121759000Y-65181000D02*
X118677000Y-65181000D01*
X127298000Y-65221000D02*
X124241000Y-65221000D01*
X121759000Y-65221000D02*
X118702000Y-65221000D01*
X127273000Y-65261000D02*
X124241000Y-65261000D01*
X121759000Y-65261000D02*
X118727000Y-65261000D01*
X127247000Y-65301000D02*
X124241000Y-65301000D01*
X121759000Y-65301000D02*
X118753000Y-65301000D01*
X127221000Y-65341000D02*
X124241000Y-65341000D01*
X121759000Y-65341000D02*
X118779000Y-65341000D01*
X127194000Y-65381000D02*
X124241000Y-65381000D01*
X121759000Y-65381000D02*
X118806000Y-65381000D01*
X127166000Y-65421000D02*
X124241000Y-65421000D01*
X121759000Y-65421000D02*
X118834000Y-65421000D01*
X127138000Y-65461000D02*
X124241000Y-65461000D01*
X121759000Y-65461000D02*
X118862000Y-65461000D01*
X127110000Y-65501000D02*
X124241000Y-65501000D01*
X121759000Y-65501000D02*
X118890000Y-65501000D01*
X127080000Y-65541000D02*
X124241000Y-65541000D01*
X121759000Y-65541000D02*
X118920000Y-65541000D01*
X127050000Y-65581000D02*
X124241000Y-65581000D01*
X121759000Y-65581000D02*
X118950000Y-65581000D01*
X127020000Y-65621000D02*
X124241000Y-65621000D01*
X121759000Y-65621000D02*
X118980000Y-65621000D01*
X126989000Y-65661000D02*
X124241000Y-65661000D01*
X121759000Y-65661000D02*
X119011000Y-65661000D01*
X126957000Y-65701000D02*
X124241000Y-65701000D01*
X121759000Y-65701000D02*
X119043000Y-65701000D01*
X126925000Y-65741000D02*
X124241000Y-65741000D01*
X121759000Y-65741000D02*
X119075000Y-65741000D01*
X126892000Y-65781000D02*
X124241000Y-65781000D01*
X121759000Y-65781000D02*
X119108000Y-65781000D01*
X126858000Y-65821000D02*
X124241000Y-65821000D01*
X121759000Y-65821000D02*
X119142000Y-65821000D01*
X126824000Y-65861000D02*
X124241000Y-65861000D01*
X121759000Y-65861000D02*
X119176000Y-65861000D01*
X126789000Y-65901000D02*
X124241000Y-65901000D01*
X121759000Y-65901000D02*
X119211000Y-65901000D01*
X126753000Y-65941000D02*
X124241000Y-65941000D01*
X121759000Y-65941000D02*
X119247000Y-65941000D01*
X126716000Y-65981000D02*
X124241000Y-65981000D01*
X121759000Y-65981000D02*
X119284000Y-65981000D01*
X126679000Y-66021000D02*
X124241000Y-66021000D01*
X121759000Y-66021000D02*
X119321000Y-66021000D01*
X126640000Y-66061000D02*
X124241000Y-66061000D01*
X121759000Y-66061000D02*
X119360000Y-66061000D01*
X126601000Y-66101000D02*
X124241000Y-66101000D01*
X121759000Y-66101000D02*
X119399000Y-66101000D01*
X126561000Y-66141000D02*
X124241000Y-66141000D01*
X121759000Y-66141000D02*
X119439000Y-66141000D01*
X126520000Y-66181000D02*
X124241000Y-66181000D01*
X121759000Y-66181000D02*
X119480000Y-66181000D01*
X126478000Y-66221000D02*
X124241000Y-66221000D01*
X121759000Y-66221000D02*
X119522000Y-66221000D01*
X126436000Y-66261000D02*
X119564000Y-66261000D01*
X126392000Y-66301000D02*
X119608000Y-66301000D01*
X126347000Y-66341000D02*
X119653000Y-66341000D01*
X126301000Y-66381000D02*
X119699000Y-66381000D01*
X126254000Y-66421000D02*
X119746000Y-66421000D01*
X126206000Y-66461000D02*
X119794000Y-66461000D01*
X126156000Y-66501000D02*
X119844000Y-66501000D01*
X126106000Y-66541000D02*
X119894000Y-66541000D01*
X126054000Y-66581000D02*
X119946000Y-66581000D01*
X126000000Y-66621000D02*
X120000000Y-66621000D01*
X125945000Y-66661000D02*
X120055000Y-66661000D01*
X125889000Y-66701000D02*
X120111000Y-66701000D01*
X125830000Y-66741000D02*
X120170000Y-66741000D01*
X125770000Y-66781000D02*
X120230000Y-66781000D01*
X125709000Y-66821000D02*
X120291000Y-66821000D01*
X125645000Y-66861000D02*
X120355000Y-66861000D01*
X125579000Y-66901000D02*
X120421000Y-66901000D01*
X125510000Y-66941000D02*
X120490000Y-66941000D01*
X125439000Y-66981000D02*
X120561000Y-66981000D01*
X125365000Y-67021000D02*
X120635000Y-67021000D01*
X125289000Y-67061000D02*
X120711000Y-67061000D01*
X125209000Y-67101000D02*
X120791000Y-67101000D01*
X125125000Y-67141000D02*
X120875000Y-67141000D01*
X125037000Y-67181000D02*
X120963000Y-67181000D01*
X124944000Y-67221000D02*
X121056000Y-67221000D01*
X124846000Y-67261000D02*
X121154000Y-67261000D01*
X124742000Y-67301000D02*
X121258000Y-67301000D01*
X124630000Y-67341000D02*
X121370000Y-67341000D01*
X124510000Y-67381000D02*
X121490000Y-67381000D01*
X124378000Y-67421000D02*
X121622000Y-67421000D01*
X124230000Y-67461000D02*
X121770000Y-67461000D01*
X124062000Y-67501000D02*
X121938000Y-67501000D01*
X123862000Y-67541000D02*
X122138000Y-67541000D01*
X123599000Y-67581000D02*
X122401000Y-67581000D01*
X125875000Y-57020354D02*
X125875000Y-58020354D01*
X126375000Y-57520354D02*
X125375000Y-57520354D01*
X141120000Y-62500000D02*
G75*
G03*
X141120000Y-62500000I-5120000J0D01*
G01*
X141080000Y-62500000D02*
X130920000Y-62500000D01*
X141080000Y-62540000D02*
X130920000Y-62540000D01*
X141080000Y-62580000D02*
X130920000Y-62580000D01*
X141079000Y-62620000D02*
X130921000Y-62620000D01*
X141078000Y-62660000D02*
X130922000Y-62660000D01*
X141077000Y-62700000D02*
X130923000Y-62700000D01*
X141075000Y-62740000D02*
X130925000Y-62740000D01*
X141073000Y-62780000D02*
X130927000Y-62780000D01*
X141070000Y-62820000D02*
X130930000Y-62820000D01*
X141068000Y-62860000D02*
X130932000Y-62860000D01*
X141065000Y-62900000D02*
X130935000Y-62900000D01*
X141062000Y-62940000D02*
X130938000Y-62940000D01*
X141058000Y-62980000D02*
X130942000Y-62980000D01*
X141054000Y-63020000D02*
X130946000Y-63020000D01*
X141050000Y-63060000D02*
X130950000Y-63060000D01*
X141045000Y-63100000D02*
X130955000Y-63100000D01*
X141040000Y-63140000D02*
X130960000Y-63140000D01*
X141035000Y-63180000D02*
X130965000Y-63180000D01*
X141030000Y-63221000D02*
X130970000Y-63221000D01*
X141024000Y-63261000D02*
X130976000Y-63261000D01*
X141018000Y-63301000D02*
X130982000Y-63301000D01*
X141011000Y-63341000D02*
X130989000Y-63341000D01*
X141004000Y-63381000D02*
X130996000Y-63381000D01*
X140997000Y-63421000D02*
X131003000Y-63421000D01*
X140990000Y-63461000D02*
X131010000Y-63461000D01*
X140982000Y-63501000D02*
X131018000Y-63501000D01*
X140974000Y-63541000D02*
X131026000Y-63541000D01*
X140965000Y-63581000D02*
X131035000Y-63581000D01*
X140956000Y-63621000D02*
X131044000Y-63621000D01*
X140947000Y-63661000D02*
X131053000Y-63661000D01*
X140938000Y-63701000D02*
X131062000Y-63701000D01*
X140928000Y-63741000D02*
X131072000Y-63741000D01*
X140918000Y-63781000D02*
X137241000Y-63781000D01*
X134759000Y-63781000D02*
X131082000Y-63781000D01*
X140907000Y-63821000D02*
X137241000Y-63821000D01*
X134759000Y-63821000D02*
X131093000Y-63821000D01*
X140897000Y-63861000D02*
X137241000Y-63861000D01*
X134759000Y-63861000D02*
X131103000Y-63861000D01*
X140885000Y-63901000D02*
X137241000Y-63901000D01*
X134759000Y-63901000D02*
X131115000Y-63901000D01*
X140874000Y-63941000D02*
X137241000Y-63941000D01*
X134759000Y-63941000D02*
X131126000Y-63941000D01*
X140862000Y-63981000D02*
X137241000Y-63981000D01*
X134759000Y-63981000D02*
X131138000Y-63981000D01*
X140850000Y-64021000D02*
X137241000Y-64021000D01*
X134759000Y-64021000D02*
X131150000Y-64021000D01*
X140837000Y-64061000D02*
X137241000Y-64061000D01*
X134759000Y-64061000D02*
X131163000Y-64061000D01*
X140824000Y-64101000D02*
X137241000Y-64101000D01*
X134759000Y-64101000D02*
X131176000Y-64101000D01*
X140811000Y-64141000D02*
X137241000Y-64141000D01*
X134759000Y-64141000D02*
X131189000Y-64141000D01*
X140797000Y-64181000D02*
X137241000Y-64181000D01*
X134759000Y-64181000D02*
X131203000Y-64181000D01*
X140783000Y-64221000D02*
X137241000Y-64221000D01*
X134759000Y-64221000D02*
X131217000Y-64221000D01*
X140768000Y-64261000D02*
X137241000Y-64261000D01*
X134759000Y-64261000D02*
X131232000Y-64261000D01*
X140754000Y-64301000D02*
X137241000Y-64301000D01*
X134759000Y-64301000D02*
X131246000Y-64301000D01*
X140738000Y-64341000D02*
X137241000Y-64341000D01*
X134759000Y-64341000D02*
X131262000Y-64341000D01*
X140723000Y-64381000D02*
X137241000Y-64381000D01*
X134759000Y-64381000D02*
X131277000Y-64381000D01*
X140707000Y-64421000D02*
X137241000Y-64421000D01*
X134759000Y-64421000D02*
X131293000Y-64421000D01*
X140690000Y-64461000D02*
X137241000Y-64461000D01*
X134759000Y-64461000D02*
X131310000Y-64461000D01*
X140674000Y-64501000D02*
X137241000Y-64501000D01*
X134759000Y-64501000D02*
X131326000Y-64501000D01*
X140657000Y-64541000D02*
X137241000Y-64541000D01*
X134759000Y-64541000D02*
X131343000Y-64541000D01*
X140639000Y-64581000D02*
X137241000Y-64581000D01*
X134759000Y-64581000D02*
X131361000Y-64581000D01*
X140621000Y-64621000D02*
X137241000Y-64621000D01*
X134759000Y-64621000D02*
X131379000Y-64621000D01*
X140603000Y-64661000D02*
X137241000Y-64661000D01*
X134759000Y-64661000D02*
X131397000Y-64661000D01*
X140584000Y-64701000D02*
X137241000Y-64701000D01*
X134759000Y-64701000D02*
X131416000Y-64701000D01*
X140564000Y-64741000D02*
X137241000Y-64741000D01*
X134759000Y-64741000D02*
X131436000Y-64741000D01*
X140545000Y-64781000D02*
X137241000Y-64781000D01*
X134759000Y-64781000D02*
X131455000Y-64781000D01*
X140525000Y-64821000D02*
X137241000Y-64821000D01*
X134759000Y-64821000D02*
X131475000Y-64821000D01*
X140504000Y-64861000D02*
X137241000Y-64861000D01*
X134759000Y-64861000D02*
X131496000Y-64861000D01*
X140483000Y-64901000D02*
X137241000Y-64901000D01*
X134759000Y-64901000D02*
X131517000Y-64901000D01*
X140462000Y-64941000D02*
X137241000Y-64941000D01*
X134759000Y-64941000D02*
X131538000Y-64941000D01*
X140440000Y-64981000D02*
X137241000Y-64981000D01*
X134759000Y-64981000D02*
X131560000Y-64981000D01*
X140417000Y-65021000D02*
X137241000Y-65021000D01*
X134759000Y-65021000D02*
X131583000Y-65021000D01*
X140395000Y-65061000D02*
X137241000Y-65061000D01*
X134759000Y-65061000D02*
X131605000Y-65061000D01*
X140371000Y-65101000D02*
X137241000Y-65101000D01*
X134759000Y-65101000D02*
X131629000Y-65101000D01*
X140347000Y-65141000D02*
X137241000Y-65141000D01*
X134759000Y-65141000D02*
X131653000Y-65141000D01*
X140323000Y-65181000D02*
X137241000Y-65181000D01*
X134759000Y-65181000D02*
X131677000Y-65181000D01*
X140298000Y-65221000D02*
X137241000Y-65221000D01*
X134759000Y-65221000D02*
X131702000Y-65221000D01*
X140273000Y-65261000D02*
X137241000Y-65261000D01*
X134759000Y-65261000D02*
X131727000Y-65261000D01*
X140247000Y-65301000D02*
X137241000Y-65301000D01*
X134759000Y-65301000D02*
X131753000Y-65301000D01*
X140221000Y-65341000D02*
X137241000Y-65341000D01*
X134759000Y-65341000D02*
X131779000Y-65341000D01*
X140194000Y-65381000D02*
X137241000Y-65381000D01*
X134759000Y-65381000D02*
X131806000Y-65381000D01*
X140166000Y-65421000D02*
X137241000Y-65421000D01*
X134759000Y-65421000D02*
X131834000Y-65421000D01*
X140138000Y-65461000D02*
X137241000Y-65461000D01*
X134759000Y-65461000D02*
X131862000Y-65461000D01*
X140110000Y-65501000D02*
X137241000Y-65501000D01*
X134759000Y-65501000D02*
X131890000Y-65501000D01*
X140080000Y-65541000D02*
X137241000Y-65541000D01*
X134759000Y-65541000D02*
X131920000Y-65541000D01*
X140050000Y-65581000D02*
X137241000Y-65581000D01*
X134759000Y-65581000D02*
X131950000Y-65581000D01*
X140020000Y-65621000D02*
X137241000Y-65621000D01*
X134759000Y-65621000D02*
X131980000Y-65621000D01*
X139989000Y-65661000D02*
X137241000Y-65661000D01*
X134759000Y-65661000D02*
X132011000Y-65661000D01*
X139957000Y-65701000D02*
X137241000Y-65701000D01*
X134759000Y-65701000D02*
X132043000Y-65701000D01*
X139925000Y-65741000D02*
X137241000Y-65741000D01*
X134759000Y-65741000D02*
X132075000Y-65741000D01*
X139892000Y-65781000D02*
X137241000Y-65781000D01*
X134759000Y-65781000D02*
X132108000Y-65781000D01*
X139858000Y-65821000D02*
X137241000Y-65821000D01*
X134759000Y-65821000D02*
X132142000Y-65821000D01*
X139824000Y-65861000D02*
X137241000Y-65861000D01*
X134759000Y-65861000D02*
X132176000Y-65861000D01*
X139789000Y-65901000D02*
X137241000Y-65901000D01*
X134759000Y-65901000D02*
X132211000Y-65901000D01*
X139753000Y-65941000D02*
X137241000Y-65941000D01*
X134759000Y-65941000D02*
X132247000Y-65941000D01*
X139716000Y-65981000D02*
X137241000Y-65981000D01*
X134759000Y-65981000D02*
X132284000Y-65981000D01*
X139679000Y-66021000D02*
X137241000Y-66021000D01*
X134759000Y-66021000D02*
X132321000Y-66021000D01*
X139640000Y-66061000D02*
X137241000Y-66061000D01*
X134759000Y-66061000D02*
X132360000Y-66061000D01*
X139601000Y-66101000D02*
X137241000Y-66101000D01*
X134759000Y-66101000D02*
X132399000Y-66101000D01*
X139561000Y-66141000D02*
X137241000Y-66141000D01*
X134759000Y-66141000D02*
X132439000Y-66141000D01*
X139520000Y-66181000D02*
X137241000Y-66181000D01*
X134759000Y-66181000D02*
X132480000Y-66181000D01*
X139478000Y-66221000D02*
X137241000Y-66221000D01*
X134759000Y-66221000D02*
X132522000Y-66221000D01*
X139436000Y-66261000D02*
X132564000Y-66261000D01*
X139392000Y-66301000D02*
X132608000Y-66301000D01*
X139347000Y-66341000D02*
X132653000Y-66341000D01*
X139301000Y-66381000D02*
X132699000Y-66381000D01*
X139254000Y-66421000D02*
X132746000Y-66421000D01*
X139206000Y-66461000D02*
X132794000Y-66461000D01*
X139156000Y-66501000D02*
X132844000Y-66501000D01*
X139106000Y-66541000D02*
X132894000Y-66541000D01*
X139054000Y-66581000D02*
X132946000Y-66581000D01*
X139000000Y-66621000D02*
X133000000Y-66621000D01*
X138945000Y-66661000D02*
X133055000Y-66661000D01*
X138889000Y-66701000D02*
X133111000Y-66701000D01*
X138830000Y-66741000D02*
X133170000Y-66741000D01*
X138770000Y-66781000D02*
X133230000Y-66781000D01*
X138709000Y-66821000D02*
X133291000Y-66821000D01*
X138645000Y-66861000D02*
X133355000Y-66861000D01*
X138579000Y-66901000D02*
X133421000Y-66901000D01*
X138510000Y-66941000D02*
X133490000Y-66941000D01*
X138439000Y-66981000D02*
X133561000Y-66981000D01*
X138365000Y-67021000D02*
X133635000Y-67021000D01*
X138289000Y-67061000D02*
X133711000Y-67061000D01*
X138209000Y-67101000D02*
X133791000Y-67101000D01*
X138125000Y-67141000D02*
X133875000Y-67141000D01*
X138037000Y-67181000D02*
X133963000Y-67181000D01*
X137944000Y-67221000D02*
X134056000Y-67221000D01*
X137846000Y-67261000D02*
X134154000Y-67261000D01*
X137742000Y-67301000D02*
X134258000Y-67301000D01*
X137630000Y-67341000D02*
X134370000Y-67341000D01*
X137510000Y-67381000D02*
X134490000Y-67381000D01*
X137378000Y-67421000D02*
X134622000Y-67421000D01*
X137230000Y-67461000D02*
X134770000Y-67461000D01*
X137062000Y-67501000D02*
X134938000Y-67501000D01*
X136862000Y-67541000D02*
X135138000Y-67541000D01*
X136599000Y-67581000D02*
X135401000Y-67581000D01*
X138875000Y-57020354D02*
X138875000Y-58020354D01*
X139375000Y-57520354D02*
X138375000Y-57520354D01*
X152230000Y-77930000D02*
X156770000Y-77930000D01*
X152230000Y-80070000D02*
X156770000Y-80070000D01*
X152230000Y-77930000D02*
X152230000Y-77945000D01*
X152230000Y-80055000D02*
X152230000Y-80070000D01*
X156770000Y-77930000D02*
X156770000Y-77945000D01*
X156770000Y-80055000D02*
X156770000Y-80070000D01*
X128120000Y-132000000D02*
G75*
G03*
X128120000Y-132000000I-5120000J0D01*
G01*
X117920000Y-132000000D02*
X128080000Y-132000000D01*
X117920000Y-131960000D02*
X128080000Y-131960000D01*
X117920000Y-131920000D02*
X128080000Y-131920000D01*
X117921000Y-131880000D02*
X128079000Y-131880000D01*
X117922000Y-131840000D02*
X128078000Y-131840000D01*
X117923000Y-131800000D02*
X128077000Y-131800000D01*
X117925000Y-131760000D02*
X128075000Y-131760000D01*
X117927000Y-131720000D02*
X128073000Y-131720000D01*
X117930000Y-131680000D02*
X128070000Y-131680000D01*
X117932000Y-131640000D02*
X128068000Y-131640000D01*
X117935000Y-131600000D02*
X128065000Y-131600000D01*
X117938000Y-131560000D02*
X128062000Y-131560000D01*
X117942000Y-131520000D02*
X128058000Y-131520000D01*
X117946000Y-131480000D02*
X128054000Y-131480000D01*
X117950000Y-131440000D02*
X128050000Y-131440000D01*
X117955000Y-131400000D02*
X128045000Y-131400000D01*
X117960000Y-131360000D02*
X128040000Y-131360000D01*
X117965000Y-131320000D02*
X128035000Y-131320000D01*
X117970000Y-131279000D02*
X128030000Y-131279000D01*
X117976000Y-131239000D02*
X128024000Y-131239000D01*
X117982000Y-131199000D02*
X128018000Y-131199000D01*
X117989000Y-131159000D02*
X128011000Y-131159000D01*
X117996000Y-131119000D02*
X128004000Y-131119000D01*
X118003000Y-131079000D02*
X127997000Y-131079000D01*
X118010000Y-131039000D02*
X127990000Y-131039000D01*
X118018000Y-130999000D02*
X127982000Y-130999000D01*
X118026000Y-130959000D02*
X127974000Y-130959000D01*
X118035000Y-130919000D02*
X127965000Y-130919000D01*
X118044000Y-130879000D02*
X127956000Y-130879000D01*
X118053000Y-130839000D02*
X127947000Y-130839000D01*
X118062000Y-130799000D02*
X127938000Y-130799000D01*
X118072000Y-130759000D02*
X127928000Y-130759000D01*
X118082000Y-130719000D02*
X121759000Y-130719000D01*
X124241000Y-130719000D02*
X127918000Y-130719000D01*
X118093000Y-130679000D02*
X121759000Y-130679000D01*
X124241000Y-130679000D02*
X127907000Y-130679000D01*
X118103000Y-130639000D02*
X121759000Y-130639000D01*
X124241000Y-130639000D02*
X127897000Y-130639000D01*
X118115000Y-130599000D02*
X121759000Y-130599000D01*
X124241000Y-130599000D02*
X127885000Y-130599000D01*
X118126000Y-130559000D02*
X121759000Y-130559000D01*
X124241000Y-130559000D02*
X127874000Y-130559000D01*
X118138000Y-130519000D02*
X121759000Y-130519000D01*
X124241000Y-130519000D02*
X127862000Y-130519000D01*
X118150000Y-130479000D02*
X121759000Y-130479000D01*
X124241000Y-130479000D02*
X127850000Y-130479000D01*
X118163000Y-130439000D02*
X121759000Y-130439000D01*
X124241000Y-130439000D02*
X127837000Y-130439000D01*
X118176000Y-130399000D02*
X121759000Y-130399000D01*
X124241000Y-130399000D02*
X127824000Y-130399000D01*
X118189000Y-130359000D02*
X121759000Y-130359000D01*
X124241000Y-130359000D02*
X127811000Y-130359000D01*
X118203000Y-130319000D02*
X121759000Y-130319000D01*
X124241000Y-130319000D02*
X127797000Y-130319000D01*
X118217000Y-130279000D02*
X121759000Y-130279000D01*
X124241000Y-130279000D02*
X127783000Y-130279000D01*
X118232000Y-130239000D02*
X121759000Y-130239000D01*
X124241000Y-130239000D02*
X127768000Y-130239000D01*
X118246000Y-130199000D02*
X121759000Y-130199000D01*
X124241000Y-130199000D02*
X127754000Y-130199000D01*
X118262000Y-130159000D02*
X121759000Y-130159000D01*
X124241000Y-130159000D02*
X127738000Y-130159000D01*
X118277000Y-130119000D02*
X121759000Y-130119000D01*
X124241000Y-130119000D02*
X127723000Y-130119000D01*
X118293000Y-130079000D02*
X121759000Y-130079000D01*
X124241000Y-130079000D02*
X127707000Y-130079000D01*
X118310000Y-130039000D02*
X121759000Y-130039000D01*
X124241000Y-130039000D02*
X127690000Y-130039000D01*
X118326000Y-129999000D02*
X121759000Y-129999000D01*
X124241000Y-129999000D02*
X127674000Y-129999000D01*
X118343000Y-129959000D02*
X121759000Y-129959000D01*
X124241000Y-129959000D02*
X127657000Y-129959000D01*
X118361000Y-129919000D02*
X121759000Y-129919000D01*
X124241000Y-129919000D02*
X127639000Y-129919000D01*
X118379000Y-129879000D02*
X121759000Y-129879000D01*
X124241000Y-129879000D02*
X127621000Y-129879000D01*
X118397000Y-129839000D02*
X121759000Y-129839000D01*
X124241000Y-129839000D02*
X127603000Y-129839000D01*
X118416000Y-129799000D02*
X121759000Y-129799000D01*
X124241000Y-129799000D02*
X127584000Y-129799000D01*
X118436000Y-129759000D02*
X121759000Y-129759000D01*
X124241000Y-129759000D02*
X127564000Y-129759000D01*
X118455000Y-129719000D02*
X121759000Y-129719000D01*
X124241000Y-129719000D02*
X127545000Y-129719000D01*
X118475000Y-129679000D02*
X121759000Y-129679000D01*
X124241000Y-129679000D02*
X127525000Y-129679000D01*
X118496000Y-129639000D02*
X121759000Y-129639000D01*
X124241000Y-129639000D02*
X127504000Y-129639000D01*
X118517000Y-129599000D02*
X121759000Y-129599000D01*
X124241000Y-129599000D02*
X127483000Y-129599000D01*
X118538000Y-129559000D02*
X121759000Y-129559000D01*
X124241000Y-129559000D02*
X127462000Y-129559000D01*
X118560000Y-129519000D02*
X121759000Y-129519000D01*
X124241000Y-129519000D02*
X127440000Y-129519000D01*
X118583000Y-129479000D02*
X121759000Y-129479000D01*
X124241000Y-129479000D02*
X127417000Y-129479000D01*
X118605000Y-129439000D02*
X121759000Y-129439000D01*
X124241000Y-129439000D02*
X127395000Y-129439000D01*
X118629000Y-129399000D02*
X121759000Y-129399000D01*
X124241000Y-129399000D02*
X127371000Y-129399000D01*
X118653000Y-129359000D02*
X121759000Y-129359000D01*
X124241000Y-129359000D02*
X127347000Y-129359000D01*
X118677000Y-129319000D02*
X121759000Y-129319000D01*
X124241000Y-129319000D02*
X127323000Y-129319000D01*
X118702000Y-129279000D02*
X121759000Y-129279000D01*
X124241000Y-129279000D02*
X127298000Y-129279000D01*
X118727000Y-129239000D02*
X121759000Y-129239000D01*
X124241000Y-129239000D02*
X127273000Y-129239000D01*
X118753000Y-129199000D02*
X121759000Y-129199000D01*
X124241000Y-129199000D02*
X127247000Y-129199000D01*
X118779000Y-129159000D02*
X121759000Y-129159000D01*
X124241000Y-129159000D02*
X127221000Y-129159000D01*
X118806000Y-129119000D02*
X121759000Y-129119000D01*
X124241000Y-129119000D02*
X127194000Y-129119000D01*
X118834000Y-129079000D02*
X121759000Y-129079000D01*
X124241000Y-129079000D02*
X127166000Y-129079000D01*
X118862000Y-129039000D02*
X121759000Y-129039000D01*
X124241000Y-129039000D02*
X127138000Y-129039000D01*
X118890000Y-128999000D02*
X121759000Y-128999000D01*
X124241000Y-128999000D02*
X127110000Y-128999000D01*
X118920000Y-128959000D02*
X121759000Y-128959000D01*
X124241000Y-128959000D02*
X127080000Y-128959000D01*
X118950000Y-128919000D02*
X121759000Y-128919000D01*
X124241000Y-128919000D02*
X127050000Y-128919000D01*
X118980000Y-128879000D02*
X121759000Y-128879000D01*
X124241000Y-128879000D02*
X127020000Y-128879000D01*
X119011000Y-128839000D02*
X121759000Y-128839000D01*
X124241000Y-128839000D02*
X126989000Y-128839000D01*
X119043000Y-128799000D02*
X121759000Y-128799000D01*
X124241000Y-128799000D02*
X126957000Y-128799000D01*
X119075000Y-128759000D02*
X121759000Y-128759000D01*
X124241000Y-128759000D02*
X126925000Y-128759000D01*
X119108000Y-128719000D02*
X121759000Y-128719000D01*
X124241000Y-128719000D02*
X126892000Y-128719000D01*
X119142000Y-128679000D02*
X121759000Y-128679000D01*
X124241000Y-128679000D02*
X126858000Y-128679000D01*
X119176000Y-128639000D02*
X121759000Y-128639000D01*
X124241000Y-128639000D02*
X126824000Y-128639000D01*
X119211000Y-128599000D02*
X121759000Y-128599000D01*
X124241000Y-128599000D02*
X126789000Y-128599000D01*
X119247000Y-128559000D02*
X121759000Y-128559000D01*
X124241000Y-128559000D02*
X126753000Y-128559000D01*
X119284000Y-128519000D02*
X121759000Y-128519000D01*
X124241000Y-128519000D02*
X126716000Y-128519000D01*
X119321000Y-128479000D02*
X121759000Y-128479000D01*
X124241000Y-128479000D02*
X126679000Y-128479000D01*
X119360000Y-128439000D02*
X121759000Y-128439000D01*
X124241000Y-128439000D02*
X126640000Y-128439000D01*
X119399000Y-128399000D02*
X121759000Y-128399000D01*
X124241000Y-128399000D02*
X126601000Y-128399000D01*
X119439000Y-128359000D02*
X121759000Y-128359000D01*
X124241000Y-128359000D02*
X126561000Y-128359000D01*
X119480000Y-128319000D02*
X121759000Y-128319000D01*
X124241000Y-128319000D02*
X126520000Y-128319000D01*
X119522000Y-128279000D02*
X121759000Y-128279000D01*
X124241000Y-128279000D02*
X126478000Y-128279000D01*
X119564000Y-128239000D02*
X126436000Y-128239000D01*
X119608000Y-128199000D02*
X126392000Y-128199000D01*
X119653000Y-128159000D02*
X126347000Y-128159000D01*
X119699000Y-128119000D02*
X126301000Y-128119000D01*
X119746000Y-128079000D02*
X126254000Y-128079000D01*
X119794000Y-128039000D02*
X126206000Y-128039000D01*
X119844000Y-127999000D02*
X126156000Y-127999000D01*
X119894000Y-127959000D02*
X126106000Y-127959000D01*
X119946000Y-127919000D02*
X126054000Y-127919000D01*
X120000000Y-127879000D02*
X126000000Y-127879000D01*
X120055000Y-127839000D02*
X125945000Y-127839000D01*
X120111000Y-127799000D02*
X125889000Y-127799000D01*
X120170000Y-127759000D02*
X125830000Y-127759000D01*
X120230000Y-127719000D02*
X125770000Y-127719000D01*
X120291000Y-127679000D02*
X125709000Y-127679000D01*
X120355000Y-127639000D02*
X125645000Y-127639000D01*
X120421000Y-127599000D02*
X125579000Y-127599000D01*
X120490000Y-127559000D02*
X125510000Y-127559000D01*
X120561000Y-127519000D02*
X125439000Y-127519000D01*
X120635000Y-127479000D02*
X125365000Y-127479000D01*
X120711000Y-127439000D02*
X125289000Y-127439000D01*
X120791000Y-127399000D02*
X125209000Y-127399000D01*
X120875000Y-127359000D02*
X125125000Y-127359000D01*
X120963000Y-127319000D02*
X125037000Y-127319000D01*
X121056000Y-127279000D02*
X124944000Y-127279000D01*
X121154000Y-127239000D02*
X124846000Y-127239000D01*
X121258000Y-127199000D02*
X124742000Y-127199000D01*
X121370000Y-127159000D02*
X124630000Y-127159000D01*
X121490000Y-127119000D02*
X124510000Y-127119000D01*
X121622000Y-127079000D02*
X124378000Y-127079000D01*
X121770000Y-127039000D02*
X124230000Y-127039000D01*
X121938000Y-126999000D02*
X124062000Y-126999000D01*
X122138000Y-126959000D02*
X123862000Y-126959000D01*
X122401000Y-126919000D02*
X123599000Y-126919000D01*
X120125000Y-137479646D02*
X120125000Y-136479646D01*
X119625000Y-136979646D02*
X120625000Y-136979646D01*
X120120000Y-123500000D02*
G75*
G03*
X120120000Y-123500000I-2620000J0D01*
G01*
X116460000Y-123500000D02*
X114920000Y-123500000D01*
X120080000Y-123500000D02*
X118540000Y-123500000D01*
X116460000Y-123540000D02*
X114920000Y-123540000D01*
X120080000Y-123540000D02*
X118540000Y-123540000D01*
X120079000Y-123580000D02*
X118540000Y-123580000D01*
X116460000Y-123580000D02*
X114921000Y-123580000D01*
X120078000Y-123620000D02*
X118540000Y-123620000D01*
X116460000Y-123620000D02*
X114922000Y-123620000D01*
X120076000Y-123660000D02*
X118540000Y-123660000D01*
X116460000Y-123660000D02*
X114924000Y-123660000D01*
X120073000Y-123700000D02*
X118540000Y-123700000D01*
X116460000Y-123700000D02*
X114927000Y-123700000D01*
X120069000Y-123740000D02*
X118540000Y-123740000D01*
X116460000Y-123740000D02*
X114931000Y-123740000D01*
X120065000Y-123780000D02*
X118540000Y-123780000D01*
X116460000Y-123780000D02*
X114935000Y-123780000D01*
X120061000Y-123820000D02*
X118540000Y-123820000D01*
X116460000Y-123820000D02*
X114939000Y-123820000D01*
X120056000Y-123860000D02*
X118540000Y-123860000D01*
X116460000Y-123860000D02*
X114944000Y-123860000D01*
X120050000Y-123900000D02*
X118540000Y-123900000D01*
X116460000Y-123900000D02*
X114950000Y-123900000D01*
X120043000Y-123940000D02*
X118540000Y-123940000D01*
X116460000Y-123940000D02*
X114957000Y-123940000D01*
X120036000Y-123980000D02*
X118540000Y-123980000D01*
X116460000Y-123980000D02*
X114964000Y-123980000D01*
X120028000Y-124020000D02*
X118540000Y-124020000D01*
X116460000Y-124020000D02*
X114972000Y-124020000D01*
X120020000Y-124060000D02*
X118540000Y-124060000D01*
X116460000Y-124060000D02*
X114980000Y-124060000D01*
X120011000Y-124100000D02*
X118540000Y-124100000D01*
X116460000Y-124100000D02*
X114989000Y-124100000D01*
X120001000Y-124140000D02*
X118540000Y-124140000D01*
X116460000Y-124140000D02*
X114999000Y-124140000D01*
X119991000Y-124180000D02*
X118540000Y-124180000D01*
X116460000Y-124180000D02*
X115009000Y-124180000D01*
X119980000Y-124221000D02*
X118540000Y-124221000D01*
X116460000Y-124221000D02*
X115020000Y-124221000D01*
X119968000Y-124261000D02*
X118540000Y-124261000D01*
X116460000Y-124261000D02*
X115032000Y-124261000D01*
X119955000Y-124301000D02*
X118540000Y-124301000D01*
X116460000Y-124301000D02*
X115045000Y-124301000D01*
X119942000Y-124341000D02*
X118540000Y-124341000D01*
X116460000Y-124341000D02*
X115058000Y-124341000D01*
X119928000Y-124381000D02*
X118540000Y-124381000D01*
X116460000Y-124381000D02*
X115072000Y-124381000D01*
X119914000Y-124421000D02*
X118540000Y-124421000D01*
X116460000Y-124421000D02*
X115086000Y-124421000D01*
X119898000Y-124461000D02*
X118540000Y-124461000D01*
X116460000Y-124461000D02*
X115102000Y-124461000D01*
X119882000Y-124501000D02*
X118540000Y-124501000D01*
X116460000Y-124501000D02*
X115118000Y-124501000D01*
X119865000Y-124541000D02*
X118540000Y-124541000D01*
X116460000Y-124541000D02*
X115135000Y-124541000D01*
X119848000Y-124581000D02*
X118540000Y-124581000D01*
X116460000Y-124581000D02*
X115152000Y-124581000D01*
X119829000Y-124621000D02*
X118540000Y-124621000D01*
X116460000Y-124621000D02*
X115171000Y-124621000D01*
X119810000Y-124661000D02*
X118540000Y-124661000D01*
X116460000Y-124661000D02*
X115190000Y-124661000D01*
X119790000Y-124701000D02*
X118540000Y-124701000D01*
X116460000Y-124701000D02*
X115210000Y-124701000D01*
X119768000Y-124741000D02*
X118540000Y-124741000D01*
X116460000Y-124741000D02*
X115232000Y-124741000D01*
X119747000Y-124781000D02*
X118540000Y-124781000D01*
X116460000Y-124781000D02*
X115253000Y-124781000D01*
X119724000Y-124821000D02*
X118540000Y-124821000D01*
X116460000Y-124821000D02*
X115276000Y-124821000D01*
X119700000Y-124861000D02*
X118540000Y-124861000D01*
X116460000Y-124861000D02*
X115300000Y-124861000D01*
X119675000Y-124901000D02*
X118540000Y-124901000D01*
X116460000Y-124901000D02*
X115325000Y-124901000D01*
X119649000Y-124941000D02*
X118540000Y-124941000D01*
X116460000Y-124941000D02*
X115351000Y-124941000D01*
X119622000Y-124981000D02*
X118540000Y-124981000D01*
X116460000Y-124981000D02*
X115378000Y-124981000D01*
X119595000Y-125021000D02*
X118540000Y-125021000D01*
X116460000Y-125021000D02*
X115405000Y-125021000D01*
X119565000Y-125061000D02*
X118540000Y-125061000D01*
X116460000Y-125061000D02*
X115435000Y-125061000D01*
X119535000Y-125101000D02*
X118540000Y-125101000D01*
X116460000Y-125101000D02*
X115465000Y-125101000D01*
X119504000Y-125141000D02*
X118540000Y-125141000D01*
X116460000Y-125141000D02*
X115496000Y-125141000D01*
X119471000Y-125181000D02*
X118540000Y-125181000D01*
X116460000Y-125181000D02*
X115529000Y-125181000D01*
X119437000Y-125221000D02*
X118540000Y-125221000D01*
X116460000Y-125221000D02*
X115563000Y-125221000D01*
X119401000Y-125261000D02*
X118540000Y-125261000D01*
X116460000Y-125261000D02*
X115599000Y-125261000D01*
X119364000Y-125301000D02*
X118540000Y-125301000D01*
X116460000Y-125301000D02*
X115636000Y-125301000D01*
X119326000Y-125341000D02*
X118540000Y-125341000D01*
X116460000Y-125341000D02*
X115674000Y-125341000D01*
X119285000Y-125381000D02*
X118540000Y-125381000D01*
X116460000Y-125381000D02*
X115715000Y-125381000D01*
X119243000Y-125421000D02*
X118540000Y-125421000D01*
X116460000Y-125421000D02*
X115757000Y-125421000D01*
X119199000Y-125461000D02*
X118540000Y-125461000D01*
X116460000Y-125461000D02*
X115801000Y-125461000D01*
X119153000Y-125501000D02*
X118540000Y-125501000D01*
X116460000Y-125501000D02*
X115847000Y-125501000D01*
X119105000Y-125541000D02*
X115895000Y-125541000D01*
X119054000Y-125581000D02*
X115946000Y-125581000D01*
X119000000Y-125621000D02*
X116000000Y-125621000D01*
X118943000Y-125661000D02*
X116057000Y-125661000D01*
X118883000Y-125701000D02*
X116117000Y-125701000D01*
X118819000Y-125741000D02*
X116181000Y-125741000D01*
X118751000Y-125781000D02*
X116249000Y-125781000D01*
X118678000Y-125821000D02*
X116322000Y-125821000D01*
X118598000Y-125861000D02*
X116402000Y-125861000D01*
X118511000Y-125901000D02*
X116489000Y-125901000D01*
X118415000Y-125941000D02*
X116585000Y-125941000D01*
X118305000Y-125981000D02*
X116695000Y-125981000D01*
X118177000Y-126021000D02*
X116823000Y-126021000D01*
X118018000Y-126061000D02*
X116982000Y-126061000D01*
X117784000Y-126101000D02*
X117216000Y-126101000D01*
X118975000Y-120695225D02*
X118975000Y-121195225D01*
X119225000Y-120945225D02*
X118725000Y-120945225D01*
X130270000Y-109070000D02*
X125730000Y-109070000D01*
X130270000Y-106930000D02*
X125730000Y-106930000D01*
X130270000Y-109070000D02*
X130270000Y-109055000D01*
X130270000Y-106945000D02*
X130270000Y-106930000D01*
X125730000Y-109070000D02*
X125730000Y-109055000D01*
X125730000Y-106945000D02*
X125730000Y-106930000D01*
X130270000Y-111570000D02*
X125730000Y-111570000D01*
X130270000Y-109430000D02*
X125730000Y-109430000D01*
X130270000Y-111570000D02*
X130270000Y-111555000D01*
X130270000Y-109445000D02*
X130270000Y-109430000D01*
X125730000Y-111570000D02*
X125730000Y-111555000D01*
X125730000Y-109445000D02*
X125730000Y-109430000D01*
X130270000Y-114070000D02*
X125730000Y-114070000D01*
X130270000Y-111930000D02*
X125730000Y-111930000D01*
X130270000Y-114070000D02*
X130270000Y-114055000D01*
X130270000Y-111945000D02*
X130270000Y-111930000D01*
X125730000Y-114070000D02*
X125730000Y-114055000D01*
X125730000Y-111945000D02*
X125730000Y-111930000D01*
X130270000Y-116570000D02*
X125730000Y-116570000D01*
X130270000Y-114430000D02*
X125730000Y-114430000D01*
X130270000Y-116570000D02*
X130270000Y-116555000D01*
X130270000Y-114445000D02*
X130270000Y-114430000D01*
X125730000Y-116570000D02*
X125730000Y-116555000D01*
X125730000Y-114445000D02*
X125730000Y-114430000D01*
X173620000Y-126630000D02*
X178160000Y-126630000D01*
X173620000Y-128770000D02*
X178160000Y-128770000D01*
X173620000Y-126630000D02*
X173620000Y-126645000D01*
X173620000Y-128755000D02*
X173620000Y-128770000D01*
X178160000Y-126630000D02*
X178160000Y-126645000D01*
X178160000Y-128755000D02*
X178160000Y-128770000D01*
X125270000Y-100070000D02*
X120730000Y-100070000D01*
X125270000Y-97930000D02*
X120730000Y-97930000D01*
X125270000Y-100070000D02*
X125270000Y-100055000D01*
X125270000Y-97945000D02*
X125270000Y-97930000D01*
X120730000Y-100070000D02*
X120730000Y-100055000D01*
X120730000Y-97945000D02*
X120730000Y-97930000D01*
D14*
X178952380Y-64309523D02*
X179666666Y-64309523D01*
X179809523Y-64357142D01*
X179904761Y-64452380D01*
X179952380Y-64595238D01*
X179952380Y-64690476D01*
X179952380Y-63309523D02*
X179952380Y-63880952D01*
X179952380Y-63595238D02*
X178952380Y-63595238D01*
X179095238Y-63690476D01*
X179190476Y-63785714D01*
X179238095Y-63880952D01*
X179047619Y-62928571D02*
X179000000Y-62880952D01*
X178952380Y-62785714D01*
X178952380Y-62547619D01*
X179000000Y-62452380D01*
X179047619Y-62404761D01*
X179142857Y-62357142D01*
X179238095Y-62357142D01*
X179380952Y-62404761D01*
X179952380Y-62976190D01*
X179952380Y-62357142D01*
X104690476Y-132452380D02*
X104690476Y-133166666D01*
X104642857Y-133309523D01*
X104547619Y-133404761D01*
X104404761Y-133452380D01*
X104309523Y-133452380D01*
X105690476Y-133452380D02*
X105119047Y-133452380D01*
X105404761Y-133452380D02*
X105404761Y-132452380D01*
X105309523Y-132595238D01*
X105214285Y-132690476D01*
X105119047Y-132738095D01*
X106642857Y-133452380D02*
X106071428Y-133452380D01*
X106357142Y-133452380D02*
X106357142Y-132452380D01*
X106261904Y-132595238D01*
X106166666Y-132690476D01*
X106071428Y-132738095D01*
X104190476Y-60952380D02*
X104190476Y-61666666D01*
X104142857Y-61809523D01*
X104047619Y-61904761D01*
X103904761Y-61952380D01*
X103809523Y-61952380D01*
X105190476Y-61952380D02*
X104619047Y-61952380D01*
X104904761Y-61952380D02*
X104904761Y-60952380D01*
X104809523Y-61095238D01*
X104714285Y-61190476D01*
X104619047Y-61238095D01*
X105809523Y-60952380D02*
X105904761Y-60952380D01*
X106000000Y-61000000D01*
X106047619Y-61047619D01*
X106095238Y-61142857D01*
X106142857Y-61333333D01*
X106142857Y-61571428D01*
X106095238Y-61761904D01*
X106047619Y-61857142D01*
X106000000Y-61904761D01*
X105904761Y-61952380D01*
X105809523Y-61952380D01*
X105714285Y-61904761D01*
X105666666Y-61857142D01*
X105619047Y-61761904D01*
X105571428Y-61571428D01*
X105571428Y-61333333D01*
X105619047Y-61142857D01*
X105666666Y-61047619D01*
X105714285Y-61000000D01*
X105809523Y-60952380D01*
X187166666Y-132452380D02*
X187166666Y-133166666D01*
X187119047Y-133309523D01*
X187023809Y-133404761D01*
X186880952Y-133452380D01*
X186785714Y-133452380D01*
X187690476Y-133452380D02*
X187880952Y-133452380D01*
X187976190Y-133404761D01*
X188023809Y-133357142D01*
X188119047Y-133214285D01*
X188166666Y-133023809D01*
X188166666Y-132642857D01*
X188119047Y-132547619D01*
X188071428Y-132500000D01*
X187976190Y-132452380D01*
X187785714Y-132452380D01*
X187690476Y-132500000D01*
X187642857Y-132547619D01*
X187595238Y-132642857D01*
X187595238Y-132880952D01*
X187642857Y-132976190D01*
X187690476Y-133023809D01*
X187785714Y-133071428D01*
X187976190Y-133071428D01*
X188071428Y-133023809D01*
X188119047Y-132976190D01*
X188166666Y-132880952D01*
X187166666Y-61452380D02*
X187166666Y-62166666D01*
X187119047Y-62309523D01*
X187023809Y-62404761D01*
X186880952Y-62452380D01*
X186785714Y-62452380D01*
X187785714Y-61880952D02*
X187690476Y-61833333D01*
X187642857Y-61785714D01*
X187595238Y-61690476D01*
X187595238Y-61642857D01*
X187642857Y-61547619D01*
X187690476Y-61500000D01*
X187785714Y-61452380D01*
X187976190Y-61452380D01*
X188071428Y-61500000D01*
X188119047Y-61547619D01*
X188166666Y-61642857D01*
X188166666Y-61690476D01*
X188119047Y-61785714D01*
X188071428Y-61833333D01*
X187976190Y-61880952D01*
X187785714Y-61880952D01*
X187690476Y-61928571D01*
X187642857Y-61976190D01*
X187595238Y-62071428D01*
X187595238Y-62261904D01*
X187642857Y-62357142D01*
X187690476Y-62404761D01*
X187785714Y-62452380D01*
X187976190Y-62452380D01*
X188071428Y-62404761D01*
X188119047Y-62357142D01*
X188166666Y-62261904D01*
X188166666Y-62071428D01*
X188119047Y-61976190D01*
X188071428Y-61928571D01*
X187976190Y-61880952D01*
X155607142Y-132642857D02*
X155654761Y-132690476D01*
X155702380Y-132833333D01*
X155702380Y-132928571D01*
X155654761Y-133071428D01*
X155559523Y-133166666D01*
X155464285Y-133214285D01*
X155273809Y-133261904D01*
X155130952Y-133261904D01*
X154940476Y-133214285D01*
X154845238Y-133166666D01*
X154750000Y-133071428D01*
X154702380Y-132928571D01*
X154702380Y-132833333D01*
X154750000Y-132690476D01*
X154797619Y-132642857D01*
X155702380Y-131690476D02*
X155702380Y-132261904D01*
X155702380Y-131976190D02*
X154702380Y-131976190D01*
X154845238Y-132071428D01*
X154940476Y-132166666D01*
X154988095Y-132261904D01*
X154702380Y-131357142D02*
X154702380Y-130690476D01*
X155702380Y-131119047D01*
X168107142Y-63142857D02*
X168154761Y-63190476D01*
X168202380Y-63333333D01*
X168202380Y-63428571D01*
X168154761Y-63571428D01*
X168059523Y-63666666D01*
X167964285Y-63714285D01*
X167773809Y-63761904D01*
X167630952Y-63761904D01*
X167440476Y-63714285D01*
X167345238Y-63666666D01*
X167250000Y-63571428D01*
X167202380Y-63428571D01*
X167202380Y-63333333D01*
X167250000Y-63190476D01*
X167297619Y-63142857D01*
X168202380Y-62190476D02*
X168202380Y-62761904D01*
X168202380Y-62476190D02*
X167202380Y-62476190D01*
X167345238Y-62571428D01*
X167440476Y-62666666D01*
X167488095Y-62761904D01*
X167202380Y-61333333D02*
X167202380Y-61523809D01*
X167250000Y-61619047D01*
X167297619Y-61666666D01*
X167440476Y-61761904D01*
X167630952Y-61809523D01*
X168011904Y-61809523D01*
X168107142Y-61761904D01*
X168154761Y-61714285D01*
X168202380Y-61619047D01*
X168202380Y-61428571D01*
X168154761Y-61333333D01*
X168107142Y-61285714D01*
X168011904Y-61238095D01*
X167773809Y-61238095D01*
X167678571Y-61285714D01*
X167630952Y-61333333D01*
X167583333Y-61428571D01*
X167583333Y-61619047D01*
X167630952Y-61714285D01*
X167678571Y-61761904D01*
X167773809Y-61809523D01*
X143107142Y-132642857D02*
X143154761Y-132690476D01*
X143202380Y-132833333D01*
X143202380Y-132928571D01*
X143154761Y-133071428D01*
X143059523Y-133166666D01*
X142964285Y-133214285D01*
X142773809Y-133261904D01*
X142630952Y-133261904D01*
X142440476Y-133214285D01*
X142345238Y-133166666D01*
X142250000Y-133071428D01*
X142202380Y-132928571D01*
X142202380Y-132833333D01*
X142250000Y-132690476D01*
X142297619Y-132642857D01*
X143202380Y-131690476D02*
X143202380Y-132261904D01*
X143202380Y-131976190D02*
X142202380Y-131976190D01*
X142345238Y-132071428D01*
X142440476Y-132166666D01*
X142488095Y-132261904D01*
X142202380Y-130785714D02*
X142202380Y-131261904D01*
X142678571Y-131309523D01*
X142630952Y-131261904D01*
X142583333Y-131166666D01*
X142583333Y-130928571D01*
X142630952Y-130833333D01*
X142678571Y-130785714D01*
X142773809Y-130738095D01*
X143011904Y-130738095D01*
X143107142Y-130785714D01*
X143154761Y-130833333D01*
X143202380Y-130928571D01*
X143202380Y-131166666D01*
X143154761Y-131261904D01*
X143107142Y-131309523D01*
X155607142Y-63142857D02*
X155654761Y-63190476D01*
X155702380Y-63333333D01*
X155702380Y-63428571D01*
X155654761Y-63571428D01*
X155559523Y-63666666D01*
X155464285Y-63714285D01*
X155273809Y-63761904D01*
X155130952Y-63761904D01*
X154940476Y-63714285D01*
X154845238Y-63666666D01*
X154750000Y-63571428D01*
X154702380Y-63428571D01*
X154702380Y-63333333D01*
X154750000Y-63190476D01*
X154797619Y-63142857D01*
X155702380Y-62190476D02*
X155702380Y-62761904D01*
X155702380Y-62476190D02*
X154702380Y-62476190D01*
X154845238Y-62571428D01*
X154940476Y-62666666D01*
X154988095Y-62761904D01*
X155035714Y-61333333D02*
X155702380Y-61333333D01*
X154654761Y-61571428D02*
X155369047Y-61809523D01*
X155369047Y-61190476D01*
X158952380Y-103261904D02*
X159761904Y-103261904D01*
X159857142Y-103214285D01*
X159904761Y-103166666D01*
X159952380Y-103071428D01*
X159952380Y-102880952D01*
X159904761Y-102785714D01*
X159857142Y-102738095D01*
X159761904Y-102690476D01*
X158952380Y-102690476D01*
X159952380Y-101690476D02*
X159952380Y-102261904D01*
X159952380Y-101976190D02*
X158952380Y-101976190D01*
X159095238Y-102071428D01*
X159190476Y-102166666D01*
X159238095Y-102261904D01*
X106452380Y-94833333D02*
X107166666Y-94833333D01*
X107309523Y-94880952D01*
X107404761Y-94976190D01*
X107452380Y-95119047D01*
X107452380Y-95214285D01*
X106452380Y-94452380D02*
X106452380Y-93833333D01*
X106833333Y-94166666D01*
X106833333Y-94023809D01*
X106880952Y-93928571D01*
X106928571Y-93880952D01*
X107023809Y-93833333D01*
X107261904Y-93833333D01*
X107357142Y-93880952D01*
X107404761Y-93928571D01*
X107452380Y-94023809D01*
X107452380Y-94309523D01*
X107404761Y-94404761D01*
X107357142Y-94452380D01*
X116252380Y-113333333D02*
X116966666Y-113333333D01*
X117109523Y-113380952D01*
X117204761Y-113476190D01*
X117252380Y-113619047D01*
X117252380Y-113714285D01*
X117252380Y-112333333D02*
X117252380Y-112904761D01*
X117252380Y-112619047D02*
X116252380Y-112619047D01*
X116395238Y-112714285D01*
X116490476Y-112809523D01*
X116538095Y-112904761D01*
X116666666Y-105082380D02*
X116666666Y-105796666D01*
X116619047Y-105939523D01*
X116523809Y-106034761D01*
X116380952Y-106082380D01*
X116285714Y-106082380D01*
X117095238Y-105177619D02*
X117142857Y-105130000D01*
X117238095Y-105082380D01*
X117476190Y-105082380D01*
X117571428Y-105130000D01*
X117619047Y-105177619D01*
X117666666Y-105272857D01*
X117666666Y-105368095D01*
X117619047Y-105510952D01*
X117047619Y-106082380D01*
X117666666Y-106082380D01*
X124372380Y-89088095D02*
X123372380Y-89088095D01*
X123372380Y-88850000D01*
X123420000Y-88707142D01*
X123515238Y-88611904D01*
X123610476Y-88564285D01*
X123800952Y-88516666D01*
X123943809Y-88516666D01*
X124134285Y-88564285D01*
X124229523Y-88611904D01*
X124324761Y-88707142D01*
X124372380Y-88850000D01*
X124372380Y-89088095D01*
X124372380Y-87564285D02*
X124372380Y-88135714D01*
X124372380Y-87850000D02*
X123372380Y-87850000D01*
X123515238Y-87945238D01*
X123610476Y-88040476D01*
X123658095Y-88135714D01*
X123652380Y-82261904D02*
X122652380Y-82261904D01*
X123652380Y-81690476D02*
X123080952Y-82119047D01*
X122652380Y-81690476D02*
X123223809Y-82261904D01*
X166372380Y-91016666D02*
X165896190Y-91350000D01*
X166372380Y-91588095D02*
X165372380Y-91588095D01*
X165372380Y-91207142D01*
X165420000Y-91111904D01*
X165467619Y-91064285D01*
X165562857Y-91016666D01*
X165705714Y-91016666D01*
X165800952Y-91064285D01*
X165848571Y-91111904D01*
X165896190Y-91207142D01*
X165896190Y-91588095D01*
X165372380Y-90683333D02*
X165372380Y-90064285D01*
X165753333Y-90397619D01*
X165753333Y-90254761D01*
X165800952Y-90159523D01*
X165848571Y-90111904D01*
X165943809Y-90064285D01*
X166181904Y-90064285D01*
X166277142Y-90111904D01*
X166324761Y-90159523D01*
X166372380Y-90254761D01*
X166372380Y-90540476D01*
X166324761Y-90635714D01*
X166277142Y-90683333D01*
X148483333Y-118872380D02*
X148150000Y-118396190D01*
X147911904Y-118872380D02*
X147911904Y-117872380D01*
X148292857Y-117872380D01*
X148388095Y-117920000D01*
X148435714Y-117967619D01*
X148483333Y-118062857D01*
X148483333Y-118205714D01*
X148435714Y-118300952D01*
X148388095Y-118348571D01*
X148292857Y-118396190D01*
X147911904Y-118396190D01*
X148864285Y-117967619D02*
X148911904Y-117920000D01*
X149007142Y-117872380D01*
X149245238Y-117872380D01*
X149340476Y-117920000D01*
X149388095Y-117967619D01*
X149435714Y-118062857D01*
X149435714Y-118158095D01*
X149388095Y-118300952D01*
X148816666Y-118872380D01*
X149435714Y-118872380D01*
X123032380Y-88316666D02*
X122556190Y-88650000D01*
X123032380Y-88888095D02*
X122032380Y-88888095D01*
X122032380Y-88507142D01*
X122080000Y-88411904D01*
X122127619Y-88364285D01*
X122222857Y-88316666D01*
X122365714Y-88316666D01*
X122460952Y-88364285D01*
X122508571Y-88411904D01*
X122556190Y-88507142D01*
X122556190Y-88888095D01*
X123032380Y-87364285D02*
X123032380Y-87935714D01*
X123032380Y-87650000D02*
X122032380Y-87650000D01*
X122175238Y-87745238D01*
X122270476Y-87840476D01*
X122318095Y-87935714D01*
X177492380Y-80293333D02*
X178206666Y-80293333D01*
X178349523Y-80340952D01*
X178444761Y-80436190D01*
X178492380Y-80579047D01*
X178492380Y-80674285D01*
X177492380Y-79912380D02*
X177492380Y-79245714D01*
X178492380Y-79674285D01*
X177492380Y-92293333D02*
X178206666Y-92293333D01*
X178349523Y-92340952D01*
X178444761Y-92436190D01*
X178492380Y-92579047D01*
X178492380Y-92674285D01*
X177492380Y-91388571D02*
X177492380Y-91579047D01*
X177540000Y-91674285D01*
X177587619Y-91721904D01*
X177730476Y-91817142D01*
X177920952Y-91864761D01*
X178301904Y-91864761D01*
X178397142Y-91817142D01*
X178444761Y-91769523D01*
X178492380Y-91674285D01*
X178492380Y-91483809D01*
X178444761Y-91388571D01*
X178397142Y-91340952D01*
X178301904Y-91293333D01*
X178063809Y-91293333D01*
X177968571Y-91340952D01*
X177920952Y-91388571D01*
X177873333Y-91483809D01*
X177873333Y-91674285D01*
X177920952Y-91769523D01*
X177968571Y-91817142D01*
X178063809Y-91864761D01*
X177492380Y-116373333D02*
X178206666Y-116373333D01*
X178349523Y-116420952D01*
X178444761Y-116516190D01*
X178492380Y-116659047D01*
X178492380Y-116754285D01*
X177492380Y-115420952D02*
X177492380Y-115897142D01*
X177968571Y-115944761D01*
X177920952Y-115897142D01*
X177873333Y-115801904D01*
X177873333Y-115563809D01*
X177920952Y-115468571D01*
X177968571Y-115420952D01*
X178063809Y-115373333D01*
X178301904Y-115373333D01*
X178397142Y-115420952D01*
X178444761Y-115468571D01*
X178492380Y-115563809D01*
X178492380Y-115801904D01*
X178444761Y-115897142D01*
X178397142Y-115944761D01*
X177492380Y-104293333D02*
X178206666Y-104293333D01*
X178349523Y-104340952D01*
X178444761Y-104436190D01*
X178492380Y-104579047D01*
X178492380Y-104674285D01*
X177825714Y-103388571D02*
X178492380Y-103388571D01*
X177444761Y-103626666D02*
X178159047Y-103864761D01*
X178159047Y-103245714D01*
X167657142Y-132642857D02*
X167704761Y-132690476D01*
X167752380Y-132833333D01*
X167752380Y-132928571D01*
X167704761Y-133071428D01*
X167609523Y-133166666D01*
X167514285Y-133214285D01*
X167323809Y-133261904D01*
X167180952Y-133261904D01*
X166990476Y-133214285D01*
X166895238Y-133166666D01*
X166800000Y-133071428D01*
X166752380Y-132928571D01*
X166752380Y-132833333D01*
X166800000Y-132690476D01*
X166847619Y-132642857D01*
X167752380Y-131690476D02*
X167752380Y-132261904D01*
X167752380Y-131976190D02*
X166752380Y-131976190D01*
X166895238Y-132071428D01*
X166990476Y-132166666D01*
X167038095Y-132261904D01*
X166752380Y-131357142D02*
X166752380Y-130738095D01*
X167133333Y-131071428D01*
X167133333Y-130928571D01*
X167180952Y-130833333D01*
X167228571Y-130785714D01*
X167323809Y-130738095D01*
X167561904Y-130738095D01*
X167657142Y-130785714D01*
X167704761Y-130833333D01*
X167752380Y-130928571D01*
X167752380Y-131214285D01*
X167704761Y-131309523D01*
X167657142Y-131357142D01*
X130107142Y-132642857D02*
X130154761Y-132690476D01*
X130202380Y-132833333D01*
X130202380Y-132928571D01*
X130154761Y-133071428D01*
X130059523Y-133166666D01*
X129964285Y-133214285D01*
X129773809Y-133261904D01*
X129630952Y-133261904D01*
X129440476Y-133214285D01*
X129345238Y-133166666D01*
X129250000Y-133071428D01*
X129202380Y-132928571D01*
X129202380Y-132833333D01*
X129250000Y-132690476D01*
X129297619Y-132642857D01*
X130202380Y-131690476D02*
X130202380Y-132261904D01*
X130202380Y-131976190D02*
X129202380Y-131976190D01*
X129345238Y-132071428D01*
X129440476Y-132166666D01*
X129488095Y-132261904D01*
X129297619Y-131309523D02*
X129250000Y-131261904D01*
X129202380Y-131166666D01*
X129202380Y-130928571D01*
X129250000Y-130833333D01*
X129297619Y-130785714D01*
X129392857Y-130738095D01*
X129488095Y-130738095D01*
X129630952Y-130785714D01*
X130202380Y-131357142D01*
X130202380Y-130738095D01*
X129607142Y-63142857D02*
X129654761Y-63190476D01*
X129702380Y-63333333D01*
X129702380Y-63428571D01*
X129654761Y-63571428D01*
X129559523Y-63666666D01*
X129464285Y-63714285D01*
X129273809Y-63761904D01*
X129130952Y-63761904D01*
X128940476Y-63714285D01*
X128845238Y-63666666D01*
X128750000Y-63571428D01*
X128702380Y-63428571D01*
X128702380Y-63333333D01*
X128750000Y-63190476D01*
X128797619Y-63142857D01*
X129702380Y-62190476D02*
X129702380Y-62761904D01*
X129702380Y-62476190D02*
X128702380Y-62476190D01*
X128845238Y-62571428D01*
X128940476Y-62666666D01*
X128988095Y-62761904D01*
X129702380Y-61238095D02*
X129702380Y-61809523D01*
X129702380Y-61523809D02*
X128702380Y-61523809D01*
X128845238Y-61619047D01*
X128940476Y-61714285D01*
X128988095Y-61809523D01*
X142607142Y-63142857D02*
X142654761Y-63190476D01*
X142702380Y-63333333D01*
X142702380Y-63428571D01*
X142654761Y-63571428D01*
X142559523Y-63666666D01*
X142464285Y-63714285D01*
X142273809Y-63761904D01*
X142130952Y-63761904D01*
X141940476Y-63714285D01*
X141845238Y-63666666D01*
X141750000Y-63571428D01*
X141702380Y-63428571D01*
X141702380Y-63333333D01*
X141750000Y-63190476D01*
X141797619Y-63142857D01*
X142702380Y-62190476D02*
X142702380Y-62761904D01*
X142702380Y-62476190D02*
X141702380Y-62476190D01*
X141845238Y-62571428D01*
X141940476Y-62666666D01*
X141988095Y-62761904D01*
X141702380Y-61571428D02*
X141702380Y-61476190D01*
X141750000Y-61380952D01*
X141797619Y-61333333D01*
X141892857Y-61285714D01*
X142083333Y-61238095D01*
X142321428Y-61238095D01*
X142511904Y-61285714D01*
X142607142Y-61333333D01*
X142654761Y-61380952D01*
X142702380Y-61476190D01*
X142702380Y-61571428D01*
X142654761Y-61666666D01*
X142607142Y-61714285D01*
X142511904Y-61761904D01*
X142321428Y-61809523D01*
X142083333Y-61809523D01*
X141892857Y-61761904D01*
X141797619Y-61714285D01*
X141750000Y-61666666D01*
X141702380Y-61571428D01*
X154333333Y-77157142D02*
X154285714Y-77204761D01*
X154142857Y-77252380D01*
X154047619Y-77252380D01*
X153904761Y-77204761D01*
X153809523Y-77109523D01*
X153761904Y-77014285D01*
X153714285Y-76823809D01*
X153714285Y-76680952D01*
X153761904Y-76490476D01*
X153809523Y-76395238D01*
X153904761Y-76300000D01*
X154047619Y-76252380D01*
X154142857Y-76252380D01*
X154285714Y-76300000D01*
X154333333Y-76347619D01*
X154809523Y-77252380D02*
X155000000Y-77252380D01*
X155095238Y-77204761D01*
X155142857Y-77157142D01*
X155238095Y-77014285D01*
X155285714Y-76823809D01*
X155285714Y-76442857D01*
X155238095Y-76347619D01*
X155190476Y-76300000D01*
X155095238Y-76252380D01*
X154904761Y-76252380D01*
X154809523Y-76300000D01*
X154761904Y-76347619D01*
X154714285Y-76442857D01*
X154714285Y-76680952D01*
X154761904Y-76776190D01*
X154809523Y-76823809D01*
X154904761Y-76871428D01*
X155095238Y-76871428D01*
X155190476Y-76823809D01*
X155238095Y-76776190D01*
X155285714Y-76680952D01*
X117107142Y-132166666D02*
X117154761Y-132214285D01*
X117202380Y-132357142D01*
X117202380Y-132452380D01*
X117154761Y-132595238D01*
X117059523Y-132690476D01*
X116964285Y-132738095D01*
X116773809Y-132785714D01*
X116630952Y-132785714D01*
X116440476Y-132738095D01*
X116345238Y-132690476D01*
X116250000Y-132595238D01*
X116202380Y-132452380D01*
X116202380Y-132357142D01*
X116250000Y-132214285D01*
X116297619Y-132166666D01*
X116630952Y-131595238D02*
X116583333Y-131690476D01*
X116535714Y-131738095D01*
X116440476Y-131785714D01*
X116392857Y-131785714D01*
X116297619Y-131738095D01*
X116250000Y-131690476D01*
X116202380Y-131595238D01*
X116202380Y-131404761D01*
X116250000Y-131309523D01*
X116297619Y-131261904D01*
X116392857Y-131214285D01*
X116440476Y-131214285D01*
X116535714Y-131261904D01*
X116583333Y-131309523D01*
X116630952Y-131404761D01*
X116630952Y-131595238D01*
X116678571Y-131690476D01*
X116726190Y-131738095D01*
X116821428Y-131785714D01*
X117011904Y-131785714D01*
X117107142Y-131738095D01*
X117154761Y-131690476D01*
X117202380Y-131595238D01*
X117202380Y-131404761D01*
X117154761Y-131309523D01*
X117107142Y-131261904D01*
X117011904Y-131214285D01*
X116821428Y-131214285D01*
X116726190Y-131261904D01*
X116678571Y-131309523D01*
X116630952Y-131404761D01*
X114833333Y-127357142D02*
X114785714Y-127404761D01*
X114642857Y-127452380D01*
X114547619Y-127452380D01*
X114404761Y-127404761D01*
X114309523Y-127309523D01*
X114261904Y-127214285D01*
X114214285Y-127023809D01*
X114214285Y-126880952D01*
X114261904Y-126690476D01*
X114309523Y-126595238D01*
X114404761Y-126500000D01*
X114547619Y-126452380D01*
X114642857Y-126452380D01*
X114785714Y-126500000D01*
X114833333Y-126547619D01*
X115166666Y-126452380D02*
X115833333Y-126452380D01*
X115404761Y-127452380D01*
X127833333Y-110557142D02*
X127785714Y-110604761D01*
X127642857Y-110652380D01*
X127547619Y-110652380D01*
X127404761Y-110604761D01*
X127309523Y-110509523D01*
X127261904Y-110414285D01*
X127214285Y-110223809D01*
X127214285Y-110080952D01*
X127261904Y-109890476D01*
X127309523Y-109795238D01*
X127404761Y-109700000D01*
X127547619Y-109652380D01*
X127642857Y-109652380D01*
X127785714Y-109700000D01*
X127833333Y-109747619D01*
X128690476Y-109652380D02*
X128500000Y-109652380D01*
X128404761Y-109700000D01*
X128357142Y-109747619D01*
X128261904Y-109890476D01*
X128214285Y-110080952D01*
X128214285Y-110461904D01*
X128261904Y-110557142D01*
X128309523Y-110604761D01*
X128404761Y-110652380D01*
X128595238Y-110652380D01*
X128690476Y-110604761D01*
X128738095Y-110557142D01*
X128785714Y-110461904D01*
X128785714Y-110223809D01*
X128738095Y-110128571D01*
X128690476Y-110080952D01*
X128595238Y-110033333D01*
X128404761Y-110033333D01*
X128309523Y-110080952D01*
X128261904Y-110128571D01*
X128214285Y-110223809D01*
X127833333Y-113057142D02*
X127785714Y-113104761D01*
X127642857Y-113152380D01*
X127547619Y-113152380D01*
X127404761Y-113104761D01*
X127309523Y-113009523D01*
X127261904Y-112914285D01*
X127214285Y-112723809D01*
X127214285Y-112580952D01*
X127261904Y-112390476D01*
X127309523Y-112295238D01*
X127404761Y-112200000D01*
X127547619Y-112152380D01*
X127642857Y-112152380D01*
X127785714Y-112200000D01*
X127833333Y-112247619D01*
X128738095Y-112152380D02*
X128261904Y-112152380D01*
X128214285Y-112628571D01*
X128261904Y-112580952D01*
X128357142Y-112533333D01*
X128595238Y-112533333D01*
X128690476Y-112580952D01*
X128738095Y-112628571D01*
X128785714Y-112723809D01*
X128785714Y-112961904D01*
X128738095Y-113057142D01*
X128690476Y-113104761D01*
X128595238Y-113152380D01*
X128357142Y-113152380D01*
X128261904Y-113104761D01*
X128214285Y-113057142D01*
X127833333Y-115557142D02*
X127785714Y-115604761D01*
X127642857Y-115652380D01*
X127547619Y-115652380D01*
X127404761Y-115604761D01*
X127309523Y-115509523D01*
X127261904Y-115414285D01*
X127214285Y-115223809D01*
X127214285Y-115080952D01*
X127261904Y-114890476D01*
X127309523Y-114795238D01*
X127404761Y-114700000D01*
X127547619Y-114652380D01*
X127642857Y-114652380D01*
X127785714Y-114700000D01*
X127833333Y-114747619D01*
X128690476Y-114985714D02*
X128690476Y-115652380D01*
X128452380Y-114604761D02*
X128214285Y-115319047D01*
X128833333Y-115319047D01*
X127833333Y-118057142D02*
X127785714Y-118104761D01*
X127642857Y-118152380D01*
X127547619Y-118152380D01*
X127404761Y-118104761D01*
X127309523Y-118009523D01*
X127261904Y-117914285D01*
X127214285Y-117723809D01*
X127214285Y-117580952D01*
X127261904Y-117390476D01*
X127309523Y-117295238D01*
X127404761Y-117200000D01*
X127547619Y-117152380D01*
X127642857Y-117152380D01*
X127785714Y-117200000D01*
X127833333Y-117247619D01*
X128166666Y-117152380D02*
X128785714Y-117152380D01*
X128452380Y-117533333D01*
X128595238Y-117533333D01*
X128690476Y-117580952D01*
X128738095Y-117628571D01*
X128785714Y-117723809D01*
X128785714Y-117961904D01*
X128738095Y-118057142D01*
X128690476Y-118104761D01*
X128595238Y-118152380D01*
X128309523Y-118152380D01*
X128214285Y-118104761D01*
X128166666Y-118057142D01*
X175723333Y-125857142D02*
X175675714Y-125904761D01*
X175532857Y-125952380D01*
X175437619Y-125952380D01*
X175294761Y-125904761D01*
X175199523Y-125809523D01*
X175151904Y-125714285D01*
X175104285Y-125523809D01*
X175104285Y-125380952D01*
X175151904Y-125190476D01*
X175199523Y-125095238D01*
X175294761Y-125000000D01*
X175437619Y-124952380D01*
X175532857Y-124952380D01*
X175675714Y-125000000D01*
X175723333Y-125047619D01*
X176104285Y-125047619D02*
X176151904Y-125000000D01*
X176247142Y-124952380D01*
X176485238Y-124952380D01*
X176580476Y-125000000D01*
X176628095Y-125047619D01*
X176675714Y-125142857D01*
X176675714Y-125238095D01*
X176628095Y-125380952D01*
X176056666Y-125952380D01*
X176675714Y-125952380D01*
X122833333Y-101557142D02*
X122785714Y-101604761D01*
X122642857Y-101652380D01*
X122547619Y-101652380D01*
X122404761Y-101604761D01*
X122309523Y-101509523D01*
X122261904Y-101414285D01*
X122214285Y-101223809D01*
X122214285Y-101080952D01*
X122261904Y-100890476D01*
X122309523Y-100795238D01*
X122404761Y-100700000D01*
X122547619Y-100652380D01*
X122642857Y-100652380D01*
X122785714Y-100700000D01*
X122833333Y-100747619D01*
X123785714Y-101652380D02*
X123214285Y-101652380D01*
X123500000Y-101652380D02*
X123500000Y-100652380D01*
X123404761Y-100795238D01*
X123309523Y-100890476D01*
X123214285Y-100938095D01*
M02*
