G04 #@! TF.GenerationSoftware,KiCad,Pcbnew,(5.1.6)-1*
G04 #@! TF.CreationDate,2020-09-05T01:30:18-05:00*
G04 #@! TF.ProjectId,amplificador-200w,616d706c-6966-4696-9361-646f722d3230,rev?*
G04 #@! TF.SameCoordinates,Original*
G04 #@! TF.FileFunction,Soldermask,Bot*
G04 #@! TF.FilePolarity,Negative*
%FSLAX46Y46*%
G04 Gerber Fmt 4.6, Leading zero omitted, Abs format (unit mm)*
G04 Created by KiCad (PCBNEW (5.1.6)-1) date 2020-09-05 01:30:18*
%MOMM*%
%LPD*%
G01*
G04 APERTURE LIST*
%ADD10C,0.300000*%
%ADD11C,0.010000*%
%ADD12C,0.100000*%
G04 APERTURE END LIST*
D10*
X162101428Y-77208571D02*
X162958571Y-77208571D01*
X162530000Y-78708571D02*
X162530000Y-77208571D01*
X163458571Y-78708571D02*
X163458571Y-77208571D01*
X163815714Y-77208571D01*
X164030000Y-77280000D01*
X164172857Y-77422857D01*
X164244285Y-77565714D01*
X164315714Y-77851428D01*
X164315714Y-78065714D01*
X164244285Y-78351428D01*
X164172857Y-78494285D01*
X164030000Y-78637142D01*
X163815714Y-78708571D01*
X163458571Y-78708571D01*
X164887142Y-78280000D02*
X165601428Y-78280000D01*
X164744285Y-78708571D02*
X165244285Y-77208571D01*
X165744285Y-78708571D01*
X166101428Y-77208571D02*
X167101428Y-77208571D01*
X166458571Y-78708571D01*
X167887142Y-77851428D02*
X167744285Y-77780000D01*
X167672857Y-77708571D01*
X167601428Y-77565714D01*
X167601428Y-77494285D01*
X167672857Y-77351428D01*
X167744285Y-77280000D01*
X167887142Y-77208571D01*
X168172857Y-77208571D01*
X168315714Y-77280000D01*
X168387142Y-77351428D01*
X168458571Y-77494285D01*
X168458571Y-77565714D01*
X168387142Y-77708571D01*
X168315714Y-77780000D01*
X168172857Y-77851428D01*
X167887142Y-77851428D01*
X167744285Y-77922857D01*
X167672857Y-77994285D01*
X167601428Y-78137142D01*
X167601428Y-78422857D01*
X167672857Y-78565714D01*
X167744285Y-78637142D01*
X167887142Y-78708571D01*
X168172857Y-78708571D01*
X168315714Y-78637142D01*
X168387142Y-78565714D01*
X168458571Y-78422857D01*
X168458571Y-78137142D01*
X168387142Y-77994285D01*
X168315714Y-77922857D01*
X168172857Y-77851428D01*
X169815714Y-77208571D02*
X169101428Y-77208571D01*
X169030000Y-77922857D01*
X169101428Y-77851428D01*
X169244285Y-77780000D01*
X169601428Y-77780000D01*
X169744285Y-77851428D01*
X169815714Y-77922857D01*
X169887142Y-78065714D01*
X169887142Y-78422857D01*
X169815714Y-78565714D01*
X169744285Y-78637142D01*
X169601428Y-78708571D01*
X169244285Y-78708571D01*
X169101428Y-78637142D01*
X169030000Y-78565714D01*
X170815714Y-77208571D02*
X170958571Y-77208571D01*
X171101428Y-77280000D01*
X171172857Y-77351428D01*
X171244285Y-77494285D01*
X171315714Y-77780000D01*
X171315714Y-78137142D01*
X171244285Y-78422857D01*
X171172857Y-78565714D01*
X171101428Y-78637142D01*
X170958571Y-78708571D01*
X170815714Y-78708571D01*
X170672857Y-78637142D01*
X170601428Y-78565714D01*
X170530000Y-78422857D01*
X170458571Y-78137142D01*
X170458571Y-77780000D01*
X170530000Y-77494285D01*
X170601428Y-77351428D01*
X170672857Y-77280000D01*
X170815714Y-77208571D01*
X157653928Y-75978571D02*
X157841428Y-74478571D01*
X158207500Y-75550000D01*
X158841428Y-74478571D01*
X158653928Y-75978571D01*
X159350357Y-75550000D02*
X160064642Y-75550000D01*
X159153928Y-75978571D02*
X159841428Y-74478571D01*
X160153928Y-75978571D01*
X161028928Y-75264285D02*
X160939642Y-75978571D01*
X160627142Y-74478571D02*
X161028928Y-75264285D01*
X161627142Y-74478571D01*
X161939642Y-75978571D02*
X162127142Y-74478571D01*
X162796785Y-75978571D02*
X162261071Y-75121428D01*
X162984285Y-74478571D02*
X162020000Y-75335714D01*
X163912857Y-74478571D02*
X164198571Y-74478571D01*
X164332500Y-74550000D01*
X164457500Y-74692857D01*
X164493214Y-74978571D01*
X164430714Y-75478571D01*
X164323571Y-75764285D01*
X164162857Y-75907142D01*
X164011071Y-75978571D01*
X163725357Y-75978571D01*
X163591428Y-75907142D01*
X163466428Y-75764285D01*
X163430714Y-75478571D01*
X163493214Y-74978571D01*
X163600357Y-74692857D01*
X163761071Y-74550000D01*
X163912857Y-74478571D01*
X165725357Y-75978571D02*
X165011071Y-75978571D01*
X165198571Y-74478571D01*
X167082500Y-75978571D02*
X166671785Y-75264285D01*
X166225357Y-75978571D02*
X166412857Y-74478571D01*
X166984285Y-74478571D01*
X167118214Y-74550000D01*
X167180714Y-74621428D01*
X167234285Y-74764285D01*
X167207500Y-74978571D01*
X167118214Y-75121428D01*
X167037857Y-75192857D01*
X166886071Y-75264285D01*
X166314642Y-75264285D01*
X167823571Y-75192857D02*
X168323571Y-75192857D01*
X168439642Y-75978571D02*
X167725357Y-75978571D01*
X167912857Y-74478571D01*
X168627142Y-74478571D01*
X169457500Y-75264285D02*
X169368214Y-75978571D01*
X169055714Y-74478571D02*
X169457500Y-75264285D01*
X170055714Y-74478571D01*
X170386071Y-75835714D02*
X170448571Y-75907142D01*
X170368214Y-75978571D01*
X170305714Y-75907142D01*
X170386071Y-75835714D01*
X170368214Y-75978571D01*
X171957500Y-75835714D02*
X171877142Y-75907142D01*
X171653928Y-75978571D01*
X171511071Y-75978571D01*
X171305714Y-75907142D01*
X171180714Y-75764285D01*
X171127142Y-75621428D01*
X171091428Y-75335714D01*
X171118214Y-75121428D01*
X171225357Y-74835714D01*
X171314642Y-74692857D01*
X171475357Y-74550000D01*
X171698571Y-74478571D01*
X171841428Y-74478571D01*
X172046785Y-74550000D01*
X172109285Y-74621428D01*
X173055714Y-74478571D02*
X173341428Y-74478571D01*
X173475357Y-74550000D01*
X173600357Y-74692857D01*
X173636071Y-74978571D01*
X173573571Y-75478571D01*
X173466428Y-75764285D01*
X173305714Y-75907142D01*
X173153928Y-75978571D01*
X172868214Y-75978571D01*
X172734285Y-75907142D01*
X172609285Y-75764285D01*
X172573571Y-75478571D01*
X172636071Y-74978571D01*
X172743214Y-74692857D01*
X172903928Y-74550000D01*
X173055714Y-74478571D01*
X174153928Y-75978571D02*
X174341428Y-74478571D01*
X174707500Y-75550000D01*
X175341428Y-74478571D01*
X175153928Y-75978571D01*
D11*
G36*
X162532493Y-69028455D02*
G01*
X162307608Y-69032416D01*
X162128603Y-69041026D01*
X161986675Y-69055927D01*
X161873021Y-69078763D01*
X161778840Y-69111176D01*
X161695327Y-69154809D01*
X161613680Y-69211305D01*
X161548011Y-69263405D01*
X161390031Y-69430554D01*
X161282832Y-69624409D01*
X161224996Y-69835516D01*
X161215103Y-70054425D01*
X161251734Y-70271684D01*
X161333470Y-70477841D01*
X161458890Y-70663445D01*
X161626577Y-70819043D01*
X161796552Y-70918500D01*
X161864375Y-70946982D01*
X161933351Y-70968323D01*
X162015222Y-70984102D01*
X162121729Y-70995896D01*
X162264616Y-71005284D01*
X162455624Y-71013844D01*
X162526124Y-71016565D01*
X162748181Y-71026169D01*
X162913463Y-71037157D01*
X163028693Y-71051389D01*
X163100594Y-71070725D01*
X163135888Y-71097025D01*
X163141299Y-71132150D01*
X163123550Y-71177960D01*
X163121742Y-71181376D01*
X163105461Y-71203904D01*
X163078123Y-71220635D01*
X163030544Y-71232714D01*
X162953544Y-71241289D01*
X162837942Y-71247504D01*
X162674555Y-71252505D01*
X162524227Y-71255954D01*
X162273287Y-71263990D01*
X162074942Y-71278276D01*
X161918350Y-71302220D01*
X161792668Y-71339228D01*
X161687056Y-71392708D01*
X161590671Y-71466065D01*
X161492671Y-71562706D01*
X161470035Y-71587193D01*
X161390981Y-71679035D01*
X161330097Y-71766692D01*
X161284938Y-71860350D01*
X161253058Y-71970196D01*
X161232012Y-72106416D01*
X161219354Y-72279195D01*
X161212640Y-72498721D01*
X161210327Y-72668984D01*
X161208876Y-72886455D01*
X161209843Y-73049779D01*
X161213861Y-73168287D01*
X161221564Y-73251308D01*
X161233586Y-73308170D01*
X161250558Y-73348203D01*
X161257178Y-73359042D01*
X161342207Y-73437889D01*
X161449843Y-73469160D01*
X161560686Y-73452897D01*
X161655335Y-73389144D01*
X161679434Y-73358110D01*
X161700067Y-73317739D01*
X161714300Y-73263155D01*
X161722967Y-73183760D01*
X161726900Y-73068956D01*
X161726931Y-72908145D01*
X161725268Y-72774837D01*
X161724556Y-72526886D01*
X161731704Y-72333672D01*
X161747907Y-72186783D01*
X161774362Y-72077808D01*
X161812265Y-71998335D01*
X161840941Y-71961376D01*
X161890712Y-71909082D01*
X161937253Y-71869865D01*
X161990521Y-71841555D01*
X162060469Y-71821985D01*
X162157055Y-71808987D01*
X162290233Y-71800394D01*
X162469959Y-71794037D01*
X162629080Y-71789750D01*
X163240752Y-71773875D01*
X163378314Y-71677215D01*
X163526087Y-71539535D01*
X163622431Y-71377899D01*
X163668756Y-71202707D01*
X163666478Y-71024359D01*
X163617007Y-70853254D01*
X163521758Y-70699791D01*
X163382144Y-70574370D01*
X163217450Y-70493277D01*
X163140804Y-70478656D01*
X163011054Y-70467210D01*
X162838541Y-70459558D01*
X162633610Y-70456317D01*
X162597830Y-70456250D01*
X162398790Y-70455302D01*
X162252005Y-70451747D01*
X162146246Y-70444518D01*
X162070286Y-70432548D01*
X162012897Y-70414769D01*
X161975505Y-70397096D01*
X161850103Y-70296053D01*
X161771571Y-70157039D01*
X161745925Y-69991137D01*
X161773317Y-69832918D01*
X161853137Y-69708100D01*
X161953913Y-69629352D01*
X161990432Y-69609776D01*
X162033246Y-69594800D01*
X162090871Y-69583814D01*
X162171828Y-69576208D01*
X162284633Y-69571371D01*
X162437806Y-69568693D01*
X162639865Y-69567564D01*
X162819145Y-69567368D01*
X163582914Y-69567250D01*
X163691364Y-69647262D01*
X163768032Y-69710947D01*
X163824021Y-69769955D01*
X163832470Y-69782199D01*
X163840970Y-69827991D01*
X163849095Y-69934194D01*
X163856745Y-70097716D01*
X163863821Y-70315471D01*
X163870226Y-70584367D01*
X163875858Y-70901316D01*
X163880621Y-71263228D01*
X163881000Y-71297625D01*
X163896875Y-72758125D01*
X163981025Y-72916875D01*
X164128418Y-73131372D01*
X164317543Y-73302636D01*
X164443891Y-73379224D01*
X164604232Y-73434306D01*
X164796512Y-73460115D01*
X164996577Y-73456451D01*
X165180274Y-73423111D01*
X165278000Y-73386154D01*
X165471744Y-73258493D01*
X165640622Y-73084471D01*
X165748873Y-72918704D01*
X165833625Y-72758125D01*
X165849500Y-71297625D01*
X165853276Y-70946722D01*
X165856784Y-70653620D01*
X165860742Y-70412624D01*
X165865870Y-70218042D01*
X165872886Y-70064182D01*
X165882508Y-69945350D01*
X165895456Y-69855853D01*
X165912448Y-69789999D01*
X165934202Y-69742096D01*
X165961437Y-69706449D01*
X165994872Y-69677367D01*
X166035226Y-69649157D01*
X166059681Y-69632601D01*
X166137112Y-69588719D01*
X166216734Y-69570691D01*
X166326756Y-69572699D01*
X166343598Y-69574031D01*
X166460863Y-69590593D01*
X166543089Y-69624193D01*
X166618519Y-69686577D01*
X166621621Y-69689664D01*
X166722625Y-69790617D01*
X166739792Y-71242621D01*
X166743995Y-71586177D01*
X166747955Y-71872239D01*
X166751973Y-72106813D01*
X166756350Y-72295901D01*
X166761386Y-72445510D01*
X166767384Y-72561642D01*
X166774644Y-72650302D01*
X166783467Y-72717494D01*
X166794154Y-72769224D01*
X166807007Y-72811494D01*
X166820146Y-72845156D01*
X166941828Y-73058443D01*
X167109909Y-73240992D01*
X167281349Y-73361632D01*
X167371907Y-73408259D01*
X167451090Y-73436597D01*
X167540318Y-73451095D01*
X167661009Y-73456202D01*
X167738625Y-73456625D01*
X167882845Y-73454492D01*
X167984991Y-73445150D01*
X168066431Y-73424184D01*
X168148530Y-73387180D01*
X168194410Y-73362445D01*
X168378482Y-73232625D01*
X168533694Y-73068743D01*
X168644646Y-72887846D01*
X168663021Y-72843676D01*
X168676490Y-72802210D01*
X168687860Y-72751575D01*
X168697404Y-72685840D01*
X168705396Y-72599073D01*
X168712111Y-72485341D01*
X168717822Y-72338713D01*
X168722804Y-72153257D01*
X168727330Y-71923041D01*
X168731675Y-71642132D01*
X168736111Y-71304600D01*
X168736843Y-71245339D01*
X168741132Y-70903884D01*
X168745066Y-70620235D01*
X168748950Y-70388702D01*
X168753087Y-70203595D01*
X168757783Y-70059224D01*
X168763340Y-69949898D01*
X168770063Y-69869927D01*
X168778257Y-69813622D01*
X168788225Y-69775291D01*
X168800271Y-69749245D01*
X168814700Y-69729793D01*
X168818051Y-69726026D01*
X168947612Y-69625161D01*
X169097673Y-69574844D01*
X169253828Y-69574203D01*
X169401669Y-69622363D01*
X169526793Y-69718452D01*
X169568173Y-69771487D01*
X169578980Y-69799177D01*
X169588287Y-69850645D01*
X169596287Y-69930849D01*
X169603175Y-70044747D01*
X169609145Y-70197297D01*
X169614388Y-70393458D01*
X169619100Y-70638188D01*
X169623474Y-70936445D01*
X169627702Y-71293187D01*
X169627750Y-71297625D01*
X169631546Y-71640243D01*
X169635032Y-71925312D01*
X169638531Y-72158779D01*
X169642367Y-72346593D01*
X169646862Y-72494702D01*
X169652341Y-72609051D01*
X169659126Y-72695591D01*
X169667541Y-72760268D01*
X169677909Y-72809030D01*
X169690553Y-72847824D01*
X169705797Y-72882599D01*
X169714906Y-72901164D01*
X169848386Y-73105201D01*
X170021743Y-73270964D01*
X170224248Y-73390933D01*
X170445169Y-73457590D01*
X170522016Y-73466733D01*
X170630438Y-73470992D01*
X170699569Y-73460008D01*
X170752967Y-73427629D01*
X170784413Y-73398224D01*
X170853546Y-73293014D01*
X170866451Y-73183297D01*
X170828200Y-73081129D01*
X170743869Y-72998561D01*
X170618531Y-72947648D01*
X170592741Y-72942888D01*
X170411908Y-72892121D01*
X170281631Y-72803665D01*
X170239237Y-72751000D01*
X170225924Y-72726185D01*
X170214732Y-72692047D01*
X170205394Y-72642883D01*
X170197643Y-72572990D01*
X170191212Y-72476664D01*
X170185835Y-72348203D01*
X170181242Y-72181904D01*
X170177168Y-71972064D01*
X170173346Y-71712981D01*
X170169507Y-71398950D01*
X170167500Y-71219723D01*
X170163659Y-70878430D01*
X170160089Y-70594623D01*
X170156473Y-70362291D01*
X170152492Y-70175421D01*
X170147829Y-70028002D01*
X170142163Y-69914023D01*
X170135177Y-69827471D01*
X170126552Y-69762337D01*
X170115970Y-69712607D01*
X170103112Y-69672271D01*
X170087660Y-69635317D01*
X170083017Y-69625172D01*
X169950307Y-69407785D01*
X169776930Y-69235523D01*
X169569481Y-69113039D01*
X169334559Y-69044988D01*
X169246296Y-69034837D01*
X168998326Y-69047316D01*
X168767641Y-69118022D01*
X168562758Y-69242384D01*
X168392196Y-69415830D01*
X168313262Y-69535500D01*
X168214875Y-69710125D01*
X168199000Y-71170625D01*
X168194423Y-71545385D01*
X168189426Y-71860335D01*
X168183876Y-72119165D01*
X168177643Y-72325564D01*
X168170592Y-72483222D01*
X168162593Y-72595827D01*
X168153511Y-72667069D01*
X168144154Y-72699137D01*
X168094519Y-72763675D01*
X168020825Y-72837616D01*
X168002797Y-72853302D01*
X167935838Y-72902808D01*
X167871713Y-72926226D01*
X167784763Y-72930092D01*
X167716766Y-72926169D01*
X167551819Y-72893538D01*
X167426875Y-72817911D01*
X167330898Y-72694625D01*
X167320876Y-72652811D01*
X167311892Y-72562299D01*
X167303863Y-72420742D01*
X167296709Y-72225796D01*
X167290349Y-71975114D01*
X167284701Y-71666350D01*
X167279684Y-71297159D01*
X167278250Y-71170625D01*
X167274448Y-70827926D01*
X167270948Y-70542824D01*
X167267433Y-70309418D01*
X167263586Y-70121806D01*
X167259090Y-69974088D01*
X167253627Y-69860363D01*
X167246879Y-69774731D01*
X167238531Y-69711291D01*
X167228263Y-69664141D01*
X167215759Y-69627382D01*
X167200702Y-69595113D01*
X167192709Y-69579923D01*
X167050428Y-69373210D01*
X166876643Y-69215304D01*
X166679829Y-69105983D01*
X166468465Y-69045026D01*
X166251028Y-69032212D01*
X166035995Y-69067320D01*
X165831844Y-69150128D01*
X165647052Y-69280416D01*
X165490097Y-69457962D01*
X165393486Y-69626863D01*
X165377443Y-69663695D01*
X165364051Y-69702618D01*
X165352994Y-69749642D01*
X165343955Y-69810777D01*
X165336618Y-69892031D01*
X165330666Y-69999415D01*
X165325784Y-70138938D01*
X165321656Y-70316609D01*
X165317965Y-70538438D01*
X165314394Y-70810434D01*
X165310629Y-71138608D01*
X165309750Y-71218250D01*
X165305356Y-71580438D01*
X165300696Y-71883720D01*
X165295596Y-72132689D01*
X165289884Y-72331939D01*
X165283383Y-72486062D01*
X165275920Y-72599653D01*
X165267321Y-72677305D01*
X165257411Y-72723611D01*
X165252162Y-72736011D01*
X165159092Y-72839799D01*
X165030169Y-72906101D01*
X164882986Y-72931716D01*
X164735139Y-72913444D01*
X164610387Y-72852737D01*
X164533719Y-72789052D01*
X164477730Y-72730044D01*
X164469281Y-72717800D01*
X164460748Y-72671966D01*
X164452590Y-72565782D01*
X164444909Y-72402400D01*
X164437807Y-72184970D01*
X164431385Y-71916643D01*
X164425745Y-71600567D01*
X164420991Y-71239895D01*
X164420750Y-71218250D01*
X164416956Y-70877940D01*
X164413499Y-70595057D01*
X164410035Y-70363532D01*
X164406219Y-70177296D01*
X164401706Y-70030280D01*
X164396152Y-69916415D01*
X164389213Y-69829631D01*
X164380544Y-69763860D01*
X164369801Y-69713032D01*
X164356639Y-69671078D01*
X164340713Y-69631929D01*
X164329253Y-69606298D01*
X164236358Y-69453670D01*
X164104710Y-69305464D01*
X163952718Y-69178912D01*
X163798792Y-69091244D01*
X163765347Y-69078493D01*
X163705891Y-69062007D01*
X163630790Y-69049335D01*
X163531680Y-69040032D01*
X163400199Y-69033649D01*
X163227983Y-69029738D01*
X163006669Y-69027853D01*
X162812060Y-69027499D01*
X162532493Y-69028455D01*
G37*
X162532493Y-69028455D02*
X162307608Y-69032416D01*
X162128603Y-69041026D01*
X161986675Y-69055927D01*
X161873021Y-69078763D01*
X161778840Y-69111176D01*
X161695327Y-69154809D01*
X161613680Y-69211305D01*
X161548011Y-69263405D01*
X161390031Y-69430554D01*
X161282832Y-69624409D01*
X161224996Y-69835516D01*
X161215103Y-70054425D01*
X161251734Y-70271684D01*
X161333470Y-70477841D01*
X161458890Y-70663445D01*
X161626577Y-70819043D01*
X161796552Y-70918500D01*
X161864375Y-70946982D01*
X161933351Y-70968323D01*
X162015222Y-70984102D01*
X162121729Y-70995896D01*
X162264616Y-71005284D01*
X162455624Y-71013844D01*
X162526124Y-71016565D01*
X162748181Y-71026169D01*
X162913463Y-71037157D01*
X163028693Y-71051389D01*
X163100594Y-71070725D01*
X163135888Y-71097025D01*
X163141299Y-71132150D01*
X163123550Y-71177960D01*
X163121742Y-71181376D01*
X163105461Y-71203904D01*
X163078123Y-71220635D01*
X163030544Y-71232714D01*
X162953544Y-71241289D01*
X162837942Y-71247504D01*
X162674555Y-71252505D01*
X162524227Y-71255954D01*
X162273287Y-71263990D01*
X162074942Y-71278276D01*
X161918350Y-71302220D01*
X161792668Y-71339228D01*
X161687056Y-71392708D01*
X161590671Y-71466065D01*
X161492671Y-71562706D01*
X161470035Y-71587193D01*
X161390981Y-71679035D01*
X161330097Y-71766692D01*
X161284938Y-71860350D01*
X161253058Y-71970196D01*
X161232012Y-72106416D01*
X161219354Y-72279195D01*
X161212640Y-72498721D01*
X161210327Y-72668984D01*
X161208876Y-72886455D01*
X161209843Y-73049779D01*
X161213861Y-73168287D01*
X161221564Y-73251308D01*
X161233586Y-73308170D01*
X161250558Y-73348203D01*
X161257178Y-73359042D01*
X161342207Y-73437889D01*
X161449843Y-73469160D01*
X161560686Y-73452897D01*
X161655335Y-73389144D01*
X161679434Y-73358110D01*
X161700067Y-73317739D01*
X161714300Y-73263155D01*
X161722967Y-73183760D01*
X161726900Y-73068956D01*
X161726931Y-72908145D01*
X161725268Y-72774837D01*
X161724556Y-72526886D01*
X161731704Y-72333672D01*
X161747907Y-72186783D01*
X161774362Y-72077808D01*
X161812265Y-71998335D01*
X161840941Y-71961376D01*
X161890712Y-71909082D01*
X161937253Y-71869865D01*
X161990521Y-71841555D01*
X162060469Y-71821985D01*
X162157055Y-71808987D01*
X162290233Y-71800394D01*
X162469959Y-71794037D01*
X162629080Y-71789750D01*
X163240752Y-71773875D01*
X163378314Y-71677215D01*
X163526087Y-71539535D01*
X163622431Y-71377899D01*
X163668756Y-71202707D01*
X163666478Y-71024359D01*
X163617007Y-70853254D01*
X163521758Y-70699791D01*
X163382144Y-70574370D01*
X163217450Y-70493277D01*
X163140804Y-70478656D01*
X163011054Y-70467210D01*
X162838541Y-70459558D01*
X162633610Y-70456317D01*
X162597830Y-70456250D01*
X162398790Y-70455302D01*
X162252005Y-70451747D01*
X162146246Y-70444518D01*
X162070286Y-70432548D01*
X162012897Y-70414769D01*
X161975505Y-70397096D01*
X161850103Y-70296053D01*
X161771571Y-70157039D01*
X161745925Y-69991137D01*
X161773317Y-69832918D01*
X161853137Y-69708100D01*
X161953913Y-69629352D01*
X161990432Y-69609776D01*
X162033246Y-69594800D01*
X162090871Y-69583814D01*
X162171828Y-69576208D01*
X162284633Y-69571371D01*
X162437806Y-69568693D01*
X162639865Y-69567564D01*
X162819145Y-69567368D01*
X163582914Y-69567250D01*
X163691364Y-69647262D01*
X163768032Y-69710947D01*
X163824021Y-69769955D01*
X163832470Y-69782199D01*
X163840970Y-69827991D01*
X163849095Y-69934194D01*
X163856745Y-70097716D01*
X163863821Y-70315471D01*
X163870226Y-70584367D01*
X163875858Y-70901316D01*
X163880621Y-71263228D01*
X163881000Y-71297625D01*
X163896875Y-72758125D01*
X163981025Y-72916875D01*
X164128418Y-73131372D01*
X164317543Y-73302636D01*
X164443891Y-73379224D01*
X164604232Y-73434306D01*
X164796512Y-73460115D01*
X164996577Y-73456451D01*
X165180274Y-73423111D01*
X165278000Y-73386154D01*
X165471744Y-73258493D01*
X165640622Y-73084471D01*
X165748873Y-72918704D01*
X165833625Y-72758125D01*
X165849500Y-71297625D01*
X165853276Y-70946722D01*
X165856784Y-70653620D01*
X165860742Y-70412624D01*
X165865870Y-70218042D01*
X165872886Y-70064182D01*
X165882508Y-69945350D01*
X165895456Y-69855853D01*
X165912448Y-69789999D01*
X165934202Y-69742096D01*
X165961437Y-69706449D01*
X165994872Y-69677367D01*
X166035226Y-69649157D01*
X166059681Y-69632601D01*
X166137112Y-69588719D01*
X166216734Y-69570691D01*
X166326756Y-69572699D01*
X166343598Y-69574031D01*
X166460863Y-69590593D01*
X166543089Y-69624193D01*
X166618519Y-69686577D01*
X166621621Y-69689664D01*
X166722625Y-69790617D01*
X166739792Y-71242621D01*
X166743995Y-71586177D01*
X166747955Y-71872239D01*
X166751973Y-72106813D01*
X166756350Y-72295901D01*
X166761386Y-72445510D01*
X166767384Y-72561642D01*
X166774644Y-72650302D01*
X166783467Y-72717494D01*
X166794154Y-72769224D01*
X166807007Y-72811494D01*
X166820146Y-72845156D01*
X166941828Y-73058443D01*
X167109909Y-73240992D01*
X167281349Y-73361632D01*
X167371907Y-73408259D01*
X167451090Y-73436597D01*
X167540318Y-73451095D01*
X167661009Y-73456202D01*
X167738625Y-73456625D01*
X167882845Y-73454492D01*
X167984991Y-73445150D01*
X168066431Y-73424184D01*
X168148530Y-73387180D01*
X168194410Y-73362445D01*
X168378482Y-73232625D01*
X168533694Y-73068743D01*
X168644646Y-72887846D01*
X168663021Y-72843676D01*
X168676490Y-72802210D01*
X168687860Y-72751575D01*
X168697404Y-72685840D01*
X168705396Y-72599073D01*
X168712111Y-72485341D01*
X168717822Y-72338713D01*
X168722804Y-72153257D01*
X168727330Y-71923041D01*
X168731675Y-71642132D01*
X168736111Y-71304600D01*
X168736843Y-71245339D01*
X168741132Y-70903884D01*
X168745066Y-70620235D01*
X168748950Y-70388702D01*
X168753087Y-70203595D01*
X168757783Y-70059224D01*
X168763340Y-69949898D01*
X168770063Y-69869927D01*
X168778257Y-69813622D01*
X168788225Y-69775291D01*
X168800271Y-69749245D01*
X168814700Y-69729793D01*
X168818051Y-69726026D01*
X168947612Y-69625161D01*
X169097673Y-69574844D01*
X169253828Y-69574203D01*
X169401669Y-69622363D01*
X169526793Y-69718452D01*
X169568173Y-69771487D01*
X169578980Y-69799177D01*
X169588287Y-69850645D01*
X169596287Y-69930849D01*
X169603175Y-70044747D01*
X169609145Y-70197297D01*
X169614388Y-70393458D01*
X169619100Y-70638188D01*
X169623474Y-70936445D01*
X169627702Y-71293187D01*
X169627750Y-71297625D01*
X169631546Y-71640243D01*
X169635032Y-71925312D01*
X169638531Y-72158779D01*
X169642367Y-72346593D01*
X169646862Y-72494702D01*
X169652341Y-72609051D01*
X169659126Y-72695591D01*
X169667541Y-72760268D01*
X169677909Y-72809030D01*
X169690553Y-72847824D01*
X169705797Y-72882599D01*
X169714906Y-72901164D01*
X169848386Y-73105201D01*
X170021743Y-73270964D01*
X170224248Y-73390933D01*
X170445169Y-73457590D01*
X170522016Y-73466733D01*
X170630438Y-73470992D01*
X170699569Y-73460008D01*
X170752967Y-73427629D01*
X170784413Y-73398224D01*
X170853546Y-73293014D01*
X170866451Y-73183297D01*
X170828200Y-73081129D01*
X170743869Y-72998561D01*
X170618531Y-72947648D01*
X170592741Y-72942888D01*
X170411908Y-72892121D01*
X170281631Y-72803665D01*
X170239237Y-72751000D01*
X170225924Y-72726185D01*
X170214732Y-72692047D01*
X170205394Y-72642883D01*
X170197643Y-72572990D01*
X170191212Y-72476664D01*
X170185835Y-72348203D01*
X170181242Y-72181904D01*
X170177168Y-71972064D01*
X170173346Y-71712981D01*
X170169507Y-71398950D01*
X170167500Y-71219723D01*
X170163659Y-70878430D01*
X170160089Y-70594623D01*
X170156473Y-70362291D01*
X170152492Y-70175421D01*
X170147829Y-70028002D01*
X170142163Y-69914023D01*
X170135177Y-69827471D01*
X170126552Y-69762337D01*
X170115970Y-69712607D01*
X170103112Y-69672271D01*
X170087660Y-69635317D01*
X170083017Y-69625172D01*
X169950307Y-69407785D01*
X169776930Y-69235523D01*
X169569481Y-69113039D01*
X169334559Y-69044988D01*
X169246296Y-69034837D01*
X168998326Y-69047316D01*
X168767641Y-69118022D01*
X168562758Y-69242384D01*
X168392196Y-69415830D01*
X168313262Y-69535500D01*
X168214875Y-69710125D01*
X168199000Y-71170625D01*
X168194423Y-71545385D01*
X168189426Y-71860335D01*
X168183876Y-72119165D01*
X168177643Y-72325564D01*
X168170592Y-72483222D01*
X168162593Y-72595827D01*
X168153511Y-72667069D01*
X168144154Y-72699137D01*
X168094519Y-72763675D01*
X168020825Y-72837616D01*
X168002797Y-72853302D01*
X167935838Y-72902808D01*
X167871713Y-72926226D01*
X167784763Y-72930092D01*
X167716766Y-72926169D01*
X167551819Y-72893538D01*
X167426875Y-72817911D01*
X167330898Y-72694625D01*
X167320876Y-72652811D01*
X167311892Y-72562299D01*
X167303863Y-72420742D01*
X167296709Y-72225796D01*
X167290349Y-71975114D01*
X167284701Y-71666350D01*
X167279684Y-71297159D01*
X167278250Y-71170625D01*
X167274448Y-70827926D01*
X167270948Y-70542824D01*
X167267433Y-70309418D01*
X167263586Y-70121806D01*
X167259090Y-69974088D01*
X167253627Y-69860363D01*
X167246879Y-69774731D01*
X167238531Y-69711291D01*
X167228263Y-69664141D01*
X167215759Y-69627382D01*
X167200702Y-69595113D01*
X167192709Y-69579923D01*
X167050428Y-69373210D01*
X166876643Y-69215304D01*
X166679829Y-69105983D01*
X166468465Y-69045026D01*
X166251028Y-69032212D01*
X166035995Y-69067320D01*
X165831844Y-69150128D01*
X165647052Y-69280416D01*
X165490097Y-69457962D01*
X165393486Y-69626863D01*
X165377443Y-69663695D01*
X165364051Y-69702618D01*
X165352994Y-69749642D01*
X165343955Y-69810777D01*
X165336618Y-69892031D01*
X165330666Y-69999415D01*
X165325784Y-70138938D01*
X165321656Y-70316609D01*
X165317965Y-70538438D01*
X165314394Y-70810434D01*
X165310629Y-71138608D01*
X165309750Y-71218250D01*
X165305356Y-71580438D01*
X165300696Y-71883720D01*
X165295596Y-72132689D01*
X165289884Y-72331939D01*
X165283383Y-72486062D01*
X165275920Y-72599653D01*
X165267321Y-72677305D01*
X165257411Y-72723611D01*
X165252162Y-72736011D01*
X165159092Y-72839799D01*
X165030169Y-72906101D01*
X164882986Y-72931716D01*
X164735139Y-72913444D01*
X164610387Y-72852737D01*
X164533719Y-72789052D01*
X164477730Y-72730044D01*
X164469281Y-72717800D01*
X164460748Y-72671966D01*
X164452590Y-72565782D01*
X164444909Y-72402400D01*
X164437807Y-72184970D01*
X164431385Y-71916643D01*
X164425745Y-71600567D01*
X164420991Y-71239895D01*
X164420750Y-71218250D01*
X164416956Y-70877940D01*
X164413499Y-70595057D01*
X164410035Y-70363532D01*
X164406219Y-70177296D01*
X164401706Y-70030280D01*
X164396152Y-69916415D01*
X164389213Y-69829631D01*
X164380544Y-69763860D01*
X164369801Y-69713032D01*
X164356639Y-69671078D01*
X164340713Y-69631929D01*
X164329253Y-69606298D01*
X164236358Y-69453670D01*
X164104710Y-69305464D01*
X163952718Y-69178912D01*
X163798792Y-69091244D01*
X163765347Y-69078493D01*
X163705891Y-69062007D01*
X163630790Y-69049335D01*
X163531680Y-69040032D01*
X163400199Y-69033649D01*
X163227983Y-69029738D01*
X163006669Y-69027853D01*
X162812060Y-69027499D01*
X162532493Y-69028455D01*
D12*
G36*
X105788785Y-130042480D02*
G01*
X106198282Y-130123934D01*
X106789926Y-130369001D01*
X107079523Y-130562504D01*
X107322391Y-130724783D01*
X107775217Y-131177609D01*
X107833909Y-131265448D01*
X108130999Y-131710074D01*
X108376066Y-132301718D01*
X108376066Y-132301719D01*
X108501000Y-132929803D01*
X108501000Y-133570197D01*
X108466060Y-133745852D01*
X108376066Y-134198282D01*
X108130999Y-134789926D01*
X107891704Y-135148056D01*
X107777953Y-135318297D01*
X107775216Y-135322392D01*
X107322392Y-135775216D01*
X106789926Y-136130999D01*
X106198282Y-136376066D01*
X105884239Y-136438533D01*
X105570197Y-136501000D01*
X104929803Y-136501000D01*
X104615761Y-136438533D01*
X104301718Y-136376066D01*
X103710074Y-136130999D01*
X103177608Y-135775216D01*
X102724784Y-135322392D01*
X102722048Y-135318297D01*
X102608296Y-135148056D01*
X102369001Y-134789926D01*
X102123934Y-134198282D01*
X102033940Y-133745852D01*
X101999000Y-133570197D01*
X101999000Y-132929803D01*
X102123934Y-132301719D01*
X102123934Y-132301718D01*
X102369001Y-131710074D01*
X102666091Y-131265448D01*
X102724783Y-131177609D01*
X103177609Y-130724783D01*
X103420477Y-130562504D01*
X103710074Y-130369001D01*
X104301718Y-130123934D01*
X104711215Y-130042480D01*
X104929803Y-129999000D01*
X105570197Y-129999000D01*
X105788785Y-130042480D01*
G37*
G36*
X188109590Y-129806564D02*
G01*
X188448282Y-129873934D01*
X189039926Y-130119001D01*
X189387136Y-130351000D01*
X189507440Y-130431384D01*
X189572392Y-130474784D01*
X190025216Y-130927608D01*
X190380999Y-131460074D01*
X190585016Y-131952615D01*
X190626066Y-132051719D01*
X190751000Y-132679803D01*
X190751000Y-133320197D01*
X190707776Y-133537496D01*
X190626066Y-133948282D01*
X190380999Y-134539926D01*
X190138335Y-134903097D01*
X190079283Y-134991476D01*
X190025216Y-135072392D01*
X189572392Y-135525216D01*
X189039926Y-135880999D01*
X188448282Y-136126066D01*
X188134239Y-136188533D01*
X187820197Y-136251000D01*
X187179803Y-136251000D01*
X186865761Y-136188533D01*
X186551718Y-136126066D01*
X185960074Y-135880999D01*
X185427608Y-135525216D01*
X184974784Y-135072392D01*
X184920718Y-134991476D01*
X184861665Y-134903097D01*
X184619001Y-134539926D01*
X184373934Y-133948282D01*
X184292224Y-133537496D01*
X184249000Y-133320197D01*
X184249000Y-132679803D01*
X184373934Y-132051719D01*
X184414984Y-131952615D01*
X184619001Y-131460074D01*
X184974784Y-130927608D01*
X185427608Y-130474784D01*
X185492561Y-130431384D01*
X185612864Y-130351000D01*
X185960074Y-130119001D01*
X186551718Y-129873934D01*
X186890410Y-129806564D01*
X187179803Y-129749000D01*
X187820197Y-129749000D01*
X188109590Y-129806564D01*
G37*
G36*
X137051000Y-135551000D02*
G01*
X134949000Y-135551000D01*
X134949000Y-133449000D01*
X137051000Y-133449000D01*
X137051000Y-135551000D01*
G37*
G36*
X124051000Y-135551000D02*
G01*
X121949000Y-135551000D01*
X121949000Y-133449000D01*
X124051000Y-133449000D01*
X124051000Y-135551000D01*
G37*
G36*
X150051000Y-135551000D02*
G01*
X147949000Y-135551000D01*
X147949000Y-133449000D01*
X150051000Y-133449000D01*
X150051000Y-135551000D01*
G37*
G36*
X162551000Y-135551000D02*
G01*
X160449000Y-135551000D01*
X160449000Y-133449000D01*
X162551000Y-133449000D01*
X162551000Y-135551000D01*
G37*
G36*
X169748228Y-133681703D02*
G01*
X169903100Y-133745853D01*
X170042481Y-133838985D01*
X170161015Y-133957519D01*
X170254147Y-134096900D01*
X170318297Y-134251772D01*
X170351000Y-134416184D01*
X170351000Y-134583816D01*
X170318297Y-134748228D01*
X170254147Y-134903100D01*
X170161015Y-135042481D01*
X170042481Y-135161015D01*
X169903100Y-135254147D01*
X169748228Y-135318297D01*
X169583816Y-135351000D01*
X169416184Y-135351000D01*
X169251772Y-135318297D01*
X169096900Y-135254147D01*
X168957519Y-135161015D01*
X168838985Y-135042481D01*
X168745853Y-134903100D01*
X168681703Y-134748228D01*
X168649000Y-134583816D01*
X168649000Y-134416184D01*
X168681703Y-134251772D01*
X168745853Y-134096900D01*
X168838985Y-133957519D01*
X168957519Y-133838985D01*
X169096900Y-133745853D01*
X169251772Y-133681703D01*
X169416184Y-133649000D01*
X169583816Y-133649000D01*
X169748228Y-133681703D01*
G37*
G36*
X161806564Y-128489389D02*
G01*
X161997833Y-128568615D01*
X161997835Y-128568616D01*
X162118138Y-128649000D01*
X162169973Y-128683635D01*
X162316365Y-128830027D01*
X162431385Y-129002167D01*
X162510611Y-129193436D01*
X162551000Y-129396484D01*
X162551000Y-129603516D01*
X162510611Y-129806564D01*
X162431385Y-129997833D01*
X162431384Y-129997835D01*
X162316365Y-130169973D01*
X162169973Y-130316365D01*
X161997835Y-130431384D01*
X161997834Y-130431385D01*
X161997833Y-130431385D01*
X161806564Y-130510611D01*
X161603516Y-130551000D01*
X161396484Y-130551000D01*
X161193436Y-130510611D01*
X161002167Y-130431385D01*
X161002166Y-130431385D01*
X161002165Y-130431384D01*
X160830027Y-130316365D01*
X160683635Y-130169973D01*
X160568616Y-129997835D01*
X160568615Y-129997833D01*
X160489389Y-129806564D01*
X160449000Y-129603516D01*
X160449000Y-129396484D01*
X160489389Y-129193436D01*
X160568615Y-129002167D01*
X160683635Y-128830027D01*
X160830027Y-128683635D01*
X160881862Y-128649000D01*
X161002165Y-128568616D01*
X161002167Y-128568615D01*
X161193436Y-128489389D01*
X161396484Y-128449000D01*
X161603516Y-128449000D01*
X161806564Y-128489389D01*
G37*
G36*
X149306564Y-128489389D02*
G01*
X149497833Y-128568615D01*
X149497835Y-128568616D01*
X149618138Y-128649000D01*
X149669973Y-128683635D01*
X149816365Y-128830027D01*
X149931385Y-129002167D01*
X150010611Y-129193436D01*
X150051000Y-129396484D01*
X150051000Y-129603516D01*
X150010611Y-129806564D01*
X149931385Y-129997833D01*
X149931384Y-129997835D01*
X149816365Y-130169973D01*
X149669973Y-130316365D01*
X149497835Y-130431384D01*
X149497834Y-130431385D01*
X149497833Y-130431385D01*
X149306564Y-130510611D01*
X149103516Y-130551000D01*
X148896484Y-130551000D01*
X148693436Y-130510611D01*
X148502167Y-130431385D01*
X148502166Y-130431385D01*
X148502165Y-130431384D01*
X148330027Y-130316365D01*
X148183635Y-130169973D01*
X148068616Y-129997835D01*
X148068615Y-129997833D01*
X147989389Y-129806564D01*
X147949000Y-129603516D01*
X147949000Y-129396484D01*
X147989389Y-129193436D01*
X148068615Y-129002167D01*
X148183635Y-128830027D01*
X148330027Y-128683635D01*
X148381862Y-128649000D01*
X148502165Y-128568616D01*
X148502167Y-128568615D01*
X148693436Y-128489389D01*
X148896484Y-128449000D01*
X149103516Y-128449000D01*
X149306564Y-128489389D01*
G37*
G36*
X136306564Y-128489389D02*
G01*
X136497833Y-128568615D01*
X136497835Y-128568616D01*
X136618138Y-128649000D01*
X136669973Y-128683635D01*
X136816365Y-128830027D01*
X136931385Y-129002167D01*
X137010611Y-129193436D01*
X137051000Y-129396484D01*
X137051000Y-129603516D01*
X137010611Y-129806564D01*
X136931385Y-129997833D01*
X136931384Y-129997835D01*
X136816365Y-130169973D01*
X136669973Y-130316365D01*
X136497835Y-130431384D01*
X136497834Y-130431385D01*
X136497833Y-130431385D01*
X136306564Y-130510611D01*
X136103516Y-130551000D01*
X135896484Y-130551000D01*
X135693436Y-130510611D01*
X135502167Y-130431385D01*
X135502166Y-130431385D01*
X135502165Y-130431384D01*
X135330027Y-130316365D01*
X135183635Y-130169973D01*
X135068616Y-129997835D01*
X135068615Y-129997833D01*
X134989389Y-129806564D01*
X134949000Y-129603516D01*
X134949000Y-129396484D01*
X134989389Y-129193436D01*
X135068615Y-129002167D01*
X135183635Y-128830027D01*
X135330027Y-128683635D01*
X135381862Y-128649000D01*
X135502165Y-128568616D01*
X135502167Y-128568615D01*
X135693436Y-128489389D01*
X135896484Y-128449000D01*
X136103516Y-128449000D01*
X136306564Y-128489389D01*
G37*
G36*
X123306564Y-128489389D02*
G01*
X123497833Y-128568615D01*
X123497835Y-128568616D01*
X123618138Y-128649000D01*
X123669973Y-128683635D01*
X123816365Y-128830027D01*
X123931385Y-129002167D01*
X124010611Y-129193436D01*
X124051000Y-129396484D01*
X124051000Y-129603516D01*
X124010611Y-129806564D01*
X123931385Y-129997833D01*
X123931384Y-129997835D01*
X123816365Y-130169973D01*
X123669973Y-130316365D01*
X123497835Y-130431384D01*
X123497834Y-130431385D01*
X123497833Y-130431385D01*
X123306564Y-130510611D01*
X123103516Y-130551000D01*
X122896484Y-130551000D01*
X122693436Y-130510611D01*
X122502167Y-130431385D01*
X122502166Y-130431385D01*
X122502165Y-130431384D01*
X122330027Y-130316365D01*
X122183635Y-130169973D01*
X122068616Y-129997835D01*
X122068615Y-129997833D01*
X121989389Y-129806564D01*
X121949000Y-129603516D01*
X121949000Y-129396484D01*
X121989389Y-129193436D01*
X122068615Y-129002167D01*
X122183635Y-128830027D01*
X122330027Y-128683635D01*
X122381862Y-128649000D01*
X122502165Y-128568616D01*
X122502167Y-128568615D01*
X122693436Y-128489389D01*
X122896484Y-128449000D01*
X123103516Y-128449000D01*
X123306564Y-128489389D01*
G37*
G36*
X169748228Y-128681703D02*
G01*
X169903100Y-128745853D01*
X170042481Y-128838985D01*
X170161015Y-128957519D01*
X170254147Y-129096900D01*
X170318297Y-129251772D01*
X170351000Y-129416184D01*
X170351000Y-129583816D01*
X170318297Y-129748228D01*
X170254147Y-129903100D01*
X170161015Y-130042481D01*
X170042481Y-130161015D01*
X169903100Y-130254147D01*
X169748228Y-130318297D01*
X169583816Y-130351000D01*
X169416184Y-130351000D01*
X169251772Y-130318297D01*
X169096900Y-130254147D01*
X168957519Y-130161015D01*
X168838985Y-130042481D01*
X168745853Y-129903100D01*
X168681703Y-129748228D01*
X168649000Y-129583816D01*
X168649000Y-129416184D01*
X168681703Y-129251772D01*
X168745853Y-129096900D01*
X168838985Y-128957519D01*
X168957519Y-128838985D01*
X169096900Y-128745853D01*
X169251772Y-128681703D01*
X169416184Y-128649000D01*
X169583816Y-128649000D01*
X169748228Y-128681703D01*
G37*
G36*
X178638228Y-126881703D02*
G01*
X178793100Y-126945853D01*
X178932481Y-127038985D01*
X179051015Y-127157519D01*
X179144147Y-127296900D01*
X179208297Y-127451772D01*
X179241000Y-127616184D01*
X179241000Y-127783816D01*
X179208297Y-127948228D01*
X179144147Y-128103100D01*
X179051015Y-128242481D01*
X178932481Y-128361015D01*
X178793100Y-128454147D01*
X178638228Y-128518297D01*
X178473816Y-128551000D01*
X178306184Y-128551000D01*
X178141772Y-128518297D01*
X177986900Y-128454147D01*
X177847519Y-128361015D01*
X177728985Y-128242481D01*
X177635853Y-128103100D01*
X177571703Y-127948228D01*
X177539000Y-127783816D01*
X177539000Y-127616184D01*
X177571703Y-127451772D01*
X177635853Y-127296900D01*
X177728985Y-127157519D01*
X177847519Y-127038985D01*
X177986900Y-126945853D01*
X178141772Y-126881703D01*
X178306184Y-126849000D01*
X178473816Y-126849000D01*
X178638228Y-126881703D01*
G37*
G36*
X173638228Y-126881703D02*
G01*
X173793100Y-126945853D01*
X173932481Y-127038985D01*
X174051015Y-127157519D01*
X174144147Y-127296900D01*
X174208297Y-127451772D01*
X174241000Y-127616184D01*
X174241000Y-127783816D01*
X174208297Y-127948228D01*
X174144147Y-128103100D01*
X174051015Y-128242481D01*
X173932481Y-128361015D01*
X173793100Y-128454147D01*
X173638228Y-128518297D01*
X173473816Y-128551000D01*
X173306184Y-128551000D01*
X173141772Y-128518297D01*
X172986900Y-128454147D01*
X172847519Y-128361015D01*
X172728985Y-128242481D01*
X172635853Y-128103100D01*
X172571703Y-127948228D01*
X172539000Y-127783816D01*
X172539000Y-127616184D01*
X172571703Y-127451772D01*
X172635853Y-127296900D01*
X172728985Y-127157519D01*
X172847519Y-127038985D01*
X172986900Y-126945853D01*
X173141772Y-126881703D01*
X173306184Y-126849000D01*
X173473816Y-126849000D01*
X173638228Y-126881703D01*
G37*
G36*
X106509472Y-123858412D02*
G01*
X106605040Y-123867825D01*
X106850280Y-123942218D01*
X107076294Y-124063025D01*
X107117574Y-124096903D01*
X107274397Y-124225603D01*
X107394624Y-124372101D01*
X107436975Y-124423706D01*
X107557782Y-124649720D01*
X107632175Y-124894960D01*
X107657294Y-125150000D01*
X107632175Y-125405040D01*
X107557782Y-125650280D01*
X107436975Y-125876294D01*
X107394624Y-125927899D01*
X107274397Y-126074397D01*
X107127899Y-126194624D01*
X107076294Y-126236975D01*
X106850280Y-126357782D01*
X106605040Y-126432175D01*
X106509472Y-126441588D01*
X106413906Y-126451000D01*
X104586094Y-126451000D01*
X104490528Y-126441588D01*
X104394960Y-126432175D01*
X104149720Y-126357782D01*
X103923706Y-126236975D01*
X103872101Y-126194624D01*
X103725603Y-126074397D01*
X103605376Y-125927899D01*
X103563025Y-125876294D01*
X103442218Y-125650280D01*
X103367825Y-125405040D01*
X103342706Y-125150000D01*
X103367825Y-124894960D01*
X103442218Y-124649720D01*
X103563025Y-124423706D01*
X103605376Y-124372101D01*
X103725603Y-124225603D01*
X103882426Y-124096903D01*
X103923706Y-124063025D01*
X104149720Y-123942218D01*
X104394960Y-123867825D01*
X104490528Y-123858412D01*
X104586094Y-123849000D01*
X106413906Y-123849000D01*
X106509472Y-123858412D01*
G37*
G36*
X159244098Y-120727033D02*
G01*
X159708350Y-120919332D01*
X159708352Y-120919333D01*
X160126168Y-121198509D01*
X160481491Y-121553832D01*
X160529824Y-121626168D01*
X160760668Y-121971650D01*
X160952967Y-122435902D01*
X161051000Y-122928747D01*
X161051000Y-123431253D01*
X160952967Y-123924098D01*
X160817240Y-124251772D01*
X160760667Y-124388352D01*
X160481491Y-124806168D01*
X160126168Y-125161491D01*
X159708352Y-125440667D01*
X159708351Y-125440668D01*
X159708350Y-125440668D01*
X159244098Y-125632967D01*
X158751253Y-125731000D01*
X158248747Y-125731000D01*
X157755902Y-125632967D01*
X157291650Y-125440668D01*
X157291649Y-125440668D01*
X157291648Y-125440667D01*
X156873832Y-125161491D01*
X156518509Y-124806168D01*
X156239333Y-124388352D01*
X156182760Y-124251772D01*
X156047033Y-123924098D01*
X155949000Y-123431253D01*
X155949000Y-122928747D01*
X156047033Y-122435902D01*
X156239332Y-121971650D01*
X156470176Y-121626168D01*
X156518509Y-121553832D01*
X156873832Y-121198509D01*
X157291648Y-120919333D01*
X157291650Y-120919332D01*
X157755902Y-120727033D01*
X158248747Y-120629000D01*
X158751253Y-120629000D01*
X159244098Y-120727033D01*
G37*
G36*
X110552585Y-122478802D02*
G01*
X110702410Y-122508604D01*
X110984674Y-122625521D01*
X111238705Y-122795259D01*
X111454741Y-123011295D01*
X111624479Y-123265326D01*
X111741396Y-123547590D01*
X111741396Y-123547591D01*
X111801000Y-123847239D01*
X111801000Y-124152761D01*
X111781306Y-124251771D01*
X111741396Y-124452410D01*
X111624479Y-124734674D01*
X111454741Y-124988705D01*
X111238705Y-125204741D01*
X110984674Y-125374479D01*
X110702410Y-125491396D01*
X110552585Y-125521198D01*
X110402761Y-125551000D01*
X110097239Y-125551000D01*
X109947415Y-125521198D01*
X109797590Y-125491396D01*
X109515326Y-125374479D01*
X109261295Y-125204741D01*
X109045259Y-124988705D01*
X108875521Y-124734674D01*
X108758604Y-124452410D01*
X108718694Y-124251771D01*
X108699000Y-124152761D01*
X108699000Y-123847239D01*
X108758604Y-123547591D01*
X108758604Y-123547590D01*
X108875521Y-123265326D01*
X109045259Y-123011295D01*
X109261295Y-122795259D01*
X109515326Y-122625521D01*
X109797590Y-122508604D01*
X109947415Y-122478802D01*
X110097239Y-122449000D01*
X110402761Y-122449000D01*
X110552585Y-122478802D01*
G37*
G36*
X117748228Y-123681703D02*
G01*
X117903100Y-123745853D01*
X118042481Y-123838985D01*
X118161015Y-123957519D01*
X118254147Y-124096900D01*
X118318297Y-124251772D01*
X118351000Y-124416184D01*
X118351000Y-124583816D01*
X118318297Y-124748228D01*
X118254147Y-124903100D01*
X118161015Y-125042481D01*
X118042481Y-125161015D01*
X117903100Y-125254147D01*
X117748228Y-125318297D01*
X117583816Y-125351000D01*
X117416184Y-125351000D01*
X117251772Y-125318297D01*
X117096900Y-125254147D01*
X116957519Y-125161015D01*
X116838985Y-125042481D01*
X116745853Y-124903100D01*
X116681703Y-124748228D01*
X116649000Y-124583816D01*
X116649000Y-124416184D01*
X116681703Y-124251772D01*
X116745853Y-124096900D01*
X116838985Y-123957519D01*
X116957519Y-123838985D01*
X117096900Y-123745853D01*
X117251772Y-123681703D01*
X117416184Y-123649000D01*
X117583816Y-123649000D01*
X117748228Y-123681703D01*
G37*
G36*
X118351000Y-123351000D02*
G01*
X116649000Y-123351000D01*
X116649000Y-121649000D01*
X118351000Y-121649000D01*
X118351000Y-123351000D01*
G37*
G36*
X106144098Y-117547033D02*
G01*
X106608350Y-117739332D01*
X106608352Y-117739333D01*
X107026168Y-118018509D01*
X107381491Y-118373832D01*
X107660667Y-118791648D01*
X107660668Y-118791650D01*
X107852967Y-119255902D01*
X107951000Y-119748747D01*
X107951000Y-120251253D01*
X107852967Y-120744098D01*
X107780382Y-120919333D01*
X107660667Y-121208352D01*
X107381491Y-121626168D01*
X107026168Y-121981491D01*
X106608352Y-122260667D01*
X106608351Y-122260668D01*
X106608350Y-122260668D01*
X106144098Y-122452967D01*
X105651253Y-122551000D01*
X105148747Y-122551000D01*
X104655902Y-122452967D01*
X104191650Y-122260668D01*
X104191649Y-122260668D01*
X104191648Y-122260667D01*
X103773832Y-121981491D01*
X103418509Y-121626168D01*
X103139333Y-121208352D01*
X103019618Y-120919333D01*
X102947033Y-120744098D01*
X102849000Y-120251253D01*
X102849000Y-119748747D01*
X102947033Y-119255902D01*
X103139332Y-118791650D01*
X103139333Y-118791648D01*
X103418509Y-118373832D01*
X103773832Y-118018509D01*
X104191648Y-117739333D01*
X104191650Y-117739332D01*
X104655902Y-117547033D01*
X105148747Y-117449000D01*
X105651253Y-117449000D01*
X106144098Y-117547033D01*
G37*
G36*
X186351000Y-119931000D02*
G01*
X183649000Y-119931000D01*
X183649000Y-117229000D01*
X186351000Y-117229000D01*
X186351000Y-119931000D01*
G37*
G36*
X155364903Y-114297075D02*
G01*
X155519742Y-114361211D01*
X155592571Y-114391378D01*
X155797466Y-114528285D01*
X155971715Y-114702534D01*
X156108622Y-114907429D01*
X156202925Y-115135097D01*
X156251000Y-115376787D01*
X156251000Y-115623213D01*
X156202925Y-115864903D01*
X156108622Y-116092571D01*
X155971715Y-116297466D01*
X155797466Y-116471715D01*
X155592571Y-116608622D01*
X155592570Y-116608623D01*
X155592569Y-116608623D01*
X155364903Y-116702925D01*
X155123214Y-116751000D01*
X154876786Y-116751000D01*
X154635097Y-116702925D01*
X154407431Y-116608623D01*
X154407430Y-116608623D01*
X154407429Y-116608622D01*
X154202534Y-116471715D01*
X154028285Y-116297466D01*
X153891378Y-116092571D01*
X153797075Y-115864903D01*
X153749000Y-115623213D01*
X153749000Y-115376787D01*
X153797075Y-115135097D01*
X153891378Y-114907429D01*
X154028285Y-114702534D01*
X154202534Y-114528285D01*
X154407429Y-114391378D01*
X154480259Y-114361211D01*
X154635097Y-114297075D01*
X154876786Y-114249000D01*
X155123214Y-114249000D01*
X155364903Y-114297075D01*
G37*
G36*
X142664903Y-114297075D02*
G01*
X142819742Y-114361211D01*
X142892571Y-114391378D01*
X143097466Y-114528285D01*
X143271715Y-114702534D01*
X143408622Y-114907429D01*
X143502925Y-115135097D01*
X143551000Y-115376787D01*
X143551000Y-115623213D01*
X143502925Y-115864903D01*
X143408622Y-116092571D01*
X143271715Y-116297466D01*
X143097466Y-116471715D01*
X142892571Y-116608622D01*
X142892570Y-116608623D01*
X142892569Y-116608623D01*
X142664903Y-116702925D01*
X142423214Y-116751000D01*
X142176786Y-116751000D01*
X141935097Y-116702925D01*
X141707431Y-116608623D01*
X141707430Y-116608623D01*
X141707429Y-116608622D01*
X141502534Y-116471715D01*
X141328285Y-116297466D01*
X141191378Y-116092571D01*
X141097075Y-115864903D01*
X141049000Y-115623213D01*
X141049000Y-115376787D01*
X141097075Y-115135097D01*
X141191378Y-114907429D01*
X141328285Y-114702534D01*
X141502534Y-114528285D01*
X141707429Y-114391378D01*
X141780259Y-114361211D01*
X141935097Y-114297075D01*
X142176786Y-114249000D01*
X142423214Y-114249000D01*
X142664903Y-114297075D01*
G37*
G36*
X117113512Y-114683927D02*
G01*
X117262812Y-114713624D01*
X117426784Y-114781544D01*
X117574354Y-114880147D01*
X117699853Y-115005646D01*
X117798456Y-115153216D01*
X117866376Y-115317188D01*
X117901000Y-115491259D01*
X117901000Y-115668741D01*
X117866376Y-115842812D01*
X117798456Y-116006784D01*
X117699853Y-116154354D01*
X117574354Y-116279853D01*
X117426784Y-116378456D01*
X117262812Y-116446376D01*
X117113512Y-116476073D01*
X117088742Y-116481000D01*
X116911258Y-116481000D01*
X116886488Y-116476073D01*
X116737188Y-116446376D01*
X116573216Y-116378456D01*
X116425646Y-116279853D01*
X116300147Y-116154354D01*
X116201544Y-116006784D01*
X116133624Y-115842812D01*
X116099000Y-115668741D01*
X116099000Y-115491259D01*
X116133624Y-115317188D01*
X116201544Y-115153216D01*
X116300147Y-115005646D01*
X116425646Y-114880147D01*
X116573216Y-114781544D01*
X116737188Y-114713624D01*
X116886488Y-114683927D01*
X116911258Y-114679000D01*
X117088742Y-114679000D01*
X117113512Y-114683927D01*
G37*
G36*
X130748228Y-114681703D02*
G01*
X130903100Y-114745853D01*
X131042481Y-114838985D01*
X131161015Y-114957519D01*
X131254147Y-115096900D01*
X131318297Y-115251772D01*
X131351000Y-115416184D01*
X131351000Y-115583816D01*
X131318297Y-115748228D01*
X131254147Y-115903100D01*
X131161015Y-116042481D01*
X131042481Y-116161015D01*
X130903100Y-116254147D01*
X130748228Y-116318297D01*
X130583816Y-116351000D01*
X130416184Y-116351000D01*
X130251772Y-116318297D01*
X130096900Y-116254147D01*
X129957519Y-116161015D01*
X129838985Y-116042481D01*
X129745853Y-115903100D01*
X129681703Y-115748228D01*
X129649000Y-115583816D01*
X129649000Y-115416184D01*
X129681703Y-115251772D01*
X129745853Y-115096900D01*
X129838985Y-114957519D01*
X129957519Y-114838985D01*
X130096900Y-114745853D01*
X130251772Y-114681703D01*
X130416184Y-114649000D01*
X130583816Y-114649000D01*
X130748228Y-114681703D01*
G37*
G36*
X125748228Y-114681703D02*
G01*
X125903100Y-114745853D01*
X126042481Y-114838985D01*
X126161015Y-114957519D01*
X126254147Y-115096900D01*
X126318297Y-115251772D01*
X126351000Y-115416184D01*
X126351000Y-115583816D01*
X126318297Y-115748228D01*
X126254147Y-115903100D01*
X126161015Y-116042481D01*
X126042481Y-116161015D01*
X125903100Y-116254147D01*
X125748228Y-116318297D01*
X125583816Y-116351000D01*
X125416184Y-116351000D01*
X125251772Y-116318297D01*
X125096900Y-116254147D01*
X124957519Y-116161015D01*
X124838985Y-116042481D01*
X124745853Y-115903100D01*
X124681703Y-115748228D01*
X124649000Y-115583816D01*
X124649000Y-115416184D01*
X124681703Y-115251772D01*
X124745853Y-115096900D01*
X124838985Y-114957519D01*
X124957519Y-114838985D01*
X125096900Y-114745853D01*
X125251772Y-114681703D01*
X125416184Y-114649000D01*
X125583816Y-114649000D01*
X125748228Y-114681703D01*
G37*
G36*
X185297482Y-112181705D02*
G01*
X185394072Y-112200918D01*
X185639939Y-112302759D01*
X185695895Y-112340148D01*
X185861211Y-112450609D01*
X186049391Y-112638789D01*
X186197242Y-112860063D01*
X186299082Y-113105928D01*
X186338245Y-113302811D01*
X186351000Y-113366938D01*
X186351000Y-113633062D01*
X186299082Y-113894072D01*
X186197241Y-114139939D01*
X186049390Y-114361212D01*
X185861212Y-114549390D01*
X185639939Y-114697241D01*
X185639938Y-114697242D01*
X185639937Y-114697242D01*
X185394072Y-114799082D01*
X185133063Y-114851000D01*
X184866937Y-114851000D01*
X184605928Y-114799082D01*
X184360063Y-114697242D01*
X184360062Y-114697242D01*
X184360061Y-114697241D01*
X184138788Y-114549390D01*
X183950610Y-114361212D01*
X183802759Y-114139939D01*
X183700918Y-113894072D01*
X183649000Y-113633062D01*
X183649000Y-113366938D01*
X183661756Y-113302811D01*
X183700918Y-113105928D01*
X183802758Y-112860063D01*
X183950609Y-112638789D01*
X184138789Y-112450609D01*
X184304105Y-112340148D01*
X184360061Y-112302759D01*
X184605928Y-112200918D01*
X184702518Y-112181705D01*
X184866937Y-112149000D01*
X185133063Y-112149000D01*
X185297482Y-112181705D01*
G37*
G36*
X117113512Y-112143927D02*
G01*
X117262812Y-112173624D01*
X117426784Y-112241544D01*
X117574354Y-112340147D01*
X117699853Y-112465646D01*
X117798456Y-112613216D01*
X117866376Y-112777188D01*
X117901000Y-112951259D01*
X117901000Y-113128741D01*
X117866376Y-113302812D01*
X117798456Y-113466784D01*
X117699853Y-113614354D01*
X117574354Y-113739853D01*
X117426784Y-113838456D01*
X117262812Y-113906376D01*
X117113512Y-113936073D01*
X117088742Y-113941000D01*
X116911258Y-113941000D01*
X116886488Y-113936073D01*
X116737188Y-113906376D01*
X116573216Y-113838456D01*
X116425646Y-113739853D01*
X116300147Y-113614354D01*
X116201544Y-113466784D01*
X116133624Y-113302812D01*
X116099000Y-113128741D01*
X116099000Y-112951259D01*
X116133624Y-112777188D01*
X116201544Y-112613216D01*
X116300147Y-112465646D01*
X116425646Y-112340147D01*
X116573216Y-112241544D01*
X116737188Y-112173624D01*
X116886488Y-112143927D01*
X116911258Y-112139000D01*
X117088742Y-112139000D01*
X117113512Y-112143927D01*
G37*
G36*
X130748228Y-112181703D02*
G01*
X130903100Y-112245853D01*
X131042481Y-112338985D01*
X131161015Y-112457519D01*
X131254147Y-112596900D01*
X131318297Y-112751772D01*
X131351000Y-112916184D01*
X131351000Y-113083816D01*
X131318297Y-113248228D01*
X131254147Y-113403100D01*
X131161015Y-113542481D01*
X131042481Y-113661015D01*
X130903100Y-113754147D01*
X130748228Y-113818297D01*
X130583816Y-113851000D01*
X130416184Y-113851000D01*
X130251772Y-113818297D01*
X130096900Y-113754147D01*
X129957519Y-113661015D01*
X129838985Y-113542481D01*
X129745853Y-113403100D01*
X129681703Y-113248228D01*
X129649000Y-113083816D01*
X129649000Y-112916184D01*
X129681703Y-112751772D01*
X129745853Y-112596900D01*
X129838985Y-112457519D01*
X129957519Y-112338985D01*
X130096900Y-112245853D01*
X130251772Y-112181703D01*
X130416184Y-112149000D01*
X130583816Y-112149000D01*
X130748228Y-112181703D01*
G37*
G36*
X125748228Y-112181703D02*
G01*
X125903100Y-112245853D01*
X126042481Y-112338985D01*
X126161015Y-112457519D01*
X126254147Y-112596900D01*
X126318297Y-112751772D01*
X126351000Y-112916184D01*
X126351000Y-113083816D01*
X126318297Y-113248228D01*
X126254147Y-113403100D01*
X126161015Y-113542481D01*
X126042481Y-113661015D01*
X125903100Y-113754147D01*
X125748228Y-113818297D01*
X125583816Y-113851000D01*
X125416184Y-113851000D01*
X125251772Y-113818297D01*
X125096900Y-113754147D01*
X124957519Y-113661015D01*
X124838985Y-113542481D01*
X124745853Y-113403100D01*
X124681703Y-113248228D01*
X124649000Y-113083816D01*
X124649000Y-112916184D01*
X124681703Y-112751772D01*
X124745853Y-112596900D01*
X124838985Y-112457519D01*
X124957519Y-112338985D01*
X125096900Y-112245853D01*
X125251772Y-112181703D01*
X125416184Y-112149000D01*
X125583816Y-112149000D01*
X125748228Y-112181703D01*
G37*
G36*
X143744098Y-107347033D02*
G01*
X144208350Y-107539332D01*
X144208352Y-107539333D01*
X144626168Y-107818509D01*
X144981491Y-108173832D01*
X145260667Y-108591648D01*
X145260668Y-108591650D01*
X145452967Y-109055902D01*
X145551000Y-109548747D01*
X145551000Y-110051253D01*
X145452967Y-110544098D01*
X145268805Y-110988705D01*
X145260667Y-111008352D01*
X144981491Y-111426168D01*
X144626168Y-111781491D01*
X144208352Y-112060667D01*
X144208351Y-112060668D01*
X144208350Y-112060668D01*
X143744098Y-112252967D01*
X143251253Y-112351000D01*
X142748747Y-112351000D01*
X142255902Y-112252967D01*
X141791650Y-112060668D01*
X141791649Y-112060668D01*
X141791648Y-112060667D01*
X141373832Y-111781491D01*
X141018509Y-111426168D01*
X140739333Y-111008352D01*
X140731195Y-110988705D01*
X140547033Y-110544098D01*
X140449000Y-110051253D01*
X140449000Y-109548747D01*
X140547033Y-109055902D01*
X140739332Y-108591650D01*
X140739333Y-108591648D01*
X141018509Y-108173832D01*
X141373832Y-107818509D01*
X141791648Y-107539333D01*
X141791650Y-107539332D01*
X142255902Y-107347033D01*
X142748747Y-107249000D01*
X143251253Y-107249000D01*
X143744098Y-107347033D01*
G37*
G36*
X110552585Y-108478802D02*
G01*
X110702410Y-108508604D01*
X110984674Y-108625521D01*
X111238705Y-108795259D01*
X111454741Y-109011295D01*
X111624479Y-109265326D01*
X111741396Y-109547590D01*
X111801000Y-109847240D01*
X111801000Y-110152760D01*
X111741396Y-110452410D01*
X111624479Y-110734674D01*
X111454741Y-110988705D01*
X111238705Y-111204741D01*
X110984674Y-111374479D01*
X110702410Y-111491396D01*
X110552585Y-111521198D01*
X110402761Y-111551000D01*
X110097239Y-111551000D01*
X109947415Y-111521198D01*
X109797590Y-111491396D01*
X109515326Y-111374479D01*
X109261295Y-111204741D01*
X109045259Y-110988705D01*
X108875521Y-110734674D01*
X108758604Y-110452410D01*
X108699000Y-110152760D01*
X108699000Y-109847240D01*
X108758604Y-109547590D01*
X108875521Y-109265326D01*
X109045259Y-109011295D01*
X109261295Y-108795259D01*
X109515326Y-108625521D01*
X109797590Y-108508604D01*
X109947415Y-108478802D01*
X110097239Y-108449000D01*
X110402761Y-108449000D01*
X110552585Y-108478802D01*
G37*
G36*
X117113512Y-109603927D02*
G01*
X117262812Y-109633624D01*
X117426784Y-109701544D01*
X117574354Y-109800147D01*
X117699853Y-109925646D01*
X117798456Y-110073216D01*
X117866376Y-110237188D01*
X117901000Y-110411259D01*
X117901000Y-110588741D01*
X117866376Y-110762812D01*
X117798456Y-110926784D01*
X117699853Y-111074354D01*
X117574354Y-111199853D01*
X117426784Y-111298456D01*
X117262812Y-111366376D01*
X117113512Y-111396073D01*
X117088742Y-111401000D01*
X116911258Y-111401000D01*
X116886488Y-111396073D01*
X116737188Y-111366376D01*
X116573216Y-111298456D01*
X116425646Y-111199853D01*
X116300147Y-111074354D01*
X116201544Y-110926784D01*
X116133624Y-110762812D01*
X116099000Y-110588741D01*
X116099000Y-110411259D01*
X116133624Y-110237188D01*
X116201544Y-110073216D01*
X116300147Y-109925646D01*
X116425646Y-109800147D01*
X116573216Y-109701544D01*
X116737188Y-109633624D01*
X116886488Y-109603927D01*
X116911258Y-109599000D01*
X117088742Y-109599000D01*
X117113512Y-109603927D01*
G37*
G36*
X130748228Y-109681703D02*
G01*
X130903100Y-109745853D01*
X131042481Y-109838985D01*
X131161015Y-109957519D01*
X131254147Y-110096900D01*
X131318297Y-110251772D01*
X131351000Y-110416184D01*
X131351000Y-110583816D01*
X131318297Y-110748228D01*
X131254147Y-110903100D01*
X131161015Y-111042481D01*
X131042481Y-111161015D01*
X130903100Y-111254147D01*
X130748228Y-111318297D01*
X130583816Y-111351000D01*
X130416184Y-111351000D01*
X130251772Y-111318297D01*
X130096900Y-111254147D01*
X129957519Y-111161015D01*
X129838985Y-111042481D01*
X129745853Y-110903100D01*
X129681703Y-110748228D01*
X129649000Y-110583816D01*
X129649000Y-110416184D01*
X129681703Y-110251772D01*
X129745853Y-110096900D01*
X129838985Y-109957519D01*
X129957519Y-109838985D01*
X130096900Y-109745853D01*
X130251772Y-109681703D01*
X130416184Y-109649000D01*
X130583816Y-109649000D01*
X130748228Y-109681703D01*
G37*
G36*
X125748228Y-109681703D02*
G01*
X125903100Y-109745853D01*
X126042481Y-109838985D01*
X126161015Y-109957519D01*
X126254147Y-110096900D01*
X126318297Y-110251772D01*
X126351000Y-110416184D01*
X126351000Y-110583816D01*
X126318297Y-110748228D01*
X126254147Y-110903100D01*
X126161015Y-111042481D01*
X126042481Y-111161015D01*
X125903100Y-111254147D01*
X125748228Y-111318297D01*
X125583816Y-111351000D01*
X125416184Y-111351000D01*
X125251772Y-111318297D01*
X125096900Y-111254147D01*
X124957519Y-111161015D01*
X124838985Y-111042481D01*
X124745853Y-110903100D01*
X124681703Y-110748228D01*
X124649000Y-110583816D01*
X124649000Y-110416184D01*
X124681703Y-110251772D01*
X124745853Y-110096900D01*
X124838985Y-109957519D01*
X124957519Y-109838985D01*
X125096900Y-109745853D01*
X125251772Y-109681703D01*
X125416184Y-109649000D01*
X125583816Y-109649000D01*
X125748228Y-109681703D01*
G37*
G36*
X157696000Y-109696000D02*
G01*
X156304000Y-109696000D01*
X156304000Y-108304000D01*
X157696000Y-108304000D01*
X157696000Y-109696000D01*
G37*
G36*
X117901000Y-108861000D02*
G01*
X116099000Y-108861000D01*
X116099000Y-107059000D01*
X117901000Y-107059000D01*
X117901000Y-108861000D01*
G37*
G36*
X125748228Y-107181703D02*
G01*
X125903100Y-107245853D01*
X126042481Y-107338985D01*
X126161015Y-107457519D01*
X126254147Y-107596900D01*
X126318297Y-107751772D01*
X126351000Y-107916184D01*
X126351000Y-108083816D01*
X126318297Y-108248228D01*
X126254147Y-108403100D01*
X126161015Y-108542481D01*
X126042481Y-108661015D01*
X125903100Y-108754147D01*
X125748228Y-108818297D01*
X125583816Y-108851000D01*
X125416184Y-108851000D01*
X125251772Y-108818297D01*
X125096900Y-108754147D01*
X124957519Y-108661015D01*
X124838985Y-108542481D01*
X124745853Y-108403100D01*
X124681703Y-108248228D01*
X124649000Y-108083816D01*
X124649000Y-107916184D01*
X124681703Y-107751772D01*
X124745853Y-107596900D01*
X124838985Y-107457519D01*
X124957519Y-107338985D01*
X125096900Y-107245853D01*
X125251772Y-107181703D01*
X125416184Y-107149000D01*
X125583816Y-107149000D01*
X125748228Y-107181703D01*
G37*
G36*
X130748228Y-107181703D02*
G01*
X130903100Y-107245853D01*
X131042481Y-107338985D01*
X131161015Y-107457519D01*
X131254147Y-107596900D01*
X131318297Y-107751772D01*
X131351000Y-107916184D01*
X131351000Y-108083816D01*
X131318297Y-108248228D01*
X131254147Y-108403100D01*
X131161015Y-108542481D01*
X131042481Y-108661015D01*
X130903100Y-108754147D01*
X130748228Y-108818297D01*
X130583816Y-108851000D01*
X130416184Y-108851000D01*
X130251772Y-108818297D01*
X130096900Y-108754147D01*
X129957519Y-108661015D01*
X129838985Y-108542481D01*
X129745853Y-108403100D01*
X129681703Y-108248228D01*
X129649000Y-108083816D01*
X129649000Y-107916184D01*
X129681703Y-107751772D01*
X129745853Y-107596900D01*
X129838985Y-107457519D01*
X129957519Y-107338985D01*
X130096900Y-107245853D01*
X130251772Y-107181703D01*
X130416184Y-107149000D01*
X130583816Y-107149000D01*
X130748228Y-107181703D01*
G37*
G36*
X153203016Y-107330747D02*
G01*
X153329680Y-107383212D01*
X153443674Y-107459381D01*
X153540619Y-107556326D01*
X153616788Y-107670320D01*
X153669253Y-107796984D01*
X153696000Y-107931450D01*
X153696000Y-108068550D01*
X153669253Y-108203016D01*
X153616788Y-108329680D01*
X153540619Y-108443674D01*
X153443674Y-108540619D01*
X153329680Y-108616788D01*
X153203016Y-108669253D01*
X153068550Y-108696000D01*
X152931450Y-108696000D01*
X152796984Y-108669253D01*
X152670320Y-108616788D01*
X152556326Y-108540619D01*
X152459381Y-108443674D01*
X152383212Y-108329680D01*
X152330747Y-108203016D01*
X152304000Y-108068550D01*
X152304000Y-107931450D01*
X152330747Y-107796984D01*
X152383212Y-107670320D01*
X152459381Y-107556326D01*
X152556326Y-107459381D01*
X152670320Y-107383212D01*
X152796984Y-107330747D01*
X152931450Y-107304000D01*
X153068550Y-107304000D01*
X153203016Y-107330747D01*
G37*
G36*
X106244098Y-103547033D02*
G01*
X106708350Y-103739332D01*
X106708352Y-103739333D01*
X107126168Y-104018509D01*
X107481491Y-104373832D01*
X107643829Y-104616788D01*
X107760668Y-104791650D01*
X107952967Y-105255902D01*
X108051000Y-105748747D01*
X108051000Y-106251253D01*
X107952967Y-106744098D01*
X107762878Y-107203014D01*
X107760667Y-107208352D01*
X107481491Y-107626168D01*
X107126168Y-107981491D01*
X106708352Y-108260667D01*
X106708351Y-108260668D01*
X106708350Y-108260668D01*
X106244098Y-108452967D01*
X105751253Y-108551000D01*
X105248747Y-108551000D01*
X104755902Y-108452967D01*
X104291650Y-108260668D01*
X104291649Y-108260668D01*
X104291648Y-108260667D01*
X103873832Y-107981491D01*
X103518509Y-107626168D01*
X103239333Y-107208352D01*
X103237122Y-107203014D01*
X103047033Y-106744098D01*
X102949000Y-106251253D01*
X102949000Y-105748747D01*
X103047033Y-105255902D01*
X103239332Y-104791650D01*
X103356171Y-104616788D01*
X103518509Y-104373832D01*
X103873832Y-104018509D01*
X104291648Y-103739333D01*
X104291650Y-103739332D01*
X104755902Y-103547033D01*
X105248747Y-103449000D01*
X105751253Y-103449000D01*
X106244098Y-103547033D01*
G37*
G36*
X186351000Y-107851000D02*
G01*
X183649000Y-107851000D01*
X183649000Y-105149000D01*
X186351000Y-105149000D01*
X186351000Y-107851000D01*
G37*
G36*
X157203016Y-106330747D02*
G01*
X157329680Y-106383212D01*
X157443674Y-106459381D01*
X157540619Y-106556326D01*
X157616788Y-106670320D01*
X157669253Y-106796984D01*
X157696000Y-106931450D01*
X157696000Y-107068550D01*
X157669253Y-107203016D01*
X157616788Y-107329680D01*
X157540619Y-107443674D01*
X157443674Y-107540619D01*
X157329680Y-107616788D01*
X157203016Y-107669253D01*
X157068550Y-107696000D01*
X156931450Y-107696000D01*
X156796984Y-107669253D01*
X156670320Y-107616788D01*
X156556326Y-107540619D01*
X156459381Y-107443674D01*
X156383212Y-107329680D01*
X156330747Y-107203016D01*
X156304000Y-107068550D01*
X156304000Y-106931450D01*
X156330747Y-106796984D01*
X156383212Y-106670320D01*
X156459381Y-106556326D01*
X156556326Y-106459381D01*
X156670320Y-106383212D01*
X156796984Y-106330747D01*
X156931450Y-106304000D01*
X157068550Y-106304000D01*
X157203016Y-106330747D01*
G37*
G36*
X153203016Y-105330747D02*
G01*
X153329680Y-105383212D01*
X153443674Y-105459381D01*
X153540619Y-105556326D01*
X153616788Y-105670320D01*
X153669253Y-105796984D01*
X153696000Y-105931450D01*
X153696000Y-106068550D01*
X153669253Y-106203016D01*
X153616788Y-106329680D01*
X153540619Y-106443674D01*
X153443674Y-106540619D01*
X153329680Y-106616788D01*
X153203016Y-106669253D01*
X153068550Y-106696000D01*
X152931450Y-106696000D01*
X152796984Y-106669253D01*
X152670320Y-106616788D01*
X152556326Y-106540619D01*
X152459381Y-106443674D01*
X152383212Y-106329680D01*
X152330747Y-106203016D01*
X152304000Y-106068550D01*
X152304000Y-105931450D01*
X152330747Y-105796984D01*
X152383212Y-105670320D01*
X152459381Y-105556326D01*
X152556326Y-105459381D01*
X152670320Y-105383212D01*
X152796984Y-105330747D01*
X152931450Y-105304000D01*
X153068550Y-105304000D01*
X153203016Y-105330747D01*
G37*
G36*
X157203016Y-104330747D02*
G01*
X157329680Y-104383212D01*
X157443674Y-104459381D01*
X157540619Y-104556326D01*
X157616788Y-104670320D01*
X157669253Y-104796984D01*
X157696000Y-104931450D01*
X157696000Y-105068550D01*
X157669253Y-105203016D01*
X157616788Y-105329680D01*
X157540619Y-105443674D01*
X157443674Y-105540619D01*
X157329680Y-105616788D01*
X157203016Y-105669253D01*
X157068550Y-105696000D01*
X156931450Y-105696000D01*
X156796984Y-105669253D01*
X156670320Y-105616788D01*
X156556326Y-105540619D01*
X156459381Y-105443674D01*
X156383212Y-105329680D01*
X156330747Y-105203016D01*
X156304000Y-105068550D01*
X156304000Y-104931450D01*
X156330747Y-104796984D01*
X156383212Y-104670320D01*
X156459381Y-104556326D01*
X156556326Y-104459381D01*
X156670320Y-104383212D01*
X156796984Y-104330747D01*
X156931450Y-104304000D01*
X157068550Y-104304000D01*
X157203016Y-104330747D01*
G37*
G36*
X153203016Y-103330747D02*
G01*
X153329680Y-103383212D01*
X153443674Y-103459381D01*
X153540619Y-103556326D01*
X153616788Y-103670320D01*
X153669253Y-103796984D01*
X153696000Y-103931450D01*
X153696000Y-104068550D01*
X153669253Y-104203016D01*
X153616788Y-104329680D01*
X153540619Y-104443674D01*
X153443674Y-104540619D01*
X153329680Y-104616788D01*
X153203016Y-104669253D01*
X153068550Y-104696000D01*
X152931450Y-104696000D01*
X152796984Y-104669253D01*
X152670320Y-104616788D01*
X152556326Y-104540619D01*
X152459381Y-104443674D01*
X152383212Y-104329680D01*
X152330747Y-104203016D01*
X152304000Y-104068550D01*
X152304000Y-103931450D01*
X152330747Y-103796984D01*
X152383212Y-103670320D01*
X152459381Y-103556326D01*
X152556326Y-103459381D01*
X152670320Y-103383212D01*
X152796984Y-103330747D01*
X152931450Y-103304000D01*
X153068550Y-103304000D01*
X153203016Y-103330747D01*
G37*
G36*
X157203016Y-102330747D02*
G01*
X157329680Y-102383212D01*
X157443674Y-102459381D01*
X157540619Y-102556326D01*
X157616788Y-102670320D01*
X157669253Y-102796984D01*
X157696000Y-102931450D01*
X157696000Y-103068550D01*
X157669253Y-103203016D01*
X157616788Y-103329680D01*
X157540619Y-103443674D01*
X157443674Y-103540619D01*
X157329680Y-103616788D01*
X157203016Y-103669253D01*
X157068550Y-103696000D01*
X156931450Y-103696000D01*
X156796984Y-103669253D01*
X156670320Y-103616788D01*
X156556326Y-103540619D01*
X156459381Y-103443674D01*
X156383212Y-103329680D01*
X156330747Y-103203016D01*
X156304000Y-103068550D01*
X156304000Y-102931450D01*
X156330747Y-102796984D01*
X156383212Y-102670320D01*
X156459381Y-102556326D01*
X156556326Y-102459381D01*
X156670320Y-102383212D01*
X156796984Y-102330747D01*
X156931450Y-102304000D01*
X157068550Y-102304000D01*
X157203016Y-102330747D01*
G37*
G36*
X185394072Y-100120918D02*
G01*
X185639939Y-100222759D01*
X185751328Y-100297187D01*
X185861211Y-100370609D01*
X186049391Y-100558789D01*
X186197242Y-100780063D01*
X186299082Y-101025928D01*
X186351000Y-101286937D01*
X186351000Y-101553063D01*
X186299082Y-101814072D01*
X186198135Y-102057782D01*
X186197241Y-102059939D01*
X186049390Y-102281212D01*
X185861212Y-102469390D01*
X185639939Y-102617241D01*
X185639938Y-102617242D01*
X185639937Y-102617242D01*
X185394072Y-102719082D01*
X185133063Y-102771000D01*
X184866937Y-102771000D01*
X184605928Y-102719082D01*
X184360063Y-102617242D01*
X184360062Y-102617242D01*
X184360061Y-102617241D01*
X184138788Y-102469390D01*
X183950610Y-102281212D01*
X183802759Y-102059939D01*
X183801866Y-102057782D01*
X183700918Y-101814072D01*
X183649000Y-101553063D01*
X183649000Y-101286937D01*
X183700918Y-101025928D01*
X183802758Y-100780063D01*
X183950609Y-100558789D01*
X184138789Y-100370609D01*
X184248672Y-100297187D01*
X184360061Y-100222759D01*
X184605928Y-100120918D01*
X184866937Y-100069000D01*
X185133063Y-100069000D01*
X185394072Y-100120918D01*
G37*
G36*
X153203016Y-101330747D02*
G01*
X153329680Y-101383212D01*
X153443674Y-101459381D01*
X153540619Y-101556326D01*
X153616788Y-101670320D01*
X153669253Y-101796984D01*
X153696000Y-101931450D01*
X153696000Y-102068550D01*
X153669253Y-102203016D01*
X153616788Y-102329680D01*
X153540619Y-102443674D01*
X153443674Y-102540619D01*
X153329680Y-102616788D01*
X153203016Y-102669253D01*
X153068550Y-102696000D01*
X152931450Y-102696000D01*
X152796984Y-102669253D01*
X152670320Y-102616788D01*
X152556326Y-102540619D01*
X152459381Y-102443674D01*
X152383212Y-102329680D01*
X152330747Y-102203016D01*
X152304000Y-102068550D01*
X152304000Y-101931450D01*
X152330747Y-101796984D01*
X152383212Y-101670320D01*
X152459381Y-101556326D01*
X152556326Y-101459381D01*
X152670320Y-101383212D01*
X152796984Y-101330747D01*
X152931450Y-101304000D01*
X153068550Y-101304000D01*
X153203016Y-101330747D01*
G37*
G36*
X106488288Y-99556326D02*
G01*
X106605040Y-99567825D01*
X106850280Y-99642218D01*
X107076294Y-99763025D01*
X107117673Y-99796984D01*
X107274397Y-99925603D01*
X107391709Y-100068550D01*
X107436975Y-100123706D01*
X107557782Y-100349720D01*
X107632175Y-100594960D01*
X107657294Y-100850000D01*
X107632175Y-101105040D01*
X107564032Y-101329678D01*
X107557781Y-101350282D01*
X107540179Y-101383213D01*
X107436975Y-101576294D01*
X107403743Y-101616787D01*
X107274397Y-101774397D01*
X107127899Y-101894624D01*
X107076294Y-101936975D01*
X106850280Y-102057782D01*
X106605040Y-102132175D01*
X106509473Y-102141587D01*
X106413906Y-102151000D01*
X104586094Y-102151000D01*
X104490527Y-102141587D01*
X104394960Y-102132175D01*
X104149720Y-102057782D01*
X103923706Y-101936975D01*
X103872101Y-101894624D01*
X103725603Y-101774397D01*
X103596257Y-101616787D01*
X103563025Y-101576294D01*
X103459821Y-101383213D01*
X103442219Y-101350282D01*
X103435969Y-101329678D01*
X103367825Y-101105040D01*
X103342706Y-100850000D01*
X103367825Y-100594960D01*
X103442218Y-100349720D01*
X103563025Y-100123706D01*
X103608291Y-100068550D01*
X103725603Y-99925603D01*
X103882327Y-99796984D01*
X103923706Y-99763025D01*
X104149720Y-99642218D01*
X104394960Y-99567825D01*
X104511712Y-99556326D01*
X104586094Y-99549000D01*
X106413906Y-99549000D01*
X106488288Y-99556326D01*
G37*
G36*
X157203016Y-100330747D02*
G01*
X157329680Y-100383212D01*
X157443674Y-100459381D01*
X157540619Y-100556326D01*
X157616788Y-100670320D01*
X157669253Y-100796984D01*
X157696000Y-100931450D01*
X157696000Y-101068550D01*
X157669253Y-101203016D01*
X157616788Y-101329680D01*
X157540619Y-101443674D01*
X157443674Y-101540619D01*
X157329680Y-101616788D01*
X157203016Y-101669253D01*
X157068550Y-101696000D01*
X156931450Y-101696000D01*
X156796984Y-101669253D01*
X156670320Y-101616788D01*
X156556326Y-101540619D01*
X156459381Y-101443674D01*
X156383212Y-101329680D01*
X156330747Y-101203016D01*
X156304000Y-101068550D01*
X156304000Y-100931450D01*
X156330747Y-100796984D01*
X156383212Y-100670320D01*
X156459381Y-100556326D01*
X156556326Y-100459381D01*
X156670320Y-100383212D01*
X156796984Y-100330747D01*
X156931450Y-100304000D01*
X157068550Y-100304000D01*
X157203016Y-100330747D01*
G37*
G36*
X153203016Y-99330747D02*
G01*
X153329680Y-99383212D01*
X153443674Y-99459381D01*
X153540619Y-99556326D01*
X153616788Y-99670320D01*
X153669253Y-99796984D01*
X153696000Y-99931450D01*
X153696000Y-100068550D01*
X153669253Y-100203016D01*
X153616788Y-100329680D01*
X153540619Y-100443674D01*
X153443674Y-100540619D01*
X153329680Y-100616788D01*
X153203016Y-100669253D01*
X153068550Y-100696000D01*
X152931450Y-100696000D01*
X152796984Y-100669253D01*
X152670320Y-100616788D01*
X152556326Y-100540619D01*
X152459381Y-100443674D01*
X152383212Y-100329680D01*
X152330747Y-100203016D01*
X152304000Y-100068550D01*
X152304000Y-99931450D01*
X152330747Y-99796984D01*
X152383212Y-99670320D01*
X152459381Y-99556326D01*
X152556326Y-99459381D01*
X152670320Y-99383212D01*
X152796984Y-99330747D01*
X152931450Y-99304000D01*
X153068550Y-99304000D01*
X153203016Y-99330747D01*
G37*
G36*
X125748228Y-98181703D02*
G01*
X125903100Y-98245853D01*
X126042481Y-98338985D01*
X126161015Y-98457519D01*
X126254147Y-98596900D01*
X126318297Y-98751772D01*
X126351000Y-98916184D01*
X126351000Y-99083816D01*
X126318297Y-99248228D01*
X126254147Y-99403100D01*
X126161015Y-99542481D01*
X126042481Y-99661015D01*
X125903100Y-99754147D01*
X125748228Y-99818297D01*
X125583816Y-99851000D01*
X125416184Y-99851000D01*
X125251772Y-99818297D01*
X125096900Y-99754147D01*
X124957519Y-99661015D01*
X124838985Y-99542481D01*
X124745853Y-99403100D01*
X124681703Y-99248228D01*
X124649000Y-99083816D01*
X124649000Y-98916184D01*
X124681703Y-98751772D01*
X124745853Y-98596900D01*
X124838985Y-98457519D01*
X124957519Y-98338985D01*
X125096900Y-98245853D01*
X125251772Y-98181703D01*
X125416184Y-98149000D01*
X125583816Y-98149000D01*
X125748228Y-98181703D01*
G37*
G36*
X120748228Y-98181703D02*
G01*
X120903100Y-98245853D01*
X121042481Y-98338985D01*
X121161015Y-98457519D01*
X121254147Y-98596900D01*
X121318297Y-98751772D01*
X121351000Y-98916184D01*
X121351000Y-99083816D01*
X121318297Y-99248228D01*
X121254147Y-99403100D01*
X121161015Y-99542481D01*
X121042481Y-99661015D01*
X120903100Y-99754147D01*
X120748228Y-99818297D01*
X120583816Y-99851000D01*
X120416184Y-99851000D01*
X120251772Y-99818297D01*
X120096900Y-99754147D01*
X119957519Y-99661015D01*
X119838985Y-99542481D01*
X119745853Y-99403100D01*
X119681703Y-99248228D01*
X119649000Y-99083816D01*
X119649000Y-98916184D01*
X119681703Y-98751772D01*
X119745853Y-98596900D01*
X119838985Y-98457519D01*
X119957519Y-98338985D01*
X120096900Y-98245853D01*
X120251772Y-98181703D01*
X120416184Y-98149000D01*
X120583816Y-98149000D01*
X120748228Y-98181703D01*
G37*
G36*
X157203016Y-98330747D02*
G01*
X157329680Y-98383212D01*
X157443674Y-98459381D01*
X157540619Y-98556326D01*
X157616788Y-98670320D01*
X157669253Y-98796984D01*
X157696000Y-98931450D01*
X157696000Y-99068550D01*
X157669253Y-99203016D01*
X157616788Y-99329680D01*
X157540619Y-99443674D01*
X157443674Y-99540619D01*
X157329680Y-99616788D01*
X157203016Y-99669253D01*
X157068550Y-99696000D01*
X156931450Y-99696000D01*
X156796984Y-99669253D01*
X156670320Y-99616788D01*
X156556326Y-99540619D01*
X156459381Y-99443674D01*
X156383212Y-99329680D01*
X156330747Y-99203016D01*
X156304000Y-99068550D01*
X156304000Y-98931450D01*
X156330747Y-98796984D01*
X156383212Y-98670320D01*
X156459381Y-98556326D01*
X156556326Y-98459381D01*
X156670320Y-98383212D01*
X156796984Y-98330747D01*
X156931450Y-98304000D01*
X157068550Y-98304000D01*
X157203016Y-98330747D01*
G37*
G36*
X153203016Y-97330747D02*
G01*
X153329680Y-97383212D01*
X153443674Y-97459381D01*
X153540619Y-97556326D01*
X153616788Y-97670320D01*
X153669253Y-97796984D01*
X153696000Y-97931450D01*
X153696000Y-98068550D01*
X153669253Y-98203016D01*
X153616788Y-98329680D01*
X153540619Y-98443674D01*
X153443674Y-98540619D01*
X153329680Y-98616788D01*
X153203016Y-98669253D01*
X153068550Y-98696000D01*
X152931450Y-98696000D01*
X152796984Y-98669253D01*
X152670320Y-98616788D01*
X152556326Y-98540619D01*
X152459381Y-98443674D01*
X152383212Y-98329680D01*
X152330747Y-98203016D01*
X152304000Y-98068550D01*
X152304000Y-97931450D01*
X152330747Y-97796984D01*
X152383212Y-97670320D01*
X152459381Y-97556326D01*
X152556326Y-97459381D01*
X152670320Y-97383212D01*
X152796984Y-97330747D01*
X152931450Y-97304000D01*
X153068550Y-97304000D01*
X153203016Y-97330747D01*
G37*
G36*
X163364903Y-95997075D02*
G01*
X163537460Y-96068550D01*
X163592571Y-96091378D01*
X163797466Y-96228285D01*
X163971715Y-96402534D01*
X164108622Y-96607429D01*
X164108623Y-96607431D01*
X164202925Y-96835097D01*
X164251000Y-97076786D01*
X164251000Y-97323214D01*
X164239065Y-97383213D01*
X164202925Y-97564903D01*
X164108622Y-97792571D01*
X163971715Y-97997466D01*
X163797466Y-98171715D01*
X163592571Y-98308622D01*
X163592570Y-98308623D01*
X163592569Y-98308623D01*
X163364903Y-98402925D01*
X163123214Y-98451000D01*
X162876786Y-98451000D01*
X162635097Y-98402925D01*
X162407431Y-98308623D01*
X162407430Y-98308623D01*
X162407429Y-98308622D01*
X162202534Y-98171715D01*
X162028285Y-97997466D01*
X161891378Y-97792571D01*
X161797075Y-97564903D01*
X161760935Y-97383213D01*
X161749000Y-97323214D01*
X161749000Y-97076786D01*
X161797075Y-96835097D01*
X161891377Y-96607431D01*
X161891378Y-96607429D01*
X162028285Y-96402534D01*
X162202534Y-96228285D01*
X162407429Y-96091378D01*
X162462541Y-96068550D01*
X162635097Y-95997075D01*
X162876786Y-95949000D01*
X163123214Y-95949000D01*
X163364903Y-95997075D01*
G37*
G36*
X157203016Y-96330747D02*
G01*
X157329680Y-96383212D01*
X157443674Y-96459381D01*
X157540619Y-96556326D01*
X157616788Y-96670320D01*
X157669253Y-96796984D01*
X157696000Y-96931450D01*
X157696000Y-97068550D01*
X157669253Y-97203016D01*
X157616788Y-97329680D01*
X157540619Y-97443674D01*
X157443674Y-97540619D01*
X157329680Y-97616788D01*
X157203016Y-97669253D01*
X157068550Y-97696000D01*
X156931450Y-97696000D01*
X156796984Y-97669253D01*
X156670320Y-97616788D01*
X156556326Y-97540619D01*
X156459381Y-97443674D01*
X156383212Y-97329680D01*
X156330747Y-97203016D01*
X156304000Y-97068550D01*
X156304000Y-96931450D01*
X156330747Y-96796984D01*
X156383212Y-96670320D01*
X156459381Y-96556326D01*
X156556326Y-96459381D01*
X156670320Y-96383212D01*
X156796984Y-96330747D01*
X156931450Y-96304000D01*
X157068550Y-96304000D01*
X157203016Y-96330747D01*
G37*
G36*
X153203016Y-95330747D02*
G01*
X153329680Y-95383212D01*
X153443674Y-95459381D01*
X153540619Y-95556326D01*
X153616788Y-95670320D01*
X153669253Y-95796984D01*
X153696000Y-95931450D01*
X153696000Y-96068550D01*
X153669253Y-96203016D01*
X153616788Y-96329680D01*
X153540619Y-96443674D01*
X153443674Y-96540619D01*
X153329680Y-96616788D01*
X153203016Y-96669253D01*
X153068550Y-96696000D01*
X152931450Y-96696000D01*
X152796984Y-96669253D01*
X152670320Y-96616788D01*
X152556326Y-96540619D01*
X152459381Y-96443674D01*
X152383212Y-96329680D01*
X152330747Y-96203016D01*
X152304000Y-96068550D01*
X152304000Y-95931450D01*
X152330747Y-95796984D01*
X152383212Y-95670320D01*
X152459381Y-95556326D01*
X152556326Y-95459381D01*
X152670320Y-95383212D01*
X152796984Y-95330747D01*
X152931450Y-95304000D01*
X153068550Y-95304000D01*
X153203016Y-95330747D01*
G37*
G36*
X121364903Y-93497075D02*
G01*
X121507951Y-93556327D01*
X121592571Y-93591378D01*
X121797466Y-93728285D01*
X121971715Y-93902534D01*
X122108622Y-94107429D01*
X122108623Y-94107431D01*
X122202925Y-94335097D01*
X122251000Y-94576786D01*
X122251000Y-94823214D01*
X122229470Y-94931450D01*
X122202925Y-95064903D01*
X122108622Y-95292571D01*
X121971715Y-95497466D01*
X121797466Y-95671715D01*
X121592571Y-95808622D01*
X121592570Y-95808623D01*
X121592569Y-95808623D01*
X121364903Y-95902925D01*
X121123214Y-95951000D01*
X120876786Y-95951000D01*
X120635097Y-95902925D01*
X120407431Y-95808623D01*
X120407430Y-95808623D01*
X120407429Y-95808622D01*
X120202534Y-95671715D01*
X120028285Y-95497466D01*
X119891378Y-95292571D01*
X119797075Y-95064903D01*
X119770530Y-94931450D01*
X119749000Y-94823214D01*
X119749000Y-94576786D01*
X119797075Y-94335097D01*
X119891377Y-94107431D01*
X119891378Y-94107429D01*
X120028285Y-93902534D01*
X120202534Y-93728285D01*
X120407429Y-93591378D01*
X120492050Y-93556327D01*
X120635097Y-93497075D01*
X120876786Y-93449000D01*
X121123214Y-93449000D01*
X121364903Y-93497075D01*
G37*
G36*
X186351000Y-95851000D02*
G01*
X183649000Y-95851000D01*
X183649000Y-93149000D01*
X186351000Y-93149000D01*
X186351000Y-95851000D01*
G37*
G36*
X125864903Y-93297075D02*
G01*
X126072857Y-93383212D01*
X126092571Y-93391378D01*
X126297466Y-93528285D01*
X126471715Y-93702534D01*
X126608622Y-93907429D01*
X126608623Y-93907431D01*
X126702925Y-94135097D01*
X126751000Y-94376786D01*
X126751000Y-94623214D01*
X126702925Y-94864903D01*
X126620083Y-95064903D01*
X126608622Y-95092571D01*
X126471715Y-95297466D01*
X126297466Y-95471715D01*
X126092571Y-95608622D01*
X126092570Y-95608623D01*
X126092569Y-95608623D01*
X125864903Y-95702925D01*
X125623214Y-95751000D01*
X125376786Y-95751000D01*
X125135097Y-95702925D01*
X124907431Y-95608623D01*
X124907430Y-95608623D01*
X124907429Y-95608622D01*
X124702534Y-95471715D01*
X124528285Y-95297466D01*
X124391378Y-95092571D01*
X124379918Y-95064903D01*
X124297075Y-94864903D01*
X124249000Y-94623214D01*
X124249000Y-94376786D01*
X124297075Y-94135097D01*
X124391377Y-93907431D01*
X124391378Y-93907429D01*
X124528285Y-93702534D01*
X124702534Y-93528285D01*
X124907429Y-93391378D01*
X124927144Y-93383212D01*
X125135097Y-93297075D01*
X125376786Y-93249000D01*
X125623214Y-93249000D01*
X125864903Y-93297075D01*
G37*
G36*
X157203016Y-94330747D02*
G01*
X157329680Y-94383212D01*
X157443674Y-94459381D01*
X157540619Y-94556326D01*
X157616788Y-94670320D01*
X157669253Y-94796984D01*
X157696000Y-94931450D01*
X157696000Y-95068550D01*
X157669253Y-95203016D01*
X157616788Y-95329680D01*
X157540619Y-95443674D01*
X157443674Y-95540619D01*
X157329680Y-95616788D01*
X157203016Y-95669253D01*
X157068550Y-95696000D01*
X156931450Y-95696000D01*
X156796984Y-95669253D01*
X156670320Y-95616788D01*
X156556326Y-95540619D01*
X156459381Y-95443674D01*
X156383212Y-95329680D01*
X156330747Y-95203016D01*
X156304000Y-95068550D01*
X156304000Y-94931450D01*
X156330747Y-94796984D01*
X156383212Y-94670320D01*
X156459381Y-94556326D01*
X156556326Y-94459381D01*
X156670320Y-94383212D01*
X156796984Y-94330747D01*
X156931450Y-94304000D01*
X157068550Y-94304000D01*
X157203016Y-94330747D01*
G37*
G36*
X153203016Y-93330747D02*
G01*
X153329680Y-93383212D01*
X153443674Y-93459381D01*
X153540619Y-93556326D01*
X153616788Y-93670320D01*
X153669253Y-93796984D01*
X153696000Y-93931450D01*
X153696000Y-94068550D01*
X153669253Y-94203016D01*
X153616788Y-94329680D01*
X153540619Y-94443674D01*
X153443674Y-94540619D01*
X153329680Y-94616788D01*
X153203016Y-94669253D01*
X153068550Y-94696000D01*
X152931450Y-94696000D01*
X152796984Y-94669253D01*
X152670320Y-94616788D01*
X152556326Y-94540619D01*
X152459381Y-94443674D01*
X152383212Y-94329680D01*
X152330747Y-94203016D01*
X152304000Y-94068550D01*
X152304000Y-93931450D01*
X152330747Y-93796984D01*
X152383212Y-93670320D01*
X152459381Y-93556326D01*
X152556326Y-93459381D01*
X152670320Y-93383212D01*
X152796984Y-93330747D01*
X152931450Y-93304000D01*
X153068550Y-93304000D01*
X153203016Y-93330747D01*
G37*
G36*
X157203016Y-92330747D02*
G01*
X157329680Y-92383212D01*
X157443674Y-92459381D01*
X157540619Y-92556326D01*
X157616788Y-92670320D01*
X157669253Y-92796984D01*
X157696000Y-92931450D01*
X157696000Y-93068550D01*
X157669253Y-93203016D01*
X157616788Y-93329680D01*
X157540619Y-93443674D01*
X157443674Y-93540619D01*
X157329680Y-93616788D01*
X157203016Y-93669253D01*
X157068550Y-93696000D01*
X156931450Y-93696000D01*
X156796984Y-93669253D01*
X156670320Y-93616788D01*
X156556326Y-93540619D01*
X156459381Y-93443674D01*
X156383212Y-93329680D01*
X156330747Y-93203016D01*
X156304000Y-93068550D01*
X156304000Y-92931450D01*
X156330747Y-92796984D01*
X156383212Y-92670320D01*
X156459381Y-92556326D01*
X156556326Y-92459381D01*
X156670320Y-92383212D01*
X156796984Y-92330747D01*
X156931450Y-92304000D01*
X157068550Y-92304000D01*
X157203016Y-92330747D01*
G37*
G36*
X153203016Y-91330747D02*
G01*
X153329680Y-91383212D01*
X153443674Y-91459381D01*
X153540619Y-91556326D01*
X153616788Y-91670320D01*
X153669253Y-91796984D01*
X153696000Y-91931450D01*
X153696000Y-92068550D01*
X153669253Y-92203016D01*
X153616788Y-92329680D01*
X153540619Y-92443674D01*
X153443674Y-92540619D01*
X153329680Y-92616788D01*
X153203016Y-92669253D01*
X153068550Y-92696000D01*
X152931450Y-92696000D01*
X152796984Y-92669253D01*
X152670320Y-92616788D01*
X152556326Y-92540619D01*
X152459381Y-92443674D01*
X152383212Y-92329680D01*
X152330747Y-92203016D01*
X152304000Y-92068550D01*
X152304000Y-91931450D01*
X152330747Y-91796984D01*
X152383212Y-91670320D01*
X152459381Y-91556326D01*
X152556326Y-91459381D01*
X152670320Y-91383212D01*
X152796984Y-91330747D01*
X152931450Y-91304000D01*
X153068550Y-91304000D01*
X153203016Y-91330747D01*
G37*
G36*
X157203016Y-90330747D02*
G01*
X157329680Y-90383212D01*
X157443674Y-90459381D01*
X157540619Y-90556326D01*
X157616788Y-90670320D01*
X157669253Y-90796984D01*
X157696000Y-90931450D01*
X157696000Y-91068550D01*
X157669253Y-91203016D01*
X157616788Y-91329680D01*
X157540619Y-91443674D01*
X157443674Y-91540619D01*
X157329680Y-91616788D01*
X157203016Y-91669253D01*
X157068550Y-91696000D01*
X156931450Y-91696000D01*
X156796984Y-91669253D01*
X156670320Y-91616788D01*
X156556326Y-91540619D01*
X156459381Y-91443674D01*
X156383212Y-91329680D01*
X156330747Y-91203016D01*
X156304000Y-91068550D01*
X156304000Y-90931450D01*
X156330747Y-90796984D01*
X156383212Y-90670320D01*
X156459381Y-90556326D01*
X156556326Y-90459381D01*
X156670320Y-90383212D01*
X156796984Y-90330747D01*
X156931450Y-90304000D01*
X157068550Y-90304000D01*
X157203016Y-90330747D01*
G37*
G36*
X185394072Y-88120918D02*
G01*
X185639939Y-88222759D01*
X185751328Y-88297187D01*
X185799957Y-88329680D01*
X185861212Y-88370610D01*
X186049390Y-88558788D01*
X186197241Y-88780061D01*
X186299082Y-89025928D01*
X186351000Y-89286938D01*
X186351000Y-89553062D01*
X186299082Y-89814072D01*
X186197241Y-90059939D01*
X186049390Y-90281212D01*
X185861212Y-90469390D01*
X185639939Y-90617241D01*
X185639938Y-90617242D01*
X185639937Y-90617242D01*
X185394072Y-90719082D01*
X185133063Y-90771000D01*
X184866937Y-90771000D01*
X184605928Y-90719082D01*
X184360063Y-90617242D01*
X184360062Y-90617242D01*
X184360061Y-90617241D01*
X184138788Y-90469390D01*
X183950610Y-90281212D01*
X183802759Y-90059939D01*
X183700918Y-89814072D01*
X183649000Y-89553062D01*
X183649000Y-89286938D01*
X183700918Y-89025928D01*
X183802759Y-88780061D01*
X183950610Y-88558788D01*
X184138788Y-88370610D01*
X184200044Y-88329680D01*
X184248672Y-88297187D01*
X184360061Y-88222759D01*
X184605928Y-88120918D01*
X184866937Y-88069000D01*
X185133063Y-88069000D01*
X185394072Y-88120918D01*
G37*
G36*
X153203016Y-89330747D02*
G01*
X153329680Y-89383212D01*
X153443674Y-89459381D01*
X153540619Y-89556326D01*
X153616788Y-89670320D01*
X153669253Y-89796984D01*
X153696000Y-89931450D01*
X153696000Y-90068550D01*
X153669253Y-90203016D01*
X153616788Y-90329680D01*
X153540619Y-90443674D01*
X153443674Y-90540619D01*
X153329680Y-90616788D01*
X153203016Y-90669253D01*
X153068550Y-90696000D01*
X152931450Y-90696000D01*
X152796984Y-90669253D01*
X152670320Y-90616788D01*
X152556326Y-90540619D01*
X152459381Y-90443674D01*
X152383212Y-90329680D01*
X152330747Y-90203016D01*
X152304000Y-90068550D01*
X152304000Y-89931450D01*
X152330747Y-89796984D01*
X152383212Y-89670320D01*
X152459381Y-89556326D01*
X152556326Y-89459381D01*
X152670320Y-89383212D01*
X152796984Y-89330747D01*
X152931450Y-89304000D01*
X153068550Y-89304000D01*
X153203016Y-89330747D01*
G37*
G36*
X157203016Y-88330747D02*
G01*
X157329680Y-88383212D01*
X157443674Y-88459381D01*
X157540619Y-88556326D01*
X157616788Y-88670320D01*
X157669253Y-88796984D01*
X157696000Y-88931450D01*
X157696000Y-89068550D01*
X157669253Y-89203016D01*
X157616788Y-89329680D01*
X157540619Y-89443674D01*
X157443674Y-89540619D01*
X157329680Y-89616788D01*
X157203016Y-89669253D01*
X157068550Y-89696000D01*
X156931450Y-89696000D01*
X156796984Y-89669253D01*
X156670320Y-89616788D01*
X156556326Y-89540619D01*
X156459381Y-89443674D01*
X156383212Y-89329680D01*
X156330747Y-89203016D01*
X156304000Y-89068550D01*
X156304000Y-88931450D01*
X156330747Y-88796984D01*
X156383212Y-88670320D01*
X156459381Y-88556326D01*
X156556326Y-88459381D01*
X156670320Y-88383212D01*
X156796984Y-88330747D01*
X156931450Y-88304000D01*
X157068550Y-88304000D01*
X157203016Y-88330747D01*
G37*
G36*
X104358600Y-89677600D02*
G01*
X101513400Y-89677600D01*
X101513400Y-86832400D01*
X104358600Y-86832400D01*
X104358600Y-89677600D01*
G37*
G36*
X153203016Y-87330747D02*
G01*
X153329680Y-87383212D01*
X153443674Y-87459381D01*
X153540619Y-87556326D01*
X153616788Y-87670320D01*
X153669253Y-87796984D01*
X153696000Y-87931450D01*
X153696000Y-88068550D01*
X153669253Y-88203016D01*
X153616788Y-88329680D01*
X153540619Y-88443674D01*
X153443674Y-88540619D01*
X153329680Y-88616788D01*
X153203016Y-88669253D01*
X153068550Y-88696000D01*
X152931450Y-88696000D01*
X152796984Y-88669253D01*
X152670320Y-88616788D01*
X152556326Y-88540619D01*
X152459381Y-88443674D01*
X152383212Y-88329680D01*
X152330747Y-88203016D01*
X152304000Y-88068550D01*
X152304000Y-87931450D01*
X152330747Y-87796984D01*
X152383212Y-87670320D01*
X152459381Y-87556326D01*
X152556326Y-87459381D01*
X152670320Y-87383212D01*
X152796984Y-87330747D01*
X152931450Y-87304000D01*
X153068550Y-87304000D01*
X153203016Y-87330747D01*
G37*
G36*
X157203016Y-86330747D02*
G01*
X157329680Y-86383212D01*
X157443674Y-86459381D01*
X157540619Y-86556326D01*
X157616788Y-86670320D01*
X157669253Y-86796984D01*
X157696000Y-86931450D01*
X157696000Y-87068550D01*
X157669253Y-87203016D01*
X157616788Y-87329680D01*
X157540619Y-87443674D01*
X157443674Y-87540619D01*
X157329680Y-87616788D01*
X157203016Y-87669253D01*
X157068550Y-87696000D01*
X156931450Y-87696000D01*
X156796984Y-87669253D01*
X156670320Y-87616788D01*
X156556326Y-87540619D01*
X156459381Y-87443674D01*
X156383212Y-87329680D01*
X156330747Y-87203016D01*
X156304000Y-87068550D01*
X156304000Y-86931450D01*
X156330747Y-86796984D01*
X156383212Y-86670320D01*
X156459381Y-86556326D01*
X156556326Y-86459381D01*
X156670320Y-86383212D01*
X156796984Y-86330747D01*
X156931450Y-86304000D01*
X157068550Y-86304000D01*
X157203016Y-86330747D01*
G37*
G36*
X143744098Y-81747033D02*
G01*
X144208350Y-81939332D01*
X144208352Y-81939333D01*
X144626168Y-82218509D01*
X144981491Y-82573832D01*
X145205191Y-82908623D01*
X145260668Y-82991650D01*
X145452967Y-83455902D01*
X145551000Y-83948747D01*
X145551000Y-84451253D01*
X145452967Y-84944098D01*
X145303891Y-85304000D01*
X145260667Y-85408352D01*
X144981491Y-85826168D01*
X144626168Y-86181491D01*
X144208352Y-86460667D01*
X144208351Y-86460668D01*
X144208350Y-86460668D01*
X143744098Y-86652967D01*
X143251253Y-86751000D01*
X142748747Y-86751000D01*
X142255902Y-86652967D01*
X141791650Y-86460668D01*
X141791649Y-86460668D01*
X141791648Y-86460667D01*
X141373832Y-86181491D01*
X141018509Y-85826168D01*
X140739333Y-85408352D01*
X140696109Y-85304000D01*
X140547033Y-84944098D01*
X140449000Y-84451253D01*
X140449000Y-83948747D01*
X140547033Y-83455902D01*
X140739332Y-82991650D01*
X140794809Y-82908623D01*
X141018509Y-82573832D01*
X141373832Y-82218509D01*
X141791648Y-81939333D01*
X141791650Y-81939332D01*
X142255902Y-81747033D01*
X142748747Y-81649000D01*
X143251253Y-81649000D01*
X143744098Y-81747033D01*
G37*
G36*
X153203016Y-85330747D02*
G01*
X153329680Y-85383212D01*
X153443674Y-85459381D01*
X153540619Y-85556326D01*
X153616788Y-85670320D01*
X153669253Y-85796984D01*
X153696000Y-85931450D01*
X153696000Y-86068550D01*
X153669253Y-86203016D01*
X153616788Y-86329680D01*
X153540619Y-86443674D01*
X153443674Y-86540619D01*
X153329680Y-86616788D01*
X153203016Y-86669253D01*
X153068550Y-86696000D01*
X152931450Y-86696000D01*
X152796984Y-86669253D01*
X152670320Y-86616788D01*
X152556326Y-86540619D01*
X152459381Y-86443674D01*
X152383212Y-86329680D01*
X152330747Y-86203016D01*
X152304000Y-86068550D01*
X152304000Y-85931450D01*
X152330747Y-85796984D01*
X152383212Y-85670320D01*
X152459381Y-85556326D01*
X152556326Y-85459381D01*
X152670320Y-85383212D01*
X152796984Y-85330747D01*
X152931450Y-85304000D01*
X153068550Y-85304000D01*
X153203016Y-85330747D01*
G37*
G36*
X163364903Y-83297075D02*
G01*
X163592571Y-83391378D01*
X163797466Y-83528285D01*
X163971715Y-83702534D01*
X163971716Y-83702536D01*
X164108623Y-83907431D01*
X164202925Y-84135097D01*
X164251000Y-84376786D01*
X164251000Y-84623214D01*
X164202925Y-84864903D01*
X164108622Y-85092571D01*
X163971715Y-85297466D01*
X163797466Y-85471715D01*
X163592571Y-85608622D01*
X163592570Y-85608623D01*
X163592569Y-85608623D01*
X163364903Y-85702925D01*
X163123214Y-85751000D01*
X162876786Y-85751000D01*
X162635097Y-85702925D01*
X162407431Y-85608623D01*
X162407430Y-85608623D01*
X162407429Y-85608622D01*
X162202534Y-85471715D01*
X162028285Y-85297466D01*
X161891378Y-85092571D01*
X161797075Y-84864903D01*
X161749000Y-84623214D01*
X161749000Y-84376786D01*
X161797075Y-84135097D01*
X161891377Y-83907431D01*
X162028284Y-83702536D01*
X162028285Y-83702534D01*
X162202534Y-83528285D01*
X162407429Y-83391378D01*
X162635097Y-83297075D01*
X162876786Y-83249000D01*
X163123214Y-83249000D01*
X163364903Y-83297075D01*
G37*
G36*
X157203016Y-84330747D02*
G01*
X157329680Y-84383212D01*
X157443674Y-84459381D01*
X157540619Y-84556326D01*
X157616788Y-84670320D01*
X157669253Y-84796984D01*
X157696000Y-84931450D01*
X157696000Y-85068550D01*
X157669253Y-85203016D01*
X157616788Y-85329680D01*
X157540619Y-85443674D01*
X157443674Y-85540619D01*
X157329680Y-85616788D01*
X157203016Y-85669253D01*
X157068550Y-85696000D01*
X156931450Y-85696000D01*
X156796984Y-85669253D01*
X156670320Y-85616788D01*
X156556326Y-85540619D01*
X156459381Y-85443674D01*
X156383212Y-85329680D01*
X156330747Y-85203016D01*
X156304000Y-85068550D01*
X156304000Y-84931450D01*
X156330747Y-84796984D01*
X156383212Y-84670320D01*
X156459381Y-84556326D01*
X156556326Y-84459381D01*
X156670320Y-84383212D01*
X156796984Y-84330747D01*
X156931450Y-84304000D01*
X157068550Y-84304000D01*
X157203016Y-84330747D01*
G37*
G36*
X186351000Y-83851000D02*
G01*
X183649000Y-83851000D01*
X183649000Y-81149000D01*
X186351000Y-81149000D01*
X186351000Y-83851000D01*
G37*
G36*
X122251000Y-83251000D02*
G01*
X119749000Y-83251000D01*
X119749000Y-80749000D01*
X122251000Y-80749000D01*
X122251000Y-83251000D01*
G37*
G36*
X125864903Y-80597075D02*
G01*
X126050265Y-80673854D01*
X126092571Y-80691378D01*
X126297466Y-80828285D01*
X126471715Y-81002534D01*
X126608622Y-81207429D01*
X126702925Y-81435097D01*
X126751000Y-81676787D01*
X126751000Y-81923213D01*
X126702925Y-82164903D01*
X126608622Y-82392571D01*
X126471715Y-82597466D01*
X126297466Y-82771715D01*
X126092571Y-82908622D01*
X126092570Y-82908623D01*
X126092569Y-82908623D01*
X125864903Y-83002925D01*
X125623214Y-83051000D01*
X125376786Y-83051000D01*
X125135097Y-83002925D01*
X124907431Y-82908623D01*
X124907430Y-82908623D01*
X124907429Y-82908622D01*
X124702534Y-82771715D01*
X124528285Y-82597466D01*
X124391378Y-82392571D01*
X124297075Y-82164903D01*
X124249000Y-81923213D01*
X124249000Y-81676787D01*
X124297075Y-81435097D01*
X124391378Y-81207429D01*
X124528285Y-81002534D01*
X124702534Y-80828285D01*
X124907429Y-80691378D01*
X124949736Y-80673854D01*
X125135097Y-80597075D01*
X125376786Y-80549000D01*
X125623214Y-80549000D01*
X125864903Y-80597075D01*
G37*
G36*
X103174147Y-78596900D02*
G01*
X103350957Y-78632070D01*
X103480405Y-78685689D01*
X103609855Y-78739309D01*
X103842852Y-78894992D01*
X104041008Y-79093148D01*
X104196691Y-79326145D01*
X104250311Y-79455595D01*
X104286300Y-79542480D01*
X104303930Y-79585044D01*
X104358600Y-79859885D01*
X104358600Y-80140115D01*
X104303930Y-80414956D01*
X104196691Y-80673855D01*
X104041008Y-80906852D01*
X103842852Y-81105008D01*
X103609855Y-81260691D01*
X103480406Y-81314310D01*
X103350957Y-81367930D01*
X103213535Y-81395265D01*
X103076115Y-81422600D01*
X102795885Y-81422600D01*
X102658465Y-81395265D01*
X102521043Y-81367930D01*
X102391594Y-81314310D01*
X102262145Y-81260691D01*
X102029148Y-81105008D01*
X101830992Y-80906852D01*
X101675309Y-80673855D01*
X101568070Y-80414956D01*
X101513400Y-80140115D01*
X101513400Y-79859885D01*
X101568070Y-79585044D01*
X101585701Y-79542480D01*
X101621689Y-79455595D01*
X101675309Y-79326145D01*
X101830992Y-79093148D01*
X102029148Y-78894992D01*
X102262145Y-78739309D01*
X102391595Y-78685689D01*
X102521043Y-78632070D01*
X102697853Y-78596900D01*
X102795885Y-78577400D01*
X103076115Y-78577400D01*
X103174147Y-78596900D01*
G37*
G36*
X152248228Y-78181703D02*
G01*
X152403100Y-78245853D01*
X152542481Y-78338985D01*
X152661015Y-78457519D01*
X152754147Y-78596900D01*
X152818297Y-78751772D01*
X152851000Y-78916184D01*
X152851000Y-79083816D01*
X152818297Y-79248228D01*
X152754147Y-79403100D01*
X152661015Y-79542481D01*
X152542481Y-79661015D01*
X152403100Y-79754147D01*
X152248228Y-79818297D01*
X152083816Y-79851000D01*
X151916184Y-79851000D01*
X151751772Y-79818297D01*
X151596900Y-79754147D01*
X151457519Y-79661015D01*
X151338985Y-79542481D01*
X151245853Y-79403100D01*
X151181703Y-79248228D01*
X151149000Y-79083816D01*
X151149000Y-78916184D01*
X151181703Y-78751772D01*
X151245853Y-78596900D01*
X151338985Y-78457519D01*
X151457519Y-78338985D01*
X151596900Y-78245853D01*
X151751772Y-78181703D01*
X151916184Y-78149000D01*
X152083816Y-78149000D01*
X152248228Y-78181703D01*
G37*
G36*
X157248228Y-78181703D02*
G01*
X157403100Y-78245853D01*
X157542481Y-78338985D01*
X157661015Y-78457519D01*
X157754147Y-78596900D01*
X157818297Y-78751772D01*
X157851000Y-78916184D01*
X157851000Y-79083816D01*
X157818297Y-79248228D01*
X157754147Y-79403100D01*
X157661015Y-79542481D01*
X157542481Y-79661015D01*
X157403100Y-79754147D01*
X157248228Y-79818297D01*
X157083816Y-79851000D01*
X156916184Y-79851000D01*
X156751772Y-79818297D01*
X156596900Y-79754147D01*
X156457519Y-79661015D01*
X156338985Y-79542481D01*
X156245853Y-79403100D01*
X156181703Y-79248228D01*
X156149000Y-79083816D01*
X156149000Y-78916184D01*
X156181703Y-78751772D01*
X156245853Y-78596900D01*
X156338985Y-78457519D01*
X156457519Y-78338985D01*
X156596900Y-78245853D01*
X156751772Y-78181703D01*
X156916184Y-78149000D01*
X157083816Y-78149000D01*
X157248228Y-78181703D01*
G37*
G36*
X185394072Y-76120918D02*
G01*
X185639939Y-76222759D01*
X185751328Y-76297187D01*
X185861211Y-76370609D01*
X186049391Y-76558789D01*
X186197242Y-76780063D01*
X186299082Y-77025928D01*
X186351000Y-77286937D01*
X186351000Y-77553063D01*
X186299082Y-77814072D01*
X186197242Y-78059937D01*
X186073017Y-78245853D01*
X186049390Y-78281212D01*
X185861212Y-78469390D01*
X185639939Y-78617241D01*
X185639938Y-78617242D01*
X185639937Y-78617242D01*
X185394072Y-78719082D01*
X185133063Y-78771000D01*
X184866937Y-78771000D01*
X184605928Y-78719082D01*
X184360063Y-78617242D01*
X184360062Y-78617242D01*
X184360061Y-78617241D01*
X184138788Y-78469390D01*
X183950610Y-78281212D01*
X183926984Y-78245853D01*
X183802758Y-78059937D01*
X183700918Y-77814072D01*
X183649000Y-77553063D01*
X183649000Y-77286937D01*
X183700918Y-77025928D01*
X183802758Y-76780063D01*
X183950609Y-76558789D01*
X184138789Y-76370609D01*
X184248672Y-76297187D01*
X184360061Y-76222759D01*
X184605928Y-76120918D01*
X184866937Y-76069000D01*
X185133063Y-76069000D01*
X185394072Y-76120918D01*
G37*
G36*
X140244098Y-69047033D02*
G01*
X140708350Y-69239332D01*
X140708352Y-69239333D01*
X141126168Y-69518509D01*
X141481491Y-69873832D01*
X141760667Y-70291648D01*
X141760668Y-70291650D01*
X141952967Y-70755902D01*
X142051000Y-71248747D01*
X142051000Y-71751253D01*
X141952967Y-72244098D01*
X141880580Y-72418855D01*
X141760667Y-72708352D01*
X141481491Y-73126168D01*
X141126168Y-73481491D01*
X140708352Y-73760667D01*
X140708351Y-73760668D01*
X140708350Y-73760668D01*
X140244098Y-73952967D01*
X139751253Y-74051000D01*
X139248747Y-74051000D01*
X138755902Y-73952967D01*
X138291650Y-73760668D01*
X138291649Y-73760668D01*
X138291648Y-73760667D01*
X137873832Y-73481491D01*
X137518509Y-73126168D01*
X137239333Y-72708352D01*
X137119420Y-72418855D01*
X137047033Y-72244098D01*
X136949000Y-71751253D01*
X136949000Y-71248747D01*
X137047033Y-70755902D01*
X137239332Y-70291650D01*
X137239333Y-70291648D01*
X137518509Y-69873832D01*
X137873832Y-69518509D01*
X138291648Y-69239333D01*
X138291650Y-69239332D01*
X138755902Y-69047033D01*
X139248747Y-68949000D01*
X139751253Y-68949000D01*
X140244098Y-69047033D01*
G37*
G36*
X103350957Y-70377070D02*
G01*
X103480406Y-70430690D01*
X103609855Y-70484309D01*
X103842852Y-70639992D01*
X104041008Y-70838148D01*
X104196691Y-71071145D01*
X104196691Y-71071146D01*
X104303930Y-71330043D01*
X104358600Y-71604886D01*
X104358600Y-71885114D01*
X104303930Y-72159957D01*
X104269077Y-72244099D01*
X104196691Y-72418855D01*
X104041008Y-72651852D01*
X103842852Y-72850008D01*
X103609855Y-73005691D01*
X103480406Y-73059310D01*
X103350957Y-73112930D01*
X103284405Y-73126168D01*
X103076115Y-73167600D01*
X102795885Y-73167600D01*
X102587595Y-73126168D01*
X102521043Y-73112930D01*
X102391594Y-73059310D01*
X102262145Y-73005691D01*
X102029148Y-72850008D01*
X101830992Y-72651852D01*
X101675309Y-72418855D01*
X101602923Y-72244099D01*
X101568070Y-72159957D01*
X101513400Y-71885114D01*
X101513400Y-71604886D01*
X101568070Y-71330043D01*
X101675309Y-71071146D01*
X101675309Y-71071145D01*
X101830992Y-70838148D01*
X102029148Y-70639992D01*
X102262145Y-70484309D01*
X102391594Y-70430690D01*
X102521043Y-70377070D01*
X102795885Y-70322400D01*
X103076115Y-70322400D01*
X103350957Y-70377070D01*
G37*
G36*
X123306564Y-63989389D02*
G01*
X123452134Y-64049686D01*
X123497835Y-64068616D01*
X123503486Y-64072392D01*
X123669973Y-64183635D01*
X123816365Y-64330027D01*
X123931385Y-64502167D01*
X124010611Y-64693436D01*
X124051000Y-64896484D01*
X124051000Y-65103516D01*
X124010611Y-65306564D01*
X123944246Y-65466784D01*
X123931384Y-65497835D01*
X123816365Y-65669973D01*
X123669973Y-65816365D01*
X123497835Y-65931384D01*
X123497834Y-65931385D01*
X123497833Y-65931385D01*
X123306564Y-66010611D01*
X123103516Y-66051000D01*
X122896484Y-66051000D01*
X122693436Y-66010611D01*
X122502167Y-65931385D01*
X122502166Y-65931385D01*
X122502165Y-65931384D01*
X122330027Y-65816365D01*
X122183635Y-65669973D01*
X122068616Y-65497835D01*
X122055754Y-65466784D01*
X121989389Y-65306564D01*
X121949000Y-65103516D01*
X121949000Y-64896484D01*
X121989389Y-64693436D01*
X122068615Y-64502167D01*
X122183635Y-64330027D01*
X122330027Y-64183635D01*
X122496514Y-64072392D01*
X122502165Y-64068616D01*
X122547866Y-64049686D01*
X122693436Y-63989389D01*
X122896484Y-63949000D01*
X123103516Y-63949000D01*
X123306564Y-63989389D01*
G37*
G36*
X161806564Y-63989389D02*
G01*
X161952134Y-64049686D01*
X161997835Y-64068616D01*
X162003486Y-64072392D01*
X162169973Y-64183635D01*
X162316365Y-64330027D01*
X162431385Y-64502167D01*
X162510611Y-64693436D01*
X162551000Y-64896484D01*
X162551000Y-65103516D01*
X162510611Y-65306564D01*
X162444246Y-65466784D01*
X162431384Y-65497835D01*
X162316365Y-65669973D01*
X162169973Y-65816365D01*
X161997835Y-65931384D01*
X161997834Y-65931385D01*
X161997833Y-65931385D01*
X161806564Y-66010611D01*
X161603516Y-66051000D01*
X161396484Y-66051000D01*
X161193436Y-66010611D01*
X161002167Y-65931385D01*
X161002166Y-65931385D01*
X161002165Y-65931384D01*
X160830027Y-65816365D01*
X160683635Y-65669973D01*
X160568616Y-65497835D01*
X160555754Y-65466784D01*
X160489389Y-65306564D01*
X160449000Y-65103516D01*
X160449000Y-64896484D01*
X160489389Y-64693436D01*
X160568615Y-64502167D01*
X160683635Y-64330027D01*
X160830027Y-64183635D01*
X160996514Y-64072392D01*
X161002165Y-64068616D01*
X161047866Y-64049686D01*
X161193436Y-63989389D01*
X161396484Y-63949000D01*
X161603516Y-63949000D01*
X161806564Y-63989389D01*
G37*
G36*
X136306564Y-63989389D02*
G01*
X136452134Y-64049686D01*
X136497835Y-64068616D01*
X136503486Y-64072392D01*
X136669973Y-64183635D01*
X136816365Y-64330027D01*
X136931385Y-64502167D01*
X137010611Y-64693436D01*
X137051000Y-64896484D01*
X137051000Y-65103516D01*
X137010611Y-65306564D01*
X136944246Y-65466784D01*
X136931384Y-65497835D01*
X136816365Y-65669973D01*
X136669973Y-65816365D01*
X136497835Y-65931384D01*
X136497834Y-65931385D01*
X136497833Y-65931385D01*
X136306564Y-66010611D01*
X136103516Y-66051000D01*
X135896484Y-66051000D01*
X135693436Y-66010611D01*
X135502167Y-65931385D01*
X135502166Y-65931385D01*
X135502165Y-65931384D01*
X135330027Y-65816365D01*
X135183635Y-65669973D01*
X135068616Y-65497835D01*
X135055754Y-65466784D01*
X134989389Y-65306564D01*
X134949000Y-65103516D01*
X134949000Y-64896484D01*
X134989389Y-64693436D01*
X135068615Y-64502167D01*
X135183635Y-64330027D01*
X135330027Y-64183635D01*
X135496514Y-64072392D01*
X135502165Y-64068616D01*
X135547866Y-64049686D01*
X135693436Y-63989389D01*
X135896484Y-63949000D01*
X136103516Y-63949000D01*
X136306564Y-63989389D01*
G37*
G36*
X149306564Y-63989389D02*
G01*
X149452134Y-64049686D01*
X149497835Y-64068616D01*
X149503486Y-64072392D01*
X149669973Y-64183635D01*
X149816365Y-64330027D01*
X149931385Y-64502167D01*
X150010611Y-64693436D01*
X150051000Y-64896484D01*
X150051000Y-65103516D01*
X150010611Y-65306564D01*
X149944246Y-65466784D01*
X149931384Y-65497835D01*
X149816365Y-65669973D01*
X149669973Y-65816365D01*
X149497835Y-65931384D01*
X149497834Y-65931385D01*
X149497833Y-65931385D01*
X149306564Y-66010611D01*
X149103516Y-66051000D01*
X148896484Y-66051000D01*
X148693436Y-66010611D01*
X148502167Y-65931385D01*
X148502166Y-65931385D01*
X148502165Y-65931384D01*
X148330027Y-65816365D01*
X148183635Y-65669973D01*
X148068616Y-65497835D01*
X148055754Y-65466784D01*
X147989389Y-65306564D01*
X147949000Y-65103516D01*
X147949000Y-64896484D01*
X147989389Y-64693436D01*
X148068615Y-64502167D01*
X148183635Y-64330027D01*
X148330027Y-64183635D01*
X148496514Y-64072392D01*
X148502165Y-64068616D01*
X148547866Y-64049686D01*
X148693436Y-63989389D01*
X148896484Y-63949000D01*
X149103516Y-63949000D01*
X149306564Y-63989389D01*
G37*
G36*
X176613512Y-64143927D02*
G01*
X176762812Y-64173624D01*
X176926784Y-64241544D01*
X177074354Y-64340147D01*
X177199853Y-64465646D01*
X177298456Y-64613216D01*
X177366376Y-64777188D01*
X177401000Y-64951259D01*
X177401000Y-65128741D01*
X177366376Y-65302812D01*
X177298456Y-65466784D01*
X177199853Y-65614354D01*
X177074354Y-65739853D01*
X176926784Y-65838456D01*
X176762812Y-65906376D01*
X176613512Y-65936073D01*
X176588742Y-65941000D01*
X176411258Y-65941000D01*
X176386488Y-65936073D01*
X176237188Y-65906376D01*
X176073216Y-65838456D01*
X175925646Y-65739853D01*
X175800147Y-65614354D01*
X175701544Y-65466784D01*
X175633624Y-65302812D01*
X175599000Y-65128741D01*
X175599000Y-64951259D01*
X175633624Y-64777188D01*
X175701544Y-64613216D01*
X175800147Y-64465646D01*
X175925646Y-64340147D01*
X176073216Y-64241544D01*
X176237188Y-64173624D01*
X176386488Y-64143927D01*
X176411258Y-64139000D01*
X176588742Y-64139000D01*
X176613512Y-64143927D01*
G37*
G36*
X105634239Y-58811467D02*
G01*
X105948282Y-58873934D01*
X106539926Y-59119001D01*
X107072392Y-59474784D01*
X107525216Y-59927608D01*
X107880999Y-60460074D01*
X108126066Y-61051718D01*
X108126066Y-61051719D01*
X108251000Y-61679803D01*
X108251000Y-62320197D01*
X108188533Y-62634239D01*
X108126066Y-62948282D01*
X107880999Y-63539926D01*
X107525216Y-64072392D01*
X107072392Y-64525216D01*
X106539926Y-64880999D01*
X105948282Y-65126066D01*
X105634239Y-65188533D01*
X105320197Y-65251000D01*
X104679803Y-65251000D01*
X104365761Y-65188533D01*
X104051718Y-65126066D01*
X103460074Y-64880999D01*
X102927608Y-64525216D01*
X102474784Y-64072392D01*
X102119001Y-63539926D01*
X101873934Y-62948282D01*
X101811467Y-62634239D01*
X101749000Y-62320197D01*
X101749000Y-61679803D01*
X101873934Y-61051719D01*
X101873934Y-61051718D01*
X102119001Y-60460074D01*
X102474784Y-59927608D01*
X102927608Y-59474784D01*
X103460074Y-59119001D01*
X104051718Y-58873934D01*
X104365761Y-58811467D01*
X104679803Y-58749000D01*
X105320197Y-58749000D01*
X105634239Y-58811467D01*
G37*
G36*
X188134239Y-58811467D02*
G01*
X188448282Y-58873934D01*
X189039926Y-59119001D01*
X189572392Y-59474784D01*
X190025216Y-59927608D01*
X190380999Y-60460074D01*
X190626066Y-61051718D01*
X190626066Y-61051719D01*
X190751000Y-61679803D01*
X190751000Y-62320197D01*
X190688533Y-62634239D01*
X190626066Y-62948282D01*
X190380999Y-63539926D01*
X190025216Y-64072392D01*
X189572392Y-64525216D01*
X189039926Y-64880999D01*
X188448282Y-65126066D01*
X188134239Y-65188533D01*
X187820197Y-65251000D01*
X187179803Y-65251000D01*
X186865761Y-65188533D01*
X186551718Y-65126066D01*
X185960074Y-64880999D01*
X185427608Y-64525216D01*
X184974784Y-64072392D01*
X184619001Y-63539926D01*
X184373934Y-62948282D01*
X184311467Y-62634239D01*
X184249000Y-62320197D01*
X184249000Y-61679803D01*
X184373934Y-61051719D01*
X184373934Y-61051718D01*
X184619001Y-60460074D01*
X184974784Y-59927608D01*
X185427608Y-59474784D01*
X185960074Y-59119001D01*
X186551718Y-58873934D01*
X186865761Y-58811467D01*
X187179803Y-58749000D01*
X187820197Y-58749000D01*
X188134239Y-58811467D01*
G37*
G36*
X177401000Y-63401000D02*
G01*
X175599000Y-63401000D01*
X175599000Y-61599000D01*
X177401000Y-61599000D01*
X177401000Y-63401000D01*
G37*
G36*
X150051000Y-61051000D02*
G01*
X147949000Y-61051000D01*
X147949000Y-58949000D01*
X150051000Y-58949000D01*
X150051000Y-61051000D01*
G37*
G36*
X137051000Y-61051000D02*
G01*
X134949000Y-61051000D01*
X134949000Y-58949000D01*
X137051000Y-58949000D01*
X137051000Y-61051000D01*
G37*
G36*
X124051000Y-61051000D02*
G01*
X121949000Y-61051000D01*
X121949000Y-58949000D01*
X124051000Y-58949000D01*
X124051000Y-61051000D01*
G37*
G36*
X162551000Y-61051000D02*
G01*
X160449000Y-61051000D01*
X160449000Y-58949000D01*
X162551000Y-58949000D01*
X162551000Y-61051000D01*
G37*
M02*
