G04 #@! TF.GenerationSoftware,KiCad,Pcbnew,(5.1.6)-1*
G04 #@! TF.CreationDate,2020-09-05T01:30:18-05:00*
G04 #@! TF.ProjectId,amplificador-200w,616d706c-6966-4696-9361-646f722d3230,rev?*
G04 #@! TF.SameCoordinates,Original*
G04 #@! TF.FileFunction,Copper,L2,Bot*
G04 #@! TF.FilePolarity,Positive*
%FSLAX46Y46*%
G04 Gerber Fmt 4.6, Leading zero omitted, Abs format (unit mm)*
G04 Created by KiCad (PCBNEW (5.1.6)-1) date 2020-09-05 01:30:18*
%MOMM*%
%LPD*%
G01*
G04 APERTURE LIST*
G04 #@! TA.AperFunction,ComponentPad*
%ADD10C,5.000000*%
G04 #@! TD*
G04 #@! TA.AperFunction,ComponentPad*
%ADD11O,1.700000X1.700000*%
G04 #@! TD*
G04 #@! TA.AperFunction,ComponentPad*
%ADD12R,1.700000X1.700000*%
G04 #@! TD*
G04 #@! TA.AperFunction,ComponentPad*
%ADD13C,0.800000*%
G04 #@! TD*
G04 #@! TA.AperFunction,ComponentPad*
%ADD14C,6.400000*%
G04 #@! TD*
G04 #@! TA.AperFunction,ComponentPad*
%ADD15C,2.000000*%
G04 #@! TD*
G04 #@! TA.AperFunction,ComponentPad*
%ADD16R,2.000000X2.000000*%
G04 #@! TD*
G04 #@! TA.AperFunction,ComponentPad*
%ADD17R,1.290000X1.290000*%
G04 #@! TD*
G04 #@! TA.AperFunction,ComponentPad*
%ADD18C,1.290000*%
G04 #@! TD*
G04 #@! TA.AperFunction,ComponentPad*
%ADD19C,2.743200*%
G04 #@! TD*
G04 #@! TA.AperFunction,ComponentPad*
%ADD20R,2.743200X2.743200*%
G04 #@! TD*
G04 #@! TA.AperFunction,ComponentPad*
%ADD21C,3.000000*%
G04 #@! TD*
G04 #@! TA.AperFunction,ComponentPad*
%ADD22O,2.400000X2.400000*%
G04 #@! TD*
G04 #@! TA.AperFunction,ComponentPad*
%ADD23R,2.400000X2.400000*%
G04 #@! TD*
G04 #@! TA.AperFunction,ComponentPad*
%ADD24C,2.400000*%
G04 #@! TD*
G04 #@! TA.AperFunction,ComponentPad*
%ADD25C,2.600000*%
G04 #@! TD*
G04 #@! TA.AperFunction,ComponentPad*
%ADD26R,2.600000X2.600000*%
G04 #@! TD*
G04 #@! TA.AperFunction,ComponentPad*
%ADD27C,1.600000*%
G04 #@! TD*
G04 #@! TA.AperFunction,ComponentPad*
%ADD28R,1.600000X1.600000*%
G04 #@! TD*
G04 #@! TA.AperFunction,ViaPad*
%ADD29C,2.000000*%
G04 #@! TD*
G04 #@! TA.AperFunction,Conductor*
%ADD30C,0.250000*%
G04 #@! TD*
G04 #@! TA.AperFunction,Conductor*
%ADD31C,1.000000*%
G04 #@! TD*
G04 #@! TA.AperFunction,Conductor*
%ADD32C,0.500000*%
G04 #@! TD*
G04 #@! TA.AperFunction,Conductor*
%ADD33C,1.500000*%
G04 #@! TD*
G04 #@! TA.AperFunction,Conductor*
%ADD34C,1.200000*%
G04 #@! TD*
G04 #@! TA.AperFunction,Conductor*
%ADD35C,0.800000*%
G04 #@! TD*
G04 #@! TA.AperFunction,Conductor*
%ADD36C,0.254000*%
G04 #@! TD*
G04 APERTURE END LIST*
D10*
X158500000Y-123180000D03*
X139500000Y-71500000D03*
D11*
X176500000Y-65040000D03*
D12*
X176500000Y-62500000D03*
D13*
X106947056Y-131552944D03*
X105250000Y-130850000D03*
X103552944Y-131552944D03*
X102850000Y-133250000D03*
X103552944Y-134947056D03*
X105250000Y-135650000D03*
X106947056Y-134947056D03*
X107650000Y-133250000D03*
D14*
X105250000Y-133250000D03*
D13*
X106697056Y-60302944D03*
X105000000Y-59600000D03*
X103302944Y-60302944D03*
X102600000Y-62000000D03*
X103302944Y-63697056D03*
X105000000Y-64400000D03*
X106697056Y-63697056D03*
X107400000Y-62000000D03*
D14*
X105000000Y-62000000D03*
D13*
X189197056Y-131302944D03*
X187500000Y-130600000D03*
X185802944Y-131302944D03*
X185100000Y-133000000D03*
X185802944Y-134697056D03*
X187500000Y-135400000D03*
X189197056Y-134697056D03*
X189900000Y-133000000D03*
D14*
X187500000Y-133000000D03*
D13*
X189197056Y-60302944D03*
X187500000Y-59600000D03*
X185802944Y-60302944D03*
X185100000Y-62000000D03*
X185802944Y-63697056D03*
X187500000Y-64400000D03*
X189197056Y-63697056D03*
X189900000Y-62000000D03*
D14*
X187500000Y-62000000D03*
D15*
X161500000Y-129500000D03*
D16*
X161500000Y-134500000D03*
D15*
X161500000Y-65000000D03*
D16*
X161500000Y-60000000D03*
D15*
X149000000Y-129500000D03*
D16*
X149000000Y-134500000D03*
D15*
X149000000Y-65000000D03*
D16*
X149000000Y-60000000D03*
D10*
X143000000Y-84200000D03*
X143000000Y-109800000D03*
D17*
X157000000Y-109000000D03*
D18*
X153000000Y-108000000D03*
X157000000Y-107000000D03*
X153000000Y-106000000D03*
X157000000Y-105000000D03*
X153000000Y-104000000D03*
X157000000Y-103000000D03*
X153000000Y-102000000D03*
X157000000Y-101000000D03*
X153000000Y-100000000D03*
X157000000Y-99000000D03*
X153000000Y-98000000D03*
X157000000Y-97000000D03*
X153000000Y-96000000D03*
X157000000Y-95000000D03*
X153000000Y-94000000D03*
X157000000Y-93000000D03*
X153000000Y-92000000D03*
X157000000Y-91000000D03*
X153000000Y-90000000D03*
X157000000Y-89000000D03*
X153000000Y-88000000D03*
X157000000Y-87000000D03*
X153000000Y-86000000D03*
X157000000Y-85000000D03*
D19*
X102936000Y-71745000D03*
X102936000Y-80000000D03*
D20*
X102936000Y-88255000D03*
D21*
X110250000Y-124000000D03*
X110250000Y-110000000D03*
D10*
X105400000Y-120000000D03*
X105500000Y-106000000D03*
D11*
X117000000Y-115580000D03*
X117000000Y-113040000D03*
X117000000Y-110500000D03*
D12*
X117000000Y-107960000D03*
D22*
X121000000Y-94700000D03*
D23*
X121000000Y-82000000D03*
D22*
X163000000Y-97200000D03*
D24*
X163000000Y-84500000D03*
D22*
X142300000Y-115500000D03*
D24*
X155000000Y-115500000D03*
D22*
X125500000Y-81800000D03*
D24*
X125500000Y-94500000D03*
D25*
X185000000Y-77420000D03*
D26*
X185000000Y-82500000D03*
D25*
X185000000Y-89420000D03*
D26*
X185000000Y-94500000D03*
D25*
X185000000Y-113500000D03*
D26*
X185000000Y-118580000D03*
D25*
X185000000Y-101420000D03*
D26*
X185000000Y-106500000D03*
D27*
X169500000Y-129500000D03*
X169500000Y-134500000D03*
D15*
X136000000Y-129500000D03*
D16*
X136000000Y-134500000D03*
D15*
X123000000Y-65000000D03*
D16*
X123000000Y-60000000D03*
D15*
X136000000Y-65000000D03*
D16*
X136000000Y-60000000D03*
D27*
X157000000Y-79000000D03*
X152000000Y-79000000D03*
D15*
X123000000Y-129500000D03*
D16*
X123000000Y-134500000D03*
D27*
X117500000Y-124500000D03*
D28*
X117500000Y-122500000D03*
D27*
X125500000Y-108000000D03*
X130500000Y-108000000D03*
X125500000Y-110500000D03*
X130500000Y-110500000D03*
X125500000Y-113000000D03*
X130500000Y-113000000D03*
X125500000Y-115500000D03*
X130500000Y-115500000D03*
X178390000Y-127700000D03*
X173390000Y-127700000D03*
X120500000Y-99000000D03*
X125500000Y-99000000D03*
D29*
X169000000Y-84500000D03*
X169000000Y-98500000D03*
D30*
X105500000Y-112000000D02*
X105500000Y-106000000D01*
X105400000Y-112100000D02*
X105400000Y-120000000D01*
X105500000Y-112000000D02*
X105400000Y-112100000D01*
X162800000Y-97000000D02*
X163000000Y-97200000D01*
X157000000Y-97000000D02*
X162800000Y-97000000D01*
X155000000Y-108645000D02*
X155355000Y-109000000D01*
X155355000Y-109000000D02*
X157000000Y-109000000D01*
X153912167Y-108000000D02*
X154557167Y-108645000D01*
X154557167Y-108645000D02*
X155000000Y-108645000D01*
X153000000Y-108000000D02*
X153912167Y-108000000D01*
X155000000Y-104000000D02*
X155000000Y-108645000D01*
X153000000Y-102000000D02*
X155000000Y-104000000D01*
X153000000Y-86000000D02*
X149940000Y-82940000D01*
X149940000Y-82940000D02*
X149940000Y-77000000D01*
X149940000Y-77000000D02*
X150620000Y-76320000D01*
X154320000Y-76320000D02*
X157000000Y-79000000D01*
X150620000Y-76320000D02*
X154320000Y-76320000D01*
X164697056Y-97200000D02*
X166027056Y-98530000D01*
X163000000Y-97200000D02*
X164697056Y-97200000D01*
X104807600Y-88255000D02*
X111500000Y-94947400D01*
X102936000Y-88255000D02*
X104807600Y-88255000D01*
X111500000Y-94947400D02*
X111500000Y-103500000D01*
X107999999Y-103500001D02*
X105500000Y-106000000D01*
X111500000Y-103500000D02*
X107999999Y-103500001D01*
X157000000Y-79000000D02*
X165000000Y-79000000D01*
X165000000Y-79000000D02*
X169000000Y-83000000D01*
X169000000Y-83000000D02*
X169000000Y-84500000D01*
X166027056Y-98530000D02*
X169000000Y-98500000D01*
D31*
X154970000Y-86750000D02*
X154220000Y-86000000D01*
X154970000Y-90942167D02*
X154970000Y-86750000D01*
X153000000Y-92000000D02*
X153912167Y-92000000D01*
X154220000Y-86000000D02*
X153000000Y-86000000D01*
X153912167Y-92000000D02*
X154970000Y-90942167D01*
D30*
X157000000Y-109895000D02*
X157000000Y-109000000D01*
X166500000Y-118000000D02*
X165105000Y-118000000D01*
X172000000Y-123500000D02*
X166500000Y-118000000D01*
X186690000Y-98500000D02*
X187500000Y-99310000D01*
X186000000Y-123500000D02*
X172000000Y-123500000D01*
X169000000Y-98500000D02*
X186690000Y-98500000D01*
X165105000Y-118000000D02*
X157000000Y-109895000D01*
X187500000Y-99310000D02*
X187500000Y-122000000D01*
X187500000Y-122000000D02*
X186000000Y-123500000D01*
X102900001Y-122499999D02*
X105400000Y-120000000D01*
X104742270Y-128000000D02*
X102699990Y-125957720D01*
X102699990Y-122700010D02*
X102900001Y-122499999D01*
X122290000Y-128000000D02*
X104742270Y-128000000D01*
X129450000Y-120840000D02*
X122290000Y-128000000D01*
X102699990Y-125957720D02*
X102699990Y-122700010D01*
X148000000Y-104290000D02*
X148000000Y-116560000D01*
X153000000Y-102000000D02*
X150290000Y-102000000D01*
X148000000Y-116560000D02*
X143720000Y-120840000D01*
X150290000Y-102000000D02*
X148000000Y-104290000D01*
X143720000Y-120840000D02*
X129450000Y-120840000D01*
D32*
X125500000Y-94500000D02*
X125500000Y-99000000D01*
D30*
X153660000Y-88000000D02*
X153000000Y-88000000D01*
X154120000Y-88460000D02*
X153660000Y-88000000D01*
X128970000Y-91030000D02*
X153465601Y-91029999D01*
X125500000Y-94500000D02*
X128970000Y-91030000D01*
X154120000Y-90380000D02*
X154120000Y-88460000D01*
X153465601Y-91029999D02*
X153467801Y-91032199D01*
X153467801Y-91032199D02*
X154120000Y-90380000D01*
D32*
X153800001Y-114300001D02*
X155000000Y-115500000D01*
X151740000Y-112240000D02*
X153800001Y-114300001D01*
X153000000Y-106000000D02*
X152640000Y-106000000D01*
X151740000Y-106900000D02*
X151740000Y-112240000D01*
X152640000Y-106000000D02*
X151740000Y-106900000D01*
X161100000Y-115500000D02*
X155000000Y-115500000D01*
X173500000Y-127900000D02*
X161100000Y-115500000D01*
D31*
X125380000Y-115620000D02*
X125500000Y-115500000D01*
X119500000Y-115620000D02*
X125380000Y-115620000D01*
X125500000Y-113000000D02*
X125500000Y-115500000D01*
X110250000Y-117750000D02*
X110250000Y-124000000D01*
X119500000Y-115620000D02*
X112380000Y-115620000D01*
X112380000Y-115620000D02*
X110250000Y-117750000D01*
D30*
X130500000Y-115500000D02*
X131090000Y-115500000D01*
X145110000Y-99000000D02*
X147590000Y-99000000D01*
X137400000Y-106710000D02*
X145110000Y-99000000D01*
X130500000Y-115230000D02*
X132480000Y-113250000D01*
X147590000Y-99000000D02*
X157000000Y-99000000D01*
X132480000Y-113250000D02*
X134850000Y-113250000D01*
X130500000Y-115500000D02*
X130500000Y-115230000D01*
X134850000Y-113250000D02*
X137400000Y-110700000D01*
X137400000Y-110700000D02*
X137400000Y-106710000D01*
X147600000Y-98000000D02*
X153000000Y-98000000D01*
X136540000Y-106400000D02*
X144940000Y-98000000D01*
X136540000Y-106913590D02*
X136540000Y-106400000D01*
X136550000Y-106923590D02*
X136540000Y-106913590D01*
X130500000Y-113000000D02*
X131290000Y-113000000D01*
X144940000Y-98000000D02*
X147600000Y-98000000D01*
X132060000Y-112230000D02*
X134530000Y-112230000D01*
X131290000Y-113000000D02*
X132060000Y-112230000D01*
X134530000Y-112230000D02*
X136550000Y-110210000D01*
X136550000Y-110210000D02*
X136550000Y-106923590D01*
D31*
X125500000Y-110500000D02*
X125500000Y-108000000D01*
X119500000Y-108000000D02*
X125500000Y-108000000D01*
X112250000Y-108000000D02*
X110250000Y-110000000D01*
X119500000Y-108000000D02*
X112250000Y-108000000D01*
D30*
X155000000Y-97000000D02*
X157000000Y-95000000D01*
X144600000Y-97000000D02*
X155000000Y-97000000D01*
X135770000Y-105830000D02*
X144600000Y-97000000D01*
X130500000Y-110500000D02*
X131360000Y-110500000D01*
X131360000Y-110500000D02*
X132130000Y-111270000D01*
X134170000Y-111270000D02*
X135770000Y-109670000D01*
X132130000Y-111270000D02*
X134170000Y-111270000D01*
X135770000Y-109670000D02*
X135770000Y-105830000D01*
X130500000Y-108460000D02*
X130500000Y-108000000D01*
X132320000Y-110280000D02*
X130500000Y-108460000D01*
X144210000Y-96000000D02*
X134950000Y-105260000D01*
X134950000Y-109050000D02*
X133720000Y-110280000D01*
X133720000Y-110280000D02*
X132320000Y-110280000D01*
X153000000Y-96000000D02*
X144210000Y-96000000D01*
X134950000Y-105260000D02*
X134950000Y-109050000D01*
D32*
X149050000Y-100000000D02*
X153000000Y-100000000D01*
X146390000Y-114610000D02*
X146390000Y-102660000D01*
X117500000Y-122500000D02*
X120770000Y-119230000D01*
X120770000Y-119230000D02*
X133300000Y-119230000D01*
X133300000Y-119230000D02*
X135010000Y-117520000D01*
X146390000Y-102660000D02*
X149050000Y-100000000D01*
X135010000Y-117520000D02*
X143480000Y-117520000D01*
X143480000Y-117520000D02*
X146390000Y-114610000D01*
D31*
X125500000Y-81800000D02*
X121000000Y-81800000D01*
D33*
X136000000Y-60000000D02*
X123000000Y-60000000D01*
X123000000Y-134500000D02*
X136000000Y-134500000D01*
X169500000Y-134500000D02*
X136000000Y-134500000D01*
D34*
X132800000Y-81800000D02*
X125500000Y-81800000D01*
X153000000Y-90000000D02*
X141000000Y-90000000D01*
X141000000Y-90000000D02*
X132800000Y-81800000D01*
D33*
X120000000Y-82000000D02*
X121000000Y-82000000D01*
X116000000Y-78000000D02*
X120000000Y-82000000D01*
X116000000Y-64500000D02*
X116000000Y-78000000D01*
X123000000Y-60000000D02*
X120500000Y-60000000D01*
X120500000Y-60000000D02*
X116000000Y-64500000D01*
X151750000Y-104000000D02*
X153000000Y-104000000D01*
X149650000Y-106100000D02*
X151750000Y-104000000D01*
X123000000Y-134500000D02*
X123000000Y-134470000D01*
X132430000Y-125040000D02*
X145700000Y-125040000D01*
X123000000Y-134470000D02*
X132430000Y-125040000D01*
X145700000Y-125040000D02*
X149650000Y-121090000D01*
X149650000Y-121090000D02*
X149650000Y-106100000D01*
X177960000Y-134500000D02*
X169500000Y-134500000D01*
X189500000Y-122960000D02*
X177960000Y-134500000D01*
X189500000Y-74500000D02*
X189500000Y-122960000D01*
X176500000Y-65040000D02*
X180040000Y-65040000D01*
X180040000Y-65040000D02*
X189500000Y-74500000D01*
X173260000Y-65040000D02*
X176500000Y-65040000D01*
X136000000Y-60000000D02*
X168220000Y-60000000D01*
X168220000Y-60000000D02*
X173260000Y-65040000D01*
D30*
X155830000Y-93160000D02*
X154990000Y-94000000D01*
X154990000Y-94000000D02*
X153000000Y-94000000D01*
X155830000Y-82220000D02*
X155830000Y-93160000D01*
X152000000Y-79000000D02*
X152610000Y-79000000D01*
X152610000Y-79000000D02*
X155830000Y-82220000D01*
D35*
X103495000Y-71745000D02*
X102936000Y-71745000D01*
X108380000Y-77189000D02*
X102936000Y-71745000D01*
X132800000Y-117920000D02*
X129920000Y-117920000D01*
X134720000Y-116000000D02*
X132800000Y-117920000D01*
X142300000Y-115500000D02*
X141800000Y-116000000D01*
X141800000Y-116000000D02*
X134720000Y-116000000D01*
X128030000Y-106580000D02*
X127330000Y-105880000D01*
X129920000Y-117920000D02*
X128030000Y-116030000D01*
X128030000Y-116030000D02*
X128030000Y-106580000D01*
X127330000Y-105880000D02*
X127330000Y-105830000D01*
X123470000Y-92279000D02*
X108380000Y-77189000D01*
X127330000Y-105830000D02*
X123470000Y-101970000D01*
X123470000Y-101970000D02*
X123470000Y-92279000D01*
D33*
X106300000Y-80000000D02*
X121000000Y-94700000D01*
X102936000Y-80000000D02*
X106300000Y-80000000D01*
X157000000Y-101000000D02*
X184580000Y-101000000D01*
X184580000Y-101000000D02*
X185000000Y-101420000D01*
X174000000Y-106500000D02*
X185000000Y-106500000D01*
X157000000Y-103000000D02*
X170500000Y-103000000D01*
X170500000Y-103000000D02*
X174000000Y-106500000D01*
X177000000Y-113500000D02*
X185000000Y-113500000D01*
X157000000Y-105000000D02*
X168500000Y-105000000D01*
X168500000Y-105000000D02*
X177000000Y-113500000D01*
X166500000Y-107000000D02*
X157912167Y-107000000D01*
X157912167Y-107000000D02*
X157000000Y-107000000D01*
X185000000Y-118580000D02*
X178080000Y-118580000D01*
X178080000Y-118580000D02*
X166500000Y-107000000D01*
X157000000Y-91000000D02*
X173000000Y-91000000D01*
X174580000Y-89420000D02*
X185000000Y-89420000D01*
X173000000Y-91000000D02*
X174580000Y-89420000D01*
X174500000Y-94500000D02*
X185000000Y-94500000D01*
X157000000Y-93000000D02*
X173000000Y-93000000D01*
X173000000Y-93000000D02*
X174500000Y-94500000D01*
X157000000Y-87000000D02*
X170420000Y-87000000D01*
X180000000Y-77420000D02*
X185000000Y-77420000D01*
X170420000Y-87000000D02*
X180000000Y-77420000D01*
X157000000Y-89000000D02*
X172000000Y-89000000D01*
X178500000Y-82500000D02*
X185000000Y-82500000D01*
X172000000Y-89000000D02*
X178500000Y-82500000D01*
D31*
X162500000Y-85000000D02*
X163000000Y-84500000D01*
X157000000Y-85000000D02*
X162500000Y-85000000D01*
D36*
G36*
X190759659Y-57688625D02*
G01*
X191009429Y-57764035D01*
X191239792Y-57886522D01*
X191441980Y-58051422D01*
X191608286Y-58252450D01*
X191732378Y-58481954D01*
X191809531Y-58731195D01*
X191840000Y-59021088D01*
X191840001Y-134967711D01*
X191792330Y-135453894D01*
X191660512Y-135890497D01*
X191446399Y-136293186D01*
X191158150Y-136646613D01*
X190806739Y-136937327D01*
X190405564Y-137154240D01*
X189969886Y-137289106D01*
X189485664Y-137340000D01*
X102532279Y-137340000D01*
X102143224Y-137301853D01*
X101800036Y-137198238D01*
X101483511Y-137029939D01*
X101205704Y-136803365D01*
X100977195Y-136527146D01*
X100806690Y-136211803D01*
X100725921Y-135950881D01*
X102728724Y-135950881D01*
X103088912Y-136440548D01*
X103752882Y-136800849D01*
X104474385Y-137024694D01*
X105225695Y-137103480D01*
X105977938Y-137034178D01*
X106702208Y-136819452D01*
X107370670Y-136467555D01*
X107411088Y-136440548D01*
X107771276Y-135950881D01*
X105250000Y-133429605D01*
X102728724Y-135950881D01*
X100725921Y-135950881D01*
X100700681Y-135869344D01*
X100660000Y-135482288D01*
X100660000Y-133225695D01*
X101396520Y-133225695D01*
X101465822Y-133977938D01*
X101680548Y-134702208D01*
X102032445Y-135370670D01*
X102059452Y-135411088D01*
X102549119Y-135771276D01*
X105070395Y-133250000D01*
X105429605Y-133250000D01*
X107950881Y-135771276D01*
X108440548Y-135411088D01*
X108800849Y-134747118D01*
X109024694Y-134025615D01*
X109103480Y-133274305D01*
X109034178Y-132522062D01*
X108819452Y-131797792D01*
X108467555Y-131129330D01*
X108440548Y-131088912D01*
X107950881Y-130728724D01*
X105429605Y-133250000D01*
X105070395Y-133250000D01*
X102549119Y-130728724D01*
X102059452Y-131088912D01*
X101699151Y-131752882D01*
X101475306Y-132474385D01*
X101396520Y-133225695D01*
X100660000Y-133225695D01*
X100660000Y-130549119D01*
X102728724Y-130549119D01*
X105250000Y-133070395D01*
X107684982Y-130635413D01*
X122044192Y-130635413D01*
X122139956Y-130899814D01*
X122429571Y-131040704D01*
X122741108Y-131122384D01*
X123062595Y-131141718D01*
X123381675Y-131097961D01*
X123686088Y-130992795D01*
X123860044Y-130899814D01*
X123955808Y-130635413D01*
X123000000Y-129679605D01*
X122044192Y-130635413D01*
X107684982Y-130635413D01*
X107771276Y-130549119D01*
X107411088Y-130059452D01*
X106747118Y-129699151D01*
X106306968Y-129562595D01*
X121358282Y-129562595D01*
X121402039Y-129881675D01*
X121507205Y-130186088D01*
X121600186Y-130360044D01*
X121864587Y-130455808D01*
X122820395Y-129500000D01*
X123179605Y-129500000D01*
X124135413Y-130455808D01*
X124399814Y-130360044D01*
X124540704Y-130070429D01*
X124622384Y-129758892D01*
X124641718Y-129437405D01*
X124597961Y-129118325D01*
X124492795Y-128813912D01*
X124399814Y-128639956D01*
X124135413Y-128544192D01*
X123179605Y-129500000D01*
X122820395Y-129500000D01*
X121864587Y-128544192D01*
X121600186Y-128639956D01*
X121459296Y-128929571D01*
X121377616Y-129241108D01*
X121358282Y-129562595D01*
X106306968Y-129562595D01*
X106025615Y-129475306D01*
X105274305Y-129396520D01*
X104522062Y-129465822D01*
X103797792Y-129680548D01*
X103129330Y-130032445D01*
X103088912Y-130059452D01*
X102728724Y-130549119D01*
X100660000Y-130549119D01*
X100660000Y-128364587D01*
X122044192Y-128364587D01*
X123000000Y-129320395D01*
X123955808Y-128364587D01*
X123860044Y-128100186D01*
X123570429Y-127959296D01*
X123258892Y-127877616D01*
X122937405Y-127858282D01*
X122618325Y-127902039D01*
X122313912Y-128007205D01*
X122139956Y-128100186D01*
X122044192Y-128364587D01*
X100660000Y-128364587D01*
X100660000Y-125150000D01*
X102755880Y-125150000D01*
X102792275Y-125519524D01*
X102900061Y-125874848D01*
X103075097Y-126202317D01*
X103310655Y-126489345D01*
X103597683Y-126724903D01*
X103925152Y-126899939D01*
X104280476Y-127007725D01*
X104557403Y-127035000D01*
X106442597Y-127035000D01*
X106719524Y-127007725D01*
X107074848Y-126899939D01*
X107402317Y-126724903D01*
X107689345Y-126489345D01*
X107924903Y-126202317D01*
X108099939Y-125874848D01*
X108207725Y-125519524D01*
X108244120Y-125150000D01*
X108207725Y-124780476D01*
X108099939Y-124425152D01*
X107924903Y-124097683D01*
X107689345Y-123810655D01*
X107402317Y-123575097D01*
X107074848Y-123400061D01*
X106719524Y-123292275D01*
X106442597Y-123265000D01*
X104557403Y-123265000D01*
X104280476Y-123292275D01*
X103925152Y-123400061D01*
X103597683Y-123575097D01*
X103310655Y-123810655D01*
X103075097Y-124097683D01*
X102900061Y-124425152D01*
X102792275Y-124780476D01*
X102755880Y-125150000D01*
X100660000Y-125150000D01*
X100660000Y-122203148D01*
X103376457Y-122203148D01*
X103652627Y-122621118D01*
X104197557Y-122911649D01*
X104788696Y-123090287D01*
X105403328Y-123150168D01*
X106017831Y-123088990D01*
X106608592Y-122909103D01*
X107147373Y-122621118D01*
X107423543Y-122203148D01*
X105400000Y-120179605D01*
X103376457Y-122203148D01*
X100660000Y-122203148D01*
X100660000Y-120003328D01*
X102249832Y-120003328D01*
X102311010Y-120617831D01*
X102490897Y-121208592D01*
X102778882Y-121747373D01*
X103196852Y-122023543D01*
X105220395Y-120000000D01*
X105579605Y-120000000D01*
X107603148Y-122023543D01*
X108021118Y-121747373D01*
X108311649Y-121202443D01*
X108490287Y-120611304D01*
X108550168Y-119996672D01*
X108488990Y-119382169D01*
X108309103Y-118791408D01*
X108021118Y-118252627D01*
X107603148Y-117976457D01*
X105579605Y-120000000D01*
X105220395Y-120000000D01*
X103196852Y-117976457D01*
X102778882Y-118252627D01*
X102488351Y-118797557D01*
X102309713Y-119388696D01*
X102249832Y-120003328D01*
X100660000Y-120003328D01*
X100660000Y-117796852D01*
X103376457Y-117796852D01*
X105400000Y-119820395D01*
X107423543Y-117796852D01*
X107147373Y-117378882D01*
X106602443Y-117088351D01*
X106011304Y-116909713D01*
X105396672Y-116849832D01*
X104782169Y-116911010D01*
X104191408Y-117090897D01*
X103652627Y-117378882D01*
X103376457Y-117796852D01*
X100660000Y-117796852D01*
X100660000Y-109789721D01*
X108115000Y-109789721D01*
X108115000Y-110210279D01*
X108197047Y-110622756D01*
X108357988Y-111011302D01*
X108591637Y-111360983D01*
X108889017Y-111658363D01*
X109238698Y-111892012D01*
X109627244Y-112052953D01*
X110039721Y-112135000D01*
X110460279Y-112135000D01*
X110872756Y-112052953D01*
X111261302Y-111892012D01*
X111610983Y-111658363D01*
X111908363Y-111360983D01*
X112142012Y-111011302D01*
X112205971Y-110856890D01*
X115558524Y-110856890D01*
X115603175Y-111004099D01*
X115728359Y-111266920D01*
X115902412Y-111500269D01*
X116118645Y-111695178D01*
X116244255Y-111770000D01*
X116118645Y-111844822D01*
X115902412Y-112039731D01*
X115728359Y-112273080D01*
X115603175Y-112535901D01*
X115558524Y-112683110D01*
X115679845Y-112913000D01*
X116873000Y-112913000D01*
X116873000Y-110627000D01*
X117127000Y-110627000D01*
X117127000Y-112913000D01*
X118320155Y-112913000D01*
X118441476Y-112683110D01*
X118396825Y-112535901D01*
X118271641Y-112273080D01*
X118097588Y-112039731D01*
X117881355Y-111844822D01*
X117755745Y-111770000D01*
X117881355Y-111695178D01*
X118097588Y-111500269D01*
X118271641Y-111266920D01*
X118396825Y-111004099D01*
X118441476Y-110856890D01*
X118320155Y-110627000D01*
X117127000Y-110627000D01*
X116873000Y-110627000D01*
X115679845Y-110627000D01*
X115558524Y-110856890D01*
X112205971Y-110856890D01*
X112302953Y-110622756D01*
X112385000Y-110210279D01*
X112385000Y-109789721D01*
X112331977Y-109523155D01*
X112720132Y-109135000D01*
X115603698Y-109135000D01*
X115619463Y-109164494D01*
X115698815Y-109261185D01*
X115795506Y-109340537D01*
X115905820Y-109399502D01*
X115986466Y-109423966D01*
X115902412Y-109499731D01*
X115728359Y-109733080D01*
X115603175Y-109995901D01*
X115558524Y-110143110D01*
X115679845Y-110373000D01*
X116873000Y-110373000D01*
X116873000Y-110353000D01*
X117127000Y-110353000D01*
X117127000Y-110373000D01*
X118320155Y-110373000D01*
X118441476Y-110143110D01*
X118396825Y-109995901D01*
X118271641Y-109733080D01*
X118097588Y-109499731D01*
X118013534Y-109423966D01*
X118094180Y-109399502D01*
X118204494Y-109340537D01*
X118301185Y-109261185D01*
X118380537Y-109164494D01*
X118396302Y-109135000D01*
X124365001Y-109135000D01*
X124365000Y-109615716D01*
X124228320Y-109820273D01*
X124120147Y-110081426D01*
X124065000Y-110358665D01*
X124065000Y-110641335D01*
X124120147Y-110918574D01*
X124228320Y-111179727D01*
X124385363Y-111414759D01*
X124585241Y-111614637D01*
X124787827Y-111750000D01*
X124585241Y-111885363D01*
X124385363Y-112085241D01*
X124228320Y-112320273D01*
X124120147Y-112581426D01*
X124065000Y-112858665D01*
X124065000Y-113141335D01*
X124120147Y-113418574D01*
X124228320Y-113679727D01*
X124365000Y-113884284D01*
X124365001Y-114485000D01*
X118005107Y-114485000D01*
X117946632Y-114426525D01*
X117764466Y-114304805D01*
X117881355Y-114235178D01*
X118097588Y-114040269D01*
X118271641Y-113806920D01*
X118396825Y-113544099D01*
X118441476Y-113396890D01*
X118320155Y-113167000D01*
X117127000Y-113167000D01*
X117127000Y-113187000D01*
X116873000Y-113187000D01*
X116873000Y-113167000D01*
X115679845Y-113167000D01*
X115558524Y-113396890D01*
X115603175Y-113544099D01*
X115728359Y-113806920D01*
X115902412Y-114040269D01*
X116118645Y-114235178D01*
X116235534Y-114304805D01*
X116053368Y-114426525D01*
X115994893Y-114485000D01*
X112435752Y-114485000D01*
X112380000Y-114479509D01*
X112324248Y-114485000D01*
X112157501Y-114501423D01*
X111943553Y-114566324D01*
X111746377Y-114671716D01*
X111573551Y-114813551D01*
X111538011Y-114856857D01*
X109486865Y-116908004D01*
X109443551Y-116943551D01*
X109301716Y-117116377D01*
X109214259Y-117280000D01*
X109196324Y-117313554D01*
X109131423Y-117527502D01*
X109109509Y-117750000D01*
X109115000Y-117805752D01*
X109115001Y-122190640D01*
X108889017Y-122341637D01*
X108591637Y-122639017D01*
X108357988Y-122988698D01*
X108197047Y-123377244D01*
X108115000Y-123789721D01*
X108115000Y-124210279D01*
X108197047Y-124622756D01*
X108357988Y-125011302D01*
X108591637Y-125360983D01*
X108889017Y-125658363D01*
X109238698Y-125892012D01*
X109627244Y-126052953D01*
X110039721Y-126135000D01*
X110460279Y-126135000D01*
X110872756Y-126052953D01*
X111261302Y-125892012D01*
X111610983Y-125658363D01*
X111776644Y-125492702D01*
X116686903Y-125492702D01*
X116758486Y-125736671D01*
X117013996Y-125857571D01*
X117288184Y-125926300D01*
X117570512Y-125940217D01*
X117850130Y-125898787D01*
X118116292Y-125803603D01*
X118241514Y-125736671D01*
X118313097Y-125492702D01*
X117500000Y-124679605D01*
X116686903Y-125492702D01*
X111776644Y-125492702D01*
X111908363Y-125360983D01*
X112142012Y-125011302D01*
X112302953Y-124622756D01*
X112385000Y-124210279D01*
X112385000Y-123789721D01*
X112302953Y-123377244D01*
X112142012Y-122988698D01*
X111908363Y-122639017D01*
X111610983Y-122341637D01*
X111385000Y-122190640D01*
X111385000Y-118220131D01*
X112850132Y-116755000D01*
X116085582Y-116755000D01*
X116296589Y-116895990D01*
X116566842Y-117007932D01*
X116853740Y-117065000D01*
X117146260Y-117065000D01*
X117433158Y-117007932D01*
X117703411Y-116895990D01*
X117914418Y-116755000D01*
X124795310Y-116755000D01*
X124820273Y-116771680D01*
X125081426Y-116879853D01*
X125358665Y-116935000D01*
X125641335Y-116935000D01*
X125918574Y-116879853D01*
X126179727Y-116771680D01*
X126414759Y-116614637D01*
X126614637Y-116414759D01*
X126771680Y-116179727D01*
X126879853Y-115918574D01*
X126935000Y-115641335D01*
X126935000Y-115358665D01*
X126879853Y-115081426D01*
X126771680Y-114820273D01*
X126635000Y-114615716D01*
X126635000Y-113884284D01*
X126771680Y-113679727D01*
X126879853Y-113418574D01*
X126935000Y-113141335D01*
X126935000Y-112858665D01*
X126879853Y-112581426D01*
X126771680Y-112320273D01*
X126614637Y-112085241D01*
X126414759Y-111885363D01*
X126212173Y-111750000D01*
X126414759Y-111614637D01*
X126614637Y-111414759D01*
X126771680Y-111179727D01*
X126879853Y-110918574D01*
X126935000Y-110641335D01*
X126935000Y-110358665D01*
X126879853Y-110081426D01*
X126771680Y-109820273D01*
X126635000Y-109615716D01*
X126635000Y-108884284D01*
X126771680Y-108679727D01*
X126879853Y-108418574D01*
X126935000Y-108141335D01*
X126935000Y-107858665D01*
X126879853Y-107581426D01*
X126771680Y-107320273D01*
X126614637Y-107085241D01*
X126414759Y-106885363D01*
X126179727Y-106728320D01*
X125918574Y-106620147D01*
X125641335Y-106565000D01*
X125358665Y-106565000D01*
X125081426Y-106620147D01*
X124820273Y-106728320D01*
X124615716Y-106865000D01*
X118439064Y-106865000D01*
X118380537Y-106755506D01*
X118301185Y-106658815D01*
X118204494Y-106579463D01*
X118094180Y-106520498D01*
X117974482Y-106484188D01*
X117850000Y-106471928D01*
X116150000Y-106471928D01*
X116025518Y-106484188D01*
X115905820Y-106520498D01*
X115795506Y-106579463D01*
X115698815Y-106658815D01*
X115619463Y-106755506D01*
X115560936Y-106865000D01*
X112305751Y-106865000D01*
X112249999Y-106859509D01*
X112027500Y-106881423D01*
X111999609Y-106889884D01*
X111813553Y-106946324D01*
X111616377Y-107051716D01*
X111443551Y-107193551D01*
X111408009Y-107236859D01*
X110726845Y-107918023D01*
X110460279Y-107865000D01*
X110039721Y-107865000D01*
X109627244Y-107947047D01*
X109238698Y-108107988D01*
X108889017Y-108341637D01*
X108591637Y-108639017D01*
X108357988Y-108988698D01*
X108197047Y-109377244D01*
X108115000Y-109789721D01*
X100660000Y-109789721D01*
X100660000Y-108203148D01*
X103476457Y-108203148D01*
X103752627Y-108621118D01*
X104297557Y-108911649D01*
X104888696Y-109090287D01*
X105503328Y-109150168D01*
X106117831Y-109088990D01*
X106708592Y-108909103D01*
X107247373Y-108621118D01*
X107523543Y-108203148D01*
X105500000Y-106179605D01*
X103476457Y-108203148D01*
X100660000Y-108203148D01*
X100660000Y-106003328D01*
X102349832Y-106003328D01*
X102411010Y-106617831D01*
X102590897Y-107208592D01*
X102878882Y-107747373D01*
X103296852Y-108023543D01*
X105320395Y-106000000D01*
X105679605Y-106000000D01*
X107703148Y-108023543D01*
X108121118Y-107747373D01*
X108411649Y-107202443D01*
X108590287Y-106611304D01*
X108650168Y-105996672D01*
X108588990Y-105382169D01*
X108409103Y-104791408D01*
X108121118Y-104252627D01*
X107703148Y-103976457D01*
X105679605Y-106000000D01*
X105320395Y-106000000D01*
X103296852Y-103976457D01*
X102878882Y-104252627D01*
X102588351Y-104797557D01*
X102409713Y-105388696D01*
X102349832Y-106003328D01*
X100660000Y-106003328D01*
X100660000Y-103796852D01*
X103476457Y-103796852D01*
X105500000Y-105820395D01*
X107523543Y-103796852D01*
X107247373Y-103378882D01*
X106702443Y-103088351D01*
X106111304Y-102909713D01*
X105496672Y-102849832D01*
X104882169Y-102911010D01*
X104291408Y-103090897D01*
X103752627Y-103378882D01*
X103476457Y-103796852D01*
X100660000Y-103796852D01*
X100660000Y-100850000D01*
X102755880Y-100850000D01*
X102792275Y-101219524D01*
X102900061Y-101574848D01*
X103075097Y-101902317D01*
X103310655Y-102189345D01*
X103597683Y-102424903D01*
X103925152Y-102599939D01*
X104280476Y-102707725D01*
X104557403Y-102735000D01*
X106442597Y-102735000D01*
X106719524Y-102707725D01*
X107074848Y-102599939D01*
X107402317Y-102424903D01*
X107689345Y-102189345D01*
X107924903Y-101902317D01*
X108099939Y-101574848D01*
X108207725Y-101219524D01*
X108244120Y-100850000D01*
X108207725Y-100480476D01*
X108099939Y-100125152D01*
X108029143Y-99992702D01*
X119686903Y-99992702D01*
X119758486Y-100236671D01*
X120013996Y-100357571D01*
X120288184Y-100426300D01*
X120570512Y-100440217D01*
X120850130Y-100398787D01*
X121116292Y-100303603D01*
X121241514Y-100236671D01*
X121313097Y-99992702D01*
X120500000Y-99179605D01*
X119686903Y-99992702D01*
X108029143Y-99992702D01*
X107924903Y-99797683D01*
X107689345Y-99510655D01*
X107402317Y-99275097D01*
X107074848Y-99100061D01*
X106977438Y-99070512D01*
X119059783Y-99070512D01*
X119101213Y-99350130D01*
X119196397Y-99616292D01*
X119263329Y-99741514D01*
X119507298Y-99813097D01*
X120320395Y-99000000D01*
X120679605Y-99000000D01*
X121492702Y-99813097D01*
X121736671Y-99741514D01*
X121857571Y-99486004D01*
X121926300Y-99211816D01*
X121940217Y-98929488D01*
X121898787Y-98649870D01*
X121803603Y-98383708D01*
X121736671Y-98258486D01*
X121492702Y-98186903D01*
X120679605Y-99000000D01*
X120320395Y-99000000D01*
X119507298Y-98186903D01*
X119263329Y-98258486D01*
X119142429Y-98513996D01*
X119073700Y-98788184D01*
X119059783Y-99070512D01*
X106977438Y-99070512D01*
X106719524Y-98992275D01*
X106442597Y-98965000D01*
X104557403Y-98965000D01*
X104280476Y-98992275D01*
X103925152Y-99100061D01*
X103597683Y-99275097D01*
X103310655Y-99510655D01*
X103075097Y-99797683D01*
X102900061Y-100125152D01*
X102792275Y-100480476D01*
X102755880Y-100850000D01*
X100660000Y-100850000D01*
X100660000Y-98007298D01*
X119686903Y-98007298D01*
X120500000Y-98820395D01*
X121313097Y-98007298D01*
X121241514Y-97763329D01*
X120986004Y-97642429D01*
X120711816Y-97573700D01*
X120429488Y-97559783D01*
X120149870Y-97601213D01*
X119883708Y-97696397D01*
X119758486Y-97763329D01*
X119686903Y-98007298D01*
X100660000Y-98007298D01*
X100660000Y-89626600D01*
X100926328Y-89626600D01*
X100938588Y-89751082D01*
X100974898Y-89870780D01*
X101033863Y-89981094D01*
X101113215Y-90077785D01*
X101209906Y-90157137D01*
X101320220Y-90216102D01*
X101439918Y-90252412D01*
X101564400Y-90264672D01*
X102650250Y-90261600D01*
X102809000Y-90102850D01*
X102809000Y-88382000D01*
X103063000Y-88382000D01*
X103063000Y-90102850D01*
X103221750Y-90261600D01*
X104307600Y-90264672D01*
X104432082Y-90252412D01*
X104551780Y-90216102D01*
X104662094Y-90157137D01*
X104758785Y-90077785D01*
X104838137Y-89981094D01*
X104897102Y-89870780D01*
X104933412Y-89751082D01*
X104945672Y-89626600D01*
X104942600Y-88540750D01*
X104783850Y-88382000D01*
X103063000Y-88382000D01*
X102809000Y-88382000D01*
X101088150Y-88382000D01*
X100929400Y-88540750D01*
X100926328Y-89626600D01*
X100660000Y-89626600D01*
X100660000Y-86883400D01*
X100926328Y-86883400D01*
X100929400Y-87969250D01*
X101088150Y-88128000D01*
X102809000Y-88128000D01*
X102809000Y-86407150D01*
X103063000Y-86407150D01*
X103063000Y-88128000D01*
X104783850Y-88128000D01*
X104942600Y-87969250D01*
X104945672Y-86883400D01*
X104933412Y-86758918D01*
X104897102Y-86639220D01*
X104838137Y-86528906D01*
X104758785Y-86432215D01*
X104662094Y-86352863D01*
X104551780Y-86293898D01*
X104432082Y-86257588D01*
X104307600Y-86245328D01*
X103221750Y-86248400D01*
X103063000Y-86407150D01*
X102809000Y-86407150D01*
X102650250Y-86248400D01*
X101564400Y-86245328D01*
X101439918Y-86257588D01*
X101320220Y-86293898D01*
X101209906Y-86352863D01*
X101113215Y-86432215D01*
X101033863Y-86528906D01*
X100974898Y-86639220D01*
X100938588Y-86758918D01*
X100926328Y-86883400D01*
X100660000Y-86883400D01*
X100660000Y-71547367D01*
X100929400Y-71547367D01*
X100929400Y-71942633D01*
X101006513Y-72330304D01*
X101157774Y-72695481D01*
X101377372Y-73024133D01*
X101656867Y-73303628D01*
X101985519Y-73523226D01*
X102350696Y-73674487D01*
X102738367Y-73751600D01*
X103133633Y-73751600D01*
X103421608Y-73694318D01*
X107684092Y-77956803D01*
X107684098Y-77956808D01*
X122435001Y-92707712D01*
X122435001Y-93544717D01*
X122425338Y-93530256D01*
X122169744Y-93274662D01*
X121869199Y-93073844D01*
X121535250Y-92935518D01*
X121180732Y-92865000D01*
X121123686Y-92865000D01*
X107327454Y-79068769D01*
X107284081Y-79015919D01*
X107073188Y-78842843D01*
X106832581Y-78714236D01*
X106571507Y-78635040D01*
X106368037Y-78615000D01*
X106368029Y-78615000D01*
X106300000Y-78608300D01*
X106231971Y-78615000D01*
X104388761Y-78615000D01*
X104215133Y-78441372D01*
X103886481Y-78221774D01*
X103521304Y-78070513D01*
X103133633Y-77993400D01*
X102738367Y-77993400D01*
X102350696Y-78070513D01*
X101985519Y-78221774D01*
X101656867Y-78441372D01*
X101377372Y-78720867D01*
X101157774Y-79049519D01*
X101006513Y-79414696D01*
X100929400Y-79802367D01*
X100929400Y-80197633D01*
X101006513Y-80585304D01*
X101157774Y-80950481D01*
X101377372Y-81279133D01*
X101656867Y-81558628D01*
X101985519Y-81778226D01*
X102350696Y-81929487D01*
X102738367Y-82006600D01*
X103133633Y-82006600D01*
X103521304Y-81929487D01*
X103886481Y-81778226D01*
X104215133Y-81558628D01*
X104388761Y-81385000D01*
X105726315Y-81385000D01*
X119165000Y-94823686D01*
X119165000Y-94880732D01*
X119235518Y-95235250D01*
X119373844Y-95569199D01*
X119574662Y-95869744D01*
X119830256Y-96125338D01*
X120130801Y-96326156D01*
X120464750Y-96464482D01*
X120819268Y-96535000D01*
X121180732Y-96535000D01*
X121535250Y-96464482D01*
X121869199Y-96326156D01*
X122169744Y-96125338D01*
X122425338Y-95869744D01*
X122435001Y-95855283D01*
X122435000Y-101919172D01*
X122429994Y-101970000D01*
X122435000Y-102020828D01*
X122435000Y-102020837D01*
X122449976Y-102172894D01*
X122509159Y-102367992D01*
X122605266Y-102547797D01*
X122734604Y-102705396D01*
X122774097Y-102737807D01*
X126432173Y-106395884D01*
X126465266Y-106457797D01*
X126594604Y-106615396D01*
X126634097Y-106647807D01*
X126995001Y-107008712D01*
X126995000Y-115979172D01*
X126989994Y-116030000D01*
X126995000Y-116080828D01*
X126995000Y-116080837D01*
X127009976Y-116232894D01*
X127069159Y-116427992D01*
X127165266Y-116607797D01*
X127294604Y-116765396D01*
X127334097Y-116797807D01*
X128881289Y-118345000D01*
X120813465Y-118345000D01*
X120769999Y-118340719D01*
X120726533Y-118345000D01*
X120726523Y-118345000D01*
X120596510Y-118357805D01*
X120429687Y-118408411D01*
X120275941Y-118490589D01*
X120275939Y-118490590D01*
X120275940Y-118490590D01*
X120174953Y-118573468D01*
X120174951Y-118573470D01*
X120141183Y-118601183D01*
X120113470Y-118634951D01*
X117686494Y-121061928D01*
X116700000Y-121061928D01*
X116575518Y-121074188D01*
X116455820Y-121110498D01*
X116345506Y-121169463D01*
X116248815Y-121248815D01*
X116169463Y-121345506D01*
X116110498Y-121455820D01*
X116074188Y-121575518D01*
X116061928Y-121700000D01*
X116061928Y-123300000D01*
X116074188Y-123424482D01*
X116110498Y-123544180D01*
X116169463Y-123654494D01*
X116248815Y-123751185D01*
X116261758Y-123761807D01*
X116142429Y-124013996D01*
X116073700Y-124288184D01*
X116059783Y-124570512D01*
X116101213Y-124850130D01*
X116196397Y-125116292D01*
X116263329Y-125241514D01*
X116507298Y-125313097D01*
X117320395Y-124500000D01*
X117306253Y-124485858D01*
X117485858Y-124306253D01*
X117500000Y-124320395D01*
X117514143Y-124306253D01*
X117693748Y-124485858D01*
X117679605Y-124500000D01*
X118492702Y-125313097D01*
X118736671Y-125241514D01*
X118857571Y-124986004D01*
X118926300Y-124711816D01*
X118940217Y-124429488D01*
X118898787Y-124149870D01*
X118803603Y-123883708D01*
X118738384Y-123761691D01*
X118751185Y-123751185D01*
X118830537Y-123654494D01*
X118889502Y-123544180D01*
X118925812Y-123424482D01*
X118938072Y-123300000D01*
X118938072Y-122313506D01*
X121136579Y-120115000D01*
X133256531Y-120115000D01*
X133300000Y-120119281D01*
X133343469Y-120115000D01*
X133343477Y-120115000D01*
X133473490Y-120102195D01*
X133640313Y-120051589D01*
X133794059Y-119969411D01*
X133928817Y-119858817D01*
X133956534Y-119825044D01*
X135376579Y-118405000D01*
X143436531Y-118405000D01*
X143480000Y-118409281D01*
X143523469Y-118405000D01*
X143523477Y-118405000D01*
X143653490Y-118392195D01*
X143820313Y-118341589D01*
X143974059Y-118259411D01*
X144108817Y-118148817D01*
X144136534Y-118115044D01*
X146985050Y-115266529D01*
X147018817Y-115238817D01*
X147064172Y-115183553D01*
X147129410Y-115104060D01*
X147129411Y-115104059D01*
X147211589Y-114950313D01*
X147262195Y-114783490D01*
X147275000Y-114653477D01*
X147275000Y-114653467D01*
X147279281Y-114610001D01*
X147275000Y-114566535D01*
X147275000Y-103026578D01*
X149416579Y-100885000D01*
X152074807Y-100885000D01*
X152184048Y-100994241D01*
X152307251Y-101076562D01*
X152297654Y-101118049D01*
X153000000Y-101820395D01*
X153702346Y-101118049D01*
X153692749Y-101076562D01*
X153815952Y-100994241D01*
X153994241Y-100815952D01*
X154134321Y-100606307D01*
X154230810Y-100373362D01*
X154280000Y-100126069D01*
X154280000Y-99873931D01*
X154257338Y-99760000D01*
X155968373Y-99760000D01*
X156005759Y-99815952D01*
X156120170Y-99930363D01*
X156015919Y-100015919D01*
X155842843Y-100226812D01*
X155714236Y-100467419D01*
X155635040Y-100728493D01*
X155608299Y-101000000D01*
X155635040Y-101271507D01*
X155714236Y-101532581D01*
X155842843Y-101773188D01*
X156015919Y-101984081D01*
X156035316Y-102000000D01*
X156015919Y-102015919D01*
X155842843Y-102226812D01*
X155714236Y-102467419D01*
X155635040Y-102728493D01*
X155608299Y-103000000D01*
X155635040Y-103271507D01*
X155714236Y-103532581D01*
X155842843Y-103773188D01*
X156015919Y-103984081D01*
X156035316Y-104000000D01*
X156015919Y-104015919D01*
X155842843Y-104226812D01*
X155714236Y-104467419D01*
X155635040Y-104728493D01*
X155608299Y-105000000D01*
X155635040Y-105271507D01*
X155714236Y-105532581D01*
X155842843Y-105773188D01*
X156015919Y-105984081D01*
X156035316Y-106000000D01*
X156015919Y-106015919D01*
X155842843Y-106226812D01*
X155714236Y-106467419D01*
X155635040Y-106728493D01*
X155608299Y-107000000D01*
X155635040Y-107271507D01*
X155714236Y-107532581D01*
X155842843Y-107773188D01*
X155931440Y-107881144D01*
X155903815Y-107903815D01*
X155824463Y-108000506D01*
X155765498Y-108110820D01*
X155729188Y-108230518D01*
X155716928Y-108355000D01*
X155720000Y-108714250D01*
X155878750Y-108873000D01*
X156873000Y-108873000D01*
X156873000Y-108853000D01*
X157127000Y-108853000D01*
X157127000Y-108873000D01*
X158121250Y-108873000D01*
X158280000Y-108714250D01*
X158282815Y-108385000D01*
X165926315Y-108385000D01*
X177052550Y-119511236D01*
X177095919Y-119564081D01*
X177148764Y-119607450D01*
X177148766Y-119607452D01*
X177259465Y-119698300D01*
X177306812Y-119737157D01*
X177471243Y-119825047D01*
X177547419Y-119865764D01*
X177808492Y-119944960D01*
X177834099Y-119947482D01*
X178011963Y-119965000D01*
X178011970Y-119965000D01*
X178079999Y-119971700D01*
X178148028Y-119965000D01*
X183070299Y-119965000D01*
X183074188Y-120004482D01*
X183110498Y-120124180D01*
X183169463Y-120234494D01*
X183248815Y-120331185D01*
X183345506Y-120410537D01*
X183455820Y-120469502D01*
X183575518Y-120505812D01*
X183700000Y-120518072D01*
X186300000Y-120518072D01*
X186424482Y-120505812D01*
X186544180Y-120469502D01*
X186654494Y-120410537D01*
X186751185Y-120331185D01*
X186830537Y-120234494D01*
X186889502Y-120124180D01*
X186925812Y-120004482D01*
X186938072Y-119880000D01*
X186938072Y-117280000D01*
X186925812Y-117155518D01*
X186889502Y-117035820D01*
X186830537Y-116925506D01*
X186751185Y-116828815D01*
X186654494Y-116749463D01*
X186544180Y-116690498D01*
X186424482Y-116654188D01*
X186300000Y-116641928D01*
X183700000Y-116641928D01*
X183575518Y-116654188D01*
X183455820Y-116690498D01*
X183345506Y-116749463D01*
X183248815Y-116828815D01*
X183169463Y-116925506D01*
X183110498Y-117035820D01*
X183074188Y-117155518D01*
X183070299Y-117195000D01*
X178653686Y-117195000D01*
X167843685Y-106385000D01*
X167926315Y-106385000D01*
X175972550Y-114431236D01*
X176015919Y-114484081D01*
X176068764Y-114527450D01*
X176068766Y-114527452D01*
X176098332Y-114551716D01*
X176226812Y-114657157D01*
X176467419Y-114785764D01*
X176728493Y-114864960D01*
X176931963Y-114885000D01*
X176931972Y-114885000D01*
X176999999Y-114891700D01*
X177068026Y-114885000D01*
X183648496Y-114885000D01*
X183766509Y-115003013D01*
X184083434Y-115214775D01*
X184435581Y-115360639D01*
X184809419Y-115435000D01*
X185190581Y-115435000D01*
X185564419Y-115360639D01*
X185916566Y-115214775D01*
X186233491Y-115003013D01*
X186503013Y-114733491D01*
X186714775Y-114416566D01*
X186860639Y-114064419D01*
X186935000Y-113690581D01*
X186935000Y-113309419D01*
X186860639Y-112935581D01*
X186714775Y-112583434D01*
X186503013Y-112266509D01*
X186233491Y-111996987D01*
X185916566Y-111785225D01*
X185564419Y-111639361D01*
X185190581Y-111565000D01*
X184809419Y-111565000D01*
X184435581Y-111639361D01*
X184083434Y-111785225D01*
X183766509Y-111996987D01*
X183648496Y-112115000D01*
X177573686Y-112115000D01*
X169843685Y-104385000D01*
X169926315Y-104385000D01*
X172972546Y-107431231D01*
X173015919Y-107484081D01*
X173226812Y-107657157D01*
X173467419Y-107785764D01*
X173728493Y-107864960D01*
X173931963Y-107885000D01*
X173931972Y-107885000D01*
X173999999Y-107891700D01*
X174068026Y-107885000D01*
X183070299Y-107885000D01*
X183074188Y-107924482D01*
X183110498Y-108044180D01*
X183169463Y-108154494D01*
X183248815Y-108251185D01*
X183345506Y-108330537D01*
X183455820Y-108389502D01*
X183575518Y-108425812D01*
X183700000Y-108438072D01*
X186300000Y-108438072D01*
X186424482Y-108425812D01*
X186544180Y-108389502D01*
X186654494Y-108330537D01*
X186751185Y-108251185D01*
X186830537Y-108154494D01*
X186889502Y-108044180D01*
X186925812Y-107924482D01*
X186938072Y-107800000D01*
X186938072Y-105200000D01*
X186925812Y-105075518D01*
X186889502Y-104955820D01*
X186830537Y-104845506D01*
X186751185Y-104748815D01*
X186654494Y-104669463D01*
X186544180Y-104610498D01*
X186424482Y-104574188D01*
X186300000Y-104561928D01*
X183700000Y-104561928D01*
X183575518Y-104574188D01*
X183455820Y-104610498D01*
X183345506Y-104669463D01*
X183248815Y-104748815D01*
X183169463Y-104845506D01*
X183110498Y-104955820D01*
X183074188Y-105075518D01*
X183070299Y-105115000D01*
X174573685Y-105115000D01*
X171843685Y-102385000D01*
X183317587Y-102385000D01*
X183496987Y-102653491D01*
X183766509Y-102923013D01*
X184083434Y-103134775D01*
X184435581Y-103280639D01*
X184809419Y-103355000D01*
X185190581Y-103355000D01*
X185564419Y-103280639D01*
X185916566Y-103134775D01*
X186233491Y-102923013D01*
X186503013Y-102653491D01*
X186714775Y-102336566D01*
X186860639Y-101984419D01*
X186935000Y-101610581D01*
X186935000Y-101229419D01*
X186860639Y-100855581D01*
X186714775Y-100503434D01*
X186503013Y-100186509D01*
X186233491Y-99916987D01*
X185916566Y-99705225D01*
X185564419Y-99559361D01*
X185190581Y-99485000D01*
X184809419Y-99485000D01*
X184435581Y-99559361D01*
X184301257Y-99615000D01*
X158128513Y-99615000D01*
X158134321Y-99606307D01*
X158230810Y-99373362D01*
X158280000Y-99126069D01*
X158280000Y-98873931D01*
X158230810Y-98626638D01*
X158134321Y-98393693D01*
X157994241Y-98184048D01*
X157815952Y-98005759D01*
X157692749Y-97923438D01*
X157702346Y-97881951D01*
X157000000Y-97179605D01*
X156297654Y-97881951D01*
X156307251Y-97923438D01*
X156184048Y-98005759D01*
X156005759Y-98184048D01*
X155968373Y-98240000D01*
X154257338Y-98240000D01*
X154280000Y-98126069D01*
X154280000Y-97873931D01*
X154257338Y-97760000D01*
X154962678Y-97760000D01*
X155000000Y-97763676D01*
X155037322Y-97760000D01*
X155037333Y-97760000D01*
X155148986Y-97749003D01*
X155292247Y-97705546D01*
X155424276Y-97634974D01*
X155540001Y-97540001D01*
X155563804Y-97510997D01*
X155754815Y-97319987D01*
X155755717Y-97325658D01*
X155843158Y-97562148D01*
X155889884Y-97649566D01*
X156118049Y-97702346D01*
X156820395Y-97000000D01*
X157179605Y-97000000D01*
X157881951Y-97702346D01*
X158110116Y-97649566D01*
X158127490Y-97611806D01*
X161211801Y-97611806D01*
X161326500Y-97952754D01*
X161505511Y-98264774D01*
X161741954Y-98535875D01*
X162026743Y-98755639D01*
X162348934Y-98915621D01*
X162588195Y-98988195D01*
X162873000Y-98871432D01*
X162873000Y-97327000D01*
X163127000Y-97327000D01*
X163127000Y-98871432D01*
X163411805Y-98988195D01*
X163651066Y-98915621D01*
X163973257Y-98755639D01*
X164258046Y-98535875D01*
X164494489Y-98264774D01*
X164673500Y-97952754D01*
X164788199Y-97611806D01*
X164671854Y-97327000D01*
X163127000Y-97327000D01*
X162873000Y-97327000D01*
X161328146Y-97327000D01*
X161211801Y-97611806D01*
X158127490Y-97611806D01*
X158215509Y-97420512D01*
X158274192Y-97175298D01*
X158283907Y-96923348D01*
X158262401Y-96788194D01*
X161211801Y-96788194D01*
X161328146Y-97073000D01*
X162873000Y-97073000D01*
X162873000Y-95528568D01*
X163127000Y-95528568D01*
X163127000Y-97073000D01*
X164671854Y-97073000D01*
X164788199Y-96788194D01*
X164673500Y-96447246D01*
X164494489Y-96135226D01*
X164258046Y-95864125D01*
X163973257Y-95644361D01*
X163651066Y-95484379D01*
X163411805Y-95411805D01*
X163127000Y-95528568D01*
X162873000Y-95528568D01*
X162588195Y-95411805D01*
X162348934Y-95484379D01*
X162026743Y-95644361D01*
X161741954Y-95864125D01*
X161505511Y-96135226D01*
X161326500Y-96447246D01*
X161211801Y-96788194D01*
X158262401Y-96788194D01*
X158244283Y-96674342D01*
X158156842Y-96437852D01*
X158110116Y-96350434D01*
X157881951Y-96297654D01*
X157179605Y-97000000D01*
X156820395Y-97000000D01*
X156806253Y-96985858D01*
X156985858Y-96806253D01*
X157000000Y-96820395D01*
X157702346Y-96118049D01*
X157692749Y-96076562D01*
X157815952Y-95994241D01*
X157994241Y-95815952D01*
X158134321Y-95606307D01*
X158230810Y-95373362D01*
X158280000Y-95126069D01*
X158280000Y-94873931D01*
X158230810Y-94626638D01*
X158134321Y-94393693D01*
X158128513Y-94385000D01*
X172426315Y-94385000D01*
X173472550Y-95431236D01*
X173515919Y-95484081D01*
X173568764Y-95527450D01*
X173568766Y-95527452D01*
X173570126Y-95528568D01*
X173726812Y-95657157D01*
X173967419Y-95785764D01*
X174228493Y-95864960D01*
X174431963Y-95885000D01*
X174431972Y-95885000D01*
X174499999Y-95891700D01*
X174568026Y-95885000D01*
X183070299Y-95885000D01*
X183074188Y-95924482D01*
X183110498Y-96044180D01*
X183169463Y-96154494D01*
X183248815Y-96251185D01*
X183345506Y-96330537D01*
X183455820Y-96389502D01*
X183575518Y-96425812D01*
X183700000Y-96438072D01*
X186300000Y-96438072D01*
X186424482Y-96425812D01*
X186544180Y-96389502D01*
X186654494Y-96330537D01*
X186751185Y-96251185D01*
X186830537Y-96154494D01*
X186889502Y-96044180D01*
X186925812Y-95924482D01*
X186938072Y-95800000D01*
X186938072Y-93200000D01*
X186925812Y-93075518D01*
X186889502Y-92955820D01*
X186830537Y-92845506D01*
X186751185Y-92748815D01*
X186654494Y-92669463D01*
X186544180Y-92610498D01*
X186424482Y-92574188D01*
X186300000Y-92561928D01*
X183700000Y-92561928D01*
X183575518Y-92574188D01*
X183455820Y-92610498D01*
X183345506Y-92669463D01*
X183248815Y-92748815D01*
X183169463Y-92845506D01*
X183110498Y-92955820D01*
X183074188Y-93075518D01*
X183070299Y-93115000D01*
X175073686Y-93115000D01*
X174027454Y-92068769D01*
X173984081Y-92015919D01*
X173964684Y-92000000D01*
X173984081Y-91984081D01*
X174027454Y-91931231D01*
X175153686Y-90805000D01*
X183648496Y-90805000D01*
X183766509Y-90923013D01*
X184083434Y-91134775D01*
X184435581Y-91280639D01*
X184809419Y-91355000D01*
X185190581Y-91355000D01*
X185564419Y-91280639D01*
X185916566Y-91134775D01*
X186233491Y-90923013D01*
X186503013Y-90653491D01*
X186714775Y-90336566D01*
X186860639Y-89984419D01*
X186935000Y-89610581D01*
X186935000Y-89229419D01*
X186860639Y-88855581D01*
X186714775Y-88503434D01*
X186503013Y-88186509D01*
X186233491Y-87916987D01*
X185916566Y-87705225D01*
X185564419Y-87559361D01*
X185190581Y-87485000D01*
X184809419Y-87485000D01*
X184435581Y-87559361D01*
X184083434Y-87705225D01*
X183766509Y-87916987D01*
X183648496Y-88035000D01*
X174923685Y-88035000D01*
X179073686Y-83885000D01*
X183070299Y-83885000D01*
X183074188Y-83924482D01*
X183110498Y-84044180D01*
X183169463Y-84154494D01*
X183248815Y-84251185D01*
X183345506Y-84330537D01*
X183455820Y-84389502D01*
X183575518Y-84425812D01*
X183700000Y-84438072D01*
X186300000Y-84438072D01*
X186424482Y-84425812D01*
X186544180Y-84389502D01*
X186654494Y-84330537D01*
X186751185Y-84251185D01*
X186830537Y-84154494D01*
X186889502Y-84044180D01*
X186925812Y-83924482D01*
X186938072Y-83800000D01*
X186938072Y-81200000D01*
X186925812Y-81075518D01*
X186889502Y-80955820D01*
X186830537Y-80845506D01*
X186751185Y-80748815D01*
X186654494Y-80669463D01*
X186544180Y-80610498D01*
X186424482Y-80574188D01*
X186300000Y-80561928D01*
X183700000Y-80561928D01*
X183575518Y-80574188D01*
X183455820Y-80610498D01*
X183345506Y-80669463D01*
X183248815Y-80748815D01*
X183169463Y-80845506D01*
X183110498Y-80955820D01*
X183074188Y-81075518D01*
X183070299Y-81115000D01*
X178568026Y-81115000D01*
X178499999Y-81108300D01*
X178431972Y-81115000D01*
X178431963Y-81115000D01*
X178245301Y-81133385D01*
X180573686Y-78805000D01*
X183648496Y-78805000D01*
X183766509Y-78923013D01*
X184083434Y-79134775D01*
X184435581Y-79280639D01*
X184809419Y-79355000D01*
X185190581Y-79355000D01*
X185564419Y-79280639D01*
X185916566Y-79134775D01*
X186233491Y-78923013D01*
X186503013Y-78653491D01*
X186714775Y-78336566D01*
X186860639Y-77984419D01*
X186935000Y-77610581D01*
X186935000Y-77229419D01*
X186860639Y-76855581D01*
X186714775Y-76503434D01*
X186503013Y-76186509D01*
X186233491Y-75916987D01*
X185916566Y-75705225D01*
X185564419Y-75559361D01*
X185190581Y-75485000D01*
X184809419Y-75485000D01*
X184435581Y-75559361D01*
X184083434Y-75705225D01*
X183766509Y-75916987D01*
X183648496Y-76035000D01*
X180068029Y-76035000D01*
X180000000Y-76028300D01*
X179931971Y-76035000D01*
X179931963Y-76035000D01*
X179751892Y-76052735D01*
X179728492Y-76055040D01*
X179467419Y-76134236D01*
X179226812Y-76262843D01*
X179151968Y-76324266D01*
X179068766Y-76392548D01*
X179068764Y-76392550D01*
X179015919Y-76435919D01*
X178972550Y-76488764D01*
X169846315Y-85615000D01*
X164461917Y-85615000D01*
X164626156Y-85369199D01*
X164764482Y-85035250D01*
X164835000Y-84680732D01*
X164835000Y-84319268D01*
X164764482Y-83964750D01*
X164626156Y-83630801D01*
X164425338Y-83330256D01*
X164169744Y-83074662D01*
X163869199Y-82873844D01*
X163535250Y-82735518D01*
X163180732Y-82665000D01*
X162819268Y-82665000D01*
X162464750Y-82735518D01*
X162130801Y-82873844D01*
X161830256Y-83074662D01*
X161574662Y-83330256D01*
X161373844Y-83630801D01*
X161276836Y-83865000D01*
X157604668Y-83865000D01*
X157373362Y-83769190D01*
X157126069Y-83720000D01*
X156873931Y-83720000D01*
X156626638Y-83769190D01*
X156590000Y-83784366D01*
X156590000Y-82257325D01*
X156593676Y-82220000D01*
X156590000Y-82182675D01*
X156590000Y-82182667D01*
X156579003Y-82071014D01*
X156535546Y-81927753D01*
X156464974Y-81795724D01*
X156370001Y-81679999D01*
X156341004Y-81656202D01*
X154677504Y-79992702D01*
X156186903Y-79992702D01*
X156258486Y-80236671D01*
X156513996Y-80357571D01*
X156788184Y-80426300D01*
X157070512Y-80440217D01*
X157350130Y-80398787D01*
X157616292Y-80303603D01*
X157741514Y-80236671D01*
X157813097Y-79992702D01*
X157000000Y-79179605D01*
X156186903Y-79992702D01*
X154677504Y-79992702D01*
X153755314Y-79070512D01*
X155559783Y-79070512D01*
X155601213Y-79350130D01*
X155696397Y-79616292D01*
X155763329Y-79741514D01*
X156007298Y-79813097D01*
X156820395Y-79000000D01*
X157179605Y-79000000D01*
X157992702Y-79813097D01*
X158236671Y-79741514D01*
X158357571Y-79486004D01*
X158426300Y-79211816D01*
X158440217Y-78929488D01*
X158398787Y-78649870D01*
X158303603Y-78383708D01*
X158236671Y-78258486D01*
X157992702Y-78186903D01*
X157179605Y-79000000D01*
X156820395Y-79000000D01*
X156007298Y-78186903D01*
X155763329Y-78258486D01*
X155642429Y-78513996D01*
X155573700Y-78788184D01*
X155559783Y-79070512D01*
X153755314Y-79070512D01*
X153408067Y-78723266D01*
X153379853Y-78581426D01*
X153271680Y-78320273D01*
X153114637Y-78085241D01*
X153036694Y-78007298D01*
X156186903Y-78007298D01*
X157000000Y-78820395D01*
X157813097Y-78007298D01*
X157741514Y-77763329D01*
X157486004Y-77642429D01*
X157211816Y-77573700D01*
X156929488Y-77559783D01*
X156649870Y-77601213D01*
X156383708Y-77696397D01*
X156258486Y-77763329D01*
X156186903Y-78007298D01*
X153036694Y-78007298D01*
X152914759Y-77885363D01*
X152679727Y-77728320D01*
X152418574Y-77620147D01*
X152141335Y-77565000D01*
X151858665Y-77565000D01*
X151581426Y-77620147D01*
X151320273Y-77728320D01*
X151085241Y-77885363D01*
X150885363Y-78085241D01*
X150728320Y-78320273D01*
X150620147Y-78581426D01*
X150565000Y-78858665D01*
X150565000Y-79141335D01*
X150620147Y-79418574D01*
X150728320Y-79679727D01*
X150885363Y-79914759D01*
X151085241Y-80114637D01*
X151320273Y-80271680D01*
X151581426Y-80379853D01*
X151858665Y-80435000D01*
X152141335Y-80435000D01*
X152418574Y-80379853D01*
X152679727Y-80271680D01*
X152755949Y-80220750D01*
X155070000Y-82534802D01*
X155070001Y-92845197D01*
X154675198Y-93240000D01*
X154031627Y-93240000D01*
X153994241Y-93184048D01*
X153815952Y-93005759D01*
X153692749Y-92923438D01*
X153702346Y-92881951D01*
X153000000Y-92179605D01*
X152297654Y-92881951D01*
X152307251Y-92923438D01*
X152184048Y-93005759D01*
X152005759Y-93184048D01*
X151865679Y-93393693D01*
X151769190Y-93626638D01*
X151720000Y-93873931D01*
X151720000Y-94126069D01*
X151769190Y-94373362D01*
X151865679Y-94606307D01*
X152005759Y-94815952D01*
X152184048Y-94994241D01*
X152192667Y-95000000D01*
X152184048Y-95005759D01*
X152005759Y-95184048D01*
X151968373Y-95240000D01*
X144247333Y-95240000D01*
X144210000Y-95236323D01*
X144172667Y-95240000D01*
X144061014Y-95250997D01*
X143917753Y-95294454D01*
X143785724Y-95365026D01*
X143669999Y-95459999D01*
X143646201Y-95488997D01*
X134439003Y-104696196D01*
X134409999Y-104719999D01*
X134354871Y-104787174D01*
X134315026Y-104835724D01*
X134257769Y-104942843D01*
X134244454Y-104967754D01*
X134200997Y-105111015D01*
X134190000Y-105222668D01*
X134190000Y-105222678D01*
X134186324Y-105260000D01*
X134190000Y-105297323D01*
X134190001Y-108735197D01*
X133405199Y-109520000D01*
X132634802Y-109520000D01*
X131778372Y-108663571D01*
X131879853Y-108418574D01*
X131935000Y-108141335D01*
X131935000Y-107858665D01*
X131879853Y-107581426D01*
X131771680Y-107320273D01*
X131614637Y-107085241D01*
X131414759Y-106885363D01*
X131179727Y-106728320D01*
X130918574Y-106620147D01*
X130641335Y-106565000D01*
X130358665Y-106565000D01*
X130081426Y-106620147D01*
X129820273Y-106728320D01*
X129585241Y-106885363D01*
X129385363Y-107085241D01*
X129228320Y-107320273D01*
X129120147Y-107581426D01*
X129065000Y-107858665D01*
X129065000Y-106630827D01*
X129070006Y-106579999D01*
X129065000Y-106529171D01*
X129065000Y-106529162D01*
X129050024Y-106377105D01*
X128990841Y-106182007D01*
X128894734Y-106002203D01*
X128765396Y-105844604D01*
X128725908Y-105812197D01*
X128227828Y-105314118D01*
X128194734Y-105252202D01*
X128097803Y-105134092D01*
X128065396Y-105094604D01*
X128025908Y-105062197D01*
X124505000Y-101541290D01*
X124505000Y-100034396D01*
X124585241Y-100114637D01*
X124820273Y-100271680D01*
X125081426Y-100379853D01*
X125358665Y-100435000D01*
X125641335Y-100435000D01*
X125918574Y-100379853D01*
X126179727Y-100271680D01*
X126414759Y-100114637D01*
X126614637Y-99914759D01*
X126771680Y-99679727D01*
X126879853Y-99418574D01*
X126935000Y-99141335D01*
X126935000Y-98858665D01*
X126879853Y-98581426D01*
X126771680Y-98320273D01*
X126614637Y-98085241D01*
X126414759Y-97885363D01*
X126385000Y-97865479D01*
X126385000Y-96115598D01*
X126669744Y-95925338D01*
X126925338Y-95669744D01*
X127126156Y-95369199D01*
X127264482Y-95035250D01*
X127335000Y-94680732D01*
X127335000Y-94319268D01*
X127264482Y-93964750D01*
X127219250Y-93855551D01*
X129284802Y-91790000D01*
X151734113Y-91789998D01*
X151725808Y-91824702D01*
X151716093Y-92076652D01*
X151755717Y-92325658D01*
X151843158Y-92562148D01*
X151889884Y-92649566D01*
X152118049Y-92702346D01*
X152820395Y-92000000D01*
X152806253Y-91985858D01*
X152985858Y-91806253D01*
X153000000Y-91820395D01*
X153014143Y-91806253D01*
X153193748Y-91985858D01*
X153179605Y-92000000D01*
X153881951Y-92702346D01*
X154110116Y-92649566D01*
X154215509Y-92420512D01*
X154274192Y-92175298D01*
X154283907Y-91923348D01*
X154244283Y-91674342D01*
X154156842Y-91437852D01*
X154149913Y-91424888D01*
X154631004Y-90943798D01*
X154660001Y-90920001D01*
X154754974Y-90804276D01*
X154825546Y-90672247D01*
X154869003Y-90528986D01*
X154880000Y-90417333D01*
X154880000Y-90417325D01*
X154883676Y-90380000D01*
X154880000Y-90342675D01*
X154880000Y-88497322D01*
X154883676Y-88459999D01*
X154880000Y-88422676D01*
X154880000Y-88422667D01*
X154869003Y-88311014D01*
X154825546Y-88167753D01*
X154754974Y-88035724D01*
X154660001Y-87919999D01*
X154630997Y-87896196D01*
X154223804Y-87489003D01*
X154200001Y-87459999D01*
X154142105Y-87412485D01*
X154134321Y-87393693D01*
X153994241Y-87184048D01*
X153815952Y-87005759D01*
X153692749Y-86923438D01*
X153702346Y-86881951D01*
X153000000Y-86179605D01*
X152297654Y-86881951D01*
X152307251Y-86923438D01*
X152184048Y-87005759D01*
X152005759Y-87184048D01*
X151865679Y-87393693D01*
X151769190Y-87626638D01*
X151720000Y-87873931D01*
X151720000Y-88126069D01*
X151769190Y-88373362D01*
X151865679Y-88606307D01*
X151971714Y-88765000D01*
X141511554Y-88765000D01*
X136637783Y-83891229D01*
X139865000Y-83891229D01*
X139865000Y-84508771D01*
X139985476Y-85114446D01*
X140221799Y-85684979D01*
X140564886Y-86198446D01*
X141001554Y-86635114D01*
X141515021Y-86978201D01*
X142085554Y-87214524D01*
X142691229Y-87335000D01*
X143308771Y-87335000D01*
X143914446Y-87214524D01*
X144484979Y-86978201D01*
X144998446Y-86635114D01*
X145435114Y-86198446D01*
X145516493Y-86076652D01*
X151716093Y-86076652D01*
X151755717Y-86325658D01*
X151843158Y-86562148D01*
X151889884Y-86649566D01*
X152118049Y-86702346D01*
X152820395Y-86000000D01*
X153179605Y-86000000D01*
X153881951Y-86702346D01*
X154110116Y-86649566D01*
X154215509Y-86420512D01*
X154274192Y-86175298D01*
X154283907Y-85923348D01*
X154244283Y-85674342D01*
X154156842Y-85437852D01*
X154110116Y-85350434D01*
X153881951Y-85297654D01*
X153179605Y-86000000D01*
X152820395Y-86000000D01*
X152118049Y-85297654D01*
X151889884Y-85350434D01*
X151784491Y-85579488D01*
X151725808Y-85824702D01*
X151716093Y-86076652D01*
X145516493Y-86076652D01*
X145778201Y-85684979D01*
X146013031Y-85118049D01*
X152297654Y-85118049D01*
X153000000Y-85820395D01*
X153702346Y-85118049D01*
X153649566Y-84889884D01*
X153420512Y-84784491D01*
X153175298Y-84725808D01*
X152923348Y-84716093D01*
X152674342Y-84755717D01*
X152437852Y-84843158D01*
X152350434Y-84889884D01*
X152297654Y-85118049D01*
X146013031Y-85118049D01*
X146014524Y-85114446D01*
X146135000Y-84508771D01*
X146135000Y-83891229D01*
X146014524Y-83285554D01*
X145778201Y-82715021D01*
X145435114Y-82201554D01*
X144998446Y-81764886D01*
X144484979Y-81421799D01*
X143914446Y-81185476D01*
X143308771Y-81065000D01*
X142691229Y-81065000D01*
X142085554Y-81185476D01*
X141515021Y-81421799D01*
X141001554Y-81764886D01*
X140564886Y-82201554D01*
X140221799Y-82715021D01*
X139985476Y-83285554D01*
X139865000Y-83891229D01*
X136637783Y-83891229D01*
X133716179Y-80969626D01*
X133677502Y-80922498D01*
X133489449Y-80768167D01*
X133274901Y-80653489D01*
X133042102Y-80582870D01*
X132860665Y-80565000D01*
X132800000Y-80559025D01*
X132739335Y-80565000D01*
X126860082Y-80565000D01*
X126669744Y-80374662D01*
X126369199Y-80173844D01*
X126035250Y-80035518D01*
X125680732Y-79965000D01*
X125319268Y-79965000D01*
X124964750Y-80035518D01*
X124630801Y-80173844D01*
X124330256Y-80374662D01*
X124074662Y-80630256D01*
X124051447Y-80665000D01*
X122822621Y-80665000D01*
X122789502Y-80555820D01*
X122730537Y-80445506D01*
X122651185Y-80348815D01*
X122554494Y-80269463D01*
X122444180Y-80210498D01*
X122324482Y-80174188D01*
X122200000Y-80161928D01*
X120120614Y-80161928D01*
X117385000Y-77426315D01*
X117385000Y-71191229D01*
X136365000Y-71191229D01*
X136365000Y-71808771D01*
X136485476Y-72414446D01*
X136721799Y-72984979D01*
X137064886Y-73498446D01*
X137501554Y-73935114D01*
X138015021Y-74278201D01*
X138585554Y-74514524D01*
X139191229Y-74635000D01*
X139808771Y-74635000D01*
X140414446Y-74514524D01*
X140984979Y-74278201D01*
X141498446Y-73935114D01*
X141935114Y-73498446D01*
X142278201Y-72984979D01*
X142514524Y-72414446D01*
X142635000Y-71808771D01*
X142635000Y-71191229D01*
X142514524Y-70585554D01*
X142278201Y-70015021D01*
X141935114Y-69501554D01*
X141498446Y-69064886D01*
X140984979Y-68721799D01*
X140414446Y-68485476D01*
X139808771Y-68365000D01*
X139191229Y-68365000D01*
X138585554Y-68485476D01*
X138015021Y-68721799D01*
X137501554Y-69064886D01*
X137064886Y-69501554D01*
X136721799Y-70015021D01*
X136485476Y-70585554D01*
X136365000Y-71191229D01*
X117385000Y-71191229D01*
X117385000Y-66135413D01*
X122044192Y-66135413D01*
X122139956Y-66399814D01*
X122429571Y-66540704D01*
X122741108Y-66622384D01*
X123062595Y-66641718D01*
X123381675Y-66597961D01*
X123686088Y-66492795D01*
X123860044Y-66399814D01*
X123955808Y-66135413D01*
X135044192Y-66135413D01*
X135139956Y-66399814D01*
X135429571Y-66540704D01*
X135741108Y-66622384D01*
X136062595Y-66641718D01*
X136381675Y-66597961D01*
X136686088Y-66492795D01*
X136860044Y-66399814D01*
X136955808Y-66135413D01*
X148044192Y-66135413D01*
X148139956Y-66399814D01*
X148429571Y-66540704D01*
X148741108Y-66622384D01*
X149062595Y-66641718D01*
X149381675Y-66597961D01*
X149686088Y-66492795D01*
X149860044Y-66399814D01*
X149955808Y-66135413D01*
X160544192Y-66135413D01*
X160639956Y-66399814D01*
X160929571Y-66540704D01*
X161241108Y-66622384D01*
X161562595Y-66641718D01*
X161881675Y-66597961D01*
X162186088Y-66492795D01*
X162360044Y-66399814D01*
X162455808Y-66135413D01*
X161500000Y-65179605D01*
X160544192Y-66135413D01*
X149955808Y-66135413D01*
X149000000Y-65179605D01*
X148044192Y-66135413D01*
X136955808Y-66135413D01*
X136000000Y-65179605D01*
X135044192Y-66135413D01*
X123955808Y-66135413D01*
X123000000Y-65179605D01*
X122044192Y-66135413D01*
X117385000Y-66135413D01*
X117385000Y-65073685D01*
X117396090Y-65062595D01*
X121358282Y-65062595D01*
X121402039Y-65381675D01*
X121507205Y-65686088D01*
X121600186Y-65860044D01*
X121864587Y-65955808D01*
X122820395Y-65000000D01*
X123179605Y-65000000D01*
X124135413Y-65955808D01*
X124399814Y-65860044D01*
X124540704Y-65570429D01*
X124622384Y-65258892D01*
X124634189Y-65062595D01*
X134358282Y-65062595D01*
X134402039Y-65381675D01*
X134507205Y-65686088D01*
X134600186Y-65860044D01*
X134864587Y-65955808D01*
X135820395Y-65000000D01*
X136179605Y-65000000D01*
X137135413Y-65955808D01*
X137399814Y-65860044D01*
X137540704Y-65570429D01*
X137622384Y-65258892D01*
X137634189Y-65062595D01*
X147358282Y-65062595D01*
X147402039Y-65381675D01*
X147507205Y-65686088D01*
X147600186Y-65860044D01*
X147864587Y-65955808D01*
X148820395Y-65000000D01*
X149179605Y-65000000D01*
X150135413Y-65955808D01*
X150399814Y-65860044D01*
X150540704Y-65570429D01*
X150622384Y-65258892D01*
X150634189Y-65062595D01*
X159858282Y-65062595D01*
X159902039Y-65381675D01*
X160007205Y-65686088D01*
X160100186Y-65860044D01*
X160364587Y-65955808D01*
X161320395Y-65000000D01*
X161679605Y-65000000D01*
X162635413Y-65955808D01*
X162899814Y-65860044D01*
X163040704Y-65570429D01*
X163122384Y-65258892D01*
X163141718Y-64937405D01*
X163097961Y-64618325D01*
X162992795Y-64313912D01*
X162899814Y-64139956D01*
X162635413Y-64044192D01*
X161679605Y-65000000D01*
X161320395Y-65000000D01*
X160364587Y-64044192D01*
X160100186Y-64139956D01*
X159959296Y-64429571D01*
X159877616Y-64741108D01*
X159858282Y-65062595D01*
X150634189Y-65062595D01*
X150641718Y-64937405D01*
X150597961Y-64618325D01*
X150492795Y-64313912D01*
X150399814Y-64139956D01*
X150135413Y-64044192D01*
X149179605Y-65000000D01*
X148820395Y-65000000D01*
X147864587Y-64044192D01*
X147600186Y-64139956D01*
X147459296Y-64429571D01*
X147377616Y-64741108D01*
X147358282Y-65062595D01*
X137634189Y-65062595D01*
X137641718Y-64937405D01*
X137597961Y-64618325D01*
X137492795Y-64313912D01*
X137399814Y-64139956D01*
X137135413Y-64044192D01*
X136179605Y-65000000D01*
X135820395Y-65000000D01*
X134864587Y-64044192D01*
X134600186Y-64139956D01*
X134459296Y-64429571D01*
X134377616Y-64741108D01*
X134358282Y-65062595D01*
X124634189Y-65062595D01*
X124641718Y-64937405D01*
X124597961Y-64618325D01*
X124492795Y-64313912D01*
X124399814Y-64139956D01*
X124135413Y-64044192D01*
X123179605Y-65000000D01*
X122820395Y-65000000D01*
X121864587Y-64044192D01*
X121600186Y-64139956D01*
X121459296Y-64429571D01*
X121377616Y-64741108D01*
X121358282Y-65062595D01*
X117396090Y-65062595D01*
X118594098Y-63864587D01*
X122044192Y-63864587D01*
X123000000Y-64820395D01*
X123955808Y-63864587D01*
X135044192Y-63864587D01*
X136000000Y-64820395D01*
X136955808Y-63864587D01*
X148044192Y-63864587D01*
X149000000Y-64820395D01*
X149955808Y-63864587D01*
X160544192Y-63864587D01*
X161500000Y-64820395D01*
X162455808Y-63864587D01*
X162360044Y-63600186D01*
X162070429Y-63459296D01*
X161758892Y-63377616D01*
X161437405Y-63358282D01*
X161118325Y-63402039D01*
X160813912Y-63507205D01*
X160639956Y-63600186D01*
X160544192Y-63864587D01*
X149955808Y-63864587D01*
X149860044Y-63600186D01*
X149570429Y-63459296D01*
X149258892Y-63377616D01*
X148937405Y-63358282D01*
X148618325Y-63402039D01*
X148313912Y-63507205D01*
X148139956Y-63600186D01*
X148044192Y-63864587D01*
X136955808Y-63864587D01*
X136860044Y-63600186D01*
X136570429Y-63459296D01*
X136258892Y-63377616D01*
X135937405Y-63358282D01*
X135618325Y-63402039D01*
X135313912Y-63507205D01*
X135139956Y-63600186D01*
X135044192Y-63864587D01*
X123955808Y-63864587D01*
X123860044Y-63600186D01*
X123570429Y-63459296D01*
X123258892Y-63377616D01*
X122937405Y-63358282D01*
X122618325Y-63402039D01*
X122313912Y-63507205D01*
X122139956Y-63600186D01*
X122044192Y-63864587D01*
X118594098Y-63864587D01*
X121073686Y-61385000D01*
X121494499Y-61385000D01*
X121548815Y-61451185D01*
X121645506Y-61530537D01*
X121755820Y-61589502D01*
X121875518Y-61625812D01*
X122000000Y-61638072D01*
X124000000Y-61638072D01*
X124124482Y-61625812D01*
X124244180Y-61589502D01*
X124354494Y-61530537D01*
X124451185Y-61451185D01*
X124505501Y-61385000D01*
X134494499Y-61385000D01*
X134548815Y-61451185D01*
X134645506Y-61530537D01*
X134755820Y-61589502D01*
X134875518Y-61625812D01*
X135000000Y-61638072D01*
X137000000Y-61638072D01*
X137124482Y-61625812D01*
X137244180Y-61589502D01*
X137354494Y-61530537D01*
X137451185Y-61451185D01*
X137505501Y-61385000D01*
X147494499Y-61385000D01*
X147548815Y-61451185D01*
X147645506Y-61530537D01*
X147755820Y-61589502D01*
X147875518Y-61625812D01*
X148000000Y-61638072D01*
X150000000Y-61638072D01*
X150124482Y-61625812D01*
X150244180Y-61589502D01*
X150354494Y-61530537D01*
X150451185Y-61451185D01*
X150505501Y-61385000D01*
X159994499Y-61385000D01*
X160048815Y-61451185D01*
X160145506Y-61530537D01*
X160255820Y-61589502D01*
X160375518Y-61625812D01*
X160500000Y-61638072D01*
X162500000Y-61638072D01*
X162624482Y-61625812D01*
X162744180Y-61589502D01*
X162854494Y-61530537D01*
X162951185Y-61451185D01*
X163005501Y-61385000D01*
X167646315Y-61385000D01*
X172232550Y-65971236D01*
X172275919Y-66024081D01*
X172328764Y-66067450D01*
X172328766Y-66067452D01*
X172411577Y-66135413D01*
X172486812Y-66197157D01*
X172727419Y-66325764D01*
X172988493Y-66404960D01*
X173191963Y-66425000D01*
X173191972Y-66425000D01*
X173259999Y-66431700D01*
X173328026Y-66425000D01*
X175963195Y-66425000D01*
X176066842Y-66467932D01*
X176353740Y-66525000D01*
X176646260Y-66525000D01*
X176933158Y-66467932D01*
X177036805Y-66425000D01*
X179466315Y-66425000D01*
X188115000Y-75073686D01*
X188115001Y-122386313D01*
X177386315Y-133115000D01*
X169892699Y-133115000D01*
X169641335Y-133065000D01*
X169358665Y-133065000D01*
X169107301Y-133115000D01*
X163005501Y-133115000D01*
X162951185Y-133048815D01*
X162854494Y-132969463D01*
X162744180Y-132910498D01*
X162624482Y-132874188D01*
X162500000Y-132861928D01*
X160500000Y-132861928D01*
X160375518Y-132874188D01*
X160255820Y-132910498D01*
X160145506Y-132969463D01*
X160048815Y-133048815D01*
X159994499Y-133115000D01*
X150505501Y-133115000D01*
X150451185Y-133048815D01*
X150354494Y-132969463D01*
X150244180Y-132910498D01*
X150124482Y-132874188D01*
X150000000Y-132861928D01*
X148000000Y-132861928D01*
X147875518Y-132874188D01*
X147755820Y-132910498D01*
X147645506Y-132969463D01*
X147548815Y-133048815D01*
X147494499Y-133115000D01*
X137505501Y-133115000D01*
X137451185Y-133048815D01*
X137354494Y-132969463D01*
X137244180Y-132910498D01*
X137124482Y-132874188D01*
X137000000Y-132861928D01*
X135000000Y-132861928D01*
X134875518Y-132874188D01*
X134755820Y-132910498D01*
X134645506Y-132969463D01*
X134548815Y-133048815D01*
X134494499Y-133115000D01*
X126313685Y-133115000D01*
X128793272Y-130635413D01*
X135044192Y-130635413D01*
X135139956Y-130899814D01*
X135429571Y-131040704D01*
X135741108Y-131122384D01*
X136062595Y-131141718D01*
X136381675Y-131097961D01*
X136686088Y-130992795D01*
X136860044Y-130899814D01*
X136955808Y-130635413D01*
X148044192Y-130635413D01*
X148139956Y-130899814D01*
X148429571Y-131040704D01*
X148741108Y-131122384D01*
X149062595Y-131141718D01*
X149381675Y-131097961D01*
X149686088Y-130992795D01*
X149860044Y-130899814D01*
X149955808Y-130635413D01*
X160544192Y-130635413D01*
X160639956Y-130899814D01*
X160929571Y-131040704D01*
X161241108Y-131122384D01*
X161562595Y-131141718D01*
X161881675Y-131097961D01*
X162186088Y-130992795D01*
X162360044Y-130899814D01*
X162455808Y-130635413D01*
X162313097Y-130492702D01*
X168686903Y-130492702D01*
X168758486Y-130736671D01*
X169013996Y-130857571D01*
X169288184Y-130926300D01*
X169570512Y-130940217D01*
X169850130Y-130898787D01*
X170116292Y-130803603D01*
X170241514Y-130736671D01*
X170313097Y-130492702D01*
X169500000Y-129679605D01*
X168686903Y-130492702D01*
X162313097Y-130492702D01*
X161500000Y-129679605D01*
X160544192Y-130635413D01*
X149955808Y-130635413D01*
X149000000Y-129679605D01*
X148044192Y-130635413D01*
X136955808Y-130635413D01*
X136000000Y-129679605D01*
X135044192Y-130635413D01*
X128793272Y-130635413D01*
X129866090Y-129562595D01*
X134358282Y-129562595D01*
X134402039Y-129881675D01*
X134507205Y-130186088D01*
X134600186Y-130360044D01*
X134864587Y-130455808D01*
X135820395Y-129500000D01*
X136179605Y-129500000D01*
X137135413Y-130455808D01*
X137399814Y-130360044D01*
X137540704Y-130070429D01*
X137622384Y-129758892D01*
X137634189Y-129562595D01*
X147358282Y-129562595D01*
X147402039Y-129881675D01*
X147507205Y-130186088D01*
X147600186Y-130360044D01*
X147864587Y-130455808D01*
X148820395Y-129500000D01*
X149179605Y-129500000D01*
X150135413Y-130455808D01*
X150399814Y-130360044D01*
X150540704Y-130070429D01*
X150622384Y-129758892D01*
X150634189Y-129562595D01*
X159858282Y-129562595D01*
X159902039Y-129881675D01*
X160007205Y-130186088D01*
X160100186Y-130360044D01*
X160364587Y-130455808D01*
X161320395Y-129500000D01*
X161679605Y-129500000D01*
X162635413Y-130455808D01*
X162899814Y-130360044D01*
X163040704Y-130070429D01*
X163122384Y-129758892D01*
X163133713Y-129570512D01*
X168059783Y-129570512D01*
X168101213Y-129850130D01*
X168196397Y-130116292D01*
X168263329Y-130241514D01*
X168507298Y-130313097D01*
X169320395Y-129500000D01*
X169679605Y-129500000D01*
X170492702Y-130313097D01*
X170736671Y-130241514D01*
X170857571Y-129986004D01*
X170926300Y-129711816D01*
X170940217Y-129429488D01*
X170898787Y-129149870D01*
X170803603Y-128883708D01*
X170736671Y-128758486D01*
X170492702Y-128686903D01*
X169679605Y-129500000D01*
X169320395Y-129500000D01*
X168507298Y-128686903D01*
X168263329Y-128758486D01*
X168142429Y-129013996D01*
X168073700Y-129288184D01*
X168059783Y-129570512D01*
X163133713Y-129570512D01*
X163141718Y-129437405D01*
X163097961Y-129118325D01*
X162992795Y-128813912D01*
X162899814Y-128639956D01*
X162635413Y-128544192D01*
X161679605Y-129500000D01*
X161320395Y-129500000D01*
X160364587Y-128544192D01*
X160100186Y-128639956D01*
X159959296Y-128929571D01*
X159877616Y-129241108D01*
X159858282Y-129562595D01*
X150634189Y-129562595D01*
X150641718Y-129437405D01*
X150597961Y-129118325D01*
X150492795Y-128813912D01*
X150399814Y-128639956D01*
X150135413Y-128544192D01*
X149179605Y-129500000D01*
X148820395Y-129500000D01*
X147864587Y-128544192D01*
X147600186Y-128639956D01*
X147459296Y-128929571D01*
X147377616Y-129241108D01*
X147358282Y-129562595D01*
X137634189Y-129562595D01*
X137641718Y-129437405D01*
X137597961Y-129118325D01*
X137492795Y-128813912D01*
X137399814Y-128639956D01*
X137135413Y-128544192D01*
X136179605Y-129500000D01*
X135820395Y-129500000D01*
X134864587Y-128544192D01*
X134600186Y-128639956D01*
X134459296Y-128929571D01*
X134377616Y-129241108D01*
X134358282Y-129562595D01*
X129866090Y-129562595D01*
X131064098Y-128364587D01*
X135044192Y-128364587D01*
X136000000Y-129320395D01*
X136955808Y-128364587D01*
X148044192Y-128364587D01*
X149000000Y-129320395D01*
X149955808Y-128364587D01*
X160544192Y-128364587D01*
X161500000Y-129320395D01*
X162313097Y-128507298D01*
X168686903Y-128507298D01*
X169500000Y-129320395D01*
X170313097Y-128507298D01*
X170241514Y-128263329D01*
X169986004Y-128142429D01*
X169711816Y-128073700D01*
X169429488Y-128059783D01*
X169149870Y-128101213D01*
X168883708Y-128196397D01*
X168758486Y-128263329D01*
X168686903Y-128507298D01*
X162313097Y-128507298D01*
X162455808Y-128364587D01*
X162360044Y-128100186D01*
X162070429Y-127959296D01*
X161758892Y-127877616D01*
X161437405Y-127858282D01*
X161118325Y-127902039D01*
X160813912Y-128007205D01*
X160639956Y-128100186D01*
X160544192Y-128364587D01*
X149955808Y-128364587D01*
X149860044Y-128100186D01*
X149570429Y-127959296D01*
X149258892Y-127877616D01*
X148937405Y-127858282D01*
X148618325Y-127902039D01*
X148313912Y-128007205D01*
X148139956Y-128100186D01*
X148044192Y-128364587D01*
X136955808Y-128364587D01*
X136860044Y-128100186D01*
X136570429Y-127959296D01*
X136258892Y-127877616D01*
X135937405Y-127858282D01*
X135618325Y-127902039D01*
X135313912Y-128007205D01*
X135139956Y-128100186D01*
X135044192Y-128364587D01*
X131064098Y-128364587D01*
X133003686Y-126425000D01*
X145631971Y-126425000D01*
X145700000Y-126431700D01*
X145768029Y-126425000D01*
X145768037Y-126425000D01*
X145971507Y-126404960D01*
X146232581Y-126325764D01*
X146473188Y-126197157D01*
X146684081Y-126024081D01*
X146727454Y-125971231D01*
X149827456Y-122871229D01*
X155365000Y-122871229D01*
X155365000Y-123488771D01*
X155485476Y-124094446D01*
X155721799Y-124664979D01*
X156064886Y-125178446D01*
X156501554Y-125615114D01*
X157015021Y-125958201D01*
X157585554Y-126194524D01*
X158191229Y-126315000D01*
X158808771Y-126315000D01*
X159414446Y-126194524D01*
X159984979Y-125958201D01*
X160498446Y-125615114D01*
X160935114Y-125178446D01*
X161278201Y-124664979D01*
X161514524Y-124094446D01*
X161635000Y-123488771D01*
X161635000Y-122871229D01*
X161514524Y-122265554D01*
X161278201Y-121695021D01*
X160935114Y-121181554D01*
X160498446Y-120744886D01*
X159984979Y-120401799D01*
X159414446Y-120165476D01*
X158808771Y-120045000D01*
X158191229Y-120045000D01*
X157585554Y-120165476D01*
X157015021Y-120401799D01*
X156501554Y-120744886D01*
X156064886Y-121181554D01*
X155721799Y-121695021D01*
X155485476Y-122265554D01*
X155365000Y-122871229D01*
X149827456Y-122871229D01*
X150581241Y-122117445D01*
X150634080Y-122074081D01*
X150677445Y-122021241D01*
X150677452Y-122021234D01*
X150807157Y-121863188D01*
X150935764Y-121622581D01*
X151014960Y-121361507D01*
X151026059Y-121248815D01*
X151035000Y-121158037D01*
X151035000Y-121158029D01*
X151041700Y-121090000D01*
X151035000Y-121021971D01*
X151035000Y-112775988D01*
X151083468Y-112835046D01*
X151083471Y-112835049D01*
X151111184Y-112868817D01*
X151144951Y-112896529D01*
X153204954Y-114956533D01*
X153204959Y-114956537D01*
X153231811Y-114983389D01*
X153165000Y-115319268D01*
X153165000Y-115680732D01*
X153235518Y-116035250D01*
X153373844Y-116369199D01*
X153574662Y-116669744D01*
X153830256Y-116925338D01*
X154130801Y-117126156D01*
X154464750Y-117264482D01*
X154819268Y-117335000D01*
X155180732Y-117335000D01*
X155535250Y-117264482D01*
X155869199Y-117126156D01*
X156169744Y-116925338D01*
X156425338Y-116669744D01*
X156615598Y-116385000D01*
X160733422Y-116385000D01*
X171955000Y-127606579D01*
X171955000Y-127841335D01*
X172010147Y-128118574D01*
X172118320Y-128379727D01*
X172275363Y-128614759D01*
X172475241Y-128814637D01*
X172710273Y-128971680D01*
X172971426Y-129079853D01*
X173248665Y-129135000D01*
X173531335Y-129135000D01*
X173808574Y-129079853D01*
X174069727Y-128971680D01*
X174304759Y-128814637D01*
X174426694Y-128692702D01*
X177576903Y-128692702D01*
X177648486Y-128936671D01*
X177903996Y-129057571D01*
X178178184Y-129126300D01*
X178460512Y-129140217D01*
X178740130Y-129098787D01*
X179006292Y-129003603D01*
X179131514Y-128936671D01*
X179203097Y-128692702D01*
X178390000Y-127879605D01*
X177576903Y-128692702D01*
X174426694Y-128692702D01*
X174504637Y-128614759D01*
X174661680Y-128379727D01*
X174769853Y-128118574D01*
X174825000Y-127841335D01*
X174825000Y-127770512D01*
X176949783Y-127770512D01*
X176991213Y-128050130D01*
X177086397Y-128316292D01*
X177153329Y-128441514D01*
X177397298Y-128513097D01*
X178210395Y-127700000D01*
X178569605Y-127700000D01*
X179382702Y-128513097D01*
X179626671Y-128441514D01*
X179747571Y-128186004D01*
X179816300Y-127911816D01*
X179830217Y-127629488D01*
X179788787Y-127349870D01*
X179693603Y-127083708D01*
X179626671Y-126958486D01*
X179382702Y-126886903D01*
X178569605Y-127700000D01*
X178210395Y-127700000D01*
X177397298Y-126886903D01*
X177153329Y-126958486D01*
X177032429Y-127213996D01*
X176963700Y-127488184D01*
X176949783Y-127770512D01*
X174825000Y-127770512D01*
X174825000Y-127558665D01*
X174769853Y-127281426D01*
X174661680Y-127020273D01*
X174504637Y-126785241D01*
X174426694Y-126707298D01*
X177576903Y-126707298D01*
X178390000Y-127520395D01*
X179203097Y-126707298D01*
X179131514Y-126463329D01*
X178876004Y-126342429D01*
X178601816Y-126273700D01*
X178319488Y-126259783D01*
X178039870Y-126301213D01*
X177773708Y-126396397D01*
X177648486Y-126463329D01*
X177576903Y-126707298D01*
X174426694Y-126707298D01*
X174304759Y-126585363D01*
X174069727Y-126428320D01*
X173808574Y-126320147D01*
X173531335Y-126265000D01*
X173248665Y-126265000D01*
X173138494Y-126286915D01*
X161756534Y-114904956D01*
X161728817Y-114871183D01*
X161594059Y-114760589D01*
X161440313Y-114678411D01*
X161273490Y-114627805D01*
X161143477Y-114615000D01*
X161143469Y-114615000D01*
X161100000Y-114610719D01*
X161056531Y-114615000D01*
X156615598Y-114615000D01*
X156425338Y-114330256D01*
X156169744Y-114074662D01*
X155869199Y-113873844D01*
X155535250Y-113735518D01*
X155180732Y-113665000D01*
X154819268Y-113665000D01*
X154483389Y-113731811D01*
X154456537Y-113704959D01*
X154456533Y-113704954D01*
X152625000Y-111873422D01*
X152625000Y-109645000D01*
X155716928Y-109645000D01*
X155729188Y-109769482D01*
X155765498Y-109889180D01*
X155824463Y-109999494D01*
X155903815Y-110096185D01*
X156000506Y-110175537D01*
X156110820Y-110234502D01*
X156230518Y-110270812D01*
X156355000Y-110283072D01*
X156714250Y-110280000D01*
X156873000Y-110121250D01*
X156873000Y-109127000D01*
X157127000Y-109127000D01*
X157127000Y-110121250D01*
X157285750Y-110280000D01*
X157645000Y-110283072D01*
X157769482Y-110270812D01*
X157889180Y-110234502D01*
X157999494Y-110175537D01*
X158096185Y-110096185D01*
X158175537Y-109999494D01*
X158234502Y-109889180D01*
X158270812Y-109769482D01*
X158283072Y-109645000D01*
X158280000Y-109285750D01*
X158121250Y-109127000D01*
X157127000Y-109127000D01*
X156873000Y-109127000D01*
X155878750Y-109127000D01*
X155720000Y-109285750D01*
X155716928Y-109645000D01*
X152625000Y-109645000D01*
X152625000Y-109226401D01*
X152824702Y-109274192D01*
X153076652Y-109283907D01*
X153325658Y-109244283D01*
X153562148Y-109156842D01*
X153649566Y-109110116D01*
X153702346Y-108881951D01*
X153000000Y-108179605D01*
X152985858Y-108193748D01*
X152806253Y-108014143D01*
X152820395Y-108000000D01*
X153179605Y-108000000D01*
X153881951Y-108702346D01*
X154110116Y-108649566D01*
X154215509Y-108420512D01*
X154274192Y-108175298D01*
X154283907Y-107923348D01*
X154244283Y-107674342D01*
X154156842Y-107437852D01*
X154110116Y-107350434D01*
X153881951Y-107297654D01*
X153179605Y-108000000D01*
X152820395Y-108000000D01*
X152806253Y-107985858D01*
X152985858Y-107806253D01*
X153000000Y-107820395D01*
X153702346Y-107118049D01*
X153692749Y-107076562D01*
X153815952Y-106994241D01*
X153994241Y-106815952D01*
X154134321Y-106606307D01*
X154230810Y-106373362D01*
X154280000Y-106126069D01*
X154280000Y-105873931D01*
X154230810Y-105626638D01*
X154134321Y-105393693D01*
X153994241Y-105184048D01*
X153879830Y-105069637D01*
X153984081Y-104984081D01*
X154157157Y-104773188D01*
X154285764Y-104532581D01*
X154364960Y-104271507D01*
X154391701Y-104000000D01*
X154364960Y-103728493D01*
X154285764Y-103467419D01*
X154157157Y-103226812D01*
X153984081Y-103015919D01*
X153773188Y-102842843D01*
X153536985Y-102716590D01*
X153000000Y-102179605D01*
X152985858Y-102193748D01*
X152806253Y-102014143D01*
X152820395Y-102000000D01*
X153179605Y-102000000D01*
X153881951Y-102702346D01*
X154110116Y-102649566D01*
X154215509Y-102420512D01*
X154274192Y-102175298D01*
X154283907Y-101923348D01*
X154244283Y-101674342D01*
X154156842Y-101437852D01*
X154110116Y-101350434D01*
X153881951Y-101297654D01*
X153179605Y-102000000D01*
X152820395Y-102000000D01*
X152118049Y-101297654D01*
X151889884Y-101350434D01*
X151784491Y-101579488D01*
X151725808Y-101824702D01*
X151716093Y-102076652D01*
X151755717Y-102325658D01*
X151843158Y-102562148D01*
X151871408Y-102615000D01*
X151818026Y-102615000D01*
X151749999Y-102608300D01*
X151681972Y-102615000D01*
X151681963Y-102615000D01*
X151478493Y-102635040D01*
X151217419Y-102714236D01*
X150976812Y-102842843D01*
X150765919Y-103015919D01*
X150722546Y-103068769D01*
X148718765Y-105072550D01*
X148665920Y-105115919D01*
X148622551Y-105168764D01*
X148622548Y-105168767D01*
X148492844Y-105326812D01*
X148364236Y-105567420D01*
X148285040Y-105828493D01*
X148258300Y-106100000D01*
X148265001Y-106168039D01*
X148265000Y-120516314D01*
X145126315Y-123655000D01*
X132498029Y-123655000D01*
X132430000Y-123648300D01*
X132361971Y-123655000D01*
X132361963Y-123655000D01*
X132181892Y-123672735D01*
X132158492Y-123675040D01*
X131966805Y-123733188D01*
X131897419Y-123754236D01*
X131656812Y-123882843D01*
X131582194Y-123944081D01*
X131498766Y-124012548D01*
X131498764Y-124012550D01*
X131445919Y-124055919D01*
X131402550Y-124108764D01*
X122649387Y-132861928D01*
X122000000Y-132861928D01*
X121875518Y-132874188D01*
X121755820Y-132910498D01*
X121645506Y-132969463D01*
X121548815Y-133048815D01*
X121469463Y-133145506D01*
X121410498Y-133255820D01*
X121374188Y-133375518D01*
X121361928Y-133500000D01*
X121361928Y-135500000D01*
X121374188Y-135624482D01*
X121410498Y-135744180D01*
X121469463Y-135854494D01*
X121548815Y-135951185D01*
X121645506Y-136030537D01*
X121755820Y-136089502D01*
X121875518Y-136125812D01*
X122000000Y-136138072D01*
X124000000Y-136138072D01*
X124124482Y-136125812D01*
X124244180Y-136089502D01*
X124354494Y-136030537D01*
X124451185Y-135951185D01*
X124505501Y-135885000D01*
X134494499Y-135885000D01*
X134548815Y-135951185D01*
X134645506Y-136030537D01*
X134755820Y-136089502D01*
X134875518Y-136125812D01*
X135000000Y-136138072D01*
X137000000Y-136138072D01*
X137124482Y-136125812D01*
X137244180Y-136089502D01*
X137354494Y-136030537D01*
X137451185Y-135951185D01*
X137505501Y-135885000D01*
X147494499Y-135885000D01*
X147548815Y-135951185D01*
X147645506Y-136030537D01*
X147755820Y-136089502D01*
X147875518Y-136125812D01*
X148000000Y-136138072D01*
X150000000Y-136138072D01*
X150124482Y-136125812D01*
X150244180Y-136089502D01*
X150354494Y-136030537D01*
X150451185Y-135951185D01*
X150505501Y-135885000D01*
X159994499Y-135885000D01*
X160048815Y-135951185D01*
X160145506Y-136030537D01*
X160255820Y-136089502D01*
X160375518Y-136125812D01*
X160500000Y-136138072D01*
X162500000Y-136138072D01*
X162624482Y-136125812D01*
X162744180Y-136089502D01*
X162854494Y-136030537D01*
X162951185Y-135951185D01*
X163005501Y-135885000D01*
X169107301Y-135885000D01*
X169358665Y-135935000D01*
X169641335Y-135935000D01*
X169892699Y-135885000D01*
X177891971Y-135885000D01*
X177960000Y-135891700D01*
X178028029Y-135885000D01*
X178028037Y-135885000D01*
X178231507Y-135864960D01*
X178492581Y-135785764D01*
X178651386Y-135700881D01*
X184978724Y-135700881D01*
X185338912Y-136190548D01*
X186002882Y-136550849D01*
X186724385Y-136774694D01*
X187475695Y-136853480D01*
X188227938Y-136784178D01*
X188952208Y-136569452D01*
X189620670Y-136217555D01*
X189661088Y-136190548D01*
X190021276Y-135700881D01*
X187500000Y-133179605D01*
X184978724Y-135700881D01*
X178651386Y-135700881D01*
X178733188Y-135657157D01*
X178944081Y-135484081D01*
X178987454Y-135431231D01*
X181442990Y-132975695D01*
X183646520Y-132975695D01*
X183715822Y-133727938D01*
X183930548Y-134452208D01*
X184282445Y-135120670D01*
X184309452Y-135161088D01*
X184799119Y-135521276D01*
X187320395Y-133000000D01*
X187679605Y-133000000D01*
X190200881Y-135521276D01*
X190690548Y-135161088D01*
X191050849Y-134497118D01*
X191274694Y-133775615D01*
X191353480Y-133024305D01*
X191284178Y-132272062D01*
X191069452Y-131547792D01*
X190717555Y-130879330D01*
X190690548Y-130838912D01*
X190200881Y-130478724D01*
X187679605Y-133000000D01*
X187320395Y-133000000D01*
X184799119Y-130478724D01*
X184309452Y-130838912D01*
X183949151Y-131502882D01*
X183725306Y-132224385D01*
X183646520Y-132975695D01*
X181442990Y-132975695D01*
X184119566Y-130299119D01*
X184978724Y-130299119D01*
X187500000Y-132820395D01*
X190021276Y-130299119D01*
X189661088Y-129809452D01*
X188997118Y-129449151D01*
X188275615Y-129225306D01*
X187524305Y-129146520D01*
X186772062Y-129215822D01*
X186047792Y-129430548D01*
X185379330Y-129782445D01*
X185338912Y-129809452D01*
X184978724Y-130299119D01*
X184119566Y-130299119D01*
X190431236Y-123987450D01*
X190484081Y-123944081D01*
X190577265Y-123830537D01*
X190657157Y-123733188D01*
X190785764Y-123492581D01*
X190864960Y-123231507D01*
X190891701Y-122960000D01*
X190885000Y-122891963D01*
X190885000Y-74568026D01*
X190891700Y-74499999D01*
X190885000Y-74431972D01*
X190885000Y-74431963D01*
X190864960Y-74228493D01*
X190785764Y-73967419D01*
X190657157Y-73726812D01*
X190614215Y-73674487D01*
X190527452Y-73568766D01*
X190527445Y-73568759D01*
X190484080Y-73515919D01*
X190431241Y-73472555D01*
X181659567Y-64700881D01*
X184978724Y-64700881D01*
X185338912Y-65190548D01*
X186002882Y-65550849D01*
X186724385Y-65774694D01*
X187475695Y-65853480D01*
X188227938Y-65784178D01*
X188952208Y-65569452D01*
X189620670Y-65217555D01*
X189661088Y-65190548D01*
X190021276Y-64700881D01*
X187500000Y-62179605D01*
X184978724Y-64700881D01*
X181659567Y-64700881D01*
X181067454Y-64108769D01*
X181024081Y-64055919D01*
X180813188Y-63882843D01*
X180572581Y-63754236D01*
X180311507Y-63675040D01*
X180108037Y-63655000D01*
X180108029Y-63655000D01*
X180040000Y-63648300D01*
X179971971Y-63655000D01*
X177906993Y-63655000D01*
X177939502Y-63594180D01*
X177975812Y-63474482D01*
X177988072Y-63350000D01*
X177985000Y-62785750D01*
X177826250Y-62627000D01*
X176627000Y-62627000D01*
X176627000Y-62647000D01*
X176373000Y-62647000D01*
X176373000Y-62627000D01*
X175173750Y-62627000D01*
X175015000Y-62785750D01*
X175011928Y-63350000D01*
X175024188Y-63474482D01*
X175060498Y-63594180D01*
X175093007Y-63655000D01*
X173833686Y-63655000D01*
X171828686Y-61650000D01*
X175011928Y-61650000D01*
X175015000Y-62214250D01*
X175173750Y-62373000D01*
X176373000Y-62373000D01*
X176373000Y-61173750D01*
X176627000Y-61173750D01*
X176627000Y-62373000D01*
X177826250Y-62373000D01*
X177985000Y-62214250D01*
X177986298Y-61975695D01*
X183646520Y-61975695D01*
X183715822Y-62727938D01*
X183930548Y-63452208D01*
X184282445Y-64120670D01*
X184309452Y-64161088D01*
X184799119Y-64521276D01*
X187320395Y-62000000D01*
X187679605Y-62000000D01*
X190200881Y-64521276D01*
X190690548Y-64161088D01*
X191050849Y-63497118D01*
X191274694Y-62775615D01*
X191353480Y-62024305D01*
X191284178Y-61272062D01*
X191069452Y-60547792D01*
X190717555Y-59879330D01*
X190690548Y-59838912D01*
X190200881Y-59478724D01*
X187679605Y-62000000D01*
X187320395Y-62000000D01*
X184799119Y-59478724D01*
X184309452Y-59838912D01*
X183949151Y-60502882D01*
X183725306Y-61224385D01*
X183646520Y-61975695D01*
X177986298Y-61975695D01*
X177988072Y-61650000D01*
X177975812Y-61525518D01*
X177939502Y-61405820D01*
X177880537Y-61295506D01*
X177801185Y-61198815D01*
X177704494Y-61119463D01*
X177594180Y-61060498D01*
X177474482Y-61024188D01*
X177350000Y-61011928D01*
X176785750Y-61015000D01*
X176627000Y-61173750D01*
X176373000Y-61173750D01*
X176214250Y-61015000D01*
X175650000Y-61011928D01*
X175525518Y-61024188D01*
X175405820Y-61060498D01*
X175295506Y-61119463D01*
X175198815Y-61198815D01*
X175119463Y-61295506D01*
X175060498Y-61405820D01*
X175024188Y-61525518D01*
X175011928Y-61650000D01*
X171828686Y-61650000D01*
X169477805Y-59299119D01*
X184978724Y-59299119D01*
X187500000Y-61820395D01*
X190021276Y-59299119D01*
X189661088Y-58809452D01*
X188997118Y-58449151D01*
X188275615Y-58225306D01*
X187524305Y-58146520D01*
X186772062Y-58215822D01*
X186047792Y-58430548D01*
X185379330Y-58782445D01*
X185338912Y-58809452D01*
X184978724Y-59299119D01*
X169477805Y-59299119D01*
X169247454Y-59068769D01*
X169204081Y-59015919D01*
X168993188Y-58842843D01*
X168752581Y-58714236D01*
X168491507Y-58635040D01*
X168288037Y-58615000D01*
X168288029Y-58615000D01*
X168220000Y-58608300D01*
X168151971Y-58615000D01*
X163005501Y-58615000D01*
X162951185Y-58548815D01*
X162854494Y-58469463D01*
X162744180Y-58410498D01*
X162624482Y-58374188D01*
X162500000Y-58361928D01*
X160500000Y-58361928D01*
X160375518Y-58374188D01*
X160255820Y-58410498D01*
X160145506Y-58469463D01*
X160048815Y-58548815D01*
X159994499Y-58615000D01*
X150505501Y-58615000D01*
X150451185Y-58548815D01*
X150354494Y-58469463D01*
X150244180Y-58410498D01*
X150124482Y-58374188D01*
X150000000Y-58361928D01*
X148000000Y-58361928D01*
X147875518Y-58374188D01*
X147755820Y-58410498D01*
X147645506Y-58469463D01*
X147548815Y-58548815D01*
X147494499Y-58615000D01*
X137505501Y-58615000D01*
X137451185Y-58548815D01*
X137354494Y-58469463D01*
X137244180Y-58410498D01*
X137124482Y-58374188D01*
X137000000Y-58361928D01*
X135000000Y-58361928D01*
X134875518Y-58374188D01*
X134755820Y-58410498D01*
X134645506Y-58469463D01*
X134548815Y-58548815D01*
X134494499Y-58615000D01*
X124505501Y-58615000D01*
X124451185Y-58548815D01*
X124354494Y-58469463D01*
X124244180Y-58410498D01*
X124124482Y-58374188D01*
X124000000Y-58361928D01*
X122000000Y-58361928D01*
X121875518Y-58374188D01*
X121755820Y-58410498D01*
X121645506Y-58469463D01*
X121548815Y-58548815D01*
X121494499Y-58615000D01*
X120568028Y-58615000D01*
X120499999Y-58608300D01*
X120431970Y-58615000D01*
X120431963Y-58615000D01*
X120254099Y-58632518D01*
X120228492Y-58635040D01*
X120095002Y-58675534D01*
X119967419Y-58714236D01*
X119726812Y-58842843D01*
X119695740Y-58868343D01*
X119568766Y-58972548D01*
X119568764Y-58972550D01*
X119515919Y-59015919D01*
X119472550Y-59068764D01*
X115068765Y-63472550D01*
X115015919Y-63515920D01*
X114842843Y-63726813D01*
X114714237Y-63967419D01*
X114714236Y-63967420D01*
X114651730Y-64173476D01*
X114635040Y-64228494D01*
X114615000Y-64431964D01*
X114615000Y-64431971D01*
X114608300Y-64500000D01*
X114615000Y-64568029D01*
X114615001Y-77931961D01*
X114608300Y-78000000D01*
X114635040Y-78271507D01*
X114714236Y-78532580D01*
X114842844Y-78773188D01*
X114972548Y-78931233D01*
X114972551Y-78931236D01*
X115015920Y-78984081D01*
X115068764Y-79027449D01*
X118972550Y-82931236D01*
X119015919Y-82984081D01*
X119068764Y-83027450D01*
X119068766Y-83027452D01*
X119126292Y-83074662D01*
X119161928Y-83103908D01*
X119161928Y-83200000D01*
X119174188Y-83324482D01*
X119210498Y-83444180D01*
X119269463Y-83554494D01*
X119348815Y-83651185D01*
X119445506Y-83730537D01*
X119555820Y-83789502D01*
X119675518Y-83825812D01*
X119800000Y-83838072D01*
X122200000Y-83838072D01*
X122324482Y-83825812D01*
X122444180Y-83789502D01*
X122554494Y-83730537D01*
X122651185Y-83651185D01*
X122730537Y-83554494D01*
X122789502Y-83444180D01*
X122825812Y-83324482D01*
X122838072Y-83200000D01*
X122838072Y-82935000D01*
X124051447Y-82935000D01*
X124074662Y-82969744D01*
X124330256Y-83225338D01*
X124630801Y-83426156D01*
X124964750Y-83564482D01*
X125319268Y-83635000D01*
X125680732Y-83635000D01*
X126035250Y-83564482D01*
X126369199Y-83426156D01*
X126669744Y-83225338D01*
X126860082Y-83035000D01*
X132288447Y-83035000D01*
X139523446Y-90270000D01*
X129007332Y-90270001D01*
X128969999Y-90266324D01*
X128821013Y-90280998D01*
X128677753Y-90324454D01*
X128545723Y-90395026D01*
X128458997Y-90466201D01*
X128458992Y-90466206D01*
X128429999Y-90490000D01*
X128406205Y-90518993D01*
X126144449Y-92780750D01*
X126035250Y-92735518D01*
X125680732Y-92665000D01*
X125319268Y-92665000D01*
X124964750Y-92735518D01*
X124630801Y-92873844D01*
X124505000Y-92957902D01*
X124505000Y-92329835D01*
X124510007Y-92279000D01*
X124500655Y-92184048D01*
X124490024Y-92076105D01*
X124430841Y-91881007D01*
X124353090Y-91735544D01*
X124334734Y-91701202D01*
X124237803Y-91583092D01*
X124205396Y-91543604D01*
X124165908Y-91511197D01*
X109147808Y-76493098D01*
X109147803Y-76493092D01*
X104885318Y-72230608D01*
X104942600Y-71942633D01*
X104942600Y-71547367D01*
X104865487Y-71159696D01*
X104714226Y-70794519D01*
X104494628Y-70465867D01*
X104215133Y-70186372D01*
X103886481Y-69966774D01*
X103521304Y-69815513D01*
X103133633Y-69738400D01*
X102738367Y-69738400D01*
X102350696Y-69815513D01*
X101985519Y-69966774D01*
X101656867Y-70186372D01*
X101377372Y-70465867D01*
X101157774Y-70794519D01*
X101006513Y-71159696D01*
X100929400Y-71547367D01*
X100660000Y-71547367D01*
X100660000Y-64700881D01*
X102478724Y-64700881D01*
X102838912Y-65190548D01*
X103502882Y-65550849D01*
X104224385Y-65774694D01*
X104975695Y-65853480D01*
X105727938Y-65784178D01*
X106452208Y-65569452D01*
X107120670Y-65217555D01*
X107161088Y-65190548D01*
X107521276Y-64700881D01*
X105000000Y-62179605D01*
X102478724Y-64700881D01*
X100660000Y-64700881D01*
X100660000Y-61975695D01*
X101146520Y-61975695D01*
X101215822Y-62727938D01*
X101430548Y-63452208D01*
X101782445Y-64120670D01*
X101809452Y-64161088D01*
X102299119Y-64521276D01*
X104820395Y-62000000D01*
X105179605Y-62000000D01*
X107700881Y-64521276D01*
X108190548Y-64161088D01*
X108550849Y-63497118D01*
X108774694Y-62775615D01*
X108853480Y-62024305D01*
X108784178Y-61272062D01*
X108569452Y-60547792D01*
X108217555Y-59879330D01*
X108190548Y-59838912D01*
X107700881Y-59478724D01*
X105179605Y-62000000D01*
X104820395Y-62000000D01*
X102299119Y-59478724D01*
X101809452Y-59838912D01*
X101449151Y-60502882D01*
X101225306Y-61224385D01*
X101146520Y-61975695D01*
X100660000Y-61975695D01*
X100660000Y-59299119D01*
X102478724Y-59299119D01*
X105000000Y-61820395D01*
X107521276Y-59299119D01*
X107161088Y-58809452D01*
X106497118Y-58449151D01*
X105775615Y-58225306D01*
X105024305Y-58146520D01*
X104272062Y-58215822D01*
X103547792Y-58430548D01*
X102879330Y-58782445D01*
X102838912Y-58809452D01*
X102478724Y-59299119D01*
X100660000Y-59299119D01*
X100660000Y-59032279D01*
X100688625Y-58740341D01*
X100764035Y-58490571D01*
X100886522Y-58260208D01*
X101051422Y-58058020D01*
X101252450Y-57891714D01*
X101481954Y-57767622D01*
X101731195Y-57690469D01*
X102021088Y-57660000D01*
X190467721Y-57660000D01*
X190759659Y-57688625D01*
G37*
X190759659Y-57688625D02*
X191009429Y-57764035D01*
X191239792Y-57886522D01*
X191441980Y-58051422D01*
X191608286Y-58252450D01*
X191732378Y-58481954D01*
X191809531Y-58731195D01*
X191840000Y-59021088D01*
X191840001Y-134967711D01*
X191792330Y-135453894D01*
X191660512Y-135890497D01*
X191446399Y-136293186D01*
X191158150Y-136646613D01*
X190806739Y-136937327D01*
X190405564Y-137154240D01*
X189969886Y-137289106D01*
X189485664Y-137340000D01*
X102532279Y-137340000D01*
X102143224Y-137301853D01*
X101800036Y-137198238D01*
X101483511Y-137029939D01*
X101205704Y-136803365D01*
X100977195Y-136527146D01*
X100806690Y-136211803D01*
X100725921Y-135950881D01*
X102728724Y-135950881D01*
X103088912Y-136440548D01*
X103752882Y-136800849D01*
X104474385Y-137024694D01*
X105225695Y-137103480D01*
X105977938Y-137034178D01*
X106702208Y-136819452D01*
X107370670Y-136467555D01*
X107411088Y-136440548D01*
X107771276Y-135950881D01*
X105250000Y-133429605D01*
X102728724Y-135950881D01*
X100725921Y-135950881D01*
X100700681Y-135869344D01*
X100660000Y-135482288D01*
X100660000Y-133225695D01*
X101396520Y-133225695D01*
X101465822Y-133977938D01*
X101680548Y-134702208D01*
X102032445Y-135370670D01*
X102059452Y-135411088D01*
X102549119Y-135771276D01*
X105070395Y-133250000D01*
X105429605Y-133250000D01*
X107950881Y-135771276D01*
X108440548Y-135411088D01*
X108800849Y-134747118D01*
X109024694Y-134025615D01*
X109103480Y-133274305D01*
X109034178Y-132522062D01*
X108819452Y-131797792D01*
X108467555Y-131129330D01*
X108440548Y-131088912D01*
X107950881Y-130728724D01*
X105429605Y-133250000D01*
X105070395Y-133250000D01*
X102549119Y-130728724D01*
X102059452Y-131088912D01*
X101699151Y-131752882D01*
X101475306Y-132474385D01*
X101396520Y-133225695D01*
X100660000Y-133225695D01*
X100660000Y-130549119D01*
X102728724Y-130549119D01*
X105250000Y-133070395D01*
X107684982Y-130635413D01*
X122044192Y-130635413D01*
X122139956Y-130899814D01*
X122429571Y-131040704D01*
X122741108Y-131122384D01*
X123062595Y-131141718D01*
X123381675Y-131097961D01*
X123686088Y-130992795D01*
X123860044Y-130899814D01*
X123955808Y-130635413D01*
X123000000Y-129679605D01*
X122044192Y-130635413D01*
X107684982Y-130635413D01*
X107771276Y-130549119D01*
X107411088Y-130059452D01*
X106747118Y-129699151D01*
X106306968Y-129562595D01*
X121358282Y-129562595D01*
X121402039Y-129881675D01*
X121507205Y-130186088D01*
X121600186Y-130360044D01*
X121864587Y-130455808D01*
X122820395Y-129500000D01*
X123179605Y-129500000D01*
X124135413Y-130455808D01*
X124399814Y-130360044D01*
X124540704Y-130070429D01*
X124622384Y-129758892D01*
X124641718Y-129437405D01*
X124597961Y-129118325D01*
X124492795Y-128813912D01*
X124399814Y-128639956D01*
X124135413Y-128544192D01*
X123179605Y-129500000D01*
X122820395Y-129500000D01*
X121864587Y-128544192D01*
X121600186Y-128639956D01*
X121459296Y-128929571D01*
X121377616Y-129241108D01*
X121358282Y-129562595D01*
X106306968Y-129562595D01*
X106025615Y-129475306D01*
X105274305Y-129396520D01*
X104522062Y-129465822D01*
X103797792Y-129680548D01*
X103129330Y-130032445D01*
X103088912Y-130059452D01*
X102728724Y-130549119D01*
X100660000Y-130549119D01*
X100660000Y-128364587D01*
X122044192Y-128364587D01*
X123000000Y-129320395D01*
X123955808Y-128364587D01*
X123860044Y-128100186D01*
X123570429Y-127959296D01*
X123258892Y-127877616D01*
X122937405Y-127858282D01*
X122618325Y-127902039D01*
X122313912Y-128007205D01*
X122139956Y-128100186D01*
X122044192Y-128364587D01*
X100660000Y-128364587D01*
X100660000Y-125150000D01*
X102755880Y-125150000D01*
X102792275Y-125519524D01*
X102900061Y-125874848D01*
X103075097Y-126202317D01*
X103310655Y-126489345D01*
X103597683Y-126724903D01*
X103925152Y-126899939D01*
X104280476Y-127007725D01*
X104557403Y-127035000D01*
X106442597Y-127035000D01*
X106719524Y-127007725D01*
X107074848Y-126899939D01*
X107402317Y-126724903D01*
X107689345Y-126489345D01*
X107924903Y-126202317D01*
X108099939Y-125874848D01*
X108207725Y-125519524D01*
X108244120Y-125150000D01*
X108207725Y-124780476D01*
X108099939Y-124425152D01*
X107924903Y-124097683D01*
X107689345Y-123810655D01*
X107402317Y-123575097D01*
X107074848Y-123400061D01*
X106719524Y-123292275D01*
X106442597Y-123265000D01*
X104557403Y-123265000D01*
X104280476Y-123292275D01*
X103925152Y-123400061D01*
X103597683Y-123575097D01*
X103310655Y-123810655D01*
X103075097Y-124097683D01*
X102900061Y-124425152D01*
X102792275Y-124780476D01*
X102755880Y-125150000D01*
X100660000Y-125150000D01*
X100660000Y-122203148D01*
X103376457Y-122203148D01*
X103652627Y-122621118D01*
X104197557Y-122911649D01*
X104788696Y-123090287D01*
X105403328Y-123150168D01*
X106017831Y-123088990D01*
X106608592Y-122909103D01*
X107147373Y-122621118D01*
X107423543Y-122203148D01*
X105400000Y-120179605D01*
X103376457Y-122203148D01*
X100660000Y-122203148D01*
X100660000Y-120003328D01*
X102249832Y-120003328D01*
X102311010Y-120617831D01*
X102490897Y-121208592D01*
X102778882Y-121747373D01*
X103196852Y-122023543D01*
X105220395Y-120000000D01*
X105579605Y-120000000D01*
X107603148Y-122023543D01*
X108021118Y-121747373D01*
X108311649Y-121202443D01*
X108490287Y-120611304D01*
X108550168Y-119996672D01*
X108488990Y-119382169D01*
X108309103Y-118791408D01*
X108021118Y-118252627D01*
X107603148Y-117976457D01*
X105579605Y-120000000D01*
X105220395Y-120000000D01*
X103196852Y-117976457D01*
X102778882Y-118252627D01*
X102488351Y-118797557D01*
X102309713Y-119388696D01*
X102249832Y-120003328D01*
X100660000Y-120003328D01*
X100660000Y-117796852D01*
X103376457Y-117796852D01*
X105400000Y-119820395D01*
X107423543Y-117796852D01*
X107147373Y-117378882D01*
X106602443Y-117088351D01*
X106011304Y-116909713D01*
X105396672Y-116849832D01*
X104782169Y-116911010D01*
X104191408Y-117090897D01*
X103652627Y-117378882D01*
X103376457Y-117796852D01*
X100660000Y-117796852D01*
X100660000Y-109789721D01*
X108115000Y-109789721D01*
X108115000Y-110210279D01*
X108197047Y-110622756D01*
X108357988Y-111011302D01*
X108591637Y-111360983D01*
X108889017Y-111658363D01*
X109238698Y-111892012D01*
X109627244Y-112052953D01*
X110039721Y-112135000D01*
X110460279Y-112135000D01*
X110872756Y-112052953D01*
X111261302Y-111892012D01*
X111610983Y-111658363D01*
X111908363Y-111360983D01*
X112142012Y-111011302D01*
X112205971Y-110856890D01*
X115558524Y-110856890D01*
X115603175Y-111004099D01*
X115728359Y-111266920D01*
X115902412Y-111500269D01*
X116118645Y-111695178D01*
X116244255Y-111770000D01*
X116118645Y-111844822D01*
X115902412Y-112039731D01*
X115728359Y-112273080D01*
X115603175Y-112535901D01*
X115558524Y-112683110D01*
X115679845Y-112913000D01*
X116873000Y-112913000D01*
X116873000Y-110627000D01*
X117127000Y-110627000D01*
X117127000Y-112913000D01*
X118320155Y-112913000D01*
X118441476Y-112683110D01*
X118396825Y-112535901D01*
X118271641Y-112273080D01*
X118097588Y-112039731D01*
X117881355Y-111844822D01*
X117755745Y-111770000D01*
X117881355Y-111695178D01*
X118097588Y-111500269D01*
X118271641Y-111266920D01*
X118396825Y-111004099D01*
X118441476Y-110856890D01*
X118320155Y-110627000D01*
X117127000Y-110627000D01*
X116873000Y-110627000D01*
X115679845Y-110627000D01*
X115558524Y-110856890D01*
X112205971Y-110856890D01*
X112302953Y-110622756D01*
X112385000Y-110210279D01*
X112385000Y-109789721D01*
X112331977Y-109523155D01*
X112720132Y-109135000D01*
X115603698Y-109135000D01*
X115619463Y-109164494D01*
X115698815Y-109261185D01*
X115795506Y-109340537D01*
X115905820Y-109399502D01*
X115986466Y-109423966D01*
X115902412Y-109499731D01*
X115728359Y-109733080D01*
X115603175Y-109995901D01*
X115558524Y-110143110D01*
X115679845Y-110373000D01*
X116873000Y-110373000D01*
X116873000Y-110353000D01*
X117127000Y-110353000D01*
X117127000Y-110373000D01*
X118320155Y-110373000D01*
X118441476Y-110143110D01*
X118396825Y-109995901D01*
X118271641Y-109733080D01*
X118097588Y-109499731D01*
X118013534Y-109423966D01*
X118094180Y-109399502D01*
X118204494Y-109340537D01*
X118301185Y-109261185D01*
X118380537Y-109164494D01*
X118396302Y-109135000D01*
X124365001Y-109135000D01*
X124365000Y-109615716D01*
X124228320Y-109820273D01*
X124120147Y-110081426D01*
X124065000Y-110358665D01*
X124065000Y-110641335D01*
X124120147Y-110918574D01*
X124228320Y-111179727D01*
X124385363Y-111414759D01*
X124585241Y-111614637D01*
X124787827Y-111750000D01*
X124585241Y-111885363D01*
X124385363Y-112085241D01*
X124228320Y-112320273D01*
X124120147Y-112581426D01*
X124065000Y-112858665D01*
X124065000Y-113141335D01*
X124120147Y-113418574D01*
X124228320Y-113679727D01*
X124365000Y-113884284D01*
X124365001Y-114485000D01*
X118005107Y-114485000D01*
X117946632Y-114426525D01*
X117764466Y-114304805D01*
X117881355Y-114235178D01*
X118097588Y-114040269D01*
X118271641Y-113806920D01*
X118396825Y-113544099D01*
X118441476Y-113396890D01*
X118320155Y-113167000D01*
X117127000Y-113167000D01*
X117127000Y-113187000D01*
X116873000Y-113187000D01*
X116873000Y-113167000D01*
X115679845Y-113167000D01*
X115558524Y-113396890D01*
X115603175Y-113544099D01*
X115728359Y-113806920D01*
X115902412Y-114040269D01*
X116118645Y-114235178D01*
X116235534Y-114304805D01*
X116053368Y-114426525D01*
X115994893Y-114485000D01*
X112435752Y-114485000D01*
X112380000Y-114479509D01*
X112324248Y-114485000D01*
X112157501Y-114501423D01*
X111943553Y-114566324D01*
X111746377Y-114671716D01*
X111573551Y-114813551D01*
X111538011Y-114856857D01*
X109486865Y-116908004D01*
X109443551Y-116943551D01*
X109301716Y-117116377D01*
X109214259Y-117280000D01*
X109196324Y-117313554D01*
X109131423Y-117527502D01*
X109109509Y-117750000D01*
X109115000Y-117805752D01*
X109115001Y-122190640D01*
X108889017Y-122341637D01*
X108591637Y-122639017D01*
X108357988Y-122988698D01*
X108197047Y-123377244D01*
X108115000Y-123789721D01*
X108115000Y-124210279D01*
X108197047Y-124622756D01*
X108357988Y-125011302D01*
X108591637Y-125360983D01*
X108889017Y-125658363D01*
X109238698Y-125892012D01*
X109627244Y-126052953D01*
X110039721Y-126135000D01*
X110460279Y-126135000D01*
X110872756Y-126052953D01*
X111261302Y-125892012D01*
X111610983Y-125658363D01*
X111776644Y-125492702D01*
X116686903Y-125492702D01*
X116758486Y-125736671D01*
X117013996Y-125857571D01*
X117288184Y-125926300D01*
X117570512Y-125940217D01*
X117850130Y-125898787D01*
X118116292Y-125803603D01*
X118241514Y-125736671D01*
X118313097Y-125492702D01*
X117500000Y-124679605D01*
X116686903Y-125492702D01*
X111776644Y-125492702D01*
X111908363Y-125360983D01*
X112142012Y-125011302D01*
X112302953Y-124622756D01*
X112385000Y-124210279D01*
X112385000Y-123789721D01*
X112302953Y-123377244D01*
X112142012Y-122988698D01*
X111908363Y-122639017D01*
X111610983Y-122341637D01*
X111385000Y-122190640D01*
X111385000Y-118220131D01*
X112850132Y-116755000D01*
X116085582Y-116755000D01*
X116296589Y-116895990D01*
X116566842Y-117007932D01*
X116853740Y-117065000D01*
X117146260Y-117065000D01*
X117433158Y-117007932D01*
X117703411Y-116895990D01*
X117914418Y-116755000D01*
X124795310Y-116755000D01*
X124820273Y-116771680D01*
X125081426Y-116879853D01*
X125358665Y-116935000D01*
X125641335Y-116935000D01*
X125918574Y-116879853D01*
X126179727Y-116771680D01*
X126414759Y-116614637D01*
X126614637Y-116414759D01*
X126771680Y-116179727D01*
X126879853Y-115918574D01*
X126935000Y-115641335D01*
X126935000Y-115358665D01*
X126879853Y-115081426D01*
X126771680Y-114820273D01*
X126635000Y-114615716D01*
X126635000Y-113884284D01*
X126771680Y-113679727D01*
X126879853Y-113418574D01*
X126935000Y-113141335D01*
X126935000Y-112858665D01*
X126879853Y-112581426D01*
X126771680Y-112320273D01*
X126614637Y-112085241D01*
X126414759Y-111885363D01*
X126212173Y-111750000D01*
X126414759Y-111614637D01*
X126614637Y-111414759D01*
X126771680Y-111179727D01*
X126879853Y-110918574D01*
X126935000Y-110641335D01*
X126935000Y-110358665D01*
X126879853Y-110081426D01*
X126771680Y-109820273D01*
X126635000Y-109615716D01*
X126635000Y-108884284D01*
X126771680Y-108679727D01*
X126879853Y-108418574D01*
X126935000Y-108141335D01*
X126935000Y-107858665D01*
X126879853Y-107581426D01*
X126771680Y-107320273D01*
X126614637Y-107085241D01*
X126414759Y-106885363D01*
X126179727Y-106728320D01*
X125918574Y-106620147D01*
X125641335Y-106565000D01*
X125358665Y-106565000D01*
X125081426Y-106620147D01*
X124820273Y-106728320D01*
X124615716Y-106865000D01*
X118439064Y-106865000D01*
X118380537Y-106755506D01*
X118301185Y-106658815D01*
X118204494Y-106579463D01*
X118094180Y-106520498D01*
X117974482Y-106484188D01*
X117850000Y-106471928D01*
X116150000Y-106471928D01*
X116025518Y-106484188D01*
X115905820Y-106520498D01*
X115795506Y-106579463D01*
X115698815Y-106658815D01*
X115619463Y-106755506D01*
X115560936Y-106865000D01*
X112305751Y-106865000D01*
X112249999Y-106859509D01*
X112027500Y-106881423D01*
X111999609Y-106889884D01*
X111813553Y-106946324D01*
X111616377Y-107051716D01*
X111443551Y-107193551D01*
X111408009Y-107236859D01*
X110726845Y-107918023D01*
X110460279Y-107865000D01*
X110039721Y-107865000D01*
X109627244Y-107947047D01*
X109238698Y-108107988D01*
X108889017Y-108341637D01*
X108591637Y-108639017D01*
X108357988Y-108988698D01*
X108197047Y-109377244D01*
X108115000Y-109789721D01*
X100660000Y-109789721D01*
X100660000Y-108203148D01*
X103476457Y-108203148D01*
X103752627Y-108621118D01*
X104297557Y-108911649D01*
X104888696Y-109090287D01*
X105503328Y-109150168D01*
X106117831Y-109088990D01*
X106708592Y-108909103D01*
X107247373Y-108621118D01*
X107523543Y-108203148D01*
X105500000Y-106179605D01*
X103476457Y-108203148D01*
X100660000Y-108203148D01*
X100660000Y-106003328D01*
X102349832Y-106003328D01*
X102411010Y-106617831D01*
X102590897Y-107208592D01*
X102878882Y-107747373D01*
X103296852Y-108023543D01*
X105320395Y-106000000D01*
X105679605Y-106000000D01*
X107703148Y-108023543D01*
X108121118Y-107747373D01*
X108411649Y-107202443D01*
X108590287Y-106611304D01*
X108650168Y-105996672D01*
X108588990Y-105382169D01*
X108409103Y-104791408D01*
X108121118Y-104252627D01*
X107703148Y-103976457D01*
X105679605Y-106000000D01*
X105320395Y-106000000D01*
X103296852Y-103976457D01*
X102878882Y-104252627D01*
X102588351Y-104797557D01*
X102409713Y-105388696D01*
X102349832Y-106003328D01*
X100660000Y-106003328D01*
X100660000Y-103796852D01*
X103476457Y-103796852D01*
X105500000Y-105820395D01*
X107523543Y-103796852D01*
X107247373Y-103378882D01*
X106702443Y-103088351D01*
X106111304Y-102909713D01*
X105496672Y-102849832D01*
X104882169Y-102911010D01*
X104291408Y-103090897D01*
X103752627Y-103378882D01*
X103476457Y-103796852D01*
X100660000Y-103796852D01*
X100660000Y-100850000D01*
X102755880Y-100850000D01*
X102792275Y-101219524D01*
X102900061Y-101574848D01*
X103075097Y-101902317D01*
X103310655Y-102189345D01*
X103597683Y-102424903D01*
X103925152Y-102599939D01*
X104280476Y-102707725D01*
X104557403Y-102735000D01*
X106442597Y-102735000D01*
X106719524Y-102707725D01*
X107074848Y-102599939D01*
X107402317Y-102424903D01*
X107689345Y-102189345D01*
X107924903Y-101902317D01*
X108099939Y-101574848D01*
X108207725Y-101219524D01*
X108244120Y-100850000D01*
X108207725Y-100480476D01*
X108099939Y-100125152D01*
X108029143Y-99992702D01*
X119686903Y-99992702D01*
X119758486Y-100236671D01*
X120013996Y-100357571D01*
X120288184Y-100426300D01*
X120570512Y-100440217D01*
X120850130Y-100398787D01*
X121116292Y-100303603D01*
X121241514Y-100236671D01*
X121313097Y-99992702D01*
X120500000Y-99179605D01*
X119686903Y-99992702D01*
X108029143Y-99992702D01*
X107924903Y-99797683D01*
X107689345Y-99510655D01*
X107402317Y-99275097D01*
X107074848Y-99100061D01*
X106977438Y-99070512D01*
X119059783Y-99070512D01*
X119101213Y-99350130D01*
X119196397Y-99616292D01*
X119263329Y-99741514D01*
X119507298Y-99813097D01*
X120320395Y-99000000D01*
X120679605Y-99000000D01*
X121492702Y-99813097D01*
X121736671Y-99741514D01*
X121857571Y-99486004D01*
X121926300Y-99211816D01*
X121940217Y-98929488D01*
X121898787Y-98649870D01*
X121803603Y-98383708D01*
X121736671Y-98258486D01*
X121492702Y-98186903D01*
X120679605Y-99000000D01*
X120320395Y-99000000D01*
X119507298Y-98186903D01*
X119263329Y-98258486D01*
X119142429Y-98513996D01*
X119073700Y-98788184D01*
X119059783Y-99070512D01*
X106977438Y-99070512D01*
X106719524Y-98992275D01*
X106442597Y-98965000D01*
X104557403Y-98965000D01*
X104280476Y-98992275D01*
X103925152Y-99100061D01*
X103597683Y-99275097D01*
X103310655Y-99510655D01*
X103075097Y-99797683D01*
X102900061Y-100125152D01*
X102792275Y-100480476D01*
X102755880Y-100850000D01*
X100660000Y-100850000D01*
X100660000Y-98007298D01*
X119686903Y-98007298D01*
X120500000Y-98820395D01*
X121313097Y-98007298D01*
X121241514Y-97763329D01*
X120986004Y-97642429D01*
X120711816Y-97573700D01*
X120429488Y-97559783D01*
X120149870Y-97601213D01*
X119883708Y-97696397D01*
X119758486Y-97763329D01*
X119686903Y-98007298D01*
X100660000Y-98007298D01*
X100660000Y-89626600D01*
X100926328Y-89626600D01*
X100938588Y-89751082D01*
X100974898Y-89870780D01*
X101033863Y-89981094D01*
X101113215Y-90077785D01*
X101209906Y-90157137D01*
X101320220Y-90216102D01*
X101439918Y-90252412D01*
X101564400Y-90264672D01*
X102650250Y-90261600D01*
X102809000Y-90102850D01*
X102809000Y-88382000D01*
X103063000Y-88382000D01*
X103063000Y-90102850D01*
X103221750Y-90261600D01*
X104307600Y-90264672D01*
X104432082Y-90252412D01*
X104551780Y-90216102D01*
X104662094Y-90157137D01*
X104758785Y-90077785D01*
X104838137Y-89981094D01*
X104897102Y-89870780D01*
X104933412Y-89751082D01*
X104945672Y-89626600D01*
X104942600Y-88540750D01*
X104783850Y-88382000D01*
X103063000Y-88382000D01*
X102809000Y-88382000D01*
X101088150Y-88382000D01*
X100929400Y-88540750D01*
X100926328Y-89626600D01*
X100660000Y-89626600D01*
X100660000Y-86883400D01*
X100926328Y-86883400D01*
X100929400Y-87969250D01*
X101088150Y-88128000D01*
X102809000Y-88128000D01*
X102809000Y-86407150D01*
X103063000Y-86407150D01*
X103063000Y-88128000D01*
X104783850Y-88128000D01*
X104942600Y-87969250D01*
X104945672Y-86883400D01*
X104933412Y-86758918D01*
X104897102Y-86639220D01*
X104838137Y-86528906D01*
X104758785Y-86432215D01*
X104662094Y-86352863D01*
X104551780Y-86293898D01*
X104432082Y-86257588D01*
X104307600Y-86245328D01*
X103221750Y-86248400D01*
X103063000Y-86407150D01*
X102809000Y-86407150D01*
X102650250Y-86248400D01*
X101564400Y-86245328D01*
X101439918Y-86257588D01*
X101320220Y-86293898D01*
X101209906Y-86352863D01*
X101113215Y-86432215D01*
X101033863Y-86528906D01*
X100974898Y-86639220D01*
X100938588Y-86758918D01*
X100926328Y-86883400D01*
X100660000Y-86883400D01*
X100660000Y-71547367D01*
X100929400Y-71547367D01*
X100929400Y-71942633D01*
X101006513Y-72330304D01*
X101157774Y-72695481D01*
X101377372Y-73024133D01*
X101656867Y-73303628D01*
X101985519Y-73523226D01*
X102350696Y-73674487D01*
X102738367Y-73751600D01*
X103133633Y-73751600D01*
X103421608Y-73694318D01*
X107684092Y-77956803D01*
X107684098Y-77956808D01*
X122435001Y-92707712D01*
X122435001Y-93544717D01*
X122425338Y-93530256D01*
X122169744Y-93274662D01*
X121869199Y-93073844D01*
X121535250Y-92935518D01*
X121180732Y-92865000D01*
X121123686Y-92865000D01*
X107327454Y-79068769D01*
X107284081Y-79015919D01*
X107073188Y-78842843D01*
X106832581Y-78714236D01*
X106571507Y-78635040D01*
X106368037Y-78615000D01*
X106368029Y-78615000D01*
X106300000Y-78608300D01*
X106231971Y-78615000D01*
X104388761Y-78615000D01*
X104215133Y-78441372D01*
X103886481Y-78221774D01*
X103521304Y-78070513D01*
X103133633Y-77993400D01*
X102738367Y-77993400D01*
X102350696Y-78070513D01*
X101985519Y-78221774D01*
X101656867Y-78441372D01*
X101377372Y-78720867D01*
X101157774Y-79049519D01*
X101006513Y-79414696D01*
X100929400Y-79802367D01*
X100929400Y-80197633D01*
X101006513Y-80585304D01*
X101157774Y-80950481D01*
X101377372Y-81279133D01*
X101656867Y-81558628D01*
X101985519Y-81778226D01*
X102350696Y-81929487D01*
X102738367Y-82006600D01*
X103133633Y-82006600D01*
X103521304Y-81929487D01*
X103886481Y-81778226D01*
X104215133Y-81558628D01*
X104388761Y-81385000D01*
X105726315Y-81385000D01*
X119165000Y-94823686D01*
X119165000Y-94880732D01*
X119235518Y-95235250D01*
X119373844Y-95569199D01*
X119574662Y-95869744D01*
X119830256Y-96125338D01*
X120130801Y-96326156D01*
X120464750Y-96464482D01*
X120819268Y-96535000D01*
X121180732Y-96535000D01*
X121535250Y-96464482D01*
X121869199Y-96326156D01*
X122169744Y-96125338D01*
X122425338Y-95869744D01*
X122435001Y-95855283D01*
X122435000Y-101919172D01*
X122429994Y-101970000D01*
X122435000Y-102020828D01*
X122435000Y-102020837D01*
X122449976Y-102172894D01*
X122509159Y-102367992D01*
X122605266Y-102547797D01*
X122734604Y-102705396D01*
X122774097Y-102737807D01*
X126432173Y-106395884D01*
X126465266Y-106457797D01*
X126594604Y-106615396D01*
X126634097Y-106647807D01*
X126995001Y-107008712D01*
X126995000Y-115979172D01*
X126989994Y-116030000D01*
X126995000Y-116080828D01*
X126995000Y-116080837D01*
X127009976Y-116232894D01*
X127069159Y-116427992D01*
X127165266Y-116607797D01*
X127294604Y-116765396D01*
X127334097Y-116797807D01*
X128881289Y-118345000D01*
X120813465Y-118345000D01*
X120769999Y-118340719D01*
X120726533Y-118345000D01*
X120726523Y-118345000D01*
X120596510Y-118357805D01*
X120429687Y-118408411D01*
X120275941Y-118490589D01*
X120275939Y-118490590D01*
X120275940Y-118490590D01*
X120174953Y-118573468D01*
X120174951Y-118573470D01*
X120141183Y-118601183D01*
X120113470Y-118634951D01*
X117686494Y-121061928D01*
X116700000Y-121061928D01*
X116575518Y-121074188D01*
X116455820Y-121110498D01*
X116345506Y-121169463D01*
X116248815Y-121248815D01*
X116169463Y-121345506D01*
X116110498Y-121455820D01*
X116074188Y-121575518D01*
X116061928Y-121700000D01*
X116061928Y-123300000D01*
X116074188Y-123424482D01*
X116110498Y-123544180D01*
X116169463Y-123654494D01*
X116248815Y-123751185D01*
X116261758Y-123761807D01*
X116142429Y-124013996D01*
X116073700Y-124288184D01*
X116059783Y-124570512D01*
X116101213Y-124850130D01*
X116196397Y-125116292D01*
X116263329Y-125241514D01*
X116507298Y-125313097D01*
X117320395Y-124500000D01*
X117306253Y-124485858D01*
X117485858Y-124306253D01*
X117500000Y-124320395D01*
X117514143Y-124306253D01*
X117693748Y-124485858D01*
X117679605Y-124500000D01*
X118492702Y-125313097D01*
X118736671Y-125241514D01*
X118857571Y-124986004D01*
X118926300Y-124711816D01*
X118940217Y-124429488D01*
X118898787Y-124149870D01*
X118803603Y-123883708D01*
X118738384Y-123761691D01*
X118751185Y-123751185D01*
X118830537Y-123654494D01*
X118889502Y-123544180D01*
X118925812Y-123424482D01*
X118938072Y-123300000D01*
X118938072Y-122313506D01*
X121136579Y-120115000D01*
X133256531Y-120115000D01*
X133300000Y-120119281D01*
X133343469Y-120115000D01*
X133343477Y-120115000D01*
X133473490Y-120102195D01*
X133640313Y-120051589D01*
X133794059Y-119969411D01*
X133928817Y-119858817D01*
X133956534Y-119825044D01*
X135376579Y-118405000D01*
X143436531Y-118405000D01*
X143480000Y-118409281D01*
X143523469Y-118405000D01*
X143523477Y-118405000D01*
X143653490Y-118392195D01*
X143820313Y-118341589D01*
X143974059Y-118259411D01*
X144108817Y-118148817D01*
X144136534Y-118115044D01*
X146985050Y-115266529D01*
X147018817Y-115238817D01*
X147064172Y-115183553D01*
X147129410Y-115104060D01*
X147129411Y-115104059D01*
X147211589Y-114950313D01*
X147262195Y-114783490D01*
X147275000Y-114653477D01*
X147275000Y-114653467D01*
X147279281Y-114610001D01*
X147275000Y-114566535D01*
X147275000Y-103026578D01*
X149416579Y-100885000D01*
X152074807Y-100885000D01*
X152184048Y-100994241D01*
X152307251Y-101076562D01*
X152297654Y-101118049D01*
X153000000Y-101820395D01*
X153702346Y-101118049D01*
X153692749Y-101076562D01*
X153815952Y-100994241D01*
X153994241Y-100815952D01*
X154134321Y-100606307D01*
X154230810Y-100373362D01*
X154280000Y-100126069D01*
X154280000Y-99873931D01*
X154257338Y-99760000D01*
X155968373Y-99760000D01*
X156005759Y-99815952D01*
X156120170Y-99930363D01*
X156015919Y-100015919D01*
X155842843Y-100226812D01*
X155714236Y-100467419D01*
X155635040Y-100728493D01*
X155608299Y-101000000D01*
X155635040Y-101271507D01*
X155714236Y-101532581D01*
X155842843Y-101773188D01*
X156015919Y-101984081D01*
X156035316Y-102000000D01*
X156015919Y-102015919D01*
X155842843Y-102226812D01*
X155714236Y-102467419D01*
X155635040Y-102728493D01*
X155608299Y-103000000D01*
X155635040Y-103271507D01*
X155714236Y-103532581D01*
X155842843Y-103773188D01*
X156015919Y-103984081D01*
X156035316Y-104000000D01*
X156015919Y-104015919D01*
X155842843Y-104226812D01*
X155714236Y-104467419D01*
X155635040Y-104728493D01*
X155608299Y-105000000D01*
X155635040Y-105271507D01*
X155714236Y-105532581D01*
X155842843Y-105773188D01*
X156015919Y-105984081D01*
X156035316Y-106000000D01*
X156015919Y-106015919D01*
X155842843Y-106226812D01*
X155714236Y-106467419D01*
X155635040Y-106728493D01*
X155608299Y-107000000D01*
X155635040Y-107271507D01*
X155714236Y-107532581D01*
X155842843Y-107773188D01*
X155931440Y-107881144D01*
X155903815Y-107903815D01*
X155824463Y-108000506D01*
X155765498Y-108110820D01*
X155729188Y-108230518D01*
X155716928Y-108355000D01*
X155720000Y-108714250D01*
X155878750Y-108873000D01*
X156873000Y-108873000D01*
X156873000Y-108853000D01*
X157127000Y-108853000D01*
X157127000Y-108873000D01*
X158121250Y-108873000D01*
X158280000Y-108714250D01*
X158282815Y-108385000D01*
X165926315Y-108385000D01*
X177052550Y-119511236D01*
X177095919Y-119564081D01*
X177148764Y-119607450D01*
X177148766Y-119607452D01*
X177259465Y-119698300D01*
X177306812Y-119737157D01*
X177471243Y-119825047D01*
X177547419Y-119865764D01*
X177808492Y-119944960D01*
X177834099Y-119947482D01*
X178011963Y-119965000D01*
X178011970Y-119965000D01*
X178079999Y-119971700D01*
X178148028Y-119965000D01*
X183070299Y-119965000D01*
X183074188Y-120004482D01*
X183110498Y-120124180D01*
X183169463Y-120234494D01*
X183248815Y-120331185D01*
X183345506Y-120410537D01*
X183455820Y-120469502D01*
X183575518Y-120505812D01*
X183700000Y-120518072D01*
X186300000Y-120518072D01*
X186424482Y-120505812D01*
X186544180Y-120469502D01*
X186654494Y-120410537D01*
X186751185Y-120331185D01*
X186830537Y-120234494D01*
X186889502Y-120124180D01*
X186925812Y-120004482D01*
X186938072Y-119880000D01*
X186938072Y-117280000D01*
X186925812Y-117155518D01*
X186889502Y-117035820D01*
X186830537Y-116925506D01*
X186751185Y-116828815D01*
X186654494Y-116749463D01*
X186544180Y-116690498D01*
X186424482Y-116654188D01*
X186300000Y-116641928D01*
X183700000Y-116641928D01*
X183575518Y-116654188D01*
X183455820Y-116690498D01*
X183345506Y-116749463D01*
X183248815Y-116828815D01*
X183169463Y-116925506D01*
X183110498Y-117035820D01*
X183074188Y-117155518D01*
X183070299Y-117195000D01*
X178653686Y-117195000D01*
X167843685Y-106385000D01*
X167926315Y-106385000D01*
X175972550Y-114431236D01*
X176015919Y-114484081D01*
X176068764Y-114527450D01*
X176068766Y-114527452D01*
X176098332Y-114551716D01*
X176226812Y-114657157D01*
X176467419Y-114785764D01*
X176728493Y-114864960D01*
X176931963Y-114885000D01*
X176931972Y-114885000D01*
X176999999Y-114891700D01*
X177068026Y-114885000D01*
X183648496Y-114885000D01*
X183766509Y-115003013D01*
X184083434Y-115214775D01*
X184435581Y-115360639D01*
X184809419Y-115435000D01*
X185190581Y-115435000D01*
X185564419Y-115360639D01*
X185916566Y-115214775D01*
X186233491Y-115003013D01*
X186503013Y-114733491D01*
X186714775Y-114416566D01*
X186860639Y-114064419D01*
X186935000Y-113690581D01*
X186935000Y-113309419D01*
X186860639Y-112935581D01*
X186714775Y-112583434D01*
X186503013Y-112266509D01*
X186233491Y-111996987D01*
X185916566Y-111785225D01*
X185564419Y-111639361D01*
X185190581Y-111565000D01*
X184809419Y-111565000D01*
X184435581Y-111639361D01*
X184083434Y-111785225D01*
X183766509Y-111996987D01*
X183648496Y-112115000D01*
X177573686Y-112115000D01*
X169843685Y-104385000D01*
X169926315Y-104385000D01*
X172972546Y-107431231D01*
X173015919Y-107484081D01*
X173226812Y-107657157D01*
X173467419Y-107785764D01*
X173728493Y-107864960D01*
X173931963Y-107885000D01*
X173931972Y-107885000D01*
X173999999Y-107891700D01*
X174068026Y-107885000D01*
X183070299Y-107885000D01*
X183074188Y-107924482D01*
X183110498Y-108044180D01*
X183169463Y-108154494D01*
X183248815Y-108251185D01*
X183345506Y-108330537D01*
X183455820Y-108389502D01*
X183575518Y-108425812D01*
X183700000Y-108438072D01*
X186300000Y-108438072D01*
X186424482Y-108425812D01*
X186544180Y-108389502D01*
X186654494Y-108330537D01*
X186751185Y-108251185D01*
X186830537Y-108154494D01*
X186889502Y-108044180D01*
X186925812Y-107924482D01*
X186938072Y-107800000D01*
X186938072Y-105200000D01*
X186925812Y-105075518D01*
X186889502Y-104955820D01*
X186830537Y-104845506D01*
X186751185Y-104748815D01*
X186654494Y-104669463D01*
X186544180Y-104610498D01*
X186424482Y-104574188D01*
X186300000Y-104561928D01*
X183700000Y-104561928D01*
X183575518Y-104574188D01*
X183455820Y-104610498D01*
X183345506Y-104669463D01*
X183248815Y-104748815D01*
X183169463Y-104845506D01*
X183110498Y-104955820D01*
X183074188Y-105075518D01*
X183070299Y-105115000D01*
X174573685Y-105115000D01*
X171843685Y-102385000D01*
X183317587Y-102385000D01*
X183496987Y-102653491D01*
X183766509Y-102923013D01*
X184083434Y-103134775D01*
X184435581Y-103280639D01*
X184809419Y-103355000D01*
X185190581Y-103355000D01*
X185564419Y-103280639D01*
X185916566Y-103134775D01*
X186233491Y-102923013D01*
X186503013Y-102653491D01*
X186714775Y-102336566D01*
X186860639Y-101984419D01*
X186935000Y-101610581D01*
X186935000Y-101229419D01*
X186860639Y-100855581D01*
X186714775Y-100503434D01*
X186503013Y-100186509D01*
X186233491Y-99916987D01*
X185916566Y-99705225D01*
X185564419Y-99559361D01*
X185190581Y-99485000D01*
X184809419Y-99485000D01*
X184435581Y-99559361D01*
X184301257Y-99615000D01*
X158128513Y-99615000D01*
X158134321Y-99606307D01*
X158230810Y-99373362D01*
X158280000Y-99126069D01*
X158280000Y-98873931D01*
X158230810Y-98626638D01*
X158134321Y-98393693D01*
X157994241Y-98184048D01*
X157815952Y-98005759D01*
X157692749Y-97923438D01*
X157702346Y-97881951D01*
X157000000Y-97179605D01*
X156297654Y-97881951D01*
X156307251Y-97923438D01*
X156184048Y-98005759D01*
X156005759Y-98184048D01*
X155968373Y-98240000D01*
X154257338Y-98240000D01*
X154280000Y-98126069D01*
X154280000Y-97873931D01*
X154257338Y-97760000D01*
X154962678Y-97760000D01*
X155000000Y-97763676D01*
X155037322Y-97760000D01*
X155037333Y-97760000D01*
X155148986Y-97749003D01*
X155292247Y-97705546D01*
X155424276Y-97634974D01*
X155540001Y-97540001D01*
X155563804Y-97510997D01*
X155754815Y-97319987D01*
X155755717Y-97325658D01*
X155843158Y-97562148D01*
X155889884Y-97649566D01*
X156118049Y-97702346D01*
X156820395Y-97000000D01*
X157179605Y-97000000D01*
X157881951Y-97702346D01*
X158110116Y-97649566D01*
X158127490Y-97611806D01*
X161211801Y-97611806D01*
X161326500Y-97952754D01*
X161505511Y-98264774D01*
X161741954Y-98535875D01*
X162026743Y-98755639D01*
X162348934Y-98915621D01*
X162588195Y-98988195D01*
X162873000Y-98871432D01*
X162873000Y-97327000D01*
X163127000Y-97327000D01*
X163127000Y-98871432D01*
X163411805Y-98988195D01*
X163651066Y-98915621D01*
X163973257Y-98755639D01*
X164258046Y-98535875D01*
X164494489Y-98264774D01*
X164673500Y-97952754D01*
X164788199Y-97611806D01*
X164671854Y-97327000D01*
X163127000Y-97327000D01*
X162873000Y-97327000D01*
X161328146Y-97327000D01*
X161211801Y-97611806D01*
X158127490Y-97611806D01*
X158215509Y-97420512D01*
X158274192Y-97175298D01*
X158283907Y-96923348D01*
X158262401Y-96788194D01*
X161211801Y-96788194D01*
X161328146Y-97073000D01*
X162873000Y-97073000D01*
X162873000Y-95528568D01*
X163127000Y-95528568D01*
X163127000Y-97073000D01*
X164671854Y-97073000D01*
X164788199Y-96788194D01*
X164673500Y-96447246D01*
X164494489Y-96135226D01*
X164258046Y-95864125D01*
X163973257Y-95644361D01*
X163651066Y-95484379D01*
X163411805Y-95411805D01*
X163127000Y-95528568D01*
X162873000Y-95528568D01*
X162588195Y-95411805D01*
X162348934Y-95484379D01*
X162026743Y-95644361D01*
X161741954Y-95864125D01*
X161505511Y-96135226D01*
X161326500Y-96447246D01*
X161211801Y-96788194D01*
X158262401Y-96788194D01*
X158244283Y-96674342D01*
X158156842Y-96437852D01*
X158110116Y-96350434D01*
X157881951Y-96297654D01*
X157179605Y-97000000D01*
X156820395Y-97000000D01*
X156806253Y-96985858D01*
X156985858Y-96806253D01*
X157000000Y-96820395D01*
X157702346Y-96118049D01*
X157692749Y-96076562D01*
X157815952Y-95994241D01*
X157994241Y-95815952D01*
X158134321Y-95606307D01*
X158230810Y-95373362D01*
X158280000Y-95126069D01*
X158280000Y-94873931D01*
X158230810Y-94626638D01*
X158134321Y-94393693D01*
X158128513Y-94385000D01*
X172426315Y-94385000D01*
X173472550Y-95431236D01*
X173515919Y-95484081D01*
X173568764Y-95527450D01*
X173568766Y-95527452D01*
X173570126Y-95528568D01*
X173726812Y-95657157D01*
X173967419Y-95785764D01*
X174228493Y-95864960D01*
X174431963Y-95885000D01*
X174431972Y-95885000D01*
X174499999Y-95891700D01*
X174568026Y-95885000D01*
X183070299Y-95885000D01*
X183074188Y-95924482D01*
X183110498Y-96044180D01*
X183169463Y-96154494D01*
X183248815Y-96251185D01*
X183345506Y-96330537D01*
X183455820Y-96389502D01*
X183575518Y-96425812D01*
X183700000Y-96438072D01*
X186300000Y-96438072D01*
X186424482Y-96425812D01*
X186544180Y-96389502D01*
X186654494Y-96330537D01*
X186751185Y-96251185D01*
X186830537Y-96154494D01*
X186889502Y-96044180D01*
X186925812Y-95924482D01*
X186938072Y-95800000D01*
X186938072Y-93200000D01*
X186925812Y-93075518D01*
X186889502Y-92955820D01*
X186830537Y-92845506D01*
X186751185Y-92748815D01*
X186654494Y-92669463D01*
X186544180Y-92610498D01*
X186424482Y-92574188D01*
X186300000Y-92561928D01*
X183700000Y-92561928D01*
X183575518Y-92574188D01*
X183455820Y-92610498D01*
X183345506Y-92669463D01*
X183248815Y-92748815D01*
X183169463Y-92845506D01*
X183110498Y-92955820D01*
X183074188Y-93075518D01*
X183070299Y-93115000D01*
X175073686Y-93115000D01*
X174027454Y-92068769D01*
X173984081Y-92015919D01*
X173964684Y-92000000D01*
X173984081Y-91984081D01*
X174027454Y-91931231D01*
X175153686Y-90805000D01*
X183648496Y-90805000D01*
X183766509Y-90923013D01*
X184083434Y-91134775D01*
X184435581Y-91280639D01*
X184809419Y-91355000D01*
X185190581Y-91355000D01*
X185564419Y-91280639D01*
X185916566Y-91134775D01*
X186233491Y-90923013D01*
X186503013Y-90653491D01*
X186714775Y-90336566D01*
X186860639Y-89984419D01*
X186935000Y-89610581D01*
X186935000Y-89229419D01*
X186860639Y-88855581D01*
X186714775Y-88503434D01*
X186503013Y-88186509D01*
X186233491Y-87916987D01*
X185916566Y-87705225D01*
X185564419Y-87559361D01*
X185190581Y-87485000D01*
X184809419Y-87485000D01*
X184435581Y-87559361D01*
X184083434Y-87705225D01*
X183766509Y-87916987D01*
X183648496Y-88035000D01*
X174923685Y-88035000D01*
X179073686Y-83885000D01*
X183070299Y-83885000D01*
X183074188Y-83924482D01*
X183110498Y-84044180D01*
X183169463Y-84154494D01*
X183248815Y-84251185D01*
X183345506Y-84330537D01*
X183455820Y-84389502D01*
X183575518Y-84425812D01*
X183700000Y-84438072D01*
X186300000Y-84438072D01*
X186424482Y-84425812D01*
X186544180Y-84389502D01*
X186654494Y-84330537D01*
X186751185Y-84251185D01*
X186830537Y-84154494D01*
X186889502Y-84044180D01*
X186925812Y-83924482D01*
X186938072Y-83800000D01*
X186938072Y-81200000D01*
X186925812Y-81075518D01*
X186889502Y-80955820D01*
X186830537Y-80845506D01*
X186751185Y-80748815D01*
X186654494Y-80669463D01*
X186544180Y-80610498D01*
X186424482Y-80574188D01*
X186300000Y-80561928D01*
X183700000Y-80561928D01*
X183575518Y-80574188D01*
X183455820Y-80610498D01*
X183345506Y-80669463D01*
X183248815Y-80748815D01*
X183169463Y-80845506D01*
X183110498Y-80955820D01*
X183074188Y-81075518D01*
X183070299Y-81115000D01*
X178568026Y-81115000D01*
X178499999Y-81108300D01*
X178431972Y-81115000D01*
X178431963Y-81115000D01*
X178245301Y-81133385D01*
X180573686Y-78805000D01*
X183648496Y-78805000D01*
X183766509Y-78923013D01*
X184083434Y-79134775D01*
X184435581Y-79280639D01*
X184809419Y-79355000D01*
X185190581Y-79355000D01*
X185564419Y-79280639D01*
X185916566Y-79134775D01*
X186233491Y-78923013D01*
X186503013Y-78653491D01*
X186714775Y-78336566D01*
X186860639Y-77984419D01*
X186935000Y-77610581D01*
X186935000Y-77229419D01*
X186860639Y-76855581D01*
X186714775Y-76503434D01*
X186503013Y-76186509D01*
X186233491Y-75916987D01*
X185916566Y-75705225D01*
X185564419Y-75559361D01*
X185190581Y-75485000D01*
X184809419Y-75485000D01*
X184435581Y-75559361D01*
X184083434Y-75705225D01*
X183766509Y-75916987D01*
X183648496Y-76035000D01*
X180068029Y-76035000D01*
X180000000Y-76028300D01*
X179931971Y-76035000D01*
X179931963Y-76035000D01*
X179751892Y-76052735D01*
X179728492Y-76055040D01*
X179467419Y-76134236D01*
X179226812Y-76262843D01*
X179151968Y-76324266D01*
X179068766Y-76392548D01*
X179068764Y-76392550D01*
X179015919Y-76435919D01*
X178972550Y-76488764D01*
X169846315Y-85615000D01*
X164461917Y-85615000D01*
X164626156Y-85369199D01*
X164764482Y-85035250D01*
X164835000Y-84680732D01*
X164835000Y-84319268D01*
X164764482Y-83964750D01*
X164626156Y-83630801D01*
X164425338Y-83330256D01*
X164169744Y-83074662D01*
X163869199Y-82873844D01*
X163535250Y-82735518D01*
X163180732Y-82665000D01*
X162819268Y-82665000D01*
X162464750Y-82735518D01*
X162130801Y-82873844D01*
X161830256Y-83074662D01*
X161574662Y-83330256D01*
X161373844Y-83630801D01*
X161276836Y-83865000D01*
X157604668Y-83865000D01*
X157373362Y-83769190D01*
X157126069Y-83720000D01*
X156873931Y-83720000D01*
X156626638Y-83769190D01*
X156590000Y-83784366D01*
X156590000Y-82257325D01*
X156593676Y-82220000D01*
X156590000Y-82182675D01*
X156590000Y-82182667D01*
X156579003Y-82071014D01*
X156535546Y-81927753D01*
X156464974Y-81795724D01*
X156370001Y-81679999D01*
X156341004Y-81656202D01*
X154677504Y-79992702D01*
X156186903Y-79992702D01*
X156258486Y-80236671D01*
X156513996Y-80357571D01*
X156788184Y-80426300D01*
X157070512Y-80440217D01*
X157350130Y-80398787D01*
X157616292Y-80303603D01*
X157741514Y-80236671D01*
X157813097Y-79992702D01*
X157000000Y-79179605D01*
X156186903Y-79992702D01*
X154677504Y-79992702D01*
X153755314Y-79070512D01*
X155559783Y-79070512D01*
X155601213Y-79350130D01*
X155696397Y-79616292D01*
X155763329Y-79741514D01*
X156007298Y-79813097D01*
X156820395Y-79000000D01*
X157179605Y-79000000D01*
X157992702Y-79813097D01*
X158236671Y-79741514D01*
X158357571Y-79486004D01*
X158426300Y-79211816D01*
X158440217Y-78929488D01*
X158398787Y-78649870D01*
X158303603Y-78383708D01*
X158236671Y-78258486D01*
X157992702Y-78186903D01*
X157179605Y-79000000D01*
X156820395Y-79000000D01*
X156007298Y-78186903D01*
X155763329Y-78258486D01*
X155642429Y-78513996D01*
X155573700Y-78788184D01*
X155559783Y-79070512D01*
X153755314Y-79070512D01*
X153408067Y-78723266D01*
X153379853Y-78581426D01*
X153271680Y-78320273D01*
X153114637Y-78085241D01*
X153036694Y-78007298D01*
X156186903Y-78007298D01*
X157000000Y-78820395D01*
X157813097Y-78007298D01*
X157741514Y-77763329D01*
X157486004Y-77642429D01*
X157211816Y-77573700D01*
X156929488Y-77559783D01*
X156649870Y-77601213D01*
X156383708Y-77696397D01*
X156258486Y-77763329D01*
X156186903Y-78007298D01*
X153036694Y-78007298D01*
X152914759Y-77885363D01*
X152679727Y-77728320D01*
X152418574Y-77620147D01*
X152141335Y-77565000D01*
X151858665Y-77565000D01*
X151581426Y-77620147D01*
X151320273Y-77728320D01*
X151085241Y-77885363D01*
X150885363Y-78085241D01*
X150728320Y-78320273D01*
X150620147Y-78581426D01*
X150565000Y-78858665D01*
X150565000Y-79141335D01*
X150620147Y-79418574D01*
X150728320Y-79679727D01*
X150885363Y-79914759D01*
X151085241Y-80114637D01*
X151320273Y-80271680D01*
X151581426Y-80379853D01*
X151858665Y-80435000D01*
X152141335Y-80435000D01*
X152418574Y-80379853D01*
X152679727Y-80271680D01*
X152755949Y-80220750D01*
X155070000Y-82534802D01*
X155070001Y-92845197D01*
X154675198Y-93240000D01*
X154031627Y-93240000D01*
X153994241Y-93184048D01*
X153815952Y-93005759D01*
X153692749Y-92923438D01*
X153702346Y-92881951D01*
X153000000Y-92179605D01*
X152297654Y-92881951D01*
X152307251Y-92923438D01*
X152184048Y-93005759D01*
X152005759Y-93184048D01*
X151865679Y-93393693D01*
X151769190Y-93626638D01*
X151720000Y-93873931D01*
X151720000Y-94126069D01*
X151769190Y-94373362D01*
X151865679Y-94606307D01*
X152005759Y-94815952D01*
X152184048Y-94994241D01*
X152192667Y-95000000D01*
X152184048Y-95005759D01*
X152005759Y-95184048D01*
X151968373Y-95240000D01*
X144247333Y-95240000D01*
X144210000Y-95236323D01*
X144172667Y-95240000D01*
X144061014Y-95250997D01*
X143917753Y-95294454D01*
X143785724Y-95365026D01*
X143669999Y-95459999D01*
X143646201Y-95488997D01*
X134439003Y-104696196D01*
X134409999Y-104719999D01*
X134354871Y-104787174D01*
X134315026Y-104835724D01*
X134257769Y-104942843D01*
X134244454Y-104967754D01*
X134200997Y-105111015D01*
X134190000Y-105222668D01*
X134190000Y-105222678D01*
X134186324Y-105260000D01*
X134190000Y-105297323D01*
X134190001Y-108735197D01*
X133405199Y-109520000D01*
X132634802Y-109520000D01*
X131778372Y-108663571D01*
X131879853Y-108418574D01*
X131935000Y-108141335D01*
X131935000Y-107858665D01*
X131879853Y-107581426D01*
X131771680Y-107320273D01*
X131614637Y-107085241D01*
X131414759Y-106885363D01*
X131179727Y-106728320D01*
X130918574Y-106620147D01*
X130641335Y-106565000D01*
X130358665Y-106565000D01*
X130081426Y-106620147D01*
X129820273Y-106728320D01*
X129585241Y-106885363D01*
X129385363Y-107085241D01*
X129228320Y-107320273D01*
X129120147Y-107581426D01*
X129065000Y-107858665D01*
X129065000Y-106630827D01*
X129070006Y-106579999D01*
X129065000Y-106529171D01*
X129065000Y-106529162D01*
X129050024Y-106377105D01*
X128990841Y-106182007D01*
X128894734Y-106002203D01*
X128765396Y-105844604D01*
X128725908Y-105812197D01*
X128227828Y-105314118D01*
X128194734Y-105252202D01*
X128097803Y-105134092D01*
X128065396Y-105094604D01*
X128025908Y-105062197D01*
X124505000Y-101541290D01*
X124505000Y-100034396D01*
X124585241Y-100114637D01*
X124820273Y-100271680D01*
X125081426Y-100379853D01*
X125358665Y-100435000D01*
X125641335Y-100435000D01*
X125918574Y-100379853D01*
X126179727Y-100271680D01*
X126414759Y-100114637D01*
X126614637Y-99914759D01*
X126771680Y-99679727D01*
X126879853Y-99418574D01*
X126935000Y-99141335D01*
X126935000Y-98858665D01*
X126879853Y-98581426D01*
X126771680Y-98320273D01*
X126614637Y-98085241D01*
X126414759Y-97885363D01*
X126385000Y-97865479D01*
X126385000Y-96115598D01*
X126669744Y-95925338D01*
X126925338Y-95669744D01*
X127126156Y-95369199D01*
X127264482Y-95035250D01*
X127335000Y-94680732D01*
X127335000Y-94319268D01*
X127264482Y-93964750D01*
X127219250Y-93855551D01*
X129284802Y-91790000D01*
X151734113Y-91789998D01*
X151725808Y-91824702D01*
X151716093Y-92076652D01*
X151755717Y-92325658D01*
X151843158Y-92562148D01*
X151889884Y-92649566D01*
X152118049Y-92702346D01*
X152820395Y-92000000D01*
X152806253Y-91985858D01*
X152985858Y-91806253D01*
X153000000Y-91820395D01*
X153014143Y-91806253D01*
X153193748Y-91985858D01*
X153179605Y-92000000D01*
X153881951Y-92702346D01*
X154110116Y-92649566D01*
X154215509Y-92420512D01*
X154274192Y-92175298D01*
X154283907Y-91923348D01*
X154244283Y-91674342D01*
X154156842Y-91437852D01*
X154149913Y-91424888D01*
X154631004Y-90943798D01*
X154660001Y-90920001D01*
X154754974Y-90804276D01*
X154825546Y-90672247D01*
X154869003Y-90528986D01*
X154880000Y-90417333D01*
X154880000Y-90417325D01*
X154883676Y-90380000D01*
X154880000Y-90342675D01*
X154880000Y-88497322D01*
X154883676Y-88459999D01*
X154880000Y-88422676D01*
X154880000Y-88422667D01*
X154869003Y-88311014D01*
X154825546Y-88167753D01*
X154754974Y-88035724D01*
X154660001Y-87919999D01*
X154630997Y-87896196D01*
X154223804Y-87489003D01*
X154200001Y-87459999D01*
X154142105Y-87412485D01*
X154134321Y-87393693D01*
X153994241Y-87184048D01*
X153815952Y-87005759D01*
X153692749Y-86923438D01*
X153702346Y-86881951D01*
X153000000Y-86179605D01*
X152297654Y-86881951D01*
X152307251Y-86923438D01*
X152184048Y-87005759D01*
X152005759Y-87184048D01*
X151865679Y-87393693D01*
X151769190Y-87626638D01*
X151720000Y-87873931D01*
X151720000Y-88126069D01*
X151769190Y-88373362D01*
X151865679Y-88606307D01*
X151971714Y-88765000D01*
X141511554Y-88765000D01*
X136637783Y-83891229D01*
X139865000Y-83891229D01*
X139865000Y-84508771D01*
X139985476Y-85114446D01*
X140221799Y-85684979D01*
X140564886Y-86198446D01*
X141001554Y-86635114D01*
X141515021Y-86978201D01*
X142085554Y-87214524D01*
X142691229Y-87335000D01*
X143308771Y-87335000D01*
X143914446Y-87214524D01*
X144484979Y-86978201D01*
X144998446Y-86635114D01*
X145435114Y-86198446D01*
X145516493Y-86076652D01*
X151716093Y-86076652D01*
X151755717Y-86325658D01*
X151843158Y-86562148D01*
X151889884Y-86649566D01*
X152118049Y-86702346D01*
X152820395Y-86000000D01*
X153179605Y-86000000D01*
X153881951Y-86702346D01*
X154110116Y-86649566D01*
X154215509Y-86420512D01*
X154274192Y-86175298D01*
X154283907Y-85923348D01*
X154244283Y-85674342D01*
X154156842Y-85437852D01*
X154110116Y-85350434D01*
X153881951Y-85297654D01*
X153179605Y-86000000D01*
X152820395Y-86000000D01*
X152118049Y-85297654D01*
X151889884Y-85350434D01*
X151784491Y-85579488D01*
X151725808Y-85824702D01*
X151716093Y-86076652D01*
X145516493Y-86076652D01*
X145778201Y-85684979D01*
X146013031Y-85118049D01*
X152297654Y-85118049D01*
X153000000Y-85820395D01*
X153702346Y-85118049D01*
X153649566Y-84889884D01*
X153420512Y-84784491D01*
X153175298Y-84725808D01*
X152923348Y-84716093D01*
X152674342Y-84755717D01*
X152437852Y-84843158D01*
X152350434Y-84889884D01*
X152297654Y-85118049D01*
X146013031Y-85118049D01*
X146014524Y-85114446D01*
X146135000Y-84508771D01*
X146135000Y-83891229D01*
X146014524Y-83285554D01*
X145778201Y-82715021D01*
X145435114Y-82201554D01*
X144998446Y-81764886D01*
X144484979Y-81421799D01*
X143914446Y-81185476D01*
X143308771Y-81065000D01*
X142691229Y-81065000D01*
X142085554Y-81185476D01*
X141515021Y-81421799D01*
X141001554Y-81764886D01*
X140564886Y-82201554D01*
X140221799Y-82715021D01*
X139985476Y-83285554D01*
X139865000Y-83891229D01*
X136637783Y-83891229D01*
X133716179Y-80969626D01*
X133677502Y-80922498D01*
X133489449Y-80768167D01*
X133274901Y-80653489D01*
X133042102Y-80582870D01*
X132860665Y-80565000D01*
X132800000Y-80559025D01*
X132739335Y-80565000D01*
X126860082Y-80565000D01*
X126669744Y-80374662D01*
X126369199Y-80173844D01*
X126035250Y-80035518D01*
X125680732Y-79965000D01*
X125319268Y-79965000D01*
X124964750Y-80035518D01*
X124630801Y-80173844D01*
X124330256Y-80374662D01*
X124074662Y-80630256D01*
X124051447Y-80665000D01*
X122822621Y-80665000D01*
X122789502Y-80555820D01*
X122730537Y-80445506D01*
X122651185Y-80348815D01*
X122554494Y-80269463D01*
X122444180Y-80210498D01*
X122324482Y-80174188D01*
X122200000Y-80161928D01*
X120120614Y-80161928D01*
X117385000Y-77426315D01*
X117385000Y-71191229D01*
X136365000Y-71191229D01*
X136365000Y-71808771D01*
X136485476Y-72414446D01*
X136721799Y-72984979D01*
X137064886Y-73498446D01*
X137501554Y-73935114D01*
X138015021Y-74278201D01*
X138585554Y-74514524D01*
X139191229Y-74635000D01*
X139808771Y-74635000D01*
X140414446Y-74514524D01*
X140984979Y-74278201D01*
X141498446Y-73935114D01*
X141935114Y-73498446D01*
X142278201Y-72984979D01*
X142514524Y-72414446D01*
X142635000Y-71808771D01*
X142635000Y-71191229D01*
X142514524Y-70585554D01*
X142278201Y-70015021D01*
X141935114Y-69501554D01*
X141498446Y-69064886D01*
X140984979Y-68721799D01*
X140414446Y-68485476D01*
X139808771Y-68365000D01*
X139191229Y-68365000D01*
X138585554Y-68485476D01*
X138015021Y-68721799D01*
X137501554Y-69064886D01*
X137064886Y-69501554D01*
X136721799Y-70015021D01*
X136485476Y-70585554D01*
X136365000Y-71191229D01*
X117385000Y-71191229D01*
X117385000Y-66135413D01*
X122044192Y-66135413D01*
X122139956Y-66399814D01*
X122429571Y-66540704D01*
X122741108Y-66622384D01*
X123062595Y-66641718D01*
X123381675Y-66597961D01*
X123686088Y-66492795D01*
X123860044Y-66399814D01*
X123955808Y-66135413D01*
X135044192Y-66135413D01*
X135139956Y-66399814D01*
X135429571Y-66540704D01*
X135741108Y-66622384D01*
X136062595Y-66641718D01*
X136381675Y-66597961D01*
X136686088Y-66492795D01*
X136860044Y-66399814D01*
X136955808Y-66135413D01*
X148044192Y-66135413D01*
X148139956Y-66399814D01*
X148429571Y-66540704D01*
X148741108Y-66622384D01*
X149062595Y-66641718D01*
X149381675Y-66597961D01*
X149686088Y-66492795D01*
X149860044Y-66399814D01*
X149955808Y-66135413D01*
X160544192Y-66135413D01*
X160639956Y-66399814D01*
X160929571Y-66540704D01*
X161241108Y-66622384D01*
X161562595Y-66641718D01*
X161881675Y-66597961D01*
X162186088Y-66492795D01*
X162360044Y-66399814D01*
X162455808Y-66135413D01*
X161500000Y-65179605D01*
X160544192Y-66135413D01*
X149955808Y-66135413D01*
X149000000Y-65179605D01*
X148044192Y-66135413D01*
X136955808Y-66135413D01*
X136000000Y-65179605D01*
X135044192Y-66135413D01*
X123955808Y-66135413D01*
X123000000Y-65179605D01*
X122044192Y-66135413D01*
X117385000Y-66135413D01*
X117385000Y-65073685D01*
X117396090Y-65062595D01*
X121358282Y-65062595D01*
X121402039Y-65381675D01*
X121507205Y-65686088D01*
X121600186Y-65860044D01*
X121864587Y-65955808D01*
X122820395Y-65000000D01*
X123179605Y-65000000D01*
X124135413Y-65955808D01*
X124399814Y-65860044D01*
X124540704Y-65570429D01*
X124622384Y-65258892D01*
X124634189Y-65062595D01*
X134358282Y-65062595D01*
X134402039Y-65381675D01*
X134507205Y-65686088D01*
X134600186Y-65860044D01*
X134864587Y-65955808D01*
X135820395Y-65000000D01*
X136179605Y-65000000D01*
X137135413Y-65955808D01*
X137399814Y-65860044D01*
X137540704Y-65570429D01*
X137622384Y-65258892D01*
X137634189Y-65062595D01*
X147358282Y-65062595D01*
X147402039Y-65381675D01*
X147507205Y-65686088D01*
X147600186Y-65860044D01*
X147864587Y-65955808D01*
X148820395Y-65000000D01*
X149179605Y-65000000D01*
X150135413Y-65955808D01*
X150399814Y-65860044D01*
X150540704Y-65570429D01*
X150622384Y-65258892D01*
X150634189Y-65062595D01*
X159858282Y-65062595D01*
X159902039Y-65381675D01*
X160007205Y-65686088D01*
X160100186Y-65860044D01*
X160364587Y-65955808D01*
X161320395Y-65000000D01*
X161679605Y-65000000D01*
X162635413Y-65955808D01*
X162899814Y-65860044D01*
X163040704Y-65570429D01*
X163122384Y-65258892D01*
X163141718Y-64937405D01*
X163097961Y-64618325D01*
X162992795Y-64313912D01*
X162899814Y-64139956D01*
X162635413Y-64044192D01*
X161679605Y-65000000D01*
X161320395Y-65000000D01*
X160364587Y-64044192D01*
X160100186Y-64139956D01*
X159959296Y-64429571D01*
X159877616Y-64741108D01*
X159858282Y-65062595D01*
X150634189Y-65062595D01*
X150641718Y-64937405D01*
X150597961Y-64618325D01*
X150492795Y-64313912D01*
X150399814Y-64139956D01*
X150135413Y-64044192D01*
X149179605Y-65000000D01*
X148820395Y-65000000D01*
X147864587Y-64044192D01*
X147600186Y-64139956D01*
X147459296Y-64429571D01*
X147377616Y-64741108D01*
X147358282Y-65062595D01*
X137634189Y-65062595D01*
X137641718Y-64937405D01*
X137597961Y-64618325D01*
X137492795Y-64313912D01*
X137399814Y-64139956D01*
X137135413Y-64044192D01*
X136179605Y-65000000D01*
X135820395Y-65000000D01*
X134864587Y-64044192D01*
X134600186Y-64139956D01*
X134459296Y-64429571D01*
X134377616Y-64741108D01*
X134358282Y-65062595D01*
X124634189Y-65062595D01*
X124641718Y-64937405D01*
X124597961Y-64618325D01*
X124492795Y-64313912D01*
X124399814Y-64139956D01*
X124135413Y-64044192D01*
X123179605Y-65000000D01*
X122820395Y-65000000D01*
X121864587Y-64044192D01*
X121600186Y-64139956D01*
X121459296Y-64429571D01*
X121377616Y-64741108D01*
X121358282Y-65062595D01*
X117396090Y-65062595D01*
X118594098Y-63864587D01*
X122044192Y-63864587D01*
X123000000Y-64820395D01*
X123955808Y-63864587D01*
X135044192Y-63864587D01*
X136000000Y-64820395D01*
X136955808Y-63864587D01*
X148044192Y-63864587D01*
X149000000Y-64820395D01*
X149955808Y-63864587D01*
X160544192Y-63864587D01*
X161500000Y-64820395D01*
X162455808Y-63864587D01*
X162360044Y-63600186D01*
X162070429Y-63459296D01*
X161758892Y-63377616D01*
X161437405Y-63358282D01*
X161118325Y-63402039D01*
X160813912Y-63507205D01*
X160639956Y-63600186D01*
X160544192Y-63864587D01*
X149955808Y-63864587D01*
X149860044Y-63600186D01*
X149570429Y-63459296D01*
X149258892Y-63377616D01*
X148937405Y-63358282D01*
X148618325Y-63402039D01*
X148313912Y-63507205D01*
X148139956Y-63600186D01*
X148044192Y-63864587D01*
X136955808Y-63864587D01*
X136860044Y-63600186D01*
X136570429Y-63459296D01*
X136258892Y-63377616D01*
X135937405Y-63358282D01*
X135618325Y-63402039D01*
X135313912Y-63507205D01*
X135139956Y-63600186D01*
X135044192Y-63864587D01*
X123955808Y-63864587D01*
X123860044Y-63600186D01*
X123570429Y-63459296D01*
X123258892Y-63377616D01*
X122937405Y-63358282D01*
X122618325Y-63402039D01*
X122313912Y-63507205D01*
X122139956Y-63600186D01*
X122044192Y-63864587D01*
X118594098Y-63864587D01*
X121073686Y-61385000D01*
X121494499Y-61385000D01*
X121548815Y-61451185D01*
X121645506Y-61530537D01*
X121755820Y-61589502D01*
X121875518Y-61625812D01*
X122000000Y-61638072D01*
X124000000Y-61638072D01*
X124124482Y-61625812D01*
X124244180Y-61589502D01*
X124354494Y-61530537D01*
X124451185Y-61451185D01*
X124505501Y-61385000D01*
X134494499Y-61385000D01*
X134548815Y-61451185D01*
X134645506Y-61530537D01*
X134755820Y-61589502D01*
X134875518Y-61625812D01*
X135000000Y-61638072D01*
X137000000Y-61638072D01*
X137124482Y-61625812D01*
X137244180Y-61589502D01*
X137354494Y-61530537D01*
X137451185Y-61451185D01*
X137505501Y-61385000D01*
X147494499Y-61385000D01*
X147548815Y-61451185D01*
X147645506Y-61530537D01*
X147755820Y-61589502D01*
X147875518Y-61625812D01*
X148000000Y-61638072D01*
X150000000Y-61638072D01*
X150124482Y-61625812D01*
X150244180Y-61589502D01*
X150354494Y-61530537D01*
X150451185Y-61451185D01*
X150505501Y-61385000D01*
X159994499Y-61385000D01*
X160048815Y-61451185D01*
X160145506Y-61530537D01*
X160255820Y-61589502D01*
X160375518Y-61625812D01*
X160500000Y-61638072D01*
X162500000Y-61638072D01*
X162624482Y-61625812D01*
X162744180Y-61589502D01*
X162854494Y-61530537D01*
X162951185Y-61451185D01*
X163005501Y-61385000D01*
X167646315Y-61385000D01*
X172232550Y-65971236D01*
X172275919Y-66024081D01*
X172328764Y-66067450D01*
X172328766Y-66067452D01*
X172411577Y-66135413D01*
X172486812Y-66197157D01*
X172727419Y-66325764D01*
X172988493Y-66404960D01*
X173191963Y-66425000D01*
X173191972Y-66425000D01*
X173259999Y-66431700D01*
X173328026Y-66425000D01*
X175963195Y-66425000D01*
X176066842Y-66467932D01*
X176353740Y-66525000D01*
X176646260Y-66525000D01*
X176933158Y-66467932D01*
X177036805Y-66425000D01*
X179466315Y-66425000D01*
X188115000Y-75073686D01*
X188115001Y-122386313D01*
X177386315Y-133115000D01*
X169892699Y-133115000D01*
X169641335Y-133065000D01*
X169358665Y-133065000D01*
X169107301Y-133115000D01*
X163005501Y-133115000D01*
X162951185Y-133048815D01*
X162854494Y-132969463D01*
X162744180Y-132910498D01*
X162624482Y-132874188D01*
X162500000Y-132861928D01*
X160500000Y-132861928D01*
X160375518Y-132874188D01*
X160255820Y-132910498D01*
X160145506Y-132969463D01*
X160048815Y-133048815D01*
X159994499Y-133115000D01*
X150505501Y-133115000D01*
X150451185Y-133048815D01*
X150354494Y-132969463D01*
X150244180Y-132910498D01*
X150124482Y-132874188D01*
X150000000Y-132861928D01*
X148000000Y-132861928D01*
X147875518Y-132874188D01*
X147755820Y-132910498D01*
X147645506Y-132969463D01*
X147548815Y-133048815D01*
X147494499Y-133115000D01*
X137505501Y-133115000D01*
X137451185Y-133048815D01*
X137354494Y-132969463D01*
X137244180Y-132910498D01*
X137124482Y-132874188D01*
X137000000Y-132861928D01*
X135000000Y-132861928D01*
X134875518Y-132874188D01*
X134755820Y-132910498D01*
X134645506Y-132969463D01*
X134548815Y-133048815D01*
X134494499Y-133115000D01*
X126313685Y-133115000D01*
X128793272Y-130635413D01*
X135044192Y-130635413D01*
X135139956Y-130899814D01*
X135429571Y-131040704D01*
X135741108Y-131122384D01*
X136062595Y-131141718D01*
X136381675Y-131097961D01*
X136686088Y-130992795D01*
X136860044Y-130899814D01*
X136955808Y-130635413D01*
X148044192Y-130635413D01*
X148139956Y-130899814D01*
X148429571Y-131040704D01*
X148741108Y-131122384D01*
X149062595Y-131141718D01*
X149381675Y-131097961D01*
X149686088Y-130992795D01*
X149860044Y-130899814D01*
X149955808Y-130635413D01*
X160544192Y-130635413D01*
X160639956Y-130899814D01*
X160929571Y-131040704D01*
X161241108Y-131122384D01*
X161562595Y-131141718D01*
X161881675Y-131097961D01*
X162186088Y-130992795D01*
X162360044Y-130899814D01*
X162455808Y-130635413D01*
X162313097Y-130492702D01*
X168686903Y-130492702D01*
X168758486Y-130736671D01*
X169013996Y-130857571D01*
X169288184Y-130926300D01*
X169570512Y-130940217D01*
X169850130Y-130898787D01*
X170116292Y-130803603D01*
X170241514Y-130736671D01*
X170313097Y-130492702D01*
X169500000Y-129679605D01*
X168686903Y-130492702D01*
X162313097Y-130492702D01*
X161500000Y-129679605D01*
X160544192Y-130635413D01*
X149955808Y-130635413D01*
X149000000Y-129679605D01*
X148044192Y-130635413D01*
X136955808Y-130635413D01*
X136000000Y-129679605D01*
X135044192Y-130635413D01*
X128793272Y-130635413D01*
X129866090Y-129562595D01*
X134358282Y-129562595D01*
X134402039Y-129881675D01*
X134507205Y-130186088D01*
X134600186Y-130360044D01*
X134864587Y-130455808D01*
X135820395Y-129500000D01*
X136179605Y-129500000D01*
X137135413Y-130455808D01*
X137399814Y-130360044D01*
X137540704Y-130070429D01*
X137622384Y-129758892D01*
X137634189Y-129562595D01*
X147358282Y-129562595D01*
X147402039Y-129881675D01*
X147507205Y-130186088D01*
X147600186Y-130360044D01*
X147864587Y-130455808D01*
X148820395Y-129500000D01*
X149179605Y-129500000D01*
X150135413Y-130455808D01*
X150399814Y-130360044D01*
X150540704Y-130070429D01*
X150622384Y-129758892D01*
X150634189Y-129562595D01*
X159858282Y-129562595D01*
X159902039Y-129881675D01*
X160007205Y-130186088D01*
X160100186Y-130360044D01*
X160364587Y-130455808D01*
X161320395Y-129500000D01*
X161679605Y-129500000D01*
X162635413Y-130455808D01*
X162899814Y-130360044D01*
X163040704Y-130070429D01*
X163122384Y-129758892D01*
X163133713Y-129570512D01*
X168059783Y-129570512D01*
X168101213Y-129850130D01*
X168196397Y-130116292D01*
X168263329Y-130241514D01*
X168507298Y-130313097D01*
X169320395Y-129500000D01*
X169679605Y-129500000D01*
X170492702Y-130313097D01*
X170736671Y-130241514D01*
X170857571Y-129986004D01*
X170926300Y-129711816D01*
X170940217Y-129429488D01*
X170898787Y-129149870D01*
X170803603Y-128883708D01*
X170736671Y-128758486D01*
X170492702Y-128686903D01*
X169679605Y-129500000D01*
X169320395Y-129500000D01*
X168507298Y-128686903D01*
X168263329Y-128758486D01*
X168142429Y-129013996D01*
X168073700Y-129288184D01*
X168059783Y-129570512D01*
X163133713Y-129570512D01*
X163141718Y-129437405D01*
X163097961Y-129118325D01*
X162992795Y-128813912D01*
X162899814Y-128639956D01*
X162635413Y-128544192D01*
X161679605Y-129500000D01*
X161320395Y-129500000D01*
X160364587Y-128544192D01*
X160100186Y-128639956D01*
X159959296Y-128929571D01*
X159877616Y-129241108D01*
X159858282Y-129562595D01*
X150634189Y-129562595D01*
X150641718Y-129437405D01*
X150597961Y-129118325D01*
X150492795Y-128813912D01*
X150399814Y-128639956D01*
X150135413Y-128544192D01*
X149179605Y-129500000D01*
X148820395Y-129500000D01*
X147864587Y-128544192D01*
X147600186Y-128639956D01*
X147459296Y-128929571D01*
X147377616Y-129241108D01*
X147358282Y-129562595D01*
X137634189Y-129562595D01*
X137641718Y-129437405D01*
X137597961Y-129118325D01*
X137492795Y-128813912D01*
X137399814Y-128639956D01*
X137135413Y-128544192D01*
X136179605Y-129500000D01*
X135820395Y-129500000D01*
X134864587Y-128544192D01*
X134600186Y-128639956D01*
X134459296Y-128929571D01*
X134377616Y-129241108D01*
X134358282Y-129562595D01*
X129866090Y-129562595D01*
X131064098Y-128364587D01*
X135044192Y-128364587D01*
X136000000Y-129320395D01*
X136955808Y-128364587D01*
X148044192Y-128364587D01*
X149000000Y-129320395D01*
X149955808Y-128364587D01*
X160544192Y-128364587D01*
X161500000Y-129320395D01*
X162313097Y-128507298D01*
X168686903Y-128507298D01*
X169500000Y-129320395D01*
X170313097Y-128507298D01*
X170241514Y-128263329D01*
X169986004Y-128142429D01*
X169711816Y-128073700D01*
X169429488Y-128059783D01*
X169149870Y-128101213D01*
X168883708Y-128196397D01*
X168758486Y-128263329D01*
X168686903Y-128507298D01*
X162313097Y-128507298D01*
X162455808Y-128364587D01*
X162360044Y-128100186D01*
X162070429Y-127959296D01*
X161758892Y-127877616D01*
X161437405Y-127858282D01*
X161118325Y-127902039D01*
X160813912Y-128007205D01*
X160639956Y-128100186D01*
X160544192Y-128364587D01*
X149955808Y-128364587D01*
X149860044Y-128100186D01*
X149570429Y-127959296D01*
X149258892Y-127877616D01*
X148937405Y-127858282D01*
X148618325Y-127902039D01*
X148313912Y-128007205D01*
X148139956Y-128100186D01*
X148044192Y-128364587D01*
X136955808Y-128364587D01*
X136860044Y-128100186D01*
X136570429Y-127959296D01*
X136258892Y-127877616D01*
X135937405Y-127858282D01*
X135618325Y-127902039D01*
X135313912Y-128007205D01*
X135139956Y-128100186D01*
X135044192Y-128364587D01*
X131064098Y-128364587D01*
X133003686Y-126425000D01*
X145631971Y-126425000D01*
X145700000Y-126431700D01*
X145768029Y-126425000D01*
X145768037Y-126425000D01*
X145971507Y-126404960D01*
X146232581Y-126325764D01*
X146473188Y-126197157D01*
X146684081Y-126024081D01*
X146727454Y-125971231D01*
X149827456Y-122871229D01*
X155365000Y-122871229D01*
X155365000Y-123488771D01*
X155485476Y-124094446D01*
X155721799Y-124664979D01*
X156064886Y-125178446D01*
X156501554Y-125615114D01*
X157015021Y-125958201D01*
X157585554Y-126194524D01*
X158191229Y-126315000D01*
X158808771Y-126315000D01*
X159414446Y-126194524D01*
X159984979Y-125958201D01*
X160498446Y-125615114D01*
X160935114Y-125178446D01*
X161278201Y-124664979D01*
X161514524Y-124094446D01*
X161635000Y-123488771D01*
X161635000Y-122871229D01*
X161514524Y-122265554D01*
X161278201Y-121695021D01*
X160935114Y-121181554D01*
X160498446Y-120744886D01*
X159984979Y-120401799D01*
X159414446Y-120165476D01*
X158808771Y-120045000D01*
X158191229Y-120045000D01*
X157585554Y-120165476D01*
X157015021Y-120401799D01*
X156501554Y-120744886D01*
X156064886Y-121181554D01*
X155721799Y-121695021D01*
X155485476Y-122265554D01*
X155365000Y-122871229D01*
X149827456Y-122871229D01*
X150581241Y-122117445D01*
X150634080Y-122074081D01*
X150677445Y-122021241D01*
X150677452Y-122021234D01*
X150807157Y-121863188D01*
X150935764Y-121622581D01*
X151014960Y-121361507D01*
X151026059Y-121248815D01*
X151035000Y-121158037D01*
X151035000Y-121158029D01*
X151041700Y-121090000D01*
X151035000Y-121021971D01*
X151035000Y-112775988D01*
X151083468Y-112835046D01*
X151083471Y-112835049D01*
X151111184Y-112868817D01*
X151144951Y-112896529D01*
X153204954Y-114956533D01*
X153204959Y-114956537D01*
X153231811Y-114983389D01*
X153165000Y-115319268D01*
X153165000Y-115680732D01*
X153235518Y-116035250D01*
X153373844Y-116369199D01*
X153574662Y-116669744D01*
X153830256Y-116925338D01*
X154130801Y-117126156D01*
X154464750Y-117264482D01*
X154819268Y-117335000D01*
X155180732Y-117335000D01*
X155535250Y-117264482D01*
X155869199Y-117126156D01*
X156169744Y-116925338D01*
X156425338Y-116669744D01*
X156615598Y-116385000D01*
X160733422Y-116385000D01*
X171955000Y-127606579D01*
X171955000Y-127841335D01*
X172010147Y-128118574D01*
X172118320Y-128379727D01*
X172275363Y-128614759D01*
X172475241Y-128814637D01*
X172710273Y-128971680D01*
X172971426Y-129079853D01*
X173248665Y-129135000D01*
X173531335Y-129135000D01*
X173808574Y-129079853D01*
X174069727Y-128971680D01*
X174304759Y-128814637D01*
X174426694Y-128692702D01*
X177576903Y-128692702D01*
X177648486Y-128936671D01*
X177903996Y-129057571D01*
X178178184Y-129126300D01*
X178460512Y-129140217D01*
X178740130Y-129098787D01*
X179006292Y-129003603D01*
X179131514Y-128936671D01*
X179203097Y-128692702D01*
X178390000Y-127879605D01*
X177576903Y-128692702D01*
X174426694Y-128692702D01*
X174504637Y-128614759D01*
X174661680Y-128379727D01*
X174769853Y-128118574D01*
X174825000Y-127841335D01*
X174825000Y-127770512D01*
X176949783Y-127770512D01*
X176991213Y-128050130D01*
X177086397Y-128316292D01*
X177153329Y-128441514D01*
X177397298Y-128513097D01*
X178210395Y-127700000D01*
X178569605Y-127700000D01*
X179382702Y-128513097D01*
X179626671Y-128441514D01*
X179747571Y-128186004D01*
X179816300Y-127911816D01*
X179830217Y-127629488D01*
X179788787Y-127349870D01*
X179693603Y-127083708D01*
X179626671Y-126958486D01*
X179382702Y-126886903D01*
X178569605Y-127700000D01*
X178210395Y-127700000D01*
X177397298Y-126886903D01*
X177153329Y-126958486D01*
X177032429Y-127213996D01*
X176963700Y-127488184D01*
X176949783Y-127770512D01*
X174825000Y-127770512D01*
X174825000Y-127558665D01*
X174769853Y-127281426D01*
X174661680Y-127020273D01*
X174504637Y-126785241D01*
X174426694Y-126707298D01*
X177576903Y-126707298D01*
X178390000Y-127520395D01*
X179203097Y-126707298D01*
X179131514Y-126463329D01*
X178876004Y-126342429D01*
X178601816Y-126273700D01*
X178319488Y-126259783D01*
X178039870Y-126301213D01*
X177773708Y-126396397D01*
X177648486Y-126463329D01*
X177576903Y-126707298D01*
X174426694Y-126707298D01*
X174304759Y-126585363D01*
X174069727Y-126428320D01*
X173808574Y-126320147D01*
X173531335Y-126265000D01*
X173248665Y-126265000D01*
X173138494Y-126286915D01*
X161756534Y-114904956D01*
X161728817Y-114871183D01*
X161594059Y-114760589D01*
X161440313Y-114678411D01*
X161273490Y-114627805D01*
X161143477Y-114615000D01*
X161143469Y-114615000D01*
X161100000Y-114610719D01*
X161056531Y-114615000D01*
X156615598Y-114615000D01*
X156425338Y-114330256D01*
X156169744Y-114074662D01*
X155869199Y-113873844D01*
X155535250Y-113735518D01*
X155180732Y-113665000D01*
X154819268Y-113665000D01*
X154483389Y-113731811D01*
X154456537Y-113704959D01*
X154456533Y-113704954D01*
X152625000Y-111873422D01*
X152625000Y-109645000D01*
X155716928Y-109645000D01*
X155729188Y-109769482D01*
X155765498Y-109889180D01*
X155824463Y-109999494D01*
X155903815Y-110096185D01*
X156000506Y-110175537D01*
X156110820Y-110234502D01*
X156230518Y-110270812D01*
X156355000Y-110283072D01*
X156714250Y-110280000D01*
X156873000Y-110121250D01*
X156873000Y-109127000D01*
X157127000Y-109127000D01*
X157127000Y-110121250D01*
X157285750Y-110280000D01*
X157645000Y-110283072D01*
X157769482Y-110270812D01*
X157889180Y-110234502D01*
X157999494Y-110175537D01*
X158096185Y-110096185D01*
X158175537Y-109999494D01*
X158234502Y-109889180D01*
X158270812Y-109769482D01*
X158283072Y-109645000D01*
X158280000Y-109285750D01*
X158121250Y-109127000D01*
X157127000Y-109127000D01*
X156873000Y-109127000D01*
X155878750Y-109127000D01*
X155720000Y-109285750D01*
X155716928Y-109645000D01*
X152625000Y-109645000D01*
X152625000Y-109226401D01*
X152824702Y-109274192D01*
X153076652Y-109283907D01*
X153325658Y-109244283D01*
X153562148Y-109156842D01*
X153649566Y-109110116D01*
X153702346Y-108881951D01*
X153000000Y-108179605D01*
X152985858Y-108193748D01*
X152806253Y-108014143D01*
X152820395Y-108000000D01*
X153179605Y-108000000D01*
X153881951Y-108702346D01*
X154110116Y-108649566D01*
X154215509Y-108420512D01*
X154274192Y-108175298D01*
X154283907Y-107923348D01*
X154244283Y-107674342D01*
X154156842Y-107437852D01*
X154110116Y-107350434D01*
X153881951Y-107297654D01*
X153179605Y-108000000D01*
X152820395Y-108000000D01*
X152806253Y-107985858D01*
X152985858Y-107806253D01*
X153000000Y-107820395D01*
X153702346Y-107118049D01*
X153692749Y-107076562D01*
X153815952Y-106994241D01*
X153994241Y-106815952D01*
X154134321Y-106606307D01*
X154230810Y-106373362D01*
X154280000Y-106126069D01*
X154280000Y-105873931D01*
X154230810Y-105626638D01*
X154134321Y-105393693D01*
X153994241Y-105184048D01*
X153879830Y-105069637D01*
X153984081Y-104984081D01*
X154157157Y-104773188D01*
X154285764Y-104532581D01*
X154364960Y-104271507D01*
X154391701Y-104000000D01*
X154364960Y-103728493D01*
X154285764Y-103467419D01*
X154157157Y-103226812D01*
X153984081Y-103015919D01*
X153773188Y-102842843D01*
X153536985Y-102716590D01*
X153000000Y-102179605D01*
X152985858Y-102193748D01*
X152806253Y-102014143D01*
X152820395Y-102000000D01*
X153179605Y-102000000D01*
X153881951Y-102702346D01*
X154110116Y-102649566D01*
X154215509Y-102420512D01*
X154274192Y-102175298D01*
X154283907Y-101923348D01*
X154244283Y-101674342D01*
X154156842Y-101437852D01*
X154110116Y-101350434D01*
X153881951Y-101297654D01*
X153179605Y-102000000D01*
X152820395Y-102000000D01*
X152118049Y-101297654D01*
X151889884Y-101350434D01*
X151784491Y-101579488D01*
X151725808Y-101824702D01*
X151716093Y-102076652D01*
X151755717Y-102325658D01*
X151843158Y-102562148D01*
X151871408Y-102615000D01*
X151818026Y-102615000D01*
X151749999Y-102608300D01*
X151681972Y-102615000D01*
X151681963Y-102615000D01*
X151478493Y-102635040D01*
X151217419Y-102714236D01*
X150976812Y-102842843D01*
X150765919Y-103015919D01*
X150722546Y-103068769D01*
X148718765Y-105072550D01*
X148665920Y-105115919D01*
X148622551Y-105168764D01*
X148622548Y-105168767D01*
X148492844Y-105326812D01*
X148364236Y-105567420D01*
X148285040Y-105828493D01*
X148258300Y-106100000D01*
X148265001Y-106168039D01*
X148265000Y-120516314D01*
X145126315Y-123655000D01*
X132498029Y-123655000D01*
X132430000Y-123648300D01*
X132361971Y-123655000D01*
X132361963Y-123655000D01*
X132181892Y-123672735D01*
X132158492Y-123675040D01*
X131966805Y-123733188D01*
X131897419Y-123754236D01*
X131656812Y-123882843D01*
X131582194Y-123944081D01*
X131498766Y-124012548D01*
X131498764Y-124012550D01*
X131445919Y-124055919D01*
X131402550Y-124108764D01*
X122649387Y-132861928D01*
X122000000Y-132861928D01*
X121875518Y-132874188D01*
X121755820Y-132910498D01*
X121645506Y-132969463D01*
X121548815Y-133048815D01*
X121469463Y-133145506D01*
X121410498Y-133255820D01*
X121374188Y-133375518D01*
X121361928Y-133500000D01*
X121361928Y-135500000D01*
X121374188Y-135624482D01*
X121410498Y-135744180D01*
X121469463Y-135854494D01*
X121548815Y-135951185D01*
X121645506Y-136030537D01*
X121755820Y-136089502D01*
X121875518Y-136125812D01*
X122000000Y-136138072D01*
X124000000Y-136138072D01*
X124124482Y-136125812D01*
X124244180Y-136089502D01*
X124354494Y-136030537D01*
X124451185Y-135951185D01*
X124505501Y-135885000D01*
X134494499Y-135885000D01*
X134548815Y-135951185D01*
X134645506Y-136030537D01*
X134755820Y-136089502D01*
X134875518Y-136125812D01*
X135000000Y-136138072D01*
X137000000Y-136138072D01*
X137124482Y-136125812D01*
X137244180Y-136089502D01*
X137354494Y-136030537D01*
X137451185Y-135951185D01*
X137505501Y-135885000D01*
X147494499Y-135885000D01*
X147548815Y-135951185D01*
X147645506Y-136030537D01*
X147755820Y-136089502D01*
X147875518Y-136125812D01*
X148000000Y-136138072D01*
X150000000Y-136138072D01*
X150124482Y-136125812D01*
X150244180Y-136089502D01*
X150354494Y-136030537D01*
X150451185Y-135951185D01*
X150505501Y-135885000D01*
X159994499Y-135885000D01*
X160048815Y-135951185D01*
X160145506Y-136030537D01*
X160255820Y-136089502D01*
X160375518Y-136125812D01*
X160500000Y-136138072D01*
X162500000Y-136138072D01*
X162624482Y-136125812D01*
X162744180Y-136089502D01*
X162854494Y-136030537D01*
X162951185Y-135951185D01*
X163005501Y-135885000D01*
X169107301Y-135885000D01*
X169358665Y-135935000D01*
X169641335Y-135935000D01*
X169892699Y-135885000D01*
X177891971Y-135885000D01*
X177960000Y-135891700D01*
X178028029Y-135885000D01*
X178028037Y-135885000D01*
X178231507Y-135864960D01*
X178492581Y-135785764D01*
X178651386Y-135700881D01*
X184978724Y-135700881D01*
X185338912Y-136190548D01*
X186002882Y-136550849D01*
X186724385Y-136774694D01*
X187475695Y-136853480D01*
X188227938Y-136784178D01*
X188952208Y-136569452D01*
X189620670Y-136217555D01*
X189661088Y-136190548D01*
X190021276Y-135700881D01*
X187500000Y-133179605D01*
X184978724Y-135700881D01*
X178651386Y-135700881D01*
X178733188Y-135657157D01*
X178944081Y-135484081D01*
X178987454Y-135431231D01*
X181442990Y-132975695D01*
X183646520Y-132975695D01*
X183715822Y-133727938D01*
X183930548Y-134452208D01*
X184282445Y-135120670D01*
X184309452Y-135161088D01*
X184799119Y-135521276D01*
X187320395Y-133000000D01*
X187679605Y-133000000D01*
X190200881Y-135521276D01*
X190690548Y-135161088D01*
X191050849Y-134497118D01*
X191274694Y-133775615D01*
X191353480Y-133024305D01*
X191284178Y-132272062D01*
X191069452Y-131547792D01*
X190717555Y-130879330D01*
X190690548Y-130838912D01*
X190200881Y-130478724D01*
X187679605Y-133000000D01*
X187320395Y-133000000D01*
X184799119Y-130478724D01*
X184309452Y-130838912D01*
X183949151Y-131502882D01*
X183725306Y-132224385D01*
X183646520Y-132975695D01*
X181442990Y-132975695D01*
X184119566Y-130299119D01*
X184978724Y-130299119D01*
X187500000Y-132820395D01*
X190021276Y-130299119D01*
X189661088Y-129809452D01*
X188997118Y-129449151D01*
X188275615Y-129225306D01*
X187524305Y-129146520D01*
X186772062Y-129215822D01*
X186047792Y-129430548D01*
X185379330Y-129782445D01*
X185338912Y-129809452D01*
X184978724Y-130299119D01*
X184119566Y-130299119D01*
X190431236Y-123987450D01*
X190484081Y-123944081D01*
X190577265Y-123830537D01*
X190657157Y-123733188D01*
X190785764Y-123492581D01*
X190864960Y-123231507D01*
X190891701Y-122960000D01*
X190885000Y-122891963D01*
X190885000Y-74568026D01*
X190891700Y-74499999D01*
X190885000Y-74431972D01*
X190885000Y-74431963D01*
X190864960Y-74228493D01*
X190785764Y-73967419D01*
X190657157Y-73726812D01*
X190614215Y-73674487D01*
X190527452Y-73568766D01*
X190527445Y-73568759D01*
X190484080Y-73515919D01*
X190431241Y-73472555D01*
X181659567Y-64700881D01*
X184978724Y-64700881D01*
X185338912Y-65190548D01*
X186002882Y-65550849D01*
X186724385Y-65774694D01*
X187475695Y-65853480D01*
X188227938Y-65784178D01*
X188952208Y-65569452D01*
X189620670Y-65217555D01*
X189661088Y-65190548D01*
X190021276Y-64700881D01*
X187500000Y-62179605D01*
X184978724Y-64700881D01*
X181659567Y-64700881D01*
X181067454Y-64108769D01*
X181024081Y-64055919D01*
X180813188Y-63882843D01*
X180572581Y-63754236D01*
X180311507Y-63675040D01*
X180108037Y-63655000D01*
X180108029Y-63655000D01*
X180040000Y-63648300D01*
X179971971Y-63655000D01*
X177906993Y-63655000D01*
X177939502Y-63594180D01*
X177975812Y-63474482D01*
X177988072Y-63350000D01*
X177985000Y-62785750D01*
X177826250Y-62627000D01*
X176627000Y-62627000D01*
X176627000Y-62647000D01*
X176373000Y-62647000D01*
X176373000Y-62627000D01*
X175173750Y-62627000D01*
X175015000Y-62785750D01*
X175011928Y-63350000D01*
X175024188Y-63474482D01*
X175060498Y-63594180D01*
X175093007Y-63655000D01*
X173833686Y-63655000D01*
X171828686Y-61650000D01*
X175011928Y-61650000D01*
X175015000Y-62214250D01*
X175173750Y-62373000D01*
X176373000Y-62373000D01*
X176373000Y-61173750D01*
X176627000Y-61173750D01*
X176627000Y-62373000D01*
X177826250Y-62373000D01*
X177985000Y-62214250D01*
X177986298Y-61975695D01*
X183646520Y-61975695D01*
X183715822Y-62727938D01*
X183930548Y-63452208D01*
X184282445Y-64120670D01*
X184309452Y-64161088D01*
X184799119Y-64521276D01*
X187320395Y-62000000D01*
X187679605Y-62000000D01*
X190200881Y-64521276D01*
X190690548Y-64161088D01*
X191050849Y-63497118D01*
X191274694Y-62775615D01*
X191353480Y-62024305D01*
X191284178Y-61272062D01*
X191069452Y-60547792D01*
X190717555Y-59879330D01*
X190690548Y-59838912D01*
X190200881Y-59478724D01*
X187679605Y-62000000D01*
X187320395Y-62000000D01*
X184799119Y-59478724D01*
X184309452Y-59838912D01*
X183949151Y-60502882D01*
X183725306Y-61224385D01*
X183646520Y-61975695D01*
X177986298Y-61975695D01*
X177988072Y-61650000D01*
X177975812Y-61525518D01*
X177939502Y-61405820D01*
X177880537Y-61295506D01*
X177801185Y-61198815D01*
X177704494Y-61119463D01*
X177594180Y-61060498D01*
X177474482Y-61024188D01*
X177350000Y-61011928D01*
X176785750Y-61015000D01*
X176627000Y-61173750D01*
X176373000Y-61173750D01*
X176214250Y-61015000D01*
X175650000Y-61011928D01*
X175525518Y-61024188D01*
X175405820Y-61060498D01*
X175295506Y-61119463D01*
X175198815Y-61198815D01*
X175119463Y-61295506D01*
X175060498Y-61405820D01*
X175024188Y-61525518D01*
X175011928Y-61650000D01*
X171828686Y-61650000D01*
X169477805Y-59299119D01*
X184978724Y-59299119D01*
X187500000Y-61820395D01*
X190021276Y-59299119D01*
X189661088Y-58809452D01*
X188997118Y-58449151D01*
X188275615Y-58225306D01*
X187524305Y-58146520D01*
X186772062Y-58215822D01*
X186047792Y-58430548D01*
X185379330Y-58782445D01*
X185338912Y-58809452D01*
X184978724Y-59299119D01*
X169477805Y-59299119D01*
X169247454Y-59068769D01*
X169204081Y-59015919D01*
X168993188Y-58842843D01*
X168752581Y-58714236D01*
X168491507Y-58635040D01*
X168288037Y-58615000D01*
X168288029Y-58615000D01*
X168220000Y-58608300D01*
X168151971Y-58615000D01*
X163005501Y-58615000D01*
X162951185Y-58548815D01*
X162854494Y-58469463D01*
X162744180Y-58410498D01*
X162624482Y-58374188D01*
X162500000Y-58361928D01*
X160500000Y-58361928D01*
X160375518Y-58374188D01*
X160255820Y-58410498D01*
X160145506Y-58469463D01*
X160048815Y-58548815D01*
X159994499Y-58615000D01*
X150505501Y-58615000D01*
X150451185Y-58548815D01*
X150354494Y-58469463D01*
X150244180Y-58410498D01*
X150124482Y-58374188D01*
X150000000Y-58361928D01*
X148000000Y-58361928D01*
X147875518Y-58374188D01*
X147755820Y-58410498D01*
X147645506Y-58469463D01*
X147548815Y-58548815D01*
X147494499Y-58615000D01*
X137505501Y-58615000D01*
X137451185Y-58548815D01*
X137354494Y-58469463D01*
X137244180Y-58410498D01*
X137124482Y-58374188D01*
X137000000Y-58361928D01*
X135000000Y-58361928D01*
X134875518Y-58374188D01*
X134755820Y-58410498D01*
X134645506Y-58469463D01*
X134548815Y-58548815D01*
X134494499Y-58615000D01*
X124505501Y-58615000D01*
X124451185Y-58548815D01*
X124354494Y-58469463D01*
X124244180Y-58410498D01*
X124124482Y-58374188D01*
X124000000Y-58361928D01*
X122000000Y-58361928D01*
X121875518Y-58374188D01*
X121755820Y-58410498D01*
X121645506Y-58469463D01*
X121548815Y-58548815D01*
X121494499Y-58615000D01*
X120568028Y-58615000D01*
X120499999Y-58608300D01*
X120431970Y-58615000D01*
X120431963Y-58615000D01*
X120254099Y-58632518D01*
X120228492Y-58635040D01*
X120095002Y-58675534D01*
X119967419Y-58714236D01*
X119726812Y-58842843D01*
X119695740Y-58868343D01*
X119568766Y-58972548D01*
X119568764Y-58972550D01*
X119515919Y-59015919D01*
X119472550Y-59068764D01*
X115068765Y-63472550D01*
X115015919Y-63515920D01*
X114842843Y-63726813D01*
X114714237Y-63967419D01*
X114714236Y-63967420D01*
X114651730Y-64173476D01*
X114635040Y-64228494D01*
X114615000Y-64431964D01*
X114615000Y-64431971D01*
X114608300Y-64500000D01*
X114615000Y-64568029D01*
X114615001Y-77931961D01*
X114608300Y-78000000D01*
X114635040Y-78271507D01*
X114714236Y-78532580D01*
X114842844Y-78773188D01*
X114972548Y-78931233D01*
X114972551Y-78931236D01*
X115015920Y-78984081D01*
X115068764Y-79027449D01*
X118972550Y-82931236D01*
X119015919Y-82984081D01*
X119068764Y-83027450D01*
X119068766Y-83027452D01*
X119126292Y-83074662D01*
X119161928Y-83103908D01*
X119161928Y-83200000D01*
X119174188Y-83324482D01*
X119210498Y-83444180D01*
X119269463Y-83554494D01*
X119348815Y-83651185D01*
X119445506Y-83730537D01*
X119555820Y-83789502D01*
X119675518Y-83825812D01*
X119800000Y-83838072D01*
X122200000Y-83838072D01*
X122324482Y-83825812D01*
X122444180Y-83789502D01*
X122554494Y-83730537D01*
X122651185Y-83651185D01*
X122730537Y-83554494D01*
X122789502Y-83444180D01*
X122825812Y-83324482D01*
X122838072Y-83200000D01*
X122838072Y-82935000D01*
X124051447Y-82935000D01*
X124074662Y-82969744D01*
X124330256Y-83225338D01*
X124630801Y-83426156D01*
X124964750Y-83564482D01*
X125319268Y-83635000D01*
X125680732Y-83635000D01*
X126035250Y-83564482D01*
X126369199Y-83426156D01*
X126669744Y-83225338D01*
X126860082Y-83035000D01*
X132288447Y-83035000D01*
X139523446Y-90270000D01*
X129007332Y-90270001D01*
X128969999Y-90266324D01*
X128821013Y-90280998D01*
X128677753Y-90324454D01*
X128545723Y-90395026D01*
X128458997Y-90466201D01*
X128458992Y-90466206D01*
X128429999Y-90490000D01*
X128406205Y-90518993D01*
X126144449Y-92780750D01*
X126035250Y-92735518D01*
X125680732Y-92665000D01*
X125319268Y-92665000D01*
X124964750Y-92735518D01*
X124630801Y-92873844D01*
X124505000Y-92957902D01*
X124505000Y-92329835D01*
X124510007Y-92279000D01*
X124500655Y-92184048D01*
X124490024Y-92076105D01*
X124430841Y-91881007D01*
X124353090Y-91735544D01*
X124334734Y-91701202D01*
X124237803Y-91583092D01*
X124205396Y-91543604D01*
X124165908Y-91511197D01*
X109147808Y-76493098D01*
X109147803Y-76493092D01*
X104885318Y-72230608D01*
X104942600Y-71942633D01*
X104942600Y-71547367D01*
X104865487Y-71159696D01*
X104714226Y-70794519D01*
X104494628Y-70465867D01*
X104215133Y-70186372D01*
X103886481Y-69966774D01*
X103521304Y-69815513D01*
X103133633Y-69738400D01*
X102738367Y-69738400D01*
X102350696Y-69815513D01*
X101985519Y-69966774D01*
X101656867Y-70186372D01*
X101377372Y-70465867D01*
X101157774Y-70794519D01*
X101006513Y-71159696D01*
X100929400Y-71547367D01*
X100660000Y-71547367D01*
X100660000Y-64700881D01*
X102478724Y-64700881D01*
X102838912Y-65190548D01*
X103502882Y-65550849D01*
X104224385Y-65774694D01*
X104975695Y-65853480D01*
X105727938Y-65784178D01*
X106452208Y-65569452D01*
X107120670Y-65217555D01*
X107161088Y-65190548D01*
X107521276Y-64700881D01*
X105000000Y-62179605D01*
X102478724Y-64700881D01*
X100660000Y-64700881D01*
X100660000Y-61975695D01*
X101146520Y-61975695D01*
X101215822Y-62727938D01*
X101430548Y-63452208D01*
X101782445Y-64120670D01*
X101809452Y-64161088D01*
X102299119Y-64521276D01*
X104820395Y-62000000D01*
X105179605Y-62000000D01*
X107700881Y-64521276D01*
X108190548Y-64161088D01*
X108550849Y-63497118D01*
X108774694Y-62775615D01*
X108853480Y-62024305D01*
X108784178Y-61272062D01*
X108569452Y-60547792D01*
X108217555Y-59879330D01*
X108190548Y-59838912D01*
X107700881Y-59478724D01*
X105179605Y-62000000D01*
X104820395Y-62000000D01*
X102299119Y-59478724D01*
X101809452Y-59838912D01*
X101449151Y-60502882D01*
X101225306Y-61224385D01*
X101146520Y-61975695D01*
X100660000Y-61975695D01*
X100660000Y-59299119D01*
X102478724Y-59299119D01*
X105000000Y-61820395D01*
X107521276Y-59299119D01*
X107161088Y-58809452D01*
X106497118Y-58449151D01*
X105775615Y-58225306D01*
X105024305Y-58146520D01*
X104272062Y-58215822D01*
X103547792Y-58430548D01*
X102879330Y-58782445D01*
X102838912Y-58809452D01*
X102478724Y-59299119D01*
X100660000Y-59299119D01*
X100660000Y-59032279D01*
X100688625Y-58740341D01*
X100764035Y-58490571D01*
X100886522Y-58260208D01*
X101051422Y-58058020D01*
X101252450Y-57891714D01*
X101481954Y-57767622D01*
X101731195Y-57690469D01*
X102021088Y-57660000D01*
X190467721Y-57660000D01*
X190759659Y-57688625D01*
M02*
